<svg width="24" height="14" viewBox="0 0 24 14" fill="none" xmlns="http://www.w3.org/2000/svg">
<path d="M23.12 4.89476L19.25 0.984763C19.157 0.891035 19.0464 0.81664 18.9246 0.765872C18.8027 0.715103 18.672 0.688965 18.54 0.688965C18.408 0.688965 18.2773 0.715103 18.1554 0.765872C18.0336 0.81664 17.923 0.891035 17.83 0.984763C17.6437 1.17213 17.5392 1.42558 17.5392 1.68976C17.5392 1.95395 17.6437 2.2074 17.83 2.39476L21.39 5.98476H1C0.734784 5.98476 0.48043 6.09012 0.292893 6.27766C0.105357 6.46519 0 6.71955 0 6.98476H0C0 7.24998 0.105357 7.50433 0.292893 7.69187C0.48043 7.87941 0.734784 7.98476 1 7.98476H21.45L17.83 11.5948C17.7363 11.6877 17.6619 11.7983 17.6111 11.9202C17.5603 12.042 17.5342 12.1728 17.5342 12.3048C17.5342 12.4368 17.5603 12.5675 17.6111 12.6893C17.6619 12.8112 17.7363 12.9218 17.83 13.0148C17.923 13.1085 18.0336 13.1829 18.1554 13.2337C18.2773 13.2844 18.408 13.3106 18.54 13.3106C18.672 13.3106 18.8027 13.2844 18.9246 13.2337C19.0464 13.1829 19.157 13.1085 19.25 13.0148L23.12 9.13476C23.6818 8.57226 23.9974 7.80977 23.9974 7.01476C23.9974 6.21976 23.6818 5.45726 23.12 4.89476Z" fill="white"/>
</svg>
