<svg width="20" height="20" viewBox="0 0 20 20" fill="none" xmlns="http://www.w3.org/2000/svg">
<path d="M19.756 0.243993C19.5997 0.0877644 19.3878 0 19.1668 0C18.9459 0 18.7339 0.0877644 18.5777 0.243993L10 8.82165L1.42235 0.243993C1.26607 0.0877644 1.05414 0 0.83317 0C0.612196 0 0.400269 0.0877644 0.243993 0.243993C0.0877644 0.400269 0 0.612196 0 0.83317C0 1.05414 0.0877644 1.26607 0.243993 1.42235L8.82165 10L0.243993 18.5777C0.0877644 18.7339 0 18.9459 0 19.1668C0 19.3878 0.0877644 19.5997 0.243993 19.756C0.400269 19.9122 0.612196 20 0.83317 20C1.05414 20 1.26607 19.9122 1.42235 19.756L10 11.1784L18.5777 19.756C18.7339 19.9122 18.9459 20 19.1668 20C19.3878 20 19.5997 19.9122 19.756 19.756C19.9122 19.5997 20 19.3878 20 19.1668C20 18.9459 19.9122 18.7339 19.756 18.5777L11.1784 10L19.756 1.42235C19.9122 1.26607 20 1.05414 20 0.83317C20 0.612196 19.9122 0.400269 19.756 0.243993Z" fill="black"/>
</svg>
