<svg width="201" height="41" viewBox="0 0 201 41" fill="none" xmlns="http://www.w3.org/2000/svg">
<path d="M22.0402 9.43459C21.8111 8.39223 21.3855 7.41502 20.8618 6.47039C20.3381 5.52575 19.7489 4.71141 19.0615 3.99479C18.3741 3.27816 17.5558 2.65927 16.7047 2.10552C16.2464 1.81235 15.7227 1.55176 15.199 1.35632C14.6752 1.16087 14.1515 0.965438 13.5623 0.80257C13.0058 0.639702 12.4166 0.509405 11.8274 0.444258C11.2383 0.346537 10.6491 0.313965 9.99439 0.313965H0.960022V25.0048H9.99439C11.8275 25.0048 13.5296 24.7116 15.0353 24.1579C16.541 23.6041 17.8504 22.7898 18.996 21.6497C20.1417 20.5096 20.96 19.2393 21.5492 17.7409C22.1384 16.2425 22.4003 14.6464 22.4003 12.7897C22.433 11.617 22.2693 10.5095 22.0402 9.43459ZM16.9993 14.5812C16.9011 15.1024 16.7702 15.591 16.5738 16.0145C16.4101 16.4379 16.1482 16.7962 15.9191 17.122C15.69 17.4803 15.4281 17.7735 15.1662 18.034C15.0026 18.1969 14.7734 18.3598 14.577 18.4901C14.4134 18.6204 14.1842 18.7181 13.9878 18.8484C13.8242 18.9461 13.595 19.0438 13.3986 19.1415C13.2022 19.2393 12.9731 19.3044 12.8094 19.337L11.762 19.6301C11.4347 19.6627 11.1401 19.6953 10.9109 19.6953H10.1253C10.0926 19.6953 10.0926 19.6953 10.0926 19.6953H6.42647V5.68862H10.0926C11.1728 5.68862 12.1221 5.85149 13.0058 6.17723C13.8896 6.47039 14.6098 6.99156 15.2644 7.67561C15.9191 8.32708 16.3774 9.07627 16.672 9.95576C16.9993 10.8027 17.163 11.8125 17.163 12.8874C17.1302 13.4737 17.0975 14.0601 16.9993 14.5812Z" fill="#A1A1AA"/>
<path d="M27.7686 5.98213V25.0052H32.8749V5.98213H27.7686ZM27.7686 0.281738V3.44138H32.8749V0.281738H27.7686Z" fill="#A1A1AA"/>
<path d="M52.5803 0.281599V8.45759C52.2857 8.09928 51.9911 7.77354 51.5983 7.44781C51.2055 7.12207 50.8454 6.86148 50.3872 6.60089C49.9289 6.37287 49.4052 6.11228 48.8814 5.94942C48.3577 5.78655 47.7685 5.62368 47.1793 5.62368H47.0156C46.9502 5.62368 46.8847 5.62368 46.852 5.5911H46.4592C45.739 5.5911 45.0516 5.68882 44.2988 5.88426C43.5786 6.04713 42.8585 6.37287 42.1384 6.73118C41.4183 7.12207 40.7963 7.54553 40.2071 8.0667C39.6507 8.58788 39.1269 9.20678 38.6687 9.85826C38.4395 10.2491 38.2104 10.6075 38.014 10.9983C37.8503 11.4218 37.6539 11.8127 37.523 12.2687C37.3921 12.7247 37.2939 13.1808 37.1957 13.7019C37.1302 14.2231 37.0975 14.7117 37.0975 15.2329C37.0975 16.3078 37.1957 17.2851 37.4575 18.132C37.6867 19.044 38.014 19.8584 38.4723 20.575C38.9305 21.2916 39.4215 21.9105 40.0107 22.4968C40.5672 23.0506 41.1564 23.5718 41.8438 23.8975L42.9567 24.4513C43.3495 24.5816 43.7423 24.7118 44.1351 24.8421C44.5279 24.9399 44.9207 25.0376 45.3135 25.1027C45.739 25.1353 46.1318 25.1679 46.5246 25.1679H46.9174C47.4412 25.1679 47.9976 25.1027 48.5214 24.9399C49.0451 24.777 49.6016 24.5164 50.1253 24.2884C50.649 24.0604 51.1073 23.7346 51.5001 23.3763C51.9584 23.018 52.3184 22.6597 52.7112 22.2037C52.9076 22.8226 53.1367 23.3763 53.2677 23.8324L53.6277 25.005H57.7194V0.249023H52.5803V0.281599ZM52.1875 17.5131C51.9584 18.1645 51.5656 18.7509 51.0418 19.272C50.5181 19.7932 49.9616 20.2167 49.3397 20.4773C48.7178 20.7704 48.0631 20.9007 47.3102 20.9007C46.5901 20.9007 45.9354 20.7704 45.248 20.5098C44.5934 20.2493 44.0369 19.8258 43.5132 19.3046C42.9895 18.7834 42.5967 18.1971 42.3675 17.5456C42.1384 16.8942 41.9747 16.1776 41.9747 15.4284C41.9747 14.7117 42.1057 14.0277 42.3675 13.3436C42.5967 12.6922 42.9895 12.1058 43.5132 11.5847C44.0369 11.0635 44.5934 10.64 45.248 10.3794C45.87 10.0863 46.5246 9.95597 47.2775 9.95597C47.9976 9.95597 48.6523 10.0863 49.307 10.3794C49.9289 10.64 50.4854 11.0635 51.0091 11.5847C51.5328 12.1058 51.9256 12.6922 52.1548 13.3436C52.3839 13.9951 52.5476 14.6792 52.5803 15.4284C52.5803 16.1776 52.4494 16.8616 52.1875 17.5131Z" fill="#A1A1AA"/>
<path d="M62.2366 5.98213V25.0052H67.343V5.98213H62.2366ZM62.2366 0.281738V3.44138H67.343V0.281738H62.2366Z" fill="#A1A1AA"/>
<path d="M88.7178 11.6172C88.325 10.5423 87.7685 9.53253 87.0484 8.65304C86.3282 7.74098 85.4444 7.05693 84.3642 6.56833C83.284 6.1123 82.0729 5.88428 80.6654 5.88428H80.5345C79.7489 5.88428 78.9633 5.982 78.2431 6.21001C77.523 6.40546 76.8683 6.7312 76.1809 7.12208C75.5263 7.54554 74.9043 8.03414 74.3806 8.55532C73.8569 9.10907 73.3986 9.72797 73.0386 10.4446C72.8422 10.8355 72.6458 11.1938 72.4821 11.6172C72.3184 12.0081 72.1548 12.399 72.0566 12.8551C71.9584 13.3111 71.8602 13.7671 71.762 14.2231C71.7292 14.6792 71.6965 15.1678 71.6965 15.5912V16.2101C71.6965 16.2753 71.6965 16.3404 71.7292 16.4056C71.8274 17.676 72.122 18.816 72.6458 19.891C73.1695 20.9659 73.8569 21.9105 74.7407 22.7249C75.5917 23.5066 76.6065 24.1255 77.7194 24.549C78.8323 24.9724 80.0435 25.1679 81.3855 25.1679C82.0075 25.1679 82.6294 25.1027 83.284 24.9399C83.906 24.8096 84.5279 24.5816 85.1826 24.2884C85.8372 23.9952 86.4264 23.6695 86.9502 23.2786C87.4739 22.8877 87.9649 22.4643 88.4232 21.9757L85.0189 18.5554C85.0189 18.588 85.0189 18.588 85.0189 18.588C85.0189 18.588 85.0189 18.588 84.9862 18.588C84.8225 18.7834 84.5606 19.0115 84.2988 19.1743L83.3822 19.7281C83.0549 19.891 82.7276 20.0213 82.3675 20.119C82.0075 20.2167 81.6801 20.2493 81.3528 20.2493C80.8291 20.2493 80.3053 20.1841 79.8143 20.0538C79.3233 19.9235 78.8651 19.6955 78.505 19.4023C78.1122 19.0766 77.7849 18.7509 77.523 18.36C77.2284 17.9365 77.0647 17.4479 76.9665 16.9593H89.0778C89.1105 16.7965 89.1433 16.5684 89.1433 16.373L89.2087 15.7541V15.2981C89.2087 15.2004 89.2087 15.1352 89.2087 15.1352C89.2742 13.8648 89.0778 12.6922 88.7178 11.6172ZM76.9665 13.7997C77.032 13.3437 77.1629 12.8876 77.3593 12.5293C77.5557 12.1059 77.8503 11.7801 78.1449 11.4544C78.4723 11.1612 78.8323 10.9006 79.2579 10.7378C79.6834 10.5749 80.1089 10.5097 80.6327 10.5097C81.2219 10.5097 81.7129 10.6075 82.1711 10.8029C82.6294 10.9658 82.9567 11.2589 83.284 11.5847C83.6114 11.943 83.8078 12.2687 83.9714 12.6596C84.1351 13.0505 84.2988 13.4414 84.397 13.8648C82.7603 13.8323 80.2726 13.8323 76.9665 13.7997Z" fill="#A1A1AA"/>
<path d="M104.757 5.88428H103.644C103.579 5.88428 103.513 5.88428 103.448 5.91685C102.924 5.94943 102.433 6.01457 101.975 6.21001C101.516 6.37288 101.058 6.60091 100.698 6.82892C100.273 7.05694 99.9125 7.38267 99.5197 7.67583C99.1269 8.00157 98.8323 8.35988 98.505 8.75077V5.982H93.3004C93.3331 10.2166 93.3332 13.93 93.3332 17.0571V25.005H98.505V16.5684C98.505 15.7867 98.6032 15.0049 98.7996 14.3209C98.9633 13.6694 99.2251 13.0505 99.5852 12.4967C99.978 11.9104 100.404 11.487 100.96 11.2264C101.516 10.9332 102.171 10.8029 102.924 10.8029C103.022 10.8029 103.153 10.8029 103.284 10.8355C103.415 10.8355 103.513 10.8355 103.644 10.8681L104.004 10.9332C104.102 10.9332 104.201 10.9658 104.332 10.9983C104.43 9.85827 104.561 8.84848 104.692 8.03414L104.921 5.88428C104.855 5.88428 104.79 5.88428 104.757 5.88428Z" fill="#A1A1AA"/>
<path d="M123.939 19.8582V0.313965H118.701V25.0048H136.606V19.8582H123.939Z" fill="#A1A1AA"/>
<path d="M157.392 11.6172C156.999 10.5423 156.443 9.53253 155.723 8.65304C155.003 7.74098 154.119 7.05693 153.039 6.56833C151.958 6.1123 150.747 5.88428 149.34 5.88428H149.209C148.423 5.88428 147.638 5.982 146.917 6.21001C146.197 6.40546 145.543 6.7312 144.855 7.12208C144.201 7.54554 143.579 8.03414 143.055 8.55532C142.531 9.10907 142.073 9.72797 141.713 10.4446C141.516 10.8355 141.32 11.1938 141.156 11.6172C140.993 12.0081 140.829 12.399 140.731 12.8551C140.633 13.3111 140.534 13.7671 140.436 14.2231C140.404 14.6792 140.371 15.1678 140.371 15.5912V16.2101C140.371 16.2753 140.371 16.3404 140.404 16.4056C140.502 17.676 140.796 18.816 141.32 19.891C141.844 20.9659 142.531 21.9105 143.415 22.7249C144.266 23.5066 145.281 24.1255 146.394 24.549C147.507 24.9724 148.718 25.1679 150.06 25.1679C150.682 25.1679 151.304 25.1027 151.958 24.9399C152.58 24.8096 153.202 24.5816 153.857 24.2884C154.512 23.9952 155.101 23.6695 155.624 23.2786C156.148 22.8877 156.639 22.4643 157.097 21.9757L153.693 18.5554C153.693 18.588 153.693 18.588 153.693 18.588C153.693 18.588 153.693 18.588 153.66 18.588C153.497 18.7834 153.235 19.0115 152.973 19.1743L152.057 19.7281C151.729 19.891 151.402 20.0213 151.042 20.119C150.682 20.2167 150.354 20.2493 150.027 20.2493C149.503 20.2493 148.98 20.1841 148.489 20.0538C147.998 19.9235 147.539 19.6955 147.179 19.4023C146.787 19.0766 146.459 18.7509 146.197 18.36C145.903 17.9365 145.739 17.4479 145.641 16.9593H157.752C157.785 16.7965 157.818 16.5684 157.818 16.373L157.883 15.7541V15.2981C157.883 15.2004 157.883 15.1352 157.883 15.1352C157.949 13.8648 157.785 12.6922 157.392 11.6172ZM145.674 13.7997C145.739 13.3437 145.87 12.8876 146.066 12.5293C146.263 12.1059 146.557 11.7801 146.852 11.4544C147.179 11.1612 147.539 10.9006 147.965 10.7378C148.39 10.5749 148.816 10.5097 149.34 10.5097C149.929 10.5097 150.42 10.6075 150.878 10.8029C151.336 10.9658 151.664 11.2589 151.991 11.5847C152.318 11.943 152.515 12.2687 152.678 12.6596C152.842 13.0505 153.006 13.4414 153.104 13.8648C151.467 13.8323 148.947 13.8323 145.674 13.7997Z" fill="#A1A1AA"/>
<path d="M169.274 8.1645C169.274 7.77362 169.274 7.48045 169.307 7.18729L169.372 6.50325L169.503 5.98207C169.536 5.85178 169.602 5.75405 169.7 5.62376L169.863 5.49346C169.896 5.42832 169.962 5.36317 170.06 5.3306L170.387 5.23287C170.518 5.2003 170.682 5.2003 170.911 5.2003H171.304C171.435 5.2003 171.566 5.2003 171.762 5.23287L172.875 5.36317C172.973 4.64655 173.104 3.14816 173.366 0.900575C173.137 0.802854 172.842 0.737705 172.613 0.705131C172.384 0.639984 172.122 0.574837 171.893 0.542263L171.205 0.41197C170.976 0.379397 170.747 0.379395 170.518 0.379395C170.125 0.379395 169.798 0.411972 169.438 0.444546C169.045 0.47712 168.718 0.509693 168.39 0.607414L167.376 0.933151C167.081 1.06345 166.787 1.25889 166.459 1.42176L165.903 1.81263C165.739 1.9755 165.575 2.17095 165.444 2.33381L165.084 2.92015C164.986 3.08302 164.921 3.31103 164.79 3.50647C164.626 3.89735 164.528 4.28824 164.43 4.7117C164.364 5.13516 164.332 5.52604 164.299 5.98207C164.266 6.4381 164.266 6.79641 164.266 7.18729V8.75083C164.266 8.78341 164.266 8.78341 164.266 8.78341H161.877V12.6271H164.299V25.2657H169.209V12.5945H173.137C173.137 11.9756 173.137 10.7053 173.169 8.78341H169.242V8.1645H169.274Z" fill="#A1A1AA"/>
<path d="M191.14 5.94963V8.65324C190.878 8.29493 190.551 7.9692 190.158 7.64346C189.798 7.31773 189.438 7.02456 188.98 6.79655C188.521 6.50338 187.998 6.30794 187.474 6.17765C186.95 6.01478 186.361 5.88449 185.772 5.85191C185.739 5.81934 185.674 5.81934 185.608 5.81934H185.084C184.364 5.81934 183.644 5.91705 182.924 6.07992C182.204 6.24279 181.516 6.50338 180.764 6.86169C180.043 7.25257 179.422 7.64346 178.832 8.16463C178.276 8.68581 177.752 9.30471 177.294 9.95619C177.065 10.3471 176.836 10.7054 176.672 11.0963C176.508 11.5197 176.312 11.9106 176.181 12.3666C176.05 12.8227 175.952 13.2787 175.854 13.7347C175.788 14.2233 175.755 14.7119 175.755 15.2331C175.755 15.8194 175.788 16.3406 175.854 16.8618C175.919 17.383 176.017 17.9042 176.181 18.3602C176.279 18.8162 176.476 19.2723 176.639 19.6957C176.836 20.1192 177.065 20.5101 177.294 20.9009C177.752 21.585 178.276 22.2039 178.832 22.7251C179.422 23.2462 180.043 23.7023 180.764 24.0606C181.451 24.4515 182.138 24.6795 182.891 24.8424C183.611 25.0052 184.332 25.1029 185.084 25.1029H185.444C185.968 25.1029 186.525 25.0378 187.048 24.8749C187.572 24.7121 188.096 24.484 188.62 24.256C189.143 24.028 189.602 23.7023 190.06 23.344C190.485 22.9857 190.845 22.6273 191.238 22.1713C191.402 22.7902 191.631 23.344 191.762 23.8L192.155 24.9727H196.181V5.88448H191.14V5.94963ZM190.813 17.5784C190.584 18.1973 190.191 18.7837 189.667 19.3048C189.143 19.826 188.587 20.2495 187.965 20.5101C187.343 20.7381 186.688 20.9009 185.935 20.9009C185.215 20.9009 184.561 20.7706 183.971 20.5101C183.35 20.2495 182.793 19.826 182.269 19.3048C181.746 18.7837 181.353 18.1973 181.124 17.5459C180.895 16.8944 180.731 16.2103 180.731 15.4611C180.731 14.7445 180.862 14.0605 181.124 13.3764C181.353 12.7575 181.746 12.1712 182.269 11.65C182.793 11.1288 183.35 10.7054 183.939 10.4448C184.528 10.2168 185.183 10.0539 185.903 10.0539C186.623 10.0539 187.277 10.1842 187.932 10.4448C188.554 10.738 189.111 11.1288 189.634 11.65C190.158 12.1712 190.551 12.7575 190.78 13.3764C191.009 14.0279 191.205 14.7119 191.205 15.4611C191.238 16.2429 191.042 16.927 190.813 17.5784Z" fill="#A1A1AA"/>
<path d="M200.96 0.379395V6.14494H199.291V2.36639H195.919V0.379395H200.96Z" fill="#A1A1AA"/>
<path d="M54.086 37.155C53.6605 37.5785 53.1368 37.8065 52.5148 37.8065H50.9764V40.445H49.8962V36.8944V33.3765H52.4821C53.0713 33.3765 53.6278 33.6045 54.0533 34.0279C54.4788 34.4514 54.708 34.9726 54.708 35.5915C54.708 36.2104 54.5116 36.699 54.086 37.155ZM53.3332 34.7446C53.104 34.5165 52.8422 34.4188 52.5148 34.4188H50.9764V35.5263V36.7315H52.5148C52.8422 36.7315 53.104 36.6013 53.3332 36.3732C53.5623 36.1452 53.6932 35.8846 53.6932 35.5589C53.6605 35.2657 53.5623 34.9726 53.3332 34.7446Z" fill="#A1A1AA"/>
<path d="M62.4657 33.3765V40.445H61.4183V37.3505L57.2939 37.9042V40.445H56.2464V35.168V33.409H57.2939V36.8944L61.4183 36.3407V33.4416H62.4657V33.3765Z" fill="#A1A1AA"/>
<path d="M66.6229 40.4446C66.3283 40.3795 66.0337 40.2492 65.7718 40.0863C65.5099 39.9234 65.2481 39.728 65.0189 39.5325C64.7898 39.3371 64.6261 39.0765 64.4297 38.8159C64.3315 38.6531 64.2661 38.5228 64.2006 38.3599C64.1351 38.197 64.0697 38.0667 64.0369 37.8713C64.0042 37.6758 63.9387 37.5455 63.9387 37.3827C63.906 37.2198 63.906 37.0244 63.906 36.8615C63.906 36.6986 63.906 36.5032 63.9387 36.3403C63.9715 36.1774 64.0042 36.0146 64.0369 35.8517C64.0697 35.6888 64.1351 35.526 64.2006 35.3631C64.2661 35.2002 64.3315 35.0699 64.4297 34.9396C64.5934 34.6791 64.7898 34.451 65.0189 34.223C65.2481 34.0276 65.5099 33.8321 65.7718 33.6693C66.0337 33.5064 66.3283 33.4087 66.6229 33.311C66.9175 33.2132 67.2448 33.1807 67.5721 33.1807C67.8995 33.1807 68.2268 33.2132 68.5214 33.311C68.816 33.4087 69.1106 33.5064 69.3725 33.6693C69.6343 33.8321 69.8962 34.0276 70.1253 34.223C70.3545 34.4185 70.5181 34.6465 70.7145 34.9071C70.8127 35.07 70.8782 35.2002 70.9436 35.3305C71.0091 35.4608 71.0746 35.6237 71.1073 35.7866C71.14 35.9494 71.2055 36.1123 71.2055 36.2752C71.2383 36.438 71.2383 36.6335 71.2383 36.7964C71.2383 36.9592 71.2383 37.1547 71.2055 37.3175C71.1728 37.4804 71.14 37.6433 71.1073 37.8061C71.0746 37.969 71.0091 38.1319 70.9436 38.2947C70.8782 38.4576 70.8127 38.5879 70.7145 38.7182C70.5509 38.9788 70.3545 39.2068 70.1253 39.4348C69.8962 39.6628 69.6671 39.8257 69.3725 39.9886C69.1106 40.1514 68.816 40.2491 68.5214 40.3469C68.2268 40.4446 67.8995 40.4772 67.5721 40.4772C67.2448 40.5423 66.9175 40.5098 66.6229 40.4446ZM67.2121 34.2556C67.0811 34.2882 66.9502 34.3207 66.852 34.3207C66.7538 34.3207 66.6229 34.3859 66.5247 34.451C66.4265 34.5162 66.3283 34.5488 66.2301 34.6139C66.0337 34.7442 65.87 34.8745 65.7391 35.0374C65.6081 35.2002 65.4445 35.3631 65.3463 35.5586C65.2481 35.754 65.1499 35.9494 65.0844 36.1774C65.0189 36.4055 64.9862 36.6335 64.9862 36.8615C64.9862 36.9918 64.9862 37.1221 65.0189 37.2198C65.0517 37.3501 65.0844 37.4804 65.0844 37.5781C65.1171 37.7084 65.1499 37.8061 65.2153 37.9364C65.2808 38.0667 65.3135 38.1319 65.379 38.2296C65.5099 38.425 65.6409 38.5879 65.7718 38.7508C65.9355 38.9136 66.0991 39.0439 66.2955 39.1417C66.4919 39.2394 66.6883 39.3371 66.8847 39.4022C67.1139 39.4674 67.343 39.5 67.5721 39.5C67.8013 39.5 68.0304 39.4674 68.2268 39.4022C68.4232 39.3371 68.6523 39.2394 68.816 39.1417C69.0124 39.0114 69.1761 38.8811 69.3397 38.7508C69.5034 38.5879 69.6343 38.425 69.7325 38.2296C69.798 38.1319 69.8635 38.0342 69.8962 37.9364C69.9289 37.8387 69.9944 37.7084 70.0271 37.6107C70.0599 37.513 70.0926 37.3827 70.0926 37.2524C70.1253 37.1221 70.1253 37.0244 70.1253 36.8941V36.8615C70.1253 36.7312 70.1253 36.6009 70.0926 36.5032C70.0599 36.3729 70.0271 36.2752 70.0271 36.1449C69.9944 36.0146 69.9617 35.9169 69.8962 35.7866L69.7325 35.4608C69.6343 35.2654 69.4707 35.1025 69.3397 34.9722C69.2088 34.8419 69.0124 34.6791 68.816 34.5813C68.6196 34.4836 68.4232 34.3859 68.1941 34.3207C67.9649 34.2556 67.7358 34.2556 67.5067 34.223C67.4412 34.2556 67.3103 34.2556 67.2121 34.2556Z" fill="#A1A1AA"/>
<path d="M77.9813 34.3861H75.559V40.4122H74.5116V34.3861H72.0893V33.3438H77.9813V34.3861Z" fill="#A1A1AA"/>
<path d="M81.6474 40.4446C81.3528 40.3795 81.0582 40.2492 80.7963 40.0863C80.5345 39.9234 80.2726 39.728 80.0435 39.5325C79.8143 39.3371 79.6507 39.0765 79.4543 38.8159C79.3561 38.6531 79.2906 38.5228 79.2251 38.3599C79.1597 38.197 79.0942 38.0667 79.0615 37.8713C79.0287 37.6758 78.9633 37.5455 78.9633 37.3827C78.9305 37.2198 78.9305 37.0244 78.9305 36.8615C78.9305 36.6986 78.9305 36.5032 78.9633 36.3403C78.996 36.1774 79.0287 36.0146 79.0615 35.8517C79.0942 35.6888 79.1597 35.526 79.2251 35.3631C79.2906 35.2002 79.3561 35.0699 79.4543 34.9396C79.6179 34.6791 79.8143 34.451 80.0435 34.223C80.2726 34.0276 80.5345 33.8321 80.7963 33.6693C81.0582 33.5064 81.3528 33.4087 81.6474 33.311C81.942 33.2132 82.2693 33.1807 82.5967 33.1807C82.924 33.1807 83.2513 33.2132 83.5459 33.311C83.8405 33.4087 84.1351 33.5064 84.397 33.6693C84.6589 33.8321 84.9207 34.0276 85.1499 34.223C85.379 34.4185 85.5427 34.6465 85.7391 34.9071C85.8373 35.07 85.9027 35.2002 85.9682 35.3305C86.0337 35.4608 86.0991 35.6237 86.1319 35.7866C86.1646 35.9494 86.2301 36.1123 86.2301 36.2752C86.2628 36.438 86.2628 36.6335 86.2628 36.7964C86.2628 36.9592 86.2628 37.1547 86.2301 37.3175C86.1973 37.4804 86.1646 37.6433 86.1319 37.8061C86.0991 37.969 86.0337 38.1319 85.9682 38.2947C85.9027 38.4576 85.8373 38.5879 85.7391 38.7182C85.5754 38.9788 85.379 39.2068 85.1499 39.4348C84.9207 39.6628 84.6916 39.8257 84.397 39.9886C84.1351 40.1514 83.8405 40.2491 83.5459 40.3469C83.2513 40.4446 82.924 40.4772 82.5967 40.4772C82.2693 40.5423 81.942 40.5098 81.6474 40.4446ZM82.2039 34.2556C82.0729 34.2882 81.942 34.3207 81.8438 34.3207C81.7456 34.3207 81.6147 34.3859 81.5165 34.451C81.4183 34.5162 81.3201 34.5488 81.2219 34.6139C81.0255 34.7442 80.8618 34.8745 80.7309 35.0374C80.5999 35.2002 80.4363 35.3631 80.3381 35.5586C80.2399 35.754 80.1417 35.9494 80.0762 36.1774C80.0107 36.4055 79.978 36.6335 79.978 36.8615C79.978 36.9918 79.978 37.1221 80.0107 37.2198C80.0435 37.3501 80.0762 37.4804 80.0762 37.5781C80.1089 37.7084 80.1417 37.8061 80.2071 37.9364C80.2726 38.0667 80.3053 38.1319 80.3708 38.2296C80.5017 38.425 80.6327 38.5879 80.7636 38.7508C80.9273 38.9136 81.0909 39.0439 81.2873 39.1417C81.4837 39.2394 81.6801 39.3371 81.8765 39.4022C82.1057 39.4674 82.3348 39.5 82.5639 39.5C82.7931 39.5 83.0222 39.4674 83.2186 39.4022C83.415 39.3371 83.6441 39.2394 83.8078 39.1417C84.0042 39.0114 84.1679 38.8811 84.3315 38.7508C84.4952 38.5879 84.6261 38.425 84.7243 38.2296C84.7898 38.1319 84.8553 38.0342 84.888 37.9364C84.9207 37.8387 84.9862 37.7084 85.0189 37.6107C85.0517 37.513 85.0844 37.3827 85.0844 37.2524C85.1171 37.1221 85.1171 37.0244 85.1171 36.8941V36.8615C85.1171 36.7312 85.1171 36.6009 85.0844 36.5032C85.0517 36.3729 85.0189 36.2752 85.0189 36.1449C84.9862 36.0146 84.9535 35.9169 84.888 35.7866L84.7243 35.4608C84.6261 35.2654 84.4625 35.1025 84.3315 34.9722C84.2006 34.8419 84.0042 34.6791 83.8078 34.5813C83.6114 34.4836 83.415 34.3859 83.1859 34.3207C82.9567 34.2556 82.7276 34.2556 82.4985 34.223C82.4657 34.2556 82.3348 34.2556 82.2039 34.2556Z" fill="#A1A1AA"/>
<path d="M93.4968 36.7639V39.2721C93.4314 39.3698 93.3331 39.4349 93.2677 39.5327C93.2022 39.6304 93.104 39.6955 93.0058 39.7607L92.7439 39.9561C92.6457 40.0213 92.5475 40.0864 92.4494 40.119C92.3184 40.1842 92.1875 40.2493 92.0565 40.2819C91.9256 40.3145 91.7947 40.3796 91.631 40.4122C91.4674 40.4447 91.3364 40.4773 91.2055 40.4773C91.0746 40.4773 90.9109 40.5099 90.7472 40.5099C90.5836 40.5099 90.3872 40.5099 90.2235 40.4773C90.0598 40.4447 89.8962 40.4122 89.7325 40.3796C89.5688 40.347 89.4052 40.2819 89.2415 40.2167C89.0778 40.1516 88.9469 40.0539 88.816 39.9887C88.5541 39.8258 88.325 39.6304 88.0958 39.4024C87.8994 39.1744 87.703 38.9138 87.5394 38.6532C87.3757 38.3926 87.2775 38.0994 87.1793 37.8063C87.0811 37.5131 87.0484 37.1874 87.0484 36.8616C87.0484 36.5359 87.0811 36.2102 87.1793 35.917C87.2775 35.6238 87.3757 35.3307 87.5394 35.0701C87.703 34.8095 87.8994 34.5489 88.0958 34.3209C88.2922 34.0929 88.5541 33.93 88.816 33.7346C88.9796 33.6368 89.1106 33.5717 89.2415 33.5065C89.3724 33.4414 89.5361 33.3762 89.6998 33.3437C89.8634 33.3111 90.0271 33.2459 90.1908 33.2459C90.3544 33.2134 90.5508 33.2134 90.7145 33.2134C90.9436 33.2134 91.1728 33.246 91.4019 33.2785C91.631 33.3111 91.8601 33.3762 92.0565 33.474C92.2529 33.5717 92.4494 33.6694 92.6458 33.7671C92.8422 33.8649 93.0058 34.0277 93.1695 34.158L92.3839 34.9072C92.2857 34.8095 92.1548 34.7118 92.0238 34.6466C91.8929 34.5815 91.762 34.4837 91.631 34.4512C91.4674 34.386 91.3364 34.3534 91.1728 34.3209C91.0091 34.2883 90.8782 34.2883 90.6818 34.2883C90.5508 34.2883 90.4199 34.2883 90.3217 34.3209C90.1908 34.3534 90.0598 34.386 89.9616 34.386C89.8634 34.386 89.7325 34.4512 89.6343 34.5163C89.5361 34.5815 89.4379 34.614 89.307 34.6792C89.1106 34.7769 88.9469 34.9398 88.816 35.0701C88.685 35.2004 88.5214 35.3958 88.4232 35.5913C88.325 35.7867 88.2268 35.9821 88.1613 36.2102C88.0958 36.4382 88.0958 36.6662 88.0958 36.8942C88.0958 37.1222 88.1286 37.3502 88.1613 37.5457C88.2268 37.7737 88.325 37.9691 88.4232 38.1646C88.5214 38.36 88.685 38.5229 88.816 38.6858C88.9469 38.8486 89.1106 38.9789 89.307 39.0766C89.4052 39.1418 89.5034 39.2069 89.6016 39.2395C89.6998 39.2721 89.8307 39.3372 89.9289 39.3698C90.0271 39.4024 90.158 39.4349 90.289 39.4349C90.4199 39.4675 90.5508 39.4675 90.6818 39.4675C90.8454 39.4675 91.0091 39.4675 91.1728 39.4349C91.3364 39.4024 91.4674 39.3698 91.631 39.3372C91.7947 39.3047 91.8929 39.2395 92.0238 39.1744C92.1548 39.1092 92.2857 39.0115 92.3839 38.9138V37.8063H90.5836V36.7313H93.4968V36.7639Z" fill="#A1A1AA"/>
<path d="M100.6 39.8911L100.273 40.1842C100.142 40.3145 100.011 40.4448 99.8143 40.6077C98.4723 39.207 97.5885 38.2624 97.1629 37.7738H96.2792V40.4122H95.2317V36.8617V33.3438H98.1122C98.4068 33.3438 98.7014 33.4089 98.9633 33.5066C99.2251 33.6043 99.4543 33.7672 99.6834 33.9952C99.9125 34.2232 100.076 34.4513 100.174 34.7118C100.273 34.9724 100.338 35.2656 100.338 35.5588C100.338 35.8194 100.305 36.0799 100.207 36.308C100.109 36.536 99.978 36.764 99.8143 36.9594C99.6507 37.1549 99.4543 37.3177 99.2579 37.448C99.0615 37.5783 98.8323 37.6761 98.5705 37.7086L100.6 39.8911ZM98.1122 36.7314C98.2759 36.7314 98.4068 36.6988 98.5705 36.6663C98.7014 36.6011 98.8323 36.5034 98.9633 36.4057C99.0942 36.308 99.1597 36.1777 99.2251 36.0148C99.2906 35.8845 99.2906 35.7216 99.2906 35.5588C99.2906 35.3959 99.2579 35.233 99.2251 35.1027C99.1597 34.9724 99.0615 34.8421 98.9633 34.7118C98.8651 34.6141 98.7341 34.5164 98.6032 34.4513C98.4723 34.3861 98.3086 34.3535 98.1449 34.3535H96.3119V36.6663H98.1122V36.7314Z" fill="#A1A1AA"/>
<path d="M106.426 38.8487C106.066 38.7836 105.575 38.751 105.019 38.6858C104.462 38.6207 103.808 38.5555 103.055 38.4578L102.728 39.2722C102.597 39.6305 102.433 40.0214 102.269 40.4122H101.255L104.102 33.3438H105.248H105.281L108.129 40.4122H107.081C106.819 39.7282 106.59 39.1744 106.426 38.8487ZM106.066 37.9367L105.477 36.4708L104.659 34.4838L103.382 37.6109L106.066 37.9367Z" fill="#A1A1AA"/>
<path d="M113.202 37.155C112.777 37.5785 112.253 37.8065 111.631 37.8065H110.093V40.445H109.045V36.8944V33.3765H111.631C112.22 33.3765 112.777 33.6045 113.202 34.0279C113.628 34.4514 113.857 34.9726 113.857 35.5915C113.857 36.2104 113.628 36.699 113.202 37.155ZM112.449 34.7446C112.22 34.5165 111.958 34.4188 111.631 34.4188H110.093V35.5263V36.7315H111.631C111.958 36.7315 112.22 36.6013 112.449 36.3732C112.678 36.1452 112.809 35.8846 112.809 35.5589C112.809 35.2657 112.678 34.9726 112.449 34.7446Z" fill="#A1A1AA"/>
<path d="M121.615 33.3765V40.445H120.567V37.3505L116.443 37.9042V40.445H115.363V35.168V33.409H116.41V36.8944L120.534 36.3407V33.4416H121.615V33.3765Z" fill="#A1A1AA"/>
<path d="M126.656 37.676V40.4122H125.608V37.676L122.564 33.7672L123.055 33.3763L123.415 33.1157L126.165 36.6337C126.754 35.8519 127.31 35.1679 127.768 34.5815C128.227 33.9952 128.587 33.5066 128.914 33.1157L129.405 33.5066L129.765 33.7672L126.656 37.676Z" fill="#A1A1AA"/>
</svg>
