<svg width="143" height="32" viewBox="0 0 143 32" fill="none" xmlns="http://www.w3.org/2000/svg">
<path d="M14.9851 28.4376C15.1797 27.9367 15.2724 27.4021 15.258 26.865C15.2876 25.3764 15.6855 23.9184 16.416 22.621C17.1447 21.3258 18.1838 20.2321 19.44 19.438C19.9051 19.1885 20.3147 18.8473 20.6442 18.4349C20.9736 18.0225 21.216 17.5476 21.3566 17.0389C21.4972 16.5301 21.5331 15.9982 21.4622 15.4751C21.3912 14.9521 21.215 14.4489 20.944 13.996C20.582 13.391 20.061 12.895 19.44 12.565C19.084 12.318 18.742 12.052 18.416 11.767L17.599 10.967C16.1019 9.3932 15.2624 7.30708 15.252 5.135C15.2674 4.59777 15.1751 4.06288 14.9805 3.56188C14.786 3.06089 14.493 2.60395 14.119 2.218C13.7466 1.83249 13.3004 1.52595 12.8069 1.31668C12.3135 1.10742 11.7829 0.999714 11.247 1C10.7113 1.00076 10.1812 1.10894 9.68806 1.31815C9.19493 1.52735 8.74876 1.83334 8.37596 2.218C8.00258 2.60462 7.71006 3.06183 7.51552 3.56287C7.32097 4.06391 7.22831 4.59872 7.24296 5.136C7.25169 5.83344 7.44379 6.5163 7.79996 7.116C8.15489 7.71469 8.66165 8.20902 9.26896 8.549C11.728 10.105 13.439 13.08 13.439 16.006C13.4329 18.1592 12.6094 20.2298 11.135 21.799L9.27495 23.451C8.66796 23.79 8.16096 24.284 7.80496 24.884C7.44796 25.483 7.25696 26.167 7.24796 26.865C7.23266 27.4022 7.32502 27.9371 7.51961 28.438C7.71419 28.939 8.00705 29.396 8.38095 29.782C8.75339 30.1674 9.19963 30.4739 9.69305 30.6832C10.1865 30.8924 10.717 31.0002 11.253 31C11.7888 30.9994 12.3191 30.8913 12.8124 30.682C13.3057 30.4728 13.752 30.1668 14.125 29.782C14.4982 29.3955 14.7906 28.9384 14.9851 28.4376Z" fill="white"/>
<path d="M20.417 7.36C19.976 6.698 19.741 5.919 19.741 5.123C19.7416 4.05673 20.164 3.034 20.916 2.278C21.5698 1.62024 22.4321 1.2105 23.355 1.11909C24.2779 1.02768 25.2038 1.26028 25.974 1.777C26.6336 2.2199 27.1472 2.84836 27.45 3.583C27.7527 4.31848 27.8317 5.12692 27.6771 5.9071C27.5226 6.68728 27.1413 7.40452 26.581 7.969C26.0224 8.53193 25.3087 8.91563 24.531 9.07112C23.7534 9.22661 22.9471 9.14685 22.215 8.842C21.4821 8.53685 20.8564 8.02107 20.417 7.36Z" fill="white"/>
<path d="M21.522 23.518C22.181 23.076 22.956 22.84 23.748 22.84V22.838C24.2744 22.8386 24.7956 22.9432 25.2816 23.1457C25.7676 23.3482 26.2088 23.6446 26.58 24.018C27.2359 24.6779 27.6439 25.544 27.735 26.47C27.8261 27.3959 27.5947 28.3249 27.08 29.1C26.6405 29.762 26.0144 30.2785 25.281 30.584C24.5488 30.8888 23.7425 30.9686 22.9649 30.8131C22.1872 30.6576 21.4735 30.2739 20.915 29.711C20.3545 29.1464 19.973 28.429 19.8184 27.6486C19.6639 26.8683 19.743 26.0596 20.046 25.324C20.3487 24.5894 20.8623 23.9609 21.522 23.518Z" fill="white"/>
<path d="M33.325 13.758C33.7648 14.4198 33.9998 15.1974 34 15.9931C33.9993 17.0597 33.5769 18.0827 32.825 18.839C32.4537 19.2122 32.0124 19.5086 31.5265 19.7111C31.0405 19.9136 30.5194 20.0182 29.993 20.019C29.2001 20.019 28.4252 19.783 27.767 19.341C27.1073 18.8981 26.5937 18.2696 26.291 17.535C25.988 16.7994 25.9089 15.9907 26.0634 15.2104C26.218 14.43 26.5995 13.7126 27.16 13.148C27.7186 12.5849 28.4325 12.2011 29.2103 12.0456C29.9882 11.8901 30.7947 11.9699 31.527 12.275C32.2599 12.5804 32.8857 13.0966 33.325 13.758Z" fill="white"/>
<path d="M2.78099 12.647C3.43999 12.205 4.21399 11.969 5.00699 11.969C5.53334 11.9701 6.0543 12.075 6.54007 12.2776C7.02585 12.4803 7.4669 12.7767 7.83799 13.15C8.49361 13.8097 8.90141 14.6754 8.99251 15.601C9.08361 16.5265 8.85242 17.4552 8.338 18.23C7.89866 18.8914 7.2729 19.4075 6.53999 19.713C5.80763 20.0164 5.00166 20.0953 4.22434 19.9399C3.44702 19.7845 2.73339 19.4017 2.17399 18.84C1.6137 18.2755 1.23239 17.5583 1.07781 16.7781C0.923231 15.9979 1.00226 15.1895 1.30499 14.454C1.60759 13.719 2.12121 13.0902 2.78099 12.647Z" fill="white"/>
<path d="M58.664 11.136L56.624 18.528L54.44 11.136H51.512L49.328 18.504L47.288 11.136H44L47.816 23.136H50.768L52.976 15.864L55.184 23.136H58.136L61.952 11.136H58.664ZM68.864 23.472C72.392 23.472 75.224 20.712 75.224 17.136C75.224 13.56 72.392 10.8 68.864 10.8C65.336 10.8 62.528 13.56 62.528 17.136C62.528 20.712 65.336 23.472 68.864 23.472ZM68.864 20.448C67.04 20.448 65.624 19.08 65.624 17.136C65.624 15.192 67.04 13.824 68.864 13.824C70.712 13.824 72.128 15.192 72.128 17.136C72.128 19.08 70.712 20.448 68.864 20.448ZM80.498 13.2V11.136H77.402V23.136H80.498V17.4C80.498 14.88 82.538 14.16 84.146 14.352V10.896C82.634 10.896 81.122 11.568 80.498 13.2ZM97.02 23.136L92.053 17.064L96.877 11.136H93.18L89.052 16.416V6.336H85.956V23.136H89.052V17.688L93.42 23.136H97.02ZM105.022 6C101.206 6 99.382 7.704 99.382 11.016V11.136H97.654V14.112H99.382V23.136H102.478V14.112H104.47V11.136H102.478V11.016C102.478 9.384 103.414 8.712 105.022 8.712C105.334 8.712 105.67 8.712 106.006 8.736V23.136H109.102V6.504C107.782 6.24 106.534 6 105.022 6ZM117.637 23.472C121.165 23.472 123.997 20.712 123.997 17.136C123.997 13.56 121.165 10.8 117.637 10.8C114.109 10.8 111.301 13.56 111.301 17.136C111.301 20.712 114.109 23.472 117.637 23.472ZM117.637 20.448C115.813 20.448 114.397 19.08 114.397 17.136C114.397 15.192 115.813 13.824 117.637 13.824C119.485 13.824 120.901 15.192 120.901 17.136C120.901 19.08 119.485 20.448 117.637 20.448ZM139.219 11.136L137.179 18.528L134.995 11.136H132.067L129.883 18.504L127.843 11.136H124.555L128.371 23.136H131.323L133.531 15.864L135.739 23.136H138.691L142.507 11.136H139.219Z" fill="white"/>
</svg>
