<svg width="143" height="32" viewBox="0 0 143 32" fill="none" xmlns="http://www.w3.org/2000/svg">
<g clip-path="url(#clip0_115_41)">
<path d="M14.9846 28.4376C15.1792 27.9367 15.2719 27.4021 15.2575 26.865C15.2871 25.3764 15.685 23.9184 16.4155 22.621C17.1442 21.3258 18.1833 20.2321 19.4395 19.438C19.9046 19.1885 20.3143 18.8473 20.6437 18.4349C20.9731 18.0225 21.2155 17.5476 21.3561 17.0389C21.4967 16.5301 21.5326 15.9982 21.4617 15.4751C21.3908 14.9521 21.2145 14.4489 20.9435 13.996C20.5815 13.391 20.0605 12.895 19.4395 12.565C19.0835 12.318 18.7415 12.052 18.4155 11.767L17.5985 10.967C16.1014 9.3932 15.2619 7.30708 15.2515 5.135C15.2669 4.59777 15.1746 4.06288 14.9801 3.56188C14.7855 3.06089 14.4925 2.60395 14.1185 2.218C13.7461 1.83249 13.2999 1.52595 12.8064 1.31668C12.313 1.10742 11.7824 0.999714 11.2465 1C10.7108 1.00076 10.1807 1.10894 9.68757 1.31815C9.19444 1.52735 8.74827 1.83334 8.37547 2.218C8.00209 2.60462 7.70957 3.06183 7.51503 3.56287C7.32049 4.06391 7.22782 4.59872 7.24247 5.136C7.2512 5.83344 7.4433 6.5163 7.79947 7.116C8.15441 7.71469 8.66116 8.20902 9.26847 8.549C11.7275 10.105 13.4385 13.08 13.4385 16.006C13.4324 18.1592 12.6089 20.2298 11.1345 21.799L9.27447 23.451C8.66747 23.79 8.16047 24.284 7.80447 24.884C7.44747 25.483 7.25647 26.167 7.24747 26.865C7.23217 27.4022 7.32453 27.9371 7.51912 28.438C7.7137 28.939 8.00657 29.396 8.38047 29.782C8.7529 30.1674 9.19914 30.4739 9.69256 30.6832C10.186 30.8924 10.7165 31.0002 11.2525 31C11.7883 30.9994 12.3186 30.8913 12.8119 30.682C13.3052 30.4728 13.7515 30.1668 14.1245 29.782C14.4977 29.3955 14.7901 28.9384 14.9846 28.4376Z" fill="white"/>
<path d="M20.4165 7.36C19.9755 6.698 19.7405 5.919 19.7405 5.123C19.7411 4.05673 20.1635 3.034 20.9155 2.278C21.5693 1.62024 22.4316 1.2105 23.3545 1.11909C24.2774 1.02768 25.2033 1.26028 25.9735 1.777C26.6331 2.2199 27.1468 2.84836 27.4495 3.583C27.7522 4.31848 27.8312 5.12692 27.6767 5.9071C27.5221 6.68728 27.1408 7.40452 26.5805 7.969C26.0219 8.53193 25.3082 8.91563 24.5306 9.07112C23.7529 9.22661 22.9466 9.14685 22.2145 8.842C21.4817 8.53685 20.8559 8.02107 20.4165 7.36Z" fill="white"/>
<path d="M21.5215 23.518C22.1805 23.076 22.9555 22.84 23.7475 22.84V22.838C24.2739 22.8386 24.7951 22.9432 25.2811 23.1457C25.7671 23.3482 26.2083 23.6446 26.5795 24.018C27.2354 24.6779 27.6434 25.544 27.7345 26.47C27.8256 27.3959 27.5942 28.3249 27.0795 29.1C26.6401 29.762 26.0139 30.2785 25.2805 30.584C24.5484 30.8888 23.742 30.9686 22.9644 30.8131C22.1867 30.6576 21.4731 30.2739 20.9145 29.711C20.354 29.1464 19.9725 28.429 19.818 27.6486C19.6634 26.8683 19.7425 26.0596 20.0455 25.324C20.3482 24.5894 20.8618 23.9609 21.5215 23.518Z" fill="white"/>
<path d="M33.3245 13.758C33.7643 14.4198 33.9993 15.1974 33.9995 15.9931C33.9988 17.0597 33.5764 18.0827 32.8245 18.839C32.4532 19.2122 32.012 19.5086 31.526 19.7111C31.04 19.9136 30.5189 20.0182 29.9925 20.019C29.1996 20.019 28.4247 19.783 27.7665 19.341C27.1068 18.8981 26.5932 18.2696 26.2905 17.535C25.9875 16.7994 25.9084 15.9907 26.063 15.2104C26.2175 14.43 26.599 13.7126 27.1595 13.148C27.7181 12.5849 28.432 12.2011 29.2098 12.0456C29.9877 11.8901 30.7942 11.9699 31.5265 12.275C32.2594 12.5804 32.8852 13.0966 33.3245 13.758Z" fill="white"/>
<path d="M2.78051 12.647C3.43951 12.205 4.21351 11.969 5.00651 11.969C5.53285 11.9701 6.05381 12.075 6.53959 12.2776C7.02536 12.4803 7.46641 12.7767 7.83751 13.15C8.49312 13.8097 8.90092 14.6754 8.99202 15.601C9.08312 16.5265 8.85193 17.4552 8.33751 18.23C7.89817 18.8914 7.27242 19.4075 6.53951 19.713C5.80715 20.0164 5.00117 20.0953 4.22385 19.9399C3.44653 19.7845 2.7329 19.4017 2.17351 18.84C1.61321 18.2755 1.2319 17.5583 1.07732 16.7781C0.922742 15.9979 1.00177 15.1895 1.30451 14.454C1.6071 13.719 2.12073 13.0902 2.78051 12.647Z" fill="white"/>
<path d="M58.6635 11.136L56.6235 18.528L54.4395 11.136H51.5115L49.3275 18.504L47.2875 11.136H43.9995L47.8155 23.136H50.7675L52.9755 15.864L55.1835 23.136H58.1355L61.9515 11.136H58.6635ZM68.8635 23.472C72.3915 23.472 75.2235 20.712 75.2235 17.136C75.2235 13.56 72.3915 10.8 68.8635 10.8C65.3355 10.8 62.5275 13.56 62.5275 17.136C62.5275 20.712 65.3355 23.472 68.8635 23.472ZM68.8635 20.448C67.0395 20.448 65.6235 19.08 65.6235 17.136C65.6235 15.192 67.0395 13.824 68.8635 13.824C70.7115 13.824 72.1275 15.192 72.1275 17.136C72.1275 19.08 70.7115 20.448 68.8635 20.448ZM80.4975 13.2V11.136H77.4015V23.136H80.4975V17.4C80.4975 14.88 82.5375 14.16 84.1455 14.352V10.896C82.6335 10.896 81.1215 11.568 80.4975 13.2ZM97.0195 23.136L92.0525 17.064L96.8765 11.136H93.1795L89.0515 16.416V6.336H85.9555V23.136H89.0515V17.688L93.4195 23.136H97.0195ZM105.022 6C101.206 6 99.3815 7.704 99.3815 11.016V11.136H97.6535V14.112H99.3815V23.136H102.478V14.112H104.47V11.136H102.478V11.016C102.478 9.384 103.414 8.712 105.022 8.712C105.334 8.712 105.67 8.712 106.006 8.736V23.136H109.102V6.504C107.782 6.24 106.534 6 105.022 6ZM117.637 23.472C121.165 23.472 123.997 20.712 123.997 17.136C123.997 13.56 121.165 10.8 117.637 10.8C114.109 10.8 111.301 13.56 111.301 17.136C111.301 20.712 114.109 23.472 117.637 23.472ZM117.637 20.448C115.813 20.448 114.397 19.08 114.397 17.136C114.397 15.192 115.813 13.824 117.637 13.824C119.485 13.824 120.901 15.192 120.901 17.136C120.901 19.08 119.485 20.448 117.637 20.448ZM139.219 11.136L137.179 18.528L134.995 11.136H132.067L129.883 18.504L127.843 11.136H124.555L128.371 23.136H131.323L133.531 15.864L135.739 23.136H138.691L142.507 11.136H139.219Z" fill="white"/>
</g>
<defs>
<clipPath id="clip0_115_41">
<rect width="143" height="32" fill="white" transform="translate(-0.000488281)"/>
</clipPath>
</defs>
</svg>
