<svg width="96" height="42" viewBox="0 0 96 42" fill="none" xmlns="http://www.w3.org/2000/svg">
<path d="M19.0945 38.8592C28.762 38.8592 36.599 31.0553 36.599 21.4286C36.599 11.802 28.762 3.99805 19.0945 3.99805C9.42709 3.99805 1.59009 11.802 1.59009 21.4286C1.59009 31.0553 9.42709 38.8592 19.0945 38.8592Z" fill="#A1A1AA"/>
<path d="M37.2418 13.5228C35.4271 10.1597 32.7806 7.34873 29.6175 5.41618C28.0296 4.44991 26.3283 3.70951 24.5514 3.20755L23.8835 3.04442L23.5432 2.95657L23.3794 2.91893C23.329 2.90638 23.266 2.89383 23.2156 2.88128L22.535 2.75579L22.1948 2.69304C22.0814 2.66795 21.9679 2.64285 21.8545 2.64285C21.4008 2.59265 20.9346 2.54246 20.4809 2.50481L19.1072 2.45461L17.7336 2.50481C17.2799 2.54246 16.8136 2.6052 16.36 2.64285C16.2465 2.6554 16.1331 2.68049 16.0197 2.69304L15.6794 2.75579L14.9989 2.88128C14.9485 2.89383 14.8855 2.89383 14.8351 2.91893L14.6713 2.95657L14.331 3.04442L13.6631 3.20755C11.8862 3.70951 10.1849 4.44991 8.59701 5.41618C5.43386 7.34873 2.7874 10.1597 0.972687 13.5228C2.2203 9.90873 4.72814 6.67108 7.9543 4.43736C9.56738 3.32049 11.3695 2.44206 13.2598 1.85226L13.9781 1.65147L14.331 1.55108L14.5074 1.50089C14.5705 1.48834 14.6335 1.47579 14.6839 1.46324L15.4148 1.31265L15.7803 1.23736C15.9063 1.21226 16.0197 1.18716 16.1457 1.17461C16.6372 1.12442 17.1287 1.04912 17.6202 1.01148L19.1072 0.94873L20.5943 1.01148C21.0858 1.06167 21.5773 1.12442 22.0688 1.17461C22.1948 1.18716 22.3082 1.21226 22.4342 1.23736L22.7997 1.31265L23.5306 1.46324C23.5936 1.47579 23.6566 1.48834 23.707 1.50089L23.8835 1.55108L24.2363 1.65147L24.9547 1.85226C26.845 2.44206 28.6345 3.30794 30.2602 4.43736C33.4863 6.68363 35.9942 9.90873 37.2418 13.5228Z" fill="#A1A1AA"/>
<path d="M0.959991 29.3345C2.77471 32.6976 5.42117 35.5086 8.58432 37.4411C10.1722 38.4074 11.8735 39.1478 13.6504 39.6498L14.3183 39.8129L14.6586 39.9007C14.772 39.9258 14.8854 39.9635 14.9988 39.976L15.6794 40.1015L16.0196 40.1643C16.133 40.1894 16.2465 40.2145 16.3599 40.2145C16.8135 40.2647 17.2798 40.3149 17.7335 40.3525L19.1072 40.4027L20.4808 40.3525C20.9345 40.3149 21.4007 40.2521 21.8544 40.2145C21.9678 40.2019 22.0813 40.1768 22.1947 40.1643L22.5349 40.1015L23.2155 39.976C23.2659 39.9635 23.3289 39.9509 23.3793 39.9509L23.5431 39.9133L23.8834 39.8255L24.5513 39.6623C26.3282 39.1604 28.0295 38.42 29.6174 37.4537C32.7805 35.5211 35.427 32.7102 37.2417 29.347C35.9941 32.9611 33.4862 36.1862 30.2601 38.42C28.647 39.5368 26.8449 40.4153 24.9546 41.0051L24.2362 41.2058L23.8834 41.3062L23.7069 41.3564C23.6439 41.369 23.5809 41.3815 23.5305 41.3941L22.7996 41.5447L22.4341 41.62C22.3081 41.6451 22.1947 41.6702 22.0687 41.6827C21.5772 41.7329 21.0857 41.8082 20.5942 41.8458L19.1072 41.9086L17.6201 41.8458C17.1286 41.7957 16.6371 41.7329 16.1456 41.6827C16.0196 41.6702 15.9062 41.6451 15.7802 41.62L15.4147 41.5447L14.6838 41.3941C14.5578 41.369 14.4443 41.3439 14.3183 41.3062L13.9655 41.2058L13.2471 41.0051C11.3568 40.4153 9.56729 39.5494 7.95421 38.42C4.71545 36.1862 2.20761 32.9611 0.959991 29.3345Z" fill="#A1A1AA"/>
<path d="M23.1651 13.5229C21.489 13.5229 20.1405 14.8657 20.1405 16.5347C20.1405 18.1912 21.489 19.5465 23.1651 19.5465C24.8412 19.5465 26.1896 18.1912 26.1896 16.5347C26.177 14.8657 24.8285 13.5229 23.1651 13.5229ZM23.1651 19.2202C21.6654 19.2202 20.4556 18.0155 20.4556 16.5222C20.4556 15.0288 21.6654 13.8241 23.1651 13.8241C24.6521 13.8241 25.8619 15.0288 25.8619 16.5222C25.8619 18.0155 24.6521 19.2202 23.1651 19.2202Z" fill="white"/>
<path d="M23.8204 27.8287C23.2407 27.289 23.2155 26.3855 23.7574 25.8083C24.2993 25.231 25.2192 25.2059 25.7989 25.7455L31.1044 30.7024C31.6841 31.242 31.7093 32.1581 31.1674 32.7353C30.6256 33.3126 29.7056 33.3377 29.1259 32.7981L23.8204 27.8287Z" fill="white"/>
<path d="M25.7863 17.1873C25.4964 18.3543 24.4253 19.2328 23.165 19.2328C21.6654 19.2328 20.4556 18.028 20.4556 16.5347C20.4556 15.4555 21.0983 14.5143 22.0308 14.0877C21.1109 13.7237 20.1153 13.5229 19.0819 13.5229C14.6964 13.5229 11.1425 17.0618 11.1425 21.4288C11.1425 25.7959 14.6964 29.3347 19.0819 29.3347C23.4675 29.3347 27.0213 25.7833 27.0213 21.4288C27.0213 19.8602 26.5676 18.4045 25.7863 17.1873Z" fill="white"/>
<path d="M25.3452 18.1032C24.8537 18.7809 24.0598 19.2201 23.1525 19.2201C21.6528 19.2201 20.443 18.0154 20.443 16.5221C20.443 15.8068 20.7202 15.1417 21.1865 14.6648C20.5186 14.4515 19.8003 14.3511 19.0693 14.3511C15.1501 14.3511 11.9743 17.526 11.9743 21.4287C11.9743 25.3315 15.1501 28.4938 19.0693 28.4938C22.9886 28.4938 26.1644 25.3315 26.1644 21.4287C26.177 20.224 25.8745 19.0946 25.3452 18.1032Z" fill="url(#paint0_linear_650_105)"/>
<path d="M69.4781 28.1801V28.5566C69.4781 32.9989 65.8613 36.6005 61.4001 36.6005H46.8194V6.26953H55.2754V28.1927H61.022" fill="#A1A1AA"/>
<path d="M79.5851 6.26939V6.34468C79.5851 11.2388 75.9809 15.3047 71.2802 16.0576V36.6004H71.6583C76.1195 36.6004 79.7363 32.9988 79.7363 28.5564V26.3729H84.0715C88.5326 26.3729 92.1495 22.7713 92.1495 18.329V17.9525H79.7363V14.3008H87.5371C91.9982 14.3008 95.6151 10.6992 95.6151 6.25684H79.5851V6.26939Z" fill="#A1A1AA"/>
<path d="M57.0902 6.26953V14.3887H61.0347V26.3856H69.4781V14.3887H69.705C74.1661 14.3887 77.783 10.7872 77.783 6.34483V6.26953H57.0902Z" fill="#A1A1AA"/>
<defs>
<linearGradient id="paint0_linear_650_105" x1="19.0807" y1="28.501" x2="19.0807" y2="14.3573" gradientUnits="userSpaceOnUse">
<stop stop-opacity="0.5"/>
<stop offset="0.1404" stop-opacity="0.4298"/>
<stop offset="1" stop-opacity="0"/>
</linearGradient>
</defs>
</svg>
