<svg width="16" height="17" viewBox="0 0 16 17" fill="none" xmlns="http://www.w3.org/2000/svg">
<path d="M15.813 15.3711L11.8369 11.3951C12.9205 10.0699 13.4532 8.37893 13.325 6.67198C13.1967 4.96502 12.4173 3.37267 11.1479 2.22427C9.87853 1.07587 8.21632 0.459301 6.50509 0.502087C4.79386 0.544873 3.16454 1.24374 1.95414 2.45414C0.743743 3.66454 0.0448727 5.29386 0.00208668 7.00509C-0.0406994 8.71632 0.575873 10.3785 1.72427 11.6479C2.87267 12.9173 4.46502 13.6967 6.17198 13.825C7.87893 13.9532 9.56987 13.4205 10.8951 12.3369L14.8711 16.313C14.9968 16.4344 15.165 16.5015 15.3397 16.5C15.5143 16.4985 15.6814 16.4284 15.8049 16.3049C15.9284 16.1814 15.9985 16.0143 16 15.8397C16.0015 15.665 15.9344 15.4968 15.813 15.3711ZM6.68251 12.5115C5.62855 12.5115 4.59825 12.1989 3.72191 11.6134C2.84556 11.0278 2.16254 10.1956 1.7592 9.22182C1.35587 8.24808 1.25034 7.1766 1.45595 6.14289C1.66157 5.10917 2.16911 4.15964 2.91437 3.41437C3.65964 2.66911 4.60917 2.16157 5.64289 1.95595C6.6766 1.75034 7.74808 1.85587 8.72182 2.2592C9.69556 2.66254 10.5278 3.34556 11.1134 4.22191C11.6989 5.09825 12.0115 6.12855 12.0115 7.18251C12.0099 8.59535 11.4479 9.94987 10.4489 10.9489C9.44987 11.9479 8.09535 12.5099 6.68251 12.5115Z" fill="#4B5563"/>
</svg>
