<svg width="41" height="47" viewBox="0 0 41 47" fill="none" xmlns="http://www.w3.org/2000/svg">
<g clip-path="url(#clip0_650_95)">
<path d="M30.105 36.9668C29.2124 39.4295 27.4774 41.5016 25.2036 42.8207C24.2755 43.3583 23.2738 43.759 22.2299 44.0102C21.9461 44.0792 21.6574 44.1373 21.3639 44.1846L21.352 44.1866C19.9348 44.4148 18.4865 44.3687 17.0869 44.0509C17.0869 44.0554 17.0891 44.0596 17.09 44.0638C16.2976 43.9349 15.4934 43.8919 14.6917 43.9357C12.9875 44.0263 11.3265 44.5019 9.83478 45.3262C10.739 44.1133 11.8818 43.0959 13.1938 42.336C13.8004 41.9845 14.4393 41.6913 15.1019 41.4605C15.5898 41.2899 16.0891 41.1533 16.596 41.0514C16.7408 41.0223 16.8865 40.9959 17.0333 40.9724C17.642 40.8745 18.2578 40.8264 18.8745 40.8286C19.375 40.8286 19.8786 40.8078 20.3853 40.7663C20.5631 40.7516 20.7417 40.7342 20.921 40.7142C21.2117 40.6817 21.503 40.6419 21.7949 40.5948C24.8309 40.1105 27.6917 38.8616 30.105 36.9668Z" fill="#F15A29"/>
<path d="M40.96 21.2809C40.9612 22.7718 40.6603 24.2477 40.0752 25.6205C39.4901 26.9933 38.6329 28.2347 37.5547 29.2708C37.4711 29.3515 37.3865 29.4308 37.301 29.5088C35.9968 30.6861 34.4319 31.5412 32.7332 32.0046C31.0345 32.468 29.2499 32.5267 27.5241 32.176C27.4748 32.165 27.4254 32.1545 27.3758 32.1446C25.8099 31.827 24.1941 31.8438 22.6353 32.1939C24.3274 30.0255 26.7646 28.5543 29.48 28.0622C29.5404 28.0525 29.6006 28.0422 29.6607 28.0313C29.6617 28.0316 29.6626 28.0316 29.6636 28.0313C30.2516 27.9282 30.8296 27.7974 31.3974 27.6389L31.4126 27.6347C34.5748 26.7453 37.4338 25.0162 39.6824 22.633L39.6987 22.6156C39.745 22.5668 39.7908 22.5176 39.8363 22.4679C39.8389 22.4651 39.8414 22.4625 39.8436 22.4597C40.2314 22.0392 40.5979 21.6008 40.9431 21.1446C40.9482 21.1382 40.953 21.1314 40.9578 21.125C40.9598 21.1763 40.96 21.2279 40.96 21.2809Z" fill="#F15A29"/>
<path d="M37.7371 5.4308C38.0799 8.35201 37.1225 11.1395 35.303 13.2659C34.8254 13.8996 34.2463 14.451 33.5889 14.8978C13.1315 28.8078 13.6172 29.3046 27.3379 46.078C27.4168 46.1739 27.5026 46.39 27.354 46.4952C27.1141 46.6634 26.8868 46.5826 26.8214 46.4977C13.6172 29.3046 13.6172 29.3046 0.585219 42.9437C0.533628 42.9978 0.354328 43.131 0.127665 42.9768C0.0927684 42.9537 0.0634329 42.9233 0.0417597 42.8876C0.0200865 42.852 0.00661203 42.812 0.0023013 42.7705C-0.00200942 42.7291 0.00295032 42.6872 0.0168253 42.6479C0.0307002 42.6086 0.053147 42.5728 0.0825579 42.5431C13.6147 29.3046 13.6147 29.3046 2.62603 15.8359C2.51805 15.7038 2.57726 15.5247 2.70581 15.4078C2.87327 15.2547 3.08584 15.3657 3.15829 15.4613C11.1042 25.9802 12.9457 28.6334 22.8577 16.5362C31.3682 6.66797 29.929 7.41649 35.1211 0.429128C35.184 0.345024 35.2556 0.246622 35.4355 0.264284C35.5107 0.26958 35.5808 0.304127 35.6306 0.360443C35.6399 0.371377 35.6483 0.382591 35.6571 0.393804C36.8024 1.85099 37.5221 3.59371 37.7371 5.4308Z" fill="black"/>
<path d="M35.6559 0.393377C35.6474 0.38244 35.6391 0.371503 35.6301 0.36084C35.6395 0.371019 35.6481 0.381896 35.6559 0.393377Z" fill="black"/>
</g>
<defs>
<clipPath id="clip0_650_95">
<rect width="40.96" height="46.3318" fill="white" transform="translate(0 0.262695)"/>
</clipPath>
</defs>
</svg>
