<svg width="16" height="16" viewBox="0 0 16 16" fill="none" xmlns="http://www.w3.org/2000/svg">
<path d="M6.66615 11.3498H4.88549C4.62264 11.3506 4.36224 11.2993 4.11939 11.1987C3.87655 11.0981 3.6561 10.9503 3.47083 10.7638L0.0341782 7.32715C0.014845 7.55515 -0.000488281 7.78381 -0.000488281 8.01648C0.00243957 10.0213 0.757468 11.9521 2.11533 13.4271C3.47319 14.9021 5.33505 15.814 7.33281 15.9824V12.0165C7.33281 11.8397 7.26257 11.6701 7.13755 11.5451C7.01253 11.42 6.84296 11.3498 6.66615 11.3498Z" fill="white"/>
<path d="M13.6235 2.33545L12.4301 3.52878C12.117 3.84017 11.6937 4.01552 11.2521 4.01678H10.3328C10.2444 4.01678 10.1596 4.05189 10.0971 4.11441C10.0346 4.17692 9.99947 4.2617 9.99947 4.35011V5.01677C9.99947 5.4588 9.82388 5.88272 9.51132 6.19528C9.19876 6.50784 8.77484 6.68343 8.33281 6.68343C8.24441 6.68343 8.15962 6.71855 8.09711 6.78106C8.0346 6.84357 7.99948 6.92836 7.99948 7.01676V7.35009C7.99948 7.5269 8.06972 7.69647 8.19474 7.8215C8.31977 7.94652 8.48933 8.01676 8.66614 8.01676H10.6661C11.1966 8.01676 11.7053 8.22747 12.0803 8.60254C12.4554 8.97761 12.6661 9.48632 12.6661 10.0167V10.6581C12.6661 10.7463 12.7011 10.8309 12.7635 10.8934L14.5135 12.6441C15.6167 11.1012 16.1331 9.21528 15.97 7.32559C15.8068 5.4359 14.9748 3.66643 13.6235 2.33545Z" fill="white"/>
<path d="M11.3327 10.6585V10.0171C11.3327 9.84033 11.2625 9.67076 11.1375 9.54574C11.0125 9.42071 10.8429 9.35048 10.6661 9.35048H8.66609C8.13566 9.35048 7.62695 9.13976 7.25188 8.76469C6.87681 8.38962 6.6661 7.88092 6.6661 7.35048V7.01715C6.6661 6.57513 6.84169 6.15121 7.15425 5.83865C7.46681 5.52609 7.89073 5.35049 8.33276 5.35049C8.42116 5.35049 8.50595 5.31537 8.56846 5.25286C8.63097 5.19035 8.66609 5.10557 8.66609 5.01716V4.3505C8.66609 3.90847 8.84169 3.48455 9.15424 3.17199C9.4668 2.85943 9.89073 2.68384 10.3328 2.68384H11.2521C11.3402 2.68332 11.4247 2.64839 11.4874 2.58651L12.5947 1.47918C11.558 0.74696 10.3617 0.272499 9.10491 0.0951559C7.84814 -0.0821875 6.5672 0.0426992 5.36836 0.459455C4.16952 0.876211 3.08733 1.57282 2.21158 2.4915C1.33583 3.41017 0.691754 4.52443 0.332794 5.74183L4.41278 9.82181C4.47483 9.88388 4.54852 9.93308 4.62963 9.9666C4.71074 10.0001 4.79768 10.0173 4.88544 10.0171H6.6661C7.19653 10.0171 7.70524 10.2279 8.08031 10.6029C8.45538 10.978 8.66609 11.4867 8.66609 12.0171V15.9831C10.5506 15.828 12.3186 15.0084 13.6547 13.6705L11.8207 11.8365C11.5094 11.5233 11.334 11.1001 11.3327 10.6585Z" fill="white"/>
</svg>
