<svg width="161" height="21" viewBox="0 0 161 21" fill="none" xmlns="http://www.w3.org/2000/svg">
<path d="M9.26742 20.077H0.615051V0.746582H9.26742C10.6065 0.746582 11.8769 0.98693 13.0442 1.50195C14.2116 2.01697 15.2417 2.70367 16.1344 3.56204C17.0271 4.42041 17.7138 5.45045 18.2288 6.65217C18.7438 7.81955 18.9841 9.08993 18.9841 10.3947C18.9841 11.7337 18.7438 12.9698 18.2288 14.1715C17.7138 15.3389 17.0271 16.3689 16.1344 17.2616C15.2417 18.12 14.2116 18.8067 13.0442 19.3217C11.8769 19.8367 10.6065 20.077 9.26742 20.077ZM8.64939 5.48479H5.6966V15.4075H8.64939C9.33608 15.4075 9.98844 15.2702 10.6065 15.0298C11.2245 14.7895 11.7395 14.4118 12.1859 13.9655C12.6322 13.5191 12.9756 13.0041 13.2502 12.3861C13.4906 11.768 13.6279 11.15 13.6279 10.4633C13.6279 9.77663 13.4906 9.12427 13.2502 8.54058C12.9756 7.92255 12.6322 7.40753 12.1859 6.96118C11.7395 6.51482 11.2245 6.17147 10.6065 5.8968C10.0228 5.62212 9.37042 5.48479 8.64939 5.48479Z" fill="#9FA6B2"/>
<path d="M30.2803 0.917969H25.7138L18.5721 20.0081H24.0314L28.0142 7.71626L31.9627 20.0081H37.4219L30.2803 0.917969Z" fill="#9FA6B2"/>
<path d="M51.7395 20.077L48.3747 14.1028H45.1129L45.1473 20.077H39.8254V0.746582H49.5078C49.9885 0.746582 50.4348 0.849593 50.9155 1.02127C51.3962 1.19294 51.8769 1.43328 52.3232 1.70796C52.7696 1.98264 53.1816 2.32599 53.5593 2.70367C53.937 3.08135 54.2803 3.45903 54.5207 3.83671C54.864 4.3174 55.1043 4.86676 55.276 5.51912C55.4477 6.17148 55.5507 6.75517 55.5507 7.33886C55.5507 8.30023 55.3104 9.19293 54.864 10.017C54.4176 10.841 53.7996 11.5277 53.0099 12.1114L57.5421 20.077H51.7395ZM47.9627 5.07276H44.9413V9.22727H47.9627C48.2717 9.22727 48.5464 9.1586 48.8211 9.0556C49.0958 8.95259 49.3361 8.81526 49.5078 8.60925C49.7138 8.40324 49.8511 8.19723 49.9885 7.95688C50.0915 7.71654 50.1601 7.44186 50.1601 7.13285C50.1601 6.82384 50.0915 6.54916 49.9885 6.30882C49.8855 6.06847 49.7138 5.82813 49.5078 5.65646C49.3018 5.45045 49.0614 5.31311 48.8211 5.2101C48.5464 5.14143 48.2717 5.07276 47.9627 5.07276Z" fill="#9FA6B2"/>
<path d="M68.2889 9.91381L75.9455 20.1112H69.6623L64.3747 13.622V20.1112H59.0872V0.780762H64.3747V7.27003L69.6623 0.780762H76.1859L68.2889 9.91381Z" fill="#9FA6B2"/>
<path d="M93.5592 20.6948C92.1172 20.6948 90.8125 20.4201 89.5764 19.8708C88.3404 19.3214 87.276 18.6004 86.3489 17.639C85.4219 16.712 84.7009 15.6132 84.1858 14.3772C83.6708 13.1411 83.3961 11.8364 83.3961 10.4287C83.3961 9.02097 83.6708 7.71624 84.1858 6.48019C84.7009 5.24414 85.4562 4.14543 86.3489 3.21839C87.276 2.29135 88.3404 1.53599 89.5764 0.98663C90.8125 0.437274 92.1515 0.162598 93.5592 0.162598C94.864 0.162598 96.1 0.402943 97.3017 0.88363C98.5034 1.36432 99.6022 2.05101 100.598 2.94372L96.615 6.48019C95.6537 5.7935 94.6236 5.45015 93.5936 5.45015C92.9069 5.45015 92.2545 5.58749 91.6365 5.86217C91.0528 6.13685 90.5378 6.48019 90.0914 6.96088C89.6451 7.44156 89.3361 7.95659 89.0614 8.57462C88.821 9.19264 88.6837 9.81067 88.6837 10.463C88.6837 11.1497 88.821 11.8021 89.0614 12.3858C89.3017 13.0038 89.6451 13.5188 90.0914 13.9652C90.5378 14.4115 91.0185 14.7892 91.6365 15.0639C92.2202 15.3386 92.8725 15.4759 93.5592 15.4759C94.3489 15.4759 95.1043 15.3042 95.791 14.9265C96.4777 14.5489 97.0957 14.0338 97.6107 13.3815L101.731 16.7119C100.701 17.9823 99.4991 18.9437 98.0914 19.6304C96.6494 20.3514 95.1386 20.6948 93.5592 20.6948Z" fill="#9FA6B2"/>
<path d="M111.825 20.695C110.383 20.695 109.044 20.4203 107.808 19.9053C106.572 19.3902 105.473 18.6349 104.546 17.7422C103.619 16.8151 102.898 15.7508 102.349 14.4804C101.8 13.2443 101.525 11.9053 101.525 10.4975C101.525 9.08982 101.8 7.75076 102.349 6.51471C102.898 5.27866 103.619 4.17995 104.546 3.25291C105.473 2.32587 106.572 1.60484 107.808 1.05549C109.044 0.506132 110.383 0.231445 111.825 0.231445C113.233 0.231445 114.572 0.506132 115.808 1.05549C117.079 1.60484 118.143 2.32587 119.07 3.25291C119.997 4.17995 120.718 5.24433 121.267 6.51471C121.817 7.75076 122.091 9.08982 122.091 10.4975C122.091 11.9053 121.817 13.2443 121.267 14.4804C120.718 15.7164 119.997 16.8151 119.07 17.7422C118.143 18.6692 117.044 19.3902 115.808 19.9053C114.572 20.4203 113.233 20.695 111.825 20.695ZM111.825 5.17566C111.104 5.17566 110.418 5.31299 109.8 5.62201C109.182 5.89669 108.632 6.3087 108.186 6.78939C107.74 7.27007 107.396 7.81943 107.122 8.47179C106.881 9.12415 106.744 9.77652 106.744 10.4975C106.744 11.1842 106.881 11.8709 107.122 12.5233C107.362 13.1757 107.74 13.725 108.186 14.2057C108.632 14.6864 109.182 15.0641 109.8 15.3731C110.418 15.6478 111.104 15.8194 111.825 15.8194C112.546 15.8194 113.233 15.6821 113.851 15.3731C114.469 15.0984 115.018 14.6864 115.465 14.2057C115.911 13.725 116.255 13.1757 116.529 12.5233C116.77 11.8709 116.907 11.2186 116.907 10.4975C116.907 9.77652 116.77 9.12415 116.529 8.47179C116.289 7.81943 115.911 7.27007 115.465 6.78939C115.018 6.3087 114.469 5.93102 113.851 5.62201C113.233 5.31299 112.581 5.17566 111.825 5.17566Z" fill="#9FA6B2"/>
<path d="M133.25 20.077H124.598V0.746582H133.25C134.589 0.746582 135.86 0.98693 137.027 1.50195C138.194 2.01697 139.224 2.70367 140.117 3.56204C141.01 4.42041 141.697 5.45045 142.212 6.65217C142.727 7.81955 142.967 9.08993 142.967 10.3947C142.967 11.7337 142.727 12.9698 142.212 14.1715C141.697 15.3389 141.01 16.3689 140.117 17.2616C139.224 18.12 138.194 18.8067 137.027 19.3217C135.86 19.8367 134.589 20.077 133.25 20.077ZM132.667 5.48479H129.714V15.4075H132.667C133.353 15.4075 134.006 15.2702 134.624 15.0298C135.242 14.7895 135.757 14.4118 136.203 13.9655C136.649 13.5191 136.993 13.0041 137.267 12.3861C137.542 11.768 137.645 11.15 137.645 10.4633C137.645 9.77663 137.508 9.12427 137.267 8.54058C137.027 7.92255 136.649 7.40753 136.203 6.96118C135.757 6.51482 135.242 6.17147 134.624 5.8968C134.006 5.62212 133.353 5.48479 132.667 5.48479Z" fill="#9FA6B2"/>
<path d="M145.233 0.917969V5.41582H160.615V0.917969H145.233ZM145.233 8.05961V12.8321H159.825V8.05961H145.233ZM145.233 15.5102V20.0081H160.615V15.5102H145.233Z" fill="#9FA6B2"/>
</svg>
