<svg width="24" height="24" viewBox="0 0 24 24" fill="none" xmlns="http://www.w3.org/2000/svg">
<rect width="24" height="24" rx="12" fill="white"/>
<path fill-rule="evenodd" clip-rule="evenodd" d="M15.7112 23.4144C14.5424 23.7945 13.2951 24 12 24C10.7041 24 9.45588 23.7943 8.28639 23.4136C8.82663 23.4784 9.02625 23.1266 9.02625 22.8229C9.02625 22.6907 9.02399 22.4575 9.02097 22.1456C9.01748 21.7846 9.01297 21.3182 9.00975 20.7808C5.6715 21.5065 4.96725 19.1709 4.96725 19.1709C4.422 17.784 3.63525 17.4147 3.63525 17.4147C2.5455 16.6694 3.71775 16.6846 3.71775 16.6846C4.9215 16.7694 5.55525 17.9221 5.55525 17.9221C6.62625 19.7572 8.364 19.2274 9.048 18.9196C9.15675 18.1436 9.46725 17.6143 9.81 17.3142C7.14525 17.0111 4.344 15.9813 4.344 11.3799C4.344 10.0687 4.81125 8.99704 5.57925 8.15715C5.4555 7.85327 5.04375 6.63288 5.69625 4.97947C5.69625 4.97947 6.70425 4.65671 8.99625 6.21032C9.954 5.94382 10.98 5.81113 12.0007 5.80571C13.02 5.81094 14.0468 5.94382 15.0052 6.21032C17.2957 4.65671 18.3015 4.97947 18.3015 4.97947C18.9563 6.63288 18.5445 7.85327 18.4207 8.15715C19.1903 8.99704 19.6545 10.0687 19.6545 11.3799C19.6545 15.9925 16.8487 17.0081 14.1757 17.3052C14.6062 17.676 14.9902 18.4084 14.9902 19.529C14.9902 20.6025 14.9835 21.537 14.9791 22.1563C14.9769 22.4631 14.9752 22.6925 14.9752 22.8231C14.9752 23.1282 15.1701 23.4807 15.7112 23.4144Z" fill="black"/>
</svg>
