<svg width="44" height="44" viewBox="0 0 44 44" fill="none" xmlns="http://www.w3.org/2000/svg">
<rect x="0.5" y="0.5" width="43" height="43" rx="21.5" fill="white"/>
<path d="M31.8055 20.0415H31V20H22V24H27.6515C26.827 26.3285 24.6115 28 22 28C18.6865 28 16 25.3135 16 22C16 18.6865 18.6865 16 22 16C23.5295 16 24.921 16.577 25.9805 17.5195L28.809 14.691C27.023 13.0265 24.634 12 22 12C16.4775 12 12 16.4775 12 22C12 27.5225 16.4775 32 22 32C27.5225 32 32 27.5225 32 22C32 21.3295 31.931 20.675 31.8055 20.0415Z" fill="#FFC107"/>
<path d="M13.1531 17.3455L16.4386 19.755C17.3276 17.554 19.4806 16 22.0001 16C23.5296 16 24.9211 16.577 25.9806 17.5195L28.8091 14.691C27.0231 13.0265 24.6341 12 22.0001 12C18.1591 12 14.8281 14.1685 13.1531 17.3455Z" fill="#FF3D00"/>
<path d="M21.9999 31.9999C24.5829 31.9999 26.9299 31.0114 28.7044 29.4039L25.6094 26.7849C24.6054 27.5454 23.3574 27.9999 21.9999 27.9999C19.3989 27.9999 17.1904 26.3414 16.3584 24.0269L13.0974 26.5394C14.7524 29.7779 18.1134 31.9999 21.9999 31.9999Z" fill="#4CAF50"/>
<path d="M31.8055 20.0415H31V20H22V24H27.6515C27.2555 25.1185 26.536 26.083 25.608 26.7855C25.6085 26.785 25.609 26.785 25.6095 26.7845L28.7045 29.4035C28.4855 29.6025 32 27 32 22C32 21.3295 31.931 20.675 31.8055 20.0415Z" fill="#1976D2"/>
<rect x="0.5" y="0.5" width="43" height="43" rx="21.5" stroke="#E4E4E7"/>
</svg>
