<svg width="144" height="32" viewBox="0 0 144 32" fill="none" xmlns="http://www.w3.org/2000/svg">
<g clip-path="url(#clip0_875_178)">
<path d="M15.4854 28.4376C15.6799 27.9367 15.7727 27.4021 15.7582 26.865C15.7879 25.3764 16.1857 23.9184 16.9162 22.621C17.6449 21.3258 18.684 20.2321 19.9402 19.438C20.4053 19.1885 20.815 18.8473 21.1444 18.4349C21.4739 18.0225 21.7162 17.5476 21.8568 17.0389C21.9974 16.5301 22.0333 15.9982 21.9624 15.4751C21.8915 14.9521 21.7152 14.4489 21.4442 13.996C21.0822 13.391 20.5612 12.895 19.9402 12.565C19.5842 12.318 19.2422 12.052 18.9162 11.767L18.0992 10.967C16.6021 9.3932 15.7626 7.30708 15.7522 5.135C15.7677 4.59777 15.6754 4.06288 15.4808 3.56188C15.2862 3.06089 14.9932 2.60395 14.6192 2.218C14.2468 1.83249 13.8006 1.52595 13.3072 1.31668C12.8137 1.10742 12.2832 0.999714 11.7472 1C11.2115 1.00076 10.6814 1.10894 10.1883 1.31815C9.69517 1.52735 9.24901 1.83334 8.8762 2.218C8.50282 2.60462 8.2103 3.06183 8.01576 3.56287C7.82122 4.06391 7.72856 4.59872 7.7432 5.136C7.75194 5.83344 7.94403 6.5163 8.3002 7.116C8.65514 7.71469 9.16189 8.20902 9.7692 8.549C12.2282 10.105 13.9392 13.08 13.9392 16.006C13.9331 18.1592 13.1096 20.2298 11.6352 21.799L9.7752 23.451C9.1682 23.79 8.6612 24.284 8.3052 24.884C7.9482 25.483 7.7572 26.167 7.7482 26.865C7.7329 27.4022 7.82527 27.9371 8.01985 28.438C8.21443 28.939 8.5073 29.396 8.8812 29.782C9.25364 30.1674 9.69987 30.4739 10.1933 30.6832C10.6867 30.8924 11.2172 31.0002 11.7532 31C12.289 30.9994 12.8193 30.8913 13.3126 30.682C13.8059 30.4728 14.2523 30.1668 14.6252 29.782C14.9984 29.3955 15.2908 28.9384 15.4854 28.4376Z" fill="black"/>
<path d="M20.9172 7.36C20.4762 6.698 20.2412 5.919 20.2412 5.123C20.2419 4.05673 20.6643 3.034 21.4162 2.278C22.07 1.62024 22.9323 1.2105 23.8552 1.11909C24.7781 1.02768 25.7041 1.26028 26.4742 1.777C27.1339 2.2199 27.6475 2.84836 27.9502 3.583C28.2529 4.31848 28.332 5.12692 28.1774 5.9071C28.0228 6.68728 27.6415 7.40452 27.0812 7.969C26.5226 8.53193 25.8089 8.91563 25.0313 9.07112C24.2536 9.22661 23.4473 9.14685 22.7152 8.842C21.9824 8.53685 21.3566 8.02107 20.9172 7.36Z" fill="black"/>
<path d="M22.0222 23.518C22.6812 23.076 23.4562 22.84 24.2482 22.84V22.838C24.7747 22.8386 25.2959 22.9432 25.7818 23.1457C26.2678 23.3482 26.709 23.6446 27.0802 24.018C27.7361 24.6779 28.1441 25.544 28.2352 26.47C28.3263 27.3959 28.095 28.3249 27.5802 29.1C27.1408 29.762 26.5146 30.2785 25.7812 30.584C25.0491 30.8888 24.2428 30.9686 23.4651 30.8131C22.6875 30.6576 21.9738 30.2739 21.4152 29.711C20.8547 29.1464 20.4733 28.429 20.3187 27.6486C20.1641 26.8683 20.2432 26.0596 20.5462 25.324C20.849 24.5894 21.3626 23.9609 22.0222 23.518Z" fill="black"/>
<path d="M33.8252 13.758C34.265 14.4198 34.5 15.1974 34.5002 15.9931C34.4995 17.0597 34.0772 18.0827 33.3252 18.839C32.9539 19.2122 32.5127 19.5086 32.0267 19.7111C31.5408 19.9136 31.0197 20.0182 30.4932 20.019C29.7003 20.019 28.9254 19.783 28.2672 19.341C27.6075 18.8981 27.0939 18.2696 26.7912 17.535C26.4882 16.7994 26.4091 15.9907 26.5637 15.2104C26.7183 14.43 27.0997 13.7126 27.6602 13.148C28.2189 12.5849 28.9327 12.2011 29.7106 12.0456C30.4884 11.8901 31.295 11.9699 32.0272 12.275C32.7601 12.5804 33.3859 13.0966 33.8252 13.758Z" fill="black"/>
<path d="M3.28124 12.647C3.94024 12.205 4.71424 11.969 5.50724 11.969C6.03358 11.9701 6.55455 12.075 7.04032 12.2776C7.52609 12.4803 7.96714 12.7767 8.33824 13.15C8.99385 13.8097 9.40166 14.6754 9.49276 15.601C9.58385 16.5265 9.35266 17.4552 8.83824 18.23C8.39891 18.8914 7.77315 19.4075 7.04024 19.713C6.30788 20.0164 5.50191 20.0953 4.72459 19.9399C3.94727 19.7845 3.23364 19.4017 2.67424 18.84C2.11394 18.2755 1.73263 17.5583 1.57805 16.7781C1.42347 15.9979 1.5025 15.1895 1.80524 14.454C2.10783 13.719 2.62146 13.0902 3.28124 12.647Z" fill="black"/>
<path d="M59.164 11.136L57.124 18.528L54.94 11.136H52.012L49.828 18.504L47.788 11.136H44.5L48.316 23.136H51.268L53.476 15.864L55.684 23.136H58.636L62.452 11.136H59.164ZM69.364 23.472C72.892 23.472 75.724 20.712 75.724 17.136C75.724 13.56 72.892 10.8 69.364 10.8C65.836 10.8 63.028 13.56 63.028 17.136C63.028 20.712 65.836 23.472 69.364 23.472ZM69.364 20.448C67.54 20.448 66.124 19.08 66.124 17.136C66.124 15.192 67.54 13.824 69.364 13.824C71.212 13.824 72.628 15.192 72.628 17.136C72.628 19.08 71.212 20.448 69.364 20.448ZM80.998 13.2V11.136H77.902V23.136H80.998V17.4C80.998 14.88 83.038 14.16 84.646 14.352V10.896C83.134 10.896 81.622 11.568 80.998 13.2ZM97.52 23.136L92.553 17.064L97.377 11.136H93.68L89.552 16.416V6.336H86.456V23.136H89.552V17.688L93.92 23.136H97.52ZM105.522 6C101.706 6 99.882 7.704 99.882 11.016V11.136H98.154V14.112H99.882V23.136H102.978V14.112H104.97V11.136H102.978V11.016C102.978 9.384 103.914 8.712 105.522 8.712C105.834 8.712 106.17 8.712 106.506 8.736V23.136H109.602V6.504C108.282 6.24 107.034 6 105.522 6ZM118.137 23.472C121.665 23.472 124.497 20.712 124.497 17.136C124.497 13.56 121.665 10.8 118.137 10.8C114.609 10.8 111.801 13.56 111.801 17.136C111.801 20.712 114.609 23.472 118.137 23.472ZM118.137 20.448C116.313 20.448 114.897 19.08 114.897 17.136C114.897 15.192 116.313 13.824 118.137 13.824C119.985 13.824 121.401 15.192 121.401 17.136C121.401 19.08 119.985 20.448 118.137 20.448ZM139.719 11.136L137.679 18.528L135.495 11.136H132.567L130.383 18.504L128.343 11.136H125.055L128.871 23.136H131.823L134.031 15.864L136.239 23.136H139.191L143.007 11.136H139.719Z" fill="black"/>
</g>
<defs>
<clipPath id="clip0_875_178">
<rect width="143" height="32" fill="white" transform="translate(0.5)"/>
</clipPath>
</defs>
</svg>
