<svg width="160" height="17" viewBox="0 0 160 17" fill="none" xmlns="http://www.w3.org/2000/svg">
<path d="M0 0.297826C0.206951 1.08251 0.62025 1.79746 1.19696 2.3684C1.77366 2.93934 2.49273 3.34543 3.27946 3.54449H8.40009L8.66245 3.64756V16.5686H11.8576V3.6663L12.148 3.56323H17.2734C18.0575 3.35882 18.7737 2.95093 19.3496 2.38082C19.9255 1.81071 20.3405 1.09861 20.5528 0.316566V0.283771H0V0.297826ZM111.787 0.279086H108.602V16.6061H123.19C123.882 16.3386 124.497 15.9057 124.982 15.3454C125.467 14.7852 125.807 14.1145 125.973 13.3922H111.778L111.787 0.279086ZM87.271 3.49295C88.967 3.02446 90.3912 1.70331 90.7332 0.269716L72.8836 0.297826V9.92537H87.4865V13.3126H76.0272C75.1535 13.539 74.338 13.9485 73.6345 14.5139C72.931 15.0792 72.3557 15.7876 71.9466 16.592H90.6348V6.72088H76.0365V3.49295H87.271ZM141.696 16.5967H144.863V10.0284H156.379V16.5967H159.541V6.74899L141.696 6.73025V16.5967ZM39.9859 3.53043H52.1668C52.9648 3.33847 53.6947 2.93115 54.2771 2.35288C54.8595 1.7746 55.272 1.04756 55.4697 0.250977L36.6831 0.250977C36.8826 1.04664 37.2957 1.77266 37.8778 2.35063C38.4599 2.9286 39.1889 3.33656 39.9859 3.53043ZM39.9859 9.98159H52.1668C52.9643 9.78867 53.6937 9.38103 54.276 8.80291C54.8583 8.22479 55.2711 7.49825 55.4697 6.70214H36.6831C36.8836 7.49734 37.297 8.22285 37.879 8.80067C38.4609 9.37849 39.1893 9.78677 39.9859 9.98159ZM39.9859 16.6061H52.1668C52.9643 16.4132 53.6937 16.0055 54.276 15.4274C54.8583 14.8493 55.2711 14.1228 55.4697 13.3266H36.6831C36.8831 14.1221 37.2964 14.8478 37.8784 15.4257C38.4604 16.0036 39.1891 16.4117 39.9859 16.6061ZM144.512 3.5398H156.692C157.491 3.34811 158.222 2.94097 158.805 2.36272C159.388 1.78447 159.802 1.05728 160 0.260346H141.209C141.407 1.05646 141.82 1.783 142.402 2.36112C142.985 2.93924 143.714 3.34688 144.512 3.5398Z" fill="#9FA6B2"/>
</svg>
