<svg width="140" height="36" viewBox="0 0 140 36" fill="none" xmlns="http://www.w3.org/2000/svg">
<path d="M45.206 14.6154C45.206 12.1191 42.7638 9.46782 38.5377 9.46782C33.7919 9.46782 28.5785 12.9282 27.7818 19.8318C26.9677 26.8043 31.3324 29.9031 35.7318 29.9031C40.1311 29.9031 42.4347 28.1988 44.7903 25.9263C42.7638 23.3955 40.1485 24.5662 39.6462 24.8244C39.0919 25.0999 38.3818 25.4786 36.9269 25.4786C35.2295 25.4786 33.4975 24.7211 33.4975 21.5706C44.3746 20.5032 45.206 17.1117 45.206 14.6154ZM39.8194 15.0286C39.7501 15.8033 39.4383 17.1289 33.9305 17.8692C35.0909 13.7718 37.3079 13.4619 38.3298 13.4619C39.2824 13.4619 39.8887 14.2022 39.8194 15.0286ZM21.3906 15.7C21.3906 15.7 19.0523 22.9995 18.8618 23.6021C18.7925 22.9823 17.0778 9.881 17.0778 9.881C13.0941 9.881 10.9638 12.7044 9.83793 15.6828C9.83793 15.6828 6.9974 22.9995 6.75492 23.6193C6.7376 23.0512 6.32191 15.7688 6.32191 15.7688C6.07943 12.1191 2.71929 9.89821 0 9.89821L3.29086 29.7482C7.46505 29.731 9.71669 26.9248 10.8945 23.9464C10.8945 23.9464 13.4059 17.4904 13.5098 17.1978C13.5272 17.4732 15.3111 29.7482 15.3111 29.7482C19.5027 29.7482 21.7543 27.1142 22.9667 24.2391L28.8383 9.89821C24.6988 9.89821 22.5164 12.7044 21.3906 15.7ZM60.5864 9.43338C58.0057 9.43338 56.0312 10.8279 54.3684 12.8766V12.8594L55.858 0.928711C52.4286 0.928711 49.64 3.88985 49.1031 8.29713L46.505 29.5932C48.4795 29.5932 50.5753 29.0251 51.7011 27.579C52.7057 28.8702 54.2125 29.9031 56.4469 29.9031C62.2318 29.9031 66.1982 23.2234 66.1982 16.9567C66.1636 11.2411 63.375 9.43338 60.5864 9.43338ZM60.0495 19.6769C59.4433 23.1717 57.4861 25.5475 55.5982 25.5475C53.6929 25.5475 52.8789 24.7039 52.8789 24.7039C53.2426 21.6395 53.4678 19.7629 54.1606 18.1446C54.8534 16.5264 56.4988 13.944 58.2135 13.944C59.8936 13.944 60.6557 16.1648 60.0495 19.6769ZM80.6433 9.89821H76.6077L76.625 9.69162C76.9021 7.0748 77.5257 5.69753 79.5868 5.47372C80.9897 5.33599 81.6133 4.61292 81.7691 3.82099C81.8904 3.20121 82.2714 1.04922 82.2714 1.04922C74.1655 0.997575 71.6195 4.47519 70.9613 9.7777L70.944 9.89821H70.8574C69.541 9.89821 68.0861 11.3788 67.8436 13.2553L67.757 13.944H70.459L68.19 32.5716L67.4972 35.9115C67.5838 35.9115 67.6877 35.9287 67.7743 35.9287C71.5675 35.791 73.9923 32.8126 74.5293 28.4914L76.2959 13.944H77.5603C78.8074 13.944 80.2623 12.7044 80.5221 10.6385L80.6433 9.89821ZM101.636 9.55389C96.9764 9.55389 92.577 12.9627 91.226 18.3168C89.8751 23.671 91.9188 30.0064 98.7777 30.0064C105.619 30.0064 109.568 23.4127 109.568 17.9208C109.568 12.4634 105.844 9.55389 101.636 9.55389ZM103.523 19.5047C103.281 21.9322 102.207 25.6164 99.2626 25.6164C96.3009 25.6164 96.7166 21.3124 97.011 19.2637C97.3228 17.0773 98.5525 13.9612 101.203 13.9612C103.575 13.9612 103.801 16.7674 103.523 19.5047ZM132.587 15.7C132.587 15.7 130.249 22.9995 130.058 23.6021C129.989 22.9823 128.274 9.881 128.274 9.881C124.29 9.881 122.16 12.7044 121.034 15.6828C121.034 15.6828 118.194 22.9995 117.951 23.6193C117.934 23.0512 117.518 15.7688 117.518 15.7688C117.276 12.1191 113.916 9.89821 111.196 9.89821L114.47 29.7482C118.644 29.731 120.896 26.9248 122.073 23.9464C122.073 23.9464 124.585 17.4904 124.672 17.1978C124.706 17.4732 126.473 29.7482 126.473 29.7482C130.664 29.7482 132.916 27.1142 134.128 24.2391L140 9.89821C135.878 9.89821 133.695 12.7044 132.587 15.7ZM84.4538 1.04922L81.059 28.2676L80.3662 31.6247C80.4528 31.6247 80.5567 31.6419 80.6433 31.6419C84.2979 31.5903 86.896 28.4053 87.3809 24.394L89.3381 8.77918C89.927 4.01036 87.0692 1.04922 84.4538 1.04922Z" fill="#9FA6B2"/>
</svg>
