<svg width="140" height="25" viewBox="0 0 140 25" fill="none" xmlns="http://www.w3.org/2000/svg">
<path d="M54.9531 2.93664C54.9531 1.7248 55.9313 0.801499 57.0822 0.801499C58.233 0.801499 59.2112 1.78251 59.2112 2.93664C59.2112 4.09077 58.233 5.07178 57.0822 5.07178C55.8738 5.07178 54.9531 4.09077 54.9531 2.93664Z" fill="#9FA6B2"/>
<path d="M88.5576 17.1324C88.5576 15.9206 89.5358 14.9973 90.6867 14.9973C91.8375 14.9973 92.8157 15.9783 92.8157 17.1324C92.8157 18.2866 91.8375 19.2676 90.6867 19.2676C89.4783 19.2676 88.5576 18.3443 88.5576 17.1324Z" fill="#9FA6B2"/>
<path d="M20.0249 16.2091C18.1836 16.2091 16.9177 14.7665 16.9177 12.689C16.9177 10.6116 18.1836 9.16895 20.0249 9.16895C21.8662 9.16895 23.1321 10.6116 23.1321 12.689C23.1321 14.8242 21.8662 16.2091 20.0249 16.2091ZM20.0249 5.99509C16.1696 5.99509 13.3501 8.82271 13.3501 12.6313C13.3501 16.44 16.1696 19.2676 20.0249 19.2676C23.9377 19.2676 26.7572 16.44 26.7572 12.6313C26.7572 8.82271 23.8802 5.99509 20.0249 5.99509Z" fill="#9FA6B2"/>
<path d="M50.8096 13.0349C50.637 12.7463 50.4644 12.5155 50.2918 12.3424L50.1767 12.227L50.2918 12.1116C50.4644 11.9385 50.637 11.7076 50.8096 11.4191L54.2046 6.34093H50.0616L47.4722 10.3227C47.2996 10.5535 47.0119 10.6689 46.6091 10.6689H46.0337V3.10937C46.0337 1.609 45.1131 1.37818 44.0773 1.37818H42.3511V19.2095H46.0337V13.8428H46.379C46.7818 13.8428 47.0695 13.9005 47.2421 14.1313L49.256 17.9976C49.8315 19.0364 50.4069 19.2095 51.4426 19.2095H54.2621L52.1331 15.7471L50.8096 13.0349Z" fill="#9FA6B2"/>
<path d="M68.7054 5.99469C66.8066 5.99469 65.6557 6.80258 64.9652 7.55277L64.7351 7.78359L64.6775 7.49506C64.5049 6.74488 63.8144 6.34093 62.8362 6.34093H61.1675V19.2095H64.8501V13.208C64.8501 12.6309 64.9077 12.1116 65.0803 11.6499C65.4831 10.265 66.6339 9.39937 68.0149 9.39937C69.1658 9.39937 69.6261 9.97644 69.6261 11.5922V17.1897C69.6261 18.517 70.259 19.1518 71.5825 19.1518H73.3087V10.9574C73.2512 7.72589 71.6976 5.99469 68.7054 5.99469Z" fill="#9FA6B2"/>
<path d="M57.1393 6.2838H55.4131V16.2093V19.1523H57.2544H57.312H58.1751H59.0382V8.24582C59.0382 6.91857 58.4052 6.2838 57.1393 6.2838Z" fill="#9FA6B2"/>
<path d="M34.353 16.209C32.5117 16.209 31.2458 14.7664 31.2458 12.689C31.2458 10.6115 32.5117 9.16886 34.353 9.16886C36.1943 9.16886 37.4603 10.6115 37.4603 12.689C37.5178 14.8241 36.2519 16.209 34.353 16.209ZM34.353 5.995C30.4977 5.995 27.6782 8.82262 27.6782 12.6312C27.6782 16.4399 30.4977 19.3252 34.353 19.3252C38.2658 19.3252 41.0854 16.4976 41.0854 12.689C41.0854 8.88032 38.2658 5.995 34.353 5.995Z" fill="#9FA6B2"/>
<path d="M112.781 16.2078C110.939 16.2078 109.674 14.7651 109.674 12.6877C109.674 10.6102 110.939 9.16757 112.781 9.16757C114.622 9.16757 115.888 10.6102 115.888 12.6877C115.888 14.8228 114.622 16.2078 112.781 16.2078ZM112.781 5.99372C108.925 5.99372 106.106 8.82134 106.106 12.63C106.106 16.4386 108.925 19.2662 112.781 19.2662C116.636 19.3239 119.513 16.554 119.513 12.6877C119.513 8.82134 116.636 5.99372 112.781 5.99372Z" fill="#9FA6B2"/>
<path d="M80.9612 15.6887C78.9473 15.6887 78.2568 13.9575 78.2568 12.284C78.2568 11.5339 78.4294 9.22559 80.7886 9.22559C81.9395 9.22559 83.4931 9.57183 83.4931 12.3994C83.4931 15.1117 82.1121 15.6887 80.9612 15.6887ZM85.3919 6.22486C84.7014 6.22486 84.1836 6.51339 83.8958 7.03275L83.7808 7.20587L83.6081 7.03275C83.0327 6.51339 81.9395 5.93632 80.2132 5.93632C76.8183 5.93632 74.5166 8.53312 74.5166 12.3417C74.5166 16.1504 76.8758 18.8626 80.3283 18.8626C81.4791 18.8626 82.3998 18.574 83.1478 18.0547L83.4355 17.8239V18.1701C83.4355 19.9013 82.3423 20.8246 80.3283 20.8246C79.3501 20.8246 78.487 20.5938 77.854 20.3629C77.106 20.1321 76.6457 20.3052 76.3004 21.1131L76.0127 21.8056L75.6099 22.8443L75.84 22.9597C77.106 23.6522 78.7747 24.0562 80.3283 24.0562C83.4355 24.0562 87.0606 22.4404 87.0606 17.9393V6.10945L85.3919 6.22486Z" fill="#9FA6B2"/>
<path d="M6.38712 16.092H3.39496V12.5142C3.39496 11.7641 3.68265 11.3601 4.31561 11.2447H6.32956C7.76809 11.2447 8.68878 12.168 8.68878 13.6684C8.74632 15.1687 7.8832 16.092 6.38712 16.092ZM3.39496 6.45506V5.53175C3.39496 4.72386 3.74019 4.31992 4.48822 4.26221H5.98432C7.30778 4.26221 8.0558 5.0701 8.0558 6.33964C8.0558 7.32065 7.53793 8.53249 6.04185 8.53249H3.3374L3.39496 6.45506ZM10.1848 10.0329L9.66695 9.74433L10.1273 9.34038C10.6452 8.87873 11.5658 7.78231 11.5658 5.99341C11.5658 3.16579 9.37925 1.37689 6.04185 1.37689H2.24413H1.78381C0.805601 1.4346 0 2.24249 0 3.2235V19.0928H1.78381H6.15694C9.89713 19.0928 12.3139 17.073 12.3139 13.8992C12.2563 12.2257 11.5083 10.7253 10.1848 10.0329Z" fill="#9FA6B2"/>
<path d="M135.798 6.05151C134.302 6.05151 132.806 6.74399 131.885 7.95582L131.598 8.30206L131.367 7.89812C130.677 6.68628 129.526 6.05151 127.915 6.05151C126.189 6.05151 125.095 6.97482 124.52 7.55188L124.175 7.95582L124.06 7.43647C123.887 6.74399 123.254 6.34004 122.276 6.34004H120.722V19.1509H124.232V13.4956C124.232 12.9763 124.29 12.5146 124.405 11.9953C124.75 10.6103 125.671 9.16766 127.167 9.28307C128.145 9.39849 128.605 10.091 128.605 11.5336V19.1509H132.115V13.4956C132.115 12.8609 132.173 12.3992 132.288 11.9376C132.576 10.6103 133.554 9.28307 134.992 9.28307C136.086 9.28307 136.489 9.91784 136.489 11.5336V17.2466C136.489 18.5161 137.064 19.0932 138.33 19.0932H139.999V10.8989C140.056 7.66729 138.675 6.05151 135.798 6.05151Z" fill="#9FA6B2"/>
<path d="M104.035 14.7075C104.035 14.7075 102.539 16.3233 100.525 16.3233C98.7414 16.3233 96.9001 15.2269 96.9001 12.7455C96.9001 10.6104 98.3386 9.10999 100.353 9.10999C100.986 9.10999 101.734 9.34082 101.849 9.74477V9.80247C102.136 10.7258 102.942 10.7258 103.115 10.7258H105.013V9.05229C105.013 6.85944 102.194 6.05155 100.295 6.05155C96.2671 6.05155 93.3325 8.87917 93.3325 12.7455C93.3325 16.6118 96.2096 19.4395 100.237 19.4395C103.69 19.4395 105.589 17.1312 105.589 17.1312L105.704 17.0158L104.208 14.4767L104.035 14.7075Z" fill="#9FA6B2"/>
</svg>
