<svg width="141" height="51" viewBox="0 0 141 51" fill="none" xmlns="http://www.w3.org/2000/svg">
<g clip-path="url(#clip0_248_208)">
<path fill-rule="evenodd" clip-rule="evenodd" d="M31.3704 5.86963C35.4122 5.86963 38.688 9.22139 38.688 13.3565C38.6914 14.8931 38.2288 16.3936 37.3629 17.6541C36.497 18.9147 35.2698 19.8744 33.8478 20.4029L39.7461 31.1726H43.7838C44.4056 31.1726 44.9098 31.6873 44.9098 32.3235C44.9098 32.9596 44.4056 33.4743 43.7838 33.4743H39.1049C39.0934 33.4745 39.0819 33.4745 39.0704 33.4743H1.74115C1.12028 33.4743 0.616074 32.9596 0.616074 32.3235C0.616074 31.6873 1.12028 31.1726 1.74216 31.1726H5.77984L16.2829 12.0646C16.3772 11.893 16.5136 11.7489 16.679 11.6466C16.8443 11.5442 17.033 11.487 17.2266 11.4805C17.4201 11.474 17.6121 11.5183 17.7838 11.6093C17.9555 11.7003 18.101 11.8348 18.2064 11.9998L24.2406 21.459L26.1174 18.5674C24.7896 17.1677 24.0494 15.2994 24.0529 13.3565C24.0529 9.22139 27.3297 5.86963 31.3714 5.86963H31.3704ZM25.5787 23.558L30.4361 31.1726H37.1662L29.6011 17.3599L25.5787 23.558ZM27.7497 31.1726L17.3339 14.8461L8.36071 31.1726H27.7487H27.7497ZM36.5778 13.3565C36.5808 14.5117 36.2135 15.6365 35.5313 16.5612C34.849 17.486 33.8889 18.1605 32.7958 18.483L30.6643 14.5908C30.5706 14.4195 30.4349 14.2756 30.2704 14.1731C30.1059 14.0705 29.9181 14.0127 29.7252 14.0053C29.5323 13.9978 29.3407 14.041 29.169 14.1305C28.9973 14.2201 28.8512 14.3531 28.7449 14.5167L27.3226 16.7093C26.5693 15.7593 26.1597 14.5759 26.162 13.3565C26.162 10.4135 28.4943 8.02831 31.3704 8.02831C34.2465 8.02831 36.5778 10.4135 36.5778 13.3565Z" fill="#9FA6B2"/>
<path d="M10.3745 36.9302C9.75462 36.9302 9.25143 37.4449 9.25143 38.08C9.25143 38.7152 9.75462 39.2289 10.3745 39.2289H35.1484C35.7692 39.2289 36.2724 38.7141 36.2724 38.08C36.2724 37.4449 35.7692 36.9302 35.1494 36.9302H10.3745ZM19.0108 42.6846C18.389 42.6846 17.8848 43.2003 17.8848 43.8365C17.8848 44.4717 18.389 44.9874 19.0108 44.9874H26.514C27.1349 44.9874 27.6391 44.4727 27.6391 43.8365C27.6391 43.2003 27.1349 42.6846 26.513 42.6846H19.0108Z" fill="#9FA6B2"/>
<path fill-rule="evenodd" clip-rule="evenodd" d="M122.382 23.2369C121.385 21.9501 119.893 21.2573 117.972 21.2573C114.944 21.2573 111.835 23.8597 111.835 28.2429C111.835 32.6262 114.944 35.2285 117.972 35.2285C119.893 35.2285 121.385 34.5491 122.382 33.2489V34.3381C122.382 36.855 120.888 38.3826 118.18 38.3826C116.562 38.3826 115.028 37.8442 113.687 37.0104L112.636 39.5139C114.032 40.532 116.202 41.0838 118.18 41.0838C122.603 41.0838 125.284 38.4681 125.284 34.2104V21.6104H122.382V23.2369ZM114.806 28.2429C114.806 25.9525 116.271 24.0429 118.717 24.0429C121.054 24.0429 122.63 25.8681 122.63 28.2429C122.63 30.6188 121.054 32.4429 118.717 32.4429C116.271 32.4429 114.806 30.521 114.806 28.2429ZM106.468 23.2513C105.556 22.0489 104.188 21.2573 102.308 21.2573C98.6049 21.2573 95.6872 24.2406 95.6872 28.3839C95.6872 32.5273 98.6039 35.5116 102.308 35.5116C104.189 35.5116 105.556 34.7344 106.468 33.532V35.1585H109.358V21.6114H106.468V23.2513ZM98.6587 28.3839C98.6587 26.0091 100.166 24.0429 102.654 24.0429C105.045 24.0429 106.649 25.9092 106.649 28.3839C106.649 30.8587 105.045 32.726 102.654 32.726C100.166 32.726 98.6587 30.7598 98.6587 28.3839ZM140.615 28.3706C140.602 24.1428 138.059 21.2573 134.354 21.2573C130.456 21.2573 127.76 24.1428 127.76 28.385C127.76 32.6838 130.567 35.5126 134.533 35.5126C136.538 35.5126 138.362 35.0185 139.979 33.6041L138.541 31.4959C137.45 32.3863 136.04 32.9247 134.713 32.9247C132.833 32.9247 131.161 31.9056 130.773 29.4731H140.56C140.588 29.1344 140.615 28.7525 140.615 28.3706ZM130.788 27.2248C131.092 25.2453 132.238 23.8875 134.298 23.8875C136.137 23.8875 137.339 25.1176 137.657 27.2248H130.788Z" fill="#9FA6B2"/>
<path d="M65.8804 29.5019L60.254 15.3599H55.4575V35.1585H58.5822V19.0225L64.2339 33.2212H67.5239L73.1777 18.8671V35.1585H76.3023V15.3599H71.5048L65.8794 29.5019H65.8804ZM82.9959 35.1585V21.6115H80.0935V35.1585H82.9959ZM95.3545 21.6393C94.691 21.3706 94.0133 21.2584 93.1287 21.2584C91.5116 21.2584 90.1562 21.8513 89.2858 23.1381V21.6094H86.4249V35.1565H89.3142V27.7035C89.3142 25.3997 90.6269 24.0697 92.4652 24.0697C93.1703 24.0697 94.0549 24.2396 94.6626 24.5649L95.3545 21.6382V21.6393ZM83.5762 16.9297C83.5762 15.7562 82.6774 14.8369 81.53 14.8369C80.3836 14.8369 79.5111 15.7562 79.5111 16.9297C79.5111 18.1032 80.3836 18.9947 81.53 18.9947C82.6774 18.9947 83.5762 18.1032 83.5762 16.9297Z" fill="#9FA6B2"/>
</g>
<defs>
<clipPath id="clip0_248_208">
<rect width="140" height="49.4118" fill="white" transform="translate(0.615051 0.722656)"/>
</clipPath>
</defs>
</svg>
