<svg width="121" height="47" viewBox="0 0 121 47" fill="none" xmlns="http://www.w3.org/2000/svg">
<g clip-path="url(#clip0_248_214)">
<path d="M3.74261 28.0613L17.6796 13.117L14.5511 10.2002L0.615051 25.1444L3.74261 28.0613ZM6.08781 37.6018L20.0229 22.6575L16.8954 19.7407L2.96025 34.6849L6.08781 37.6018ZM35.6258 20.3898C35.2622 19.9353 34.7954 19.5741 34.2642 19.3363C33.7029 19.0755 33.1625 18.9451 32.6409 18.9451C32.3725 18.9451 32.1004 18.9687 31.8245 19.0159C31.5476 19.0632 31.2991 19.1548 31.078 19.289C30.8569 19.4232 30.6717 19.597 30.5206 19.8096C30.3713 20.0232 30.2966 20.2953 30.2966 20.627C30.2966 20.9104 30.3552 21.1485 30.4743 21.3375C30.5924 21.5265 30.7662 21.6928 30.9949 21.8355C31.2236 21.9772 31.4957 22.1076 31.8122 22.2257C32.1278 22.3448 32.4831 22.4667 32.878 22.5933C33.4469 22.7822 34.0393 22.992 34.6544 23.2207C35.2561 23.4419 35.8226 23.749 36.3363 24.1325C36.8418 24.5114 37.2604 24.9819 37.5921 25.5422C37.9228 26.1026 38.0891 26.8018 38.0891 27.6389C38.0891 28.6018 37.9114 29.4342 37.5562 30.1372C37.218 30.8195 36.728 31.4152 36.1237 31.8786C35.507 32.3448 34.8078 32.6904 34.0629 32.8972C33.2848 33.1186 32.4795 33.2299 31.6705 33.2279C30.4705 33.2279 29.3092 33.02 28.1886 32.6015C27.067 32.1829 26.1354 31.5867 25.3927 30.8128L28.0459 28.1123C28.4569 28.6178 28.9974 29.0402 29.6683 29.3794C30.3391 29.7196 31.0072 29.8896 31.6705 29.8896C31.97 29.8896 32.262 29.8575 32.5464 29.7942C32.8308 29.7309 33.0793 29.6279 33.2928 29.4862C33.5054 29.3444 33.6755 29.1545 33.8021 28.9174C33.9288 28.6811 33.9911 28.3967 33.9911 28.0651C33.9911 27.7495 33.9127 27.4802 33.7549 27.2591C33.5717 27.0153 33.3421 26.8101 33.0793 26.6553C32.7355 26.4501 32.3702 26.2834 31.9899 26.1583C31.5552 26.0081 31.062 25.8465 30.5092 25.6726C29.9724 25.4989 29.4464 25.2932 28.9341 25.0566C28.4312 24.8266 27.9675 24.5189 27.5602 24.1448C27.1501 23.7632 26.8199 23.3039 26.5889 22.7936C26.3442 22.2654 26.2223 21.6219 26.2223 20.8641C26.2223 19.9325 26.4113 19.135 26.7902 18.4717C27.1578 17.8209 27.6683 17.262 28.2831 16.837C28.9163 16.4029 29.6223 16.0861 30.3675 15.9016C31.1337 15.705 31.9216 15.6053 32.7127 15.6049C33.6595 15.6049 34.627 15.7788 35.6135 16.1265C36.6009 16.4742 37.4654 16.9863 38.2081 17.6667L35.6258 20.3898ZM44.7694 23.9199V28.4204C44.7694 28.9731 44.8762 29.387 45.0888 29.6638C45.3023 29.9397 45.685 30.0786 46.2377 30.0786C46.4267 30.0786 46.6289 30.0626 46.8424 30.0314C47.0253 30.008 47.2042 29.9604 47.3744 29.8896L47.4217 32.7309C47.1543 32.8254 46.8141 32.9085 46.404 32.9804C45.9971 33.0509 45.5849 33.0863 45.1719 33.0862C44.382 33.0862 43.7187 32.9879 43.182 32.7904C42.6453 32.593 42.2154 32.3085 41.8913 31.9382C41.5608 31.5546 41.3217 31.101 41.1921 30.6115C41.0441 30.0511 40.9726 29.4733 40.9795 28.8937V23.9199H39.084V21.0059H40.9549V17.9029H44.7694V21.0059H47.5407V23.9199H44.7694ZM56.3291 27.6616H55.8311C55.405 27.6616 54.975 27.6815 54.5404 27.7211C54.1058 27.7608 53.7184 27.8364 53.3801 27.946C53.0663 28.0415 52.7786 28.2076 52.5391 28.4317C52.318 28.6452 52.2075 28.9259 52.2075 29.2726C52.2075 29.4937 52.2585 29.6837 52.3615 29.8415C52.4636 29.9993 52.5939 30.1249 52.7517 30.2204C52.9095 30.3148 53.0919 30.3819 53.2969 30.4216C53.502 30.4613 53.6995 30.4811 53.8894 30.4811C54.6784 30.4811 55.2821 30.2638 55.7007 29.8292C56.1193 29.3945 56.3291 28.8068 56.3291 28.0651V27.6626V27.6616ZM49.199 22.6159C49.894 21.9528 50.7216 21.4443 51.6273 21.124C52.5347 20.7955 53.4923 20.6273 54.4573 20.627C55.4522 20.627 56.2932 20.7498 56.9801 20.9945C57.667 21.2393 58.2236 21.6181 58.6497 22.1312C59.0768 22.6443 59.3886 23.2915 59.5851 24.0739C59.7836 24.8553 59.8818 25.7832 59.8818 26.8566V32.8027H56.3291V31.547H56.2573C55.9577 32.0364 55.5032 32.4163 54.8957 32.6837C54.2721 32.9553 53.5982 33.0924 52.918 33.0862C52.4224 33.0836 51.9289 33.0202 51.4487 32.8972C50.9542 32.7754 50.4852 32.5669 50.0636 32.2811C49.6366 31.9874 49.284 31.5982 49.0336 31.1444C48.7643 30.6701 48.6302 30.0862 48.6302 29.3917C48.6302 28.5385 48.8636 27.8515 49.3294 27.3309C49.7952 26.8093 50.3952 26.4068 51.1294 26.1224C51.8636 25.8389 52.6809 25.649 53.5813 25.5545C54.4809 25.46 55.3577 25.4119 56.21 25.4119V25.2229C56.21 24.638 56.005 24.2081 55.5949 23.9312C55.1839 23.6553 54.6784 23.5164 54.0784 23.5164C53.5256 23.5164 52.9927 23.6355 52.4796 23.8726C51.9999 24.0873 51.5563 24.3748 51.1643 24.7249L49.199 22.6169V22.6159ZM66.8569 23.9199V28.4204C66.8569 28.9731 66.9628 29.387 67.1763 29.6638C67.3889 29.9397 67.7716 30.0786 68.3253 30.0786C68.5143 30.0786 68.7155 30.0626 68.9291 30.0314C69.1426 29.9993 69.3202 29.952 69.462 29.8896L69.5092 32.7309C69.2409 32.8254 68.9017 32.9085 68.4906 32.9804C68.084 33.0508 67.6721 33.0862 67.2595 33.0862C66.4695 33.0862 65.8062 32.9879 65.2695 32.7904C64.7328 32.593 64.302 32.3085 63.9788 31.9382C63.6483 31.5546 63.4092 31.101 63.2796 30.6115C63.1314 30.0512 63.0595 29.4733 63.0661 28.8937V23.9199H61.1725V21.0059H63.0434V17.9029H66.8579V21.0059H69.6292V23.9199H66.8579H66.8569ZM75.668 17.2396C75.668 17.54 75.6084 17.8197 75.4903 18.0805C75.3772 18.3339 75.2165 18.5633 75.0169 18.7561C74.5888 19.1535 74.0259 19.3737 73.4418 19.3722C72.8097 19.3722 72.2806 19.1624 71.8544 18.7438C71.6495 18.551 71.4869 18.3177 71.3768 18.0588C71.2667 17.7999 71.2115 17.5209 71.2147 17.2396C71.2147 16.9561 71.2705 16.683 71.381 16.4222C71.4916 16.1624 71.6494 15.9366 71.8544 15.7476C72.0595 15.5586 72.2966 15.4037 72.565 15.2856C72.8333 15.1674 73.1253 15.1079 73.4418 15.1079C73.7413 15.1079 74.0295 15.1627 74.3064 15.2733C74.5823 15.3838 74.8195 15.5341 75.0169 15.724C75.2144 15.913 75.3722 16.1388 75.4903 16.3986C75.6094 16.6594 75.668 16.94 75.668 17.2396ZM71.5001 32.8018V21.0068H75.3845V32.8037H71.5001V32.8018ZM85.9313 24.8194C85.6914 24.5207 85.3823 24.2849 85.0308 24.1325C84.6675 23.9626 84.2715 23.8739 83.8705 23.8726C83.4595 23.8726 83.0881 23.9548 82.7565 24.1211C82.4306 24.2826 82.1407 24.5083 81.9042 24.7844C81.668 25.0604 81.4818 25.3797 81.3467 25.7435C81.2113 26.1153 81.1435 26.5082 81.1464 26.9038C81.1464 27.3148 81.2097 27.7013 81.3354 28.0651C81.4562 28.4184 81.6457 28.7443 81.8928 29.0241C82.1366 29.301 82.4295 29.5174 82.7687 29.6761C83.1089 29.8339 83.4916 29.9123 83.9177 29.9123C84.3127 29.9123 84.7029 29.8367 85.0894 29.6874C85.4768 29.5372 85.7886 29.3199 86.0248 29.0355L88.181 31.6651C87.6916 32.1394 87.0604 32.5098 86.2865 32.7782C85.4936 33.0501 84.6605 33.1865 83.8223 33.1816C82.936 33.1888 82.0549 33.0443 81.2173 32.7545C80.4408 32.4876 79.7272 32.0644 79.1206 31.5111C78.5217 30.9567 78.0456 30.283 77.7231 29.5334C77.3829 28.7596 77.2138 27.8837 77.2138 26.9038C77.2138 25.94 77.3839 25.0726 77.724 24.2988C78.0463 23.5493 78.522 22.8756 79.1206 22.3211C79.7285 21.7664 80.4414 21.339 81.2173 21.0644C82.4506 20.6244 83.7776 20.5143 85.0667 20.7451C85.4853 20.8244 85.8878 20.9312 86.2743 21.0654C86.6617 21.1996 87.0169 21.3649 87.3401 21.5624C87.6642 21.7608 87.9448 21.9772 88.181 22.2144L85.9313 24.8194ZM100.19 32.8027L93.9609 25.0802H93.9136V32.8027H89.9338V16.0301H93.9136V22.8522H93.9845L99.9779 16.0301H105.046L97.8217 23.7526L105.473 32.8018H100.19V32.8027ZM110.779 17.2405C110.779 17.54 110.72 17.8197 110.601 18.0815C110.488 18.3346 110.327 18.5637 110.128 18.7561C109.7 19.1532 109.137 19.3733 108.553 19.3722C107.921 19.3722 107.391 19.1624 106.965 18.7438C106.76 18.551 106.598 18.3177 106.488 18.0588C106.378 17.7998 106.322 17.5209 106.326 17.2396C106.326 16.9561 106.381 16.683 106.492 16.4222C106.602 16.1624 106.76 15.9366 106.965 15.7476C107.17 15.5586 107.407 15.4037 107.676 15.2856C107.944 15.1674 108.236 15.1079 108.553 15.1079C109.137 15.1068 109.7 15.3269 110.128 15.724C110.325 15.913 110.483 16.1388 110.601 16.3986C110.72 16.6594 110.779 16.94 110.779 17.2396V17.2405ZM106.61 32.8027V21.0059H110.494V32.8027H106.61ZM117.791 23.9199V28.4204C117.791 28.9731 117.897 29.387 118.11 29.6638C118.324 29.9397 118.706 30.0786 119.259 30.0786C119.448 30.0786 119.65 30.0626 119.863 30.0314C120.046 30.0082 120.225 29.9606 120.396 29.8896L120.443 32.7309C120.175 32.8254 119.836 32.9085 119.424 32.9804C119.018 33.0508 118.606 33.0862 118.193 33.0862C117.403 33.0862 116.74 32.9879 116.203 32.7904C115.667 32.593 115.236 32.3085 114.913 31.9382C114.582 31.5545 114.343 31.1009 114.213 30.6115C114.066 30.0511 113.994 29.4733 114.001 28.8937V23.9199H112.105V21.0059H113.977V17.9029H117.791V21.0059H120.562V23.9199H117.791Z" fill="#9FA6B2"/>
</g>
<defs>
<clipPath id="clip0_248_214">
<rect width="120" height="45.3543" fill="white" transform="translate(0.615051 0.751465)"/>
</clipPath>
</defs>
</svg>
