<svg width="121" height="55" viewBox="0 0 121 55" fill="none" xmlns="http://www.w3.org/2000/svg">
<g clip-path="url(#clip0_248_202)">
<path fill-rule="evenodd" clip-rule="evenodd" d="M21.1865 4.57129L0.615051 11.4284V33.7141L7.47219 35.9999V42.2856L28.0436 49.1427V13.1427L21.1865 15.4284V4.57129ZM9.75791 36.7621L21.1865 40.5713V17.8376L25.7579 16.3141V45.9713L9.75791 40.6399V36.7633V36.7621Z" fill="#9FA6B2"/>
<path d="M49.6436 23.3712V35.4283H54.7248V23.3712H58.759V19.4946H45.6322V23.3723H49.6436V23.3712ZM61.3065 28.8546C61.3065 33.4009 63.935 35.7186 68.5933 35.7186C73.0505 35.7186 75.903 33.6009 75.903 28.8101V19.4946H70.8219V28.6318C70.8219 30.7266 70.3762 31.7518 68.5933 31.7518C66.7876 31.7518 66.3419 30.7266 66.3419 28.6546V19.4946H61.3065V28.8546Z" fill="#9FA6B2"/>
<path fill-rule="evenodd" clip-rule="evenodd" d="M79.4322 35.4283V19.4946H85.7842C90.375 19.4946 92.3362 21.5449 92.3362 24.9541V25.0432C92.3362 28.3643 90.1305 30.2363 86.0071 30.2363H84.4688V35.4283H79.4322ZM85.5156 26.8489H84.4688V23.2603H85.5385C86.8528 23.2603 87.5442 23.7518 87.5442 24.9769V25.0661C87.5442 26.2466 86.8528 26.8489 85.5156 26.8489Z" fill="#9FA6B2"/>
<path d="M94.9728 35.4283V19.4946H100.032V31.5289H105.826V35.4283H94.9728ZM108.686 19.4946V35.4283H120.364V31.5506H113.722V29.1666H118.714V25.6238H113.722V23.3723H120.007V19.4946H108.686Z" fill="#9FA6B2"/>
</g>
<defs>
<clipPath id="clip0_248_202">
<rect width="120" height="54.8571" fill="white" transform="translate(0.615051)"/>
</clipPath>
</defs>
</svg>
