<svg width="40" height="40" viewBox="0 0 40 40" fill="none" xmlns="http://www.w3.org/2000/svg">
<circle cx="20" cy="20" r="20" fill="#47ACDF"/>
<path d="M15.9054 29.0714C13.3637 29.0714 10.9943 28.3321 9 27.0566C10.6932 27.1661 13.6813 26.9037 15.54 25.1309C12.744 25.0026 11.4831 22.8582 11.3186 21.9418C11.5562 22.0335 12.6892 22.1434 13.3288 21.8868C10.1125 21.0804 9.61909 18.2579 9.72873 17.3965C10.3318 17.818 11.3551 17.9646 11.7572 17.928C8.76019 15.7836 9.83838 12.5579 10.3683 11.8614C12.5191 14.8411 15.7424 16.5146 19.73 16.6077C19.6548 16.2779 19.6151 15.9346 19.6151 15.582C19.6151 13.0514 21.6605 11 24.1837 11C25.502 11 26.6899 11.56 27.5238 12.4558C28.4047 12.2494 29.7305 11.7661 30.3787 11.3482C30.052 12.5212 29.0349 13.4997 28.4196 13.8624C28.4247 13.8748 28.4146 13.85 28.4196 13.8624C28.9601 13.7807 30.4223 13.4996 31 13.1077C30.7143 13.7667 29.636 14.8624 28.7511 15.4758C28.9157 22.737 23.3601 29.0714 15.9054 29.0714Z" fill="white"/>
</svg>
