<svg width="24" height="24" viewBox="0 0 24 24" fill="none" xmlns="http://www.w3.org/2000/svg">
<rect width="24" height="24" rx="12" fill="white"/>
<path fill-rule="evenodd" clip-rule="evenodd" d="M19.6329 8.26742C19.7442 7.89659 19.6329 7.62402 19.1035 7.62402H17.3531C16.908 7.62402 16.703 7.85945 16.5917 8.11914C16.5917 8.11914 15.7015 10.2888 14.4404 11.6981C14.0325 12.1061 13.847 12.2357 13.6245 12.2357C13.5132 12.2357 13.3522 12.1061 13.3522 11.7352V8.26742C13.3522 7.82232 13.223 7.62402 12.8521 7.62402H10.1014C9.82336 7.62402 9.65607 7.83057 9.65607 8.02637C9.65607 8.44834 10.2865 8.54561 10.3515 9.73239V12.3101C10.3515 12.8752 10.2495 12.9778 10.0269 12.9778C9.43352 12.9778 7.99018 10.7983 7.13398 8.30456C6.96619 7.81982 6.7979 7.62402 6.35055 7.62402H4.60014C4.10002 7.62402 4 7.85945 4 8.11914C4 8.58275 4.59351 10.8823 6.76314 13.9235C8.20973 16.0002 10.2475 17.1262 12.1019 17.1262C13.2146 17.1262 13.3522 16.8762 13.3522 16.4455V14.8757C13.3522 14.3756 13.4576 14.2758 13.8098 14.2758C14.0696 14.2758 14.5146 14.4056 15.5532 15.407C16.74 16.5936 16.9355 17.1262 17.6032 17.1262H19.3536C19.8537 17.1262 20.1038 16.8762 19.9595 16.3827C19.8017 15.8908 19.2351 15.1774 18.4831 14.3315C18.0752 13.8492 17.4631 13.33 17.2778 13.0704C17.0182 12.7366 17.0923 12.5883 17.2778 12.2917C17.2778 12.2917 19.4103 9.28754 19.6329 8.26755V8.26742Z" fill="black"/>
</svg>
