<svg width="140" height="36" viewBox="0 0 140 36" fill="none" xmlns="http://www.w3.org/2000/svg">
<path d="M137.284 0.94751C95.3269 1.11357 53.3697 1.33498 11.4125 1.22427C6.15398 1.22427 2.94351 2.82949 0.840118 7.25769C0.784766 7.42375 0.729434 7.58981 0.618729 8.14334H2.72212C47.0041 8.14334 91.2308 8.14334 135.513 8.14334C139.941 8.14334 139.83 8.14333 139.996 3.65978C140.052 1.55638 139.498 0.94751 137.284 0.94751ZM14.4569 3.43837C13.1284 7.20234 12.6302 7.47911 8.47879 6.87023C9.69655 2.44203 10.6929 1.61174 13.7926 2.05456C15.0104 2.22062 14.7336 2.66344 14.4569 3.43837ZM18.9958 7.147C17.8887 7.03629 17.6119 6.81488 18.0548 5.70783C19.3832 1.99921 19.7153 1.7778 24.0882 2.33132C22.7597 6.70417 21.9294 7.42376 18.9958 7.147ZM33.8302 3.49373C32.5018 7.20235 32.1143 7.47912 27.7968 6.92559C29.1806 2.27598 29.7342 1.7778 32.8339 2.05456C33.8856 2.16526 34.2731 2.27597 33.8302 3.49373ZM42.5759 4.2133C41.9117 5.20965 42.0224 6.87023 40.4172 7.09164C39.3655 7.2577 37.9263 7.64517 37.2621 6.87023C36.4872 5.98459 37.7602 4.93289 38.037 3.93654C38.4798 2.27597 39.5869 1.83315 41.1368 2.10992C43.0188 1.83315 43.7383 2.38667 42.5759 4.2133ZM52.5394 3.43837C51.1556 7.20234 50.7681 7.47912 46.5613 6.92559C47.7237 2.49739 48.4433 1.83315 51.543 2.10992C52.5394 2.10992 52.9822 2.16526 52.5394 3.43837ZM56.3587 7.147C55.307 7.03629 54.9749 6.81488 55.3623 5.65247C56.5801 1.99921 56.9676 1.72244 61.2851 2.27597C60.2334 6.59346 59.2924 7.47911 56.3587 7.147ZM74.625 3.49373C73.2412 7.20235 72.9091 7.47912 68.5916 6.92559C69.8647 2.44204 70.5289 1.83315 73.6287 2.05456C74.625 2.16526 75.0678 2.22062 74.625 3.49373ZM77.0605 6.98093C77.8908 2.22061 78.4997 1.72244 83.094 2.33132C82.0423 7.03628 81.5994 7.3684 77.0605 6.98093ZM85.9723 7.147C84.7545 7.03629 84.6438 6.75953 85.0313 5.70783C86.3044 1.99921 86.7472 1.72244 91.0094 2.33132C89.6809 6.87023 89.072 7.36841 85.9723 7.147ZM95.3822 7.147C94.6626 7.03629 94.2198 6.98094 94.4412 6.03995C95.1055 3.10626 96.3785 2.05456 99.4783 2.10992C99.8658 2.10992 100.198 2.16527 100.751 2.22063C98.9248 7.147 98.4266 7.58982 95.3822 7.147ZM103.63 6.98093C104.239 2.38667 105.069 1.77779 109.663 2.27597C108.335 7.3684 108.335 7.3684 103.63 6.98093ZM113.815 7.147C112.486 6.92559 112.375 6.64882 112.818 5.48642C114.202 1.88851 114.257 1.83316 119.128 2.22063C117.689 4.60079 117.689 7.75587 113.815 7.147ZM122.671 7.147C121.287 6.92559 121.232 6.64882 121.675 5.48642C123.114 1.88851 123.114 1.83316 127.929 2.22063C126.546 4.65614 126.546 7.75587 122.671 7.147ZM130.42 6.87023C131.86 1.83316 131.915 1.83316 136.62 2.22063C135.568 7.147 135.015 7.53446 130.42 6.87023Z" fill="#2FC1ED"/>
<path d="M88.0757 26.7417C87.3008 25.9667 86.3598 26.3542 85.4742 26.3542C58.7943 26.3542 32.1144 26.3542 5.43446 26.3542C4.54882 26.3542 3.6078 26.0774 2.77751 26.631C2.72216 28.3469 2.83287 30.1182 2.61146 31.7787C2.27935 34.491 3.10963 35.3767 6.09866 35.3767C30.5645 35.2659 55.0856 35.3213 79.5514 35.2659C82.2637 35.2659 85.917 36.4284 87.5222 34.8231C89.2381 33.1072 87.9097 29.5093 88.0757 26.7417ZM7.48248 33.6607C7.20571 31.3913 6.98432 29.8968 6.70756 27.8487C7.98067 29.2325 9.03235 29.8414 10.3608 28.5683C9.53052 30.0628 8.70023 31.5573 7.48248 33.6607ZM12.3535 32.9965C11.3018 33.1625 10.5269 32.4983 10.6376 31.4466C10.7483 30.3396 11.5232 29.7307 12.6303 29.5093C13.5159 29.62 14.2355 30.0628 14.1801 31.0038C14.1801 32.1109 13.4052 32.8304 12.3535 32.9965ZM18.2762 32.8304C18.0548 33.1072 16.2282 33.6054 15.6193 32.5537C15.0104 31.4466 15.564 30.3949 16.2835 29.4539C17.5566 30.1735 16.2282 31.1145 16.8924 31.7787C18.1655 31.5573 17.2245 29.8414 18.6083 29.5646C19.2726 30.727 18.9958 31.9448 18.2762 32.8304ZM20.8224 32.9965C20.3796 31.3359 19.8815 29.5646 23.424 29.7307C21.7634 30.727 21.4867 32.0001 20.8224 32.9965ZM28.5718 32.7197C28.0183 33.55 27.2987 33.1625 27.1326 32.1662C27.0219 31.5573 26.9666 30.8931 26.9666 30.2842C26.9666 29.62 26.3024 28.6237 27.2987 28.4576C28.5718 28.2362 27.7969 29.7307 28.4057 30.2289C29.3467 29.7307 29.1807 28.3469 30.6198 28.3469C30.5645 30.1735 29.4574 31.4466 28.5718 32.7197ZM33.3875 30.1182C32.9447 31.0592 33.3875 32.3323 32.2804 33.0518C32.1697 33.1072 31.6162 32.8858 31.6162 32.7751C31.6162 31.3359 31.7822 29.9521 32.4465 28.6236C32.5018 28.5129 32.7232 28.4576 32.8893 28.3469C33.3321 28.3469 33.5535 28.6237 33.4981 29.0111C33.5535 29.3986 33.5535 29.7861 33.3875 30.1182ZM37.8157 31.2806C36.7086 31.5573 36.0997 32.3876 35.1587 33.4393C34.3838 31.7787 35.2695 30.6163 35.3248 29.4539C35.3802 28.5683 36.0444 28.2915 36.8747 28.3469C37.6496 28.3469 38.3692 28.4576 38.5906 29.3432C38.8673 30.1182 38.7013 31.0592 37.8157 31.2806ZM42.742 32.8304C42.0224 29.1772 42.7974 28.0148 46.0078 28.7344C44.0151 29.6753 44.458 32.0555 42.742 32.8304ZM47.447 33.384C46.1185 31.1699 47.6684 29.8968 47.9452 28.4022C48.3326 30.0075 48.0559 31.4466 47.447 33.384ZM49.5504 32.9411C49.6057 31.7234 49.0522 30.3396 50.4914 29.62C50.7128 29.5093 51.211 29.7307 51.5431 29.8414C51.0449 30.9485 50.7681 32.1662 49.5504 32.9411ZM54.9749 32.8304C54.3661 33.2179 53.8125 33.1625 53.2037 32.7751C54.3107 31.9448 52.8715 30.8931 53.425 30.1182C53.8125 29.5646 54.4214 29.3432 55.0856 29.6753C55.6945 29.9521 55.5838 30.2842 54.7535 30.6717C55.4178 31.2806 56.2481 32.1109 54.9749 32.8304ZM58.7942 32.609C58.5728 32.7197 58.3514 32.9411 58.13 32.9965C57.5765 33.0518 57.2444 32.7197 57.2444 32.2216C57.2997 30.8931 57.0783 29.5093 58.3514 28.3469C60.3995 29.6753 57.7979 31.2806 58.7942 32.609ZM67.1525 29.1772C67.0971 29.62 66.7097 29.7307 66.3775 29.62C64.9937 29.0665 64.4955 29.7861 64.4955 31.0038C64.4402 32.8304 66.1008 31.2252 66.765 32.1109C65.9347 32.9411 65.1044 33.4947 63.9974 32.6644C63.0011 31.8895 63.001 30.727 63.6099 29.7307C64.2188 28.679 65.2151 28.0148 66.5436 28.4022C66.8204 28.5129 67.2078 28.7343 67.1525 29.1772ZM69.9201 32.3876C70.0862 32.609 69.6987 33.0518 69.2559 33.0518C68.5363 33.0518 68.2042 32.609 68.3702 32.0001C68.647 30.8377 68.647 29.5093 69.588 28.2362C70.695 29.7307 69.0345 31.0592 69.9201 32.3876ZM75.0125 30.727C74.7358 31.668 75.4554 33.4393 73.4073 32.8304C72.1342 33.2179 71.47 32.7197 71.47 31.5573C71.5253 30.2842 72.1342 29.4539 73.5734 29.6753C74.2376 29.786 75.4553 29.1772 75.0125 30.727ZM77.2266 33.0518C76.8391 32.9965 76.1196 32.443 76.507 32.2769C77.8909 31.7234 75.8428 29.1218 78.3337 29.5093C78.6658 29.5646 78.9426 29.8968 79.2193 30.0628C78.0569 31.0038 79.9389 33.4947 77.2266 33.0518ZM81.4334 32.9965C79.8282 32.443 80.4924 32.0555 81.6548 31.8894C81.5441 31.7787 81.4888 31.6127 81.3227 31.502C80.7138 31.0592 80.4371 30.561 81.1567 29.9521C81.5995 29.5646 82.0977 29.3986 82.6512 29.62C83.9243 30.1182 81.212 31.502 83.2047 31.6127C82.9833 32.8304 82.2637 33.2732 81.4334 32.9965Z" fill="#F3DC1A"/>
<path d="M95.8251 15.5606C93.8324 15.3392 91.895 16.2248 89.7916 15.782C88.6292 15.5052 88.8506 16.889 88.8506 17.6086C88.906 22.9778 89.0167 28.2917 89.0167 33.6609C89.0167 34.934 89.5149 35.3768 90.788 35.3768C92.1718 35.3768 92.5039 34.8233 92.4486 33.6055C92.3932 30.7272 92.4486 27.7935 92.4486 24.8598C96.4893 26.1883 98.7588 25.3026 99.589 22.2582C100.475 18.9924 98.8695 15.8373 95.8251 15.5606ZM94.3306 22.5904C93.0575 22.535 92.5593 21.5387 92.5039 20.3209C92.5039 19.1585 93.0575 18.3836 94.2752 18.4389C95.6037 18.4943 96.1018 19.4353 96.1572 20.5977C95.9911 21.7047 95.493 22.6457 94.3306 22.5904Z" fill="#32C2ED"/>
<path d="M12.1874 16.8336C12.1874 17.7193 12.2428 18.6603 12.1874 19.5459C12.0214 23.2545 9.91799 25.3579 6.43078 25.4686C2.88822 25.5793 0.342007 23.3652 0.0652445 19.7119C-0.100813 17.7193 0.120577 15.7266 0.00987172 13.7339C-0.100833 12.184 0.729474 12.018 2.00258 11.9626C3.44175 11.9072 3.9399 12.4054 3.88455 13.8446C3.77384 15.7266 3.77384 17.6639 3.88455 19.5459C3.9399 20.8744 4.43807 22.1475 6.09865 22.2028C7.75922 22.2582 8.36813 21.0958 8.47883 19.7119C8.64489 17.83 8.70023 15.8926 8.64488 14.0106C8.58953 12.7375 8.70023 11.9626 10.3055 11.9626C11.966 11.9626 12.3535 12.6268 12.2428 14.066C12.1321 15.0624 12.1874 15.948 12.1874 16.8336Z" fill="#31C2ED"/>
<path d="M67.6506 18.1067C67.9274 16.4461 66.6543 13.5678 68.1488 12.5161C70.1415 11.1323 73.1305 12.184 75.6767 12.0733C76.7838 12.0179 77.0052 12.6821 77.0605 13.6785C77.1713 15.3944 76.0642 15.173 74.9572 15.3391C73.7394 15.5051 71.5253 14.5088 71.47 16.2247C71.4146 18.162 73.6287 17.055 74.7911 17.221C75.8982 17.3871 76.1195 17.8299 76.1195 18.7709C76.1195 19.878 75.5107 19.9887 74.6251 20.2101C73.4627 20.4868 71.3039 19.103 71.4146 21.3171C71.5253 23.2545 73.6287 22.0367 74.7911 22.2581C75.8982 22.4795 77.2266 21.926 77.2266 23.9187C77.2266 25.9114 75.8982 25.4686 74.7911 25.5239C67.6506 25.5793 67.6506 25.5793 67.6506 18.1067Z" fill="#31C2ED"/>
<path d="M61.5065 23.6421C60.2887 20.3763 60.8422 17.0551 60.7315 13.734C60.6762 12.3502 60.3441 11.7966 58.8496 11.7966C57.4658 11.7966 57.1336 12.4055 57.189 13.6233C57.2443 14.5089 57.189 15.3945 57.189 16.2802C56.9122 16.2802 56.6908 16.3355 56.5801 16.2802C54.4767 14.7857 52.5947 15.2285 50.9895 16.9998C49.6057 18.4943 49.5503 21.9815 50.8235 23.6974C52.2626 25.6348 54.2553 26.1883 56.414 25.0812C57.4104 24.5831 57.9086 24.8045 58.7389 25.2473C60.5655 26.1883 62.1154 25.3026 61.5065 23.6421ZM55.473 22.6457C54.1446 22.6457 53.5357 21.7601 53.5911 20.487C53.6464 19.3799 54.1999 18.4389 55.4177 18.4943C56.6908 18.5496 57.2997 19.4353 57.2997 20.653C57.2997 21.9815 56.5801 22.6457 55.473 22.6457Z" fill="#30C2ED"/>
<path d="M48.0005 17.2766C46.1739 15.2839 43.9045 14.9518 41.4689 15.8374C39.0888 16.7231 38.2585 18.6604 38.4246 21.0406C38.5906 23.31 39.8637 24.8599 41.9671 25.3581C44.458 25.9116 46.8935 25.7455 48.4987 23.144C47.3917 22.6458 46.4507 21.9816 45.2883 22.5904C44.2366 23.144 43.2956 23.2547 41.9671 21.6494C43.6831 21.6494 44.7901 21.7048 45.8971 21.6494C46.9488 21.5941 48.3327 22.2583 48.8862 21.0959C49.4951 19.7121 48.9969 18.3283 48.0005 17.2766ZM45.0115 19.1032C44.2366 19.9889 43.2402 19.4354 42.0778 19.38C42.742 17.9962 43.4616 17.5534 44.5687 18.273C44.7901 18.439 45.0669 18.9925 45.0115 19.1032Z" fill="#31C2ED"/>
<path d="M117.302 21.6494C119.571 21.8154 119.737 20.7638 119.128 18.9925C118.132 16.0034 114.977 14.6196 111.767 15.782C108.999 16.7784 107.726 20.0995 108.999 22.7564C110.272 25.4134 114.091 26.5204 116.804 24.9705C117.523 24.5277 118.852 24.0849 118.298 23.0886C117.911 22.369 116.693 21.9262 115.586 22.535C114.479 23.1993 113.427 23.476 112.209 21.6494C114.202 21.6494 115.752 21.594 117.302 21.6494ZM115.198 19.1585C114.368 19.9888 113.427 19.3799 112.209 19.6014C112.929 17.9408 113.704 17.6087 114.756 18.3282C115.032 18.4943 115.309 19.0478 115.198 19.1585Z" fill="#31C2ED"/>
<path d="M13.7926 20.5977C13.7926 19.8781 13.7926 19.1585 13.7926 18.439C13.7926 15.3392 14.1248 15.0071 16.9477 16.2249C17.9441 16.6677 18.2208 15.9481 18.8297 15.782C21.9848 14.8964 23.6454 16.0034 23.7561 19.2139C23.8115 20.6531 23.7007 22.0922 23.8114 23.5314C23.8668 24.8045 23.6454 25.5794 22.0955 25.5794C20.5457 25.5794 20.2135 24.9152 20.3242 23.5867C20.3796 22.4797 20.3242 21.428 20.3242 20.3209C20.3242 19.546 20.1582 18.7711 19.2726 18.7157C18.3316 18.6604 17.7227 19.2693 17.612 20.1549C17.5013 21.2066 17.5013 22.3136 17.5566 23.4207C17.612 24.7491 17.4459 25.5794 15.6746 25.5794C13.848 25.5794 13.7926 24.6384 13.848 23.3653C13.848 22.369 13.7926 21.4833 13.7926 20.5977Z" fill="#31C2ED"/>
<path d="M123.612 18.2176C124.553 19.38 125.881 19.3247 126.878 19.8228C127.985 20.3764 128.926 21.0959 128.871 22.4797C128.76 23.9189 127.93 24.8599 126.656 25.3027C124.719 25.9116 122.837 25.6348 121.066 24.6938C120.457 24.3617 120.069 23.9743 120.512 23.1993C120.9 22.5351 121.232 21.9816 122.228 22.3691C123.114 22.7565 123.944 23.4207 125.162 22.8672C124.83 21.5941 123.612 21.8155 122.782 21.4281C121.509 20.8745 120.125 20.3764 120.291 18.6604C120.457 16.9445 121.619 16.0035 123.28 15.5607C124.608 15.1732 125.826 15.45 126.989 15.9482C127.542 16.2249 128.538 16.4463 127.93 17.498C127.487 18.3283 127.044 19.1586 125.881 18.3283C125.217 17.8855 124.498 17.6641 123.612 18.2176Z" fill="#33C2ED"/>
<path d="M77.3373 16.114C80.3264 15.1177 81.8763 15.948 82.928 18.1621C83.9797 16.0587 85.4742 15.1177 88.0204 16.0033C84.7546 18.9924 84.4225 22.0921 88.1865 25.0258C84.9207 25.7454 84.9207 25.7454 82.928 23.0885C81.8209 24.9151 80.4925 26.2436 77.8355 25.1919C80.4371 22.2582 82.2084 19.1584 77.3373 16.114Z" fill="#31C2ED"/>
<path d="M134.849 22.7563C134.129 21.5939 132.967 21.76 132.136 21.3172C130.919 20.7636 129.701 20.2101 129.812 18.6602C129.922 17.055 130.919 16.0587 132.468 15.5605C133.908 15.1177 135.181 15.3944 136.509 15.8926C137.118 16.114 138.059 16.3908 137.506 17.4425C137.063 18.2728 136.675 19.1031 135.457 18.3835C134.849 17.996 134.184 17.6085 133.354 18.3281C134.018 19.4905 135.347 19.3245 136.343 19.8226C137.616 20.4315 138.502 21.1511 138.391 22.701C138.225 24.3062 137.229 25.1365 135.79 25.4686C134.24 25.8007 132.69 25.7454 131.195 25.0258C130.476 24.6383 129.645 24.3062 130.144 23.1992C130.586 22.2582 131.14 22.0921 132.136 22.5903C132.856 22.9224 133.686 23.4759 134.849 22.7563Z" fill="#31C2ED"/>
<path d="M33.5535 12.4609C34.4392 12.4609 37.4835 16.5017 37.2068 17.3873C37.0407 17.9962 36.5425 18.1069 36.0444 18.3836C34.6052 19.2693 34.7713 21.7601 36.3765 22.2583C37.6496 22.6458 37.5942 23.5314 37.6496 24.3064C37.7603 25.2474 36.7639 25.3027 36.0997 25.4688C33.166 26.1884 31.7822 25.0813 31.6715 22.0923C31.6162 20.6531 32.1144 19.2139 30.6198 17.8301C29.5128 16.7784 32.0036 12.4609 33.5535 12.4609Z" fill="#33C3ED"/>
<path d="M88.0757 26.7417C87.4115 26.6864 86.8026 26.5757 86.1384 26.5757C58.3514 26.5757 30.5645 26.5757 2.72215 26.5757C3.49709 25.5793 4.60412 26.0221 5.54512 26.0221C32.1143 26.0221 58.7389 26.0221 85.3081 26.0221C86.2491 26.0775 87.4115 25.5793 88.0757 26.7417Z" fill="#FAF2B3"/>
<path d="M101.25 20.4869C101.25 19.9334 101.25 19.3798 101.25 18.8263C101.25 15.5605 101.25 15.5605 104.681 16.4461C105.29 16.6122 105.401 16.114 105.789 15.948C106.508 15.6712 107.449 15.007 107.837 16.1694C108.058 16.9997 108.501 18.4942 107.062 18.6049C104.239 18.8817 104.792 20.819 104.681 22.5903C104.626 23.7527 105.512 25.4686 103.021 25.4686C100.585 25.4686 101.416 23.808 101.25 22.6456C101.194 21.9814 101.25 21.2065 101.25 20.4869Z" fill="#31C2ED"/>
<path d="M25.472 20.3209C25.472 19.4353 25.5274 18.4943 25.472 17.6087C25.4167 16.3356 25.6381 15.616 27.2433 15.616C28.8485 15.616 29.2914 16.1695 29.236 17.664C29.1253 19.7121 29.1253 21.8154 29.236 23.9188C29.2914 25.358 28.5164 25.4687 27.354 25.4687C26.1363 25.4687 25.4167 25.2473 25.5274 23.8081C25.5274 22.7011 25.472 21.5387 25.472 20.3209Z" fill="#39C4EE"/>
<path d="M27.354 11.7967C28.3503 11.7413 29.1806 11.7413 29.1806 13.1252C29.236 14.6197 28.4057 14.7304 27.2987 14.675C26.3577 14.6197 25.472 14.675 25.472 13.3466C25.4166 11.9074 26.2469 11.7413 27.354 11.7967Z" fill="#3BC5EE"/>
</svg>
