<svg width="77" height="35" viewBox="0 0 77 35" fill="none" xmlns="http://www.w3.org/2000/svg">
<path fill-rule="evenodd" clip-rule="evenodd" d="M43.5966 14.2965C36.6384 15.4604 33.0463 21.2574 35.2229 27.8105C36.1844 30.7048 39.316 33.4907 42.305 34.1113C48.0908 35.3124 53.9798 32.2943 55.4392 27.3799C56.1673 24.9279 56.1677 24.2402 55.4431 21.8003C54.3278 18.0447 51.378 15.2033 47.8682 14.5047C47.1207 14.3559 46.2469 14.1824 45.9266 14.1191C45.6062 14.0558 44.5577 14.1358 43.5966 14.2965ZM10.2286 14.5831C5.30143 14.6627 2.89415 14.8468 2.49766 15.1749C1.74197 15.8002 0.510947 18.5298 0.500074 19.6043C0.490365 20.5833 1.44217 21.6706 2.30893 21.6706C2.63707 21.6706 3.67859 20.8403 4.62301 19.826C6.29828 18.0265 6.35498 18.0005 6.94835 18.7581C7.46367 19.4155 7.51765 20.3398 7.30174 24.7773C7.04194 30.113 6.57711 31.7673 5.33677 31.7673C4.98688 31.7673 4.7632 32.1385 4.7632 32.7199C4.7632 33.947 6.53012 34.4813 10.5882 34.4813C16.1589 34.4813 17.9864 33.2697 15.4661 31.2481L14.0832 30.1386V24.5928C14.0832 19.9623 14.1865 18.9616 14.7104 18.527C15.3608 17.9869 15.2548 17.9038 17.6031 20.7969C18.1048 21.4147 19.9968 21.4267 20.6072 20.8163C22.0522 19.3713 19.6791 13.963 17.7829 14.38C17.5635 14.4282 14.1644 14.5198 10.2286 14.5831ZM24.9034 14.6251C23.1613 14.8918 21.8499 15.5963 21.8499 16.2658C21.8499 16.4444 22.3303 17.0362 22.9178 17.5807L23.9857 18.5705V24.7579C23.9857 30.6741 23.9473 30.9809 23.112 31.7595C22.0689 32.7319 22.0316 33.0542 22.8805 33.7587C23.5846 34.3427 29.7769 34.5159 31.6126 34.0025C33.1745 33.5653 33.3582 32.5218 32.0681 31.4131L30.9757 30.4745L30.8518 24.5439L30.7276 18.6132L31.8953 17.3916C33.0995 16.131 33.1399 15.312 32.0184 14.8814C30.9652 14.4775 26.8392 14.3288 24.9034 14.6251ZM58.1191 14.9699C57.5948 15.4945 57.6593 15.6821 58.7191 16.7186L59.9066 17.8793V23.6837C59.9066 29.6213 59.6891 30.7005 58.2915 31.6923C57.3657 32.3494 57.3809 33.1886 58.3276 33.6954C59.2592 34.194 66.5044 34.227 67.7894 33.7389C69.2514 33.1828 69.3812 32.2554 68.0903 31.5879C66.3032 30.664 65.3957 26.6382 66.7257 25.5345C67.5801 24.8254 69.3843 25.5089 69.5412 26.6017C69.6076 27.0622 69.9221 27.6552 70.2402 27.9193C71.3279 28.8222 72.108 27.4207 72.2669 24.2779C72.3861 21.9141 72.2855 21.3094 71.6389 20.511C70.9776 19.6944 70.7803 19.6334 70.2421 20.0804C69.8973 20.3666 69.6149 20.8353 69.6149 21.1219C69.6149 21.8508 68.1843 22.5385 67.2713 22.2488C65.8796 21.8069 65.7856 18.9538 67.1191 17.6203C68.3362 16.4032 72.5888 17.2584 73.7806 18.96C74.5631 20.0777 76.1413 19.9701 76.4403 18.7787C76.7055 17.7212 76.043 15.3357 75.3231 14.7567C75.0574 14.5431 71.3857 14.3824 66.782 14.3824C60.0914 14.3824 58.6061 14.4833 58.1191 14.9699ZM46.657 19.727C48.9237 22.8558 49.6911 28.755 47.9983 30.0376C45.4715 31.9525 42.2234 28.0599 41.7555 22.556C41.491 19.44 42.1924 18.1756 44.1857 18.1756C45.3115 18.1756 45.7184 18.4311 46.657 19.727Z" fill="#1E00B2"/>
<path d="M43.4405 8.68672C41.7966 5.22278 41.0918 0.609375 42.1403 0.176771C43.9632 -0.575432 44.7503 1.04625 44.7499 5.55481C44.7495 9.76939 44.3771 10.6606 43.4405 8.68672Z" fill="#FCD116"/>
<path d="M47.8927 6.50622C47.8772 4.41077 48.0403 3.01394 48.3342 2.71997C49.5163 1.53788 49.8344 2.57279 49.2053 5.55481C48.283 9.92472 47.9203 10.1876 47.8927 6.50622Z" fill="#FCD116"/>
<path d="M36.9976 5.94974C36.7794 5.37617 36.6998 4.74707 36.8209 4.55135C37.1976 3.94206 37.69 4.15525 38.4853 5.2721C39.2775 6.38506 40.7011 10.7154 40.38 11.0365C40.1466 11.2703 37.5168 7.31629 36.9976 5.94974Z" fill="#FCD116"/>
<path d="M51.8436 10.3321C51.7659 9.96977 51.8945 9.31426 52.129 8.87583C52.3636 8.43779 52.7244 8.07897 52.9302 8.07897C53.4463 8.07897 53.4059 8.31586 52.6447 9.74881C52.1523 10.6761 51.9489 10.8241 51.8436 10.3321Z" fill="#FCD116"/>
<path d="M35.8299 12.2446C35.4027 11.7017 35.0532 11.1538 35.0532 11.0272C35.0532 10.5002 35.8322 10.8528 36.2046 11.5483C36.8904 12.8298 36.6466 13.283 35.8299 12.2446Z" fill="#FCD116"/>
</svg>
