<svg width="20" height="20" viewBox="0 0 20 20" fill="none" xmlns="http://www.w3.org/2000/svg">
<path d="M13.6 6.94092C15.0322 6.94092 16.4057 7.50985 17.4184 8.52254C18.4311 9.53524 19 10.9087 19 12.3409V18.6409H15.4V12.3409C15.4 11.8635 15.2104 11.4057 14.8728 11.0681C14.5352 10.7306 14.0774 10.5409 13.6 10.5409C13.1226 10.5409 12.6648 10.7306 12.3272 11.0681C11.9897 11.4057 11.8 11.8635 11.8 12.3409V18.6409H8.20001V12.3409C8.20001 10.9087 8.76894 9.53524 9.78164 8.52254C10.7943 7.50985 12.1678 6.94092 13.6 6.94092V6.94092Z" stroke="white" stroke-width="2" stroke-linecap="round" stroke-linejoin="round"/>
<path d="M4.6 7.84106H1V18.6411H4.6V7.84106Z" stroke="white" stroke-width="2" stroke-linecap="round" stroke-linejoin="round"/>
<path d="M2.8 5.14102C3.79411 5.14102 4.6 4.33513 4.6 3.34102C4.6 2.3469 3.79411 1.54102 2.8 1.54102C1.80589 1.54102 1 2.3469 1 3.34102C1 4.33513 1.80589 5.14102 2.8 5.14102Z" stroke="white" stroke-width="2" stroke-linecap="round" stroke-linejoin="round"/>
</svg>
