<svg width="18" height="19" viewBox="0 0 18 19" fill="none" xmlns="http://www.w3.org/2000/svg">
<path d="M13 1.09082H5C2.79086 1.09082 1 2.88168 1 5.09082V13.0908C1 15.3 2.79086 17.0908 5 17.0908H13C15.2091 17.0908 17 15.3 17 13.0908V5.09082C17 2.88168 15.2091 1.09082 13 1.09082Z" stroke="white" stroke-width="2" stroke-linecap="round" stroke-linejoin="round"/>
<path d="M12.2 8.58682C12.2987 9.25261 12.185 9.93259 11.875 10.53C11.565 11.1275 11.0745 11.6119 10.4733 11.9146C9.87207 12.2172 9.19074 12.3225 8.52621 12.2156C7.86169 12.1086 7.24779 11.7949 6.77186 11.3189C6.29592 10.843 5.98217 10.2291 5.87524 9.56459C5.76831 8.90006 5.87364 8.21873 6.17625 7.61752C6.47886 7.0163 6.96333 6.52581 7.56077 6.21581C8.15821 5.90581 8.83819 5.79209 9.50399 5.89082C10.1831 5.99153 10.8119 6.30799 11.2973 6.79346C11.7828 7.27894 12.0993 7.90768 12.2 8.58682Z" stroke="white" stroke-width="2" stroke-linecap="round" stroke-linejoin="round"/>
<path d="M13.4 4.69092H13.408" stroke="#667080" stroke-width="2" stroke-linecap="round" stroke-linejoin="round"/>
</svg>
