<svg width="20" height="16" viewBox="0 0 20 16" fill="none" xmlns="http://www.w3.org/2000/svg">
<path d="M18.6232 3.7465C18.526 3.35822 18.3281 3.00246 18.0494 2.71516C17.7707 2.42785 17.4211 2.21918 17.036 2.11022C15.6288 1.7666 10 1.7666 10 1.7666C10 1.7666 4.3712 1.7666 2.964 2.14295C2.57886 2.25191 2.22929 2.46058 1.95061 2.74788C1.67193 3.03519 1.474 3.39094 1.37681 3.77922C1.11927 5.20733 0.993297 6.65606 1.00047 8.10718C0.991288 9.56923 1.11727 11.029 1.37681 12.4679C1.48395 12.8441 1.68632 13.1863 1.96435 13.4615C2.24239 13.7366 2.58669 13.9355 2.964 14.0387C4.3712 14.415 10 14.415 10 14.415C10 14.415 15.6288 14.415 17.036 14.0387C17.4211 13.9297 17.7707 13.7211 18.0494 13.4338C18.3281 13.1465 18.526 12.7907 18.6232 12.4024C18.8787 10.9851 19.0047 9.54738 18.9995 8.10718C19.0087 6.64513 18.8827 5.18536 18.6232 3.7465V3.7465Z" stroke="white" stroke-width="2" stroke-linecap="round" stroke-linejoin="round"/>
<path d="M8.15912 10.7825L12.8634 8.1072L8.15912 5.43188V10.7825Z" stroke="white" stroke-width="2" stroke-linecap="round" stroke-linejoin="round"/>
</svg>
