<svg width="141" height="38" viewBox="0 0 141 38" fill="none" xmlns="http://www.w3.org/2000/svg">
<path fill-rule="evenodd" clip-rule="evenodd" d="M77.8609 0.903977C77.8609 0.929623 78.0155 1.48944 78.2041 2.1478C78.4397 2.96957 78.4005 3.91151 78.0789 5.15241C77.4908 7.41841 77.962 8.11671 79.1868 6.79521C81.5099 4.28851 85.9353 7.05937 86.2189 11.1983C86.2881 12.2091 86.4251 14.19 86.523 15.6006C86.6823 17.8933 86.5896 18.3853 85.6499 20.2425C84.8472 21.8285 84.7516 22.2124 85.2462 21.8662C86.1456 21.2361 87.1315 19.9215 88.1595 17.982C88.9033 16.5788 89.033 15.8153 89.033 12.8528C89.033 9.91559 88.9007 9.1235 88.1837 7.77892C86.2863 4.2189 83.1692 1.84885 79.4769 1.15897C78.5881 0.993006 77.8609 0.878331 77.8609 0.903977ZM71.4545 2.28959C70.8991 2.7263 70.2173 3.62794 69.9396 4.2929C69.3981 5.58875 69.2735 8.01559 69.7146 8.67616C70.0187 9.13156 71.4138 9.92182 71.9139 9.92182C72.0953 9.92182 72.2455 8.21636 72.2473 6.13208C72.2495 4.0478 72.369 2.15183 72.513 1.91882C72.902 1.28977 72.5837 1.40114 71.4545 2.28959ZM67.8337 5.24657C65.2185 8.67543 64.4173 13.6339 65.8948 17.2492C67.1236 20.2568 70.0726 23.1841 72.7185 24.023C73.456 24.2568 73.3076 23.9956 71.9114 22.5993C69.4867 20.1747 67.8388 16.6652 67.6629 13.5518C67.582 12.1208 67.7227 10.4978 67.9982 9.68038C68.2594 8.9066 68.4331 7.85366 68.3843 7.3411C68.3356 6.82855 68.4741 5.9401 68.6921 5.3671C69.2614 3.86938 68.9207 3.82175 67.8337 5.24657ZM2.52194 7.05314C1.34772 7.62174 0.923096 8.92749 0.923096 11.9709C0.923096 14.3989 1.02751 14.8224 1.82253 15.617C2.31713 16.1116 3.01763 16.5234 3.37961 16.5322C8.07501 16.6447 12.7689 16.4769 13.3306 16.1765C13.9472 15.8464 14.8452 14.0603 14.8452 13.1646C14.8452 12.5546 11.831 12.8268 11.3533 13.4796C10.7946 14.2439 6.41169 14.5901 4.86158 13.9922C3.95554 13.6427 3.85406 13.4258 3.85406 11.8361C3.85406 10.8638 4.0519 9.87053 4.2937 9.62872C4.56518 9.35724 5.8984 9.18908 7.77788 9.18908C10.3689 9.18908 10.9158 9.29825 11.4496 9.92182C12.2406 10.8458 14.8452 10.9722 14.8452 10.0867C14.8452 9.18651 13.8047 7.41438 13.0335 7.00184C12.1238 6.51457 3.54704 6.5567 2.52194 7.05314ZM17.0434 11.5705V16.5165H18.6921H20.3407V13.5053V10.4945L22.5389 12.6696L24.7372 14.8447V12.9539C24.7372 11.1653 24.6258 10.9425 22.6826 8.84359C20.7086 6.71131 20.558 6.62448 18.8357 6.62448H17.0434V11.5705ZM26.6353 11.5408L26.7522 16.4571L28.3093 16.581L29.8664 16.7048V11.6646V6.62448H28.1924H26.5181L26.6353 11.5408ZM32.0646 7.89652V9.16856L37.063 9.27041C41.3242 9.35724 42.1196 9.46532 42.4585 10.0032C43.2425 11.2481 42.2226 11.5632 36.9934 11.6903L32.0646 11.8105V14.1633V16.5165H33.7132C35.3505 16.5165 35.3619 16.5077 35.3619 15.2455V13.9746L39.8111 13.8717C44.1537 13.7713 44.2783 13.7453 44.9905 12.7901C45.4521 12.171 45.7203 11.2375 45.7203 10.2497C45.7203 8.96046 45.5188 8.50836 44.5655 7.65618L43.4103 6.62448H37.7374H32.0646V7.89652ZM49.92 6.87801C49.2385 7.0557 48.1849 8.77141 48.1849 9.70309C48.1849 11.6742 49.7676 12.8528 52.4153 12.8528C54.0354 12.8528 54.0468 12.844 54.0468 11.5705C54.0468 10.3494 53.9856 10.2882 52.7645 10.2882C51.8691 10.2882 51.4822 10.1226 51.4822 9.73863C51.4822 9.35468 51.8691 9.18908 52.7645 9.18908C53.9856 9.18908 54.0468 9.12789 54.0468 7.90678V6.62448L52.3065 6.66698C51.3492 6.69043 50.2754 6.78532 49.92 6.87801ZM55.8786 7.81152C55.8786 9.05425 55.9255 9.09602 57.5786 9.32243C60.0161 9.65656 61.7406 9.60967 61.7406 9.20959C61.7406 9.01908 61.3562 8.41677 60.8866 7.87088C60.1945 7.06596 59.6402 6.84577 57.9556 6.70582L55.8786 6.53362V7.81152ZM93.6148 11.5705V16.5165H95.0803H96.5457V13.5855C96.5457 11.9735 96.693 10.6546 96.8726 10.6546C97.0524 10.6546 98.1241 11.6533 99.254 12.8737L101.309 15.0928V13.1378C101.309 11.2254 101.259 11.1338 99.0089 8.90367C96.9183 6.83185 96.5685 6.62448 95.162 6.62448H93.6148V11.5705ZM103.14 11.5705V16.5165H104.606H106.071V11.5705V6.62448H104.606H103.14V11.5705ZM109.34 7.69538C107.951 9.08503 107.951 10.3922 109.34 11.7819C110.243 12.6842 110.704 12.8528 112.271 12.8528H114.132V11.5705C114.132 10.3494 114.07 10.2882 112.849 10.2882C111.954 10.2882 111.567 10.1226 111.567 9.73863C111.567 9.35468 111.954 9.18908 112.849 9.18908C114.07 9.18908 114.132 9.12789 114.132 7.90678V6.62448H112.271C110.704 6.62448 110.243 6.79301 109.34 7.69538ZM115.963 7.87564V9.12643L118.728 9.38545C120.248 9.52797 121.56 9.57596 121.644 9.49243C121.728 9.4089 121.699 8.96999 121.581 8.51715C121.291 7.40815 119.656 6.62448 117.63 6.62448C115.977 6.62448 115.963 6.63511 115.963 7.87564ZM123.657 11.5705V16.5165H125.123H126.588V11.5705V6.62448H125.123H123.657V11.5705ZM128.786 7.72359C128.786 8.32811 128.951 8.82747 129.153 8.83333C129.354 8.83883 132.033 8.84945 135.106 8.85641L140.693 8.86923L140.808 7.74668L140.923 6.62448H134.855H128.786V7.72359ZM83.8144 8.24238C83.9653 8.44058 84.0892 8.8271 84.0892 9.10078C84.0892 9.37446 83.9653 9.52211 83.8144 9.42905C83.6634 9.33562 83.5396 10.1501 83.5396 11.2389C83.5396 12.3281 83.5916 13.2192 83.6554 13.2192C83.7188 13.2192 84.0899 13.0484 84.4797 12.84C85.5165 12.2849 85.4484 9.86686 84.3639 8.73881C83.9104 8.26729 83.6634 8.0438 83.8144 8.24238ZM68.5668 10.3768C67.9106 12.8264 68.7892 16.6443 70.6921 19.6134C71.9814 21.6244 73.6022 23.2826 72.7918 21.7614C72.2763 20.7942 72.2305 18.8415 72.7156 18.5414C72.9083 18.4223 72.968 18.0692 72.8478 17.7563C72.6701 17.2928 72.5653 17.2782 72.2825 17.6764C72.0451 18.0109 72.0103 17.8757 72.1722 17.2492C72.3023 16.7455 72.4404 15.1382 72.4789 13.6771C72.5412 11.2964 72.4771 11.0213 71.859 11.0209C71.4798 11.0209 70.6338 10.6897 69.9791 10.2853L68.7888 9.54959L68.5668 10.3768ZM128.786 13.3203V16.7191L130.252 16.5791L131.717 16.4395V14.463V12.4864H136.297H140.877V11.2041V9.92182H134.831H128.786V13.3203ZM55.8786 11.5705C55.8786 12.7967 55.9358 12.8528 57.1877 12.8528C58.2366 12.8528 58.4729 12.9803 58.3755 13.4939C58.2956 13.9164 57.8486 14.1743 57.0664 14.2498C56.0226 14.3509 55.8786 14.4952 55.8786 15.4405C55.8786 16.4018 56.0054 16.5209 57.0693 16.5572C60.2359 16.6649 61.2079 16.1278 61.5966 14.0556C62.045 11.665 60.4711 10.2882 57.2895 10.2882C55.9215 10.2882 55.8786 10.327 55.8786 11.5705ZM115.963 11.5705C115.963 12.7967 116.021 12.8528 117.272 12.8528C118.321 12.8528 118.558 12.9803 118.46 13.4939C118.38 13.9164 117.933 14.1743 117.151 14.2498C116.107 14.3509 115.963 14.4952 115.963 15.4405C115.963 16.4553 116.052 16.519 117.52 16.5597C119.864 16.6253 120.108 16.555 121.001 15.5614C121.805 14.6663 122.056 13.1477 121.598 11.9533C121.245 11.0345 119.467 10.2882 117.63 10.2882C115.97 10.2882 115.963 10.2929 115.963 11.5705ZM77.8806 13.8083C77.2564 14.3336 76.5602 15.117 76.3338 15.5485C75.9436 16.2926 75.9583 16.3025 76.6167 15.7398C77.5963 14.9034 78.2968 14.7315 79.1432 15.1206C79.8404 15.4416 79.8433 15.4317 79.2058 14.918C78.6625 14.4802 78.613 14.234 78.9438 13.6156C79.4809 12.6121 79.2531 12.6535 77.8806 13.8083ZM48.5512 14.5417C48.5512 15.7771 49.8848 16.5165 52.1135 16.5165C53.9856 16.5165 54.0468 16.4842 54.0468 15.4928C54.0468 14.5403 53.901 14.4403 51.9402 14.0464C49.0587 13.4675 48.5512 13.5419 48.5512 14.5417ZM108.768 14.138C108.651 14.4417 108.825 15.1012 109.154 15.6035C109.681 16.408 110.012 16.5165 111.942 16.5165C114.091 16.5165 114.132 16.4974 114.132 15.5005C114.132 14.5755 113.959 14.4447 112.197 14.0351C109.674 13.4485 109.024 13.4679 108.768 14.138ZM76.5566 16.6817C75.8726 17.7259 75.9784 18.8429 76.7764 18.9964C77.6022 19.1554 78.96 17.7182 78.96 16.6854C78.96 15.4357 77.3747 15.4331 76.5566 16.6817ZM1.99656 18.9287C1.35615 19.7006 1.97824 20.7045 3.15869 20.8038L4.03724 20.8774L3.12315 20.6044C1.9024 20.2395 1.72911 19.1734 2.81943 18.7363C3.37741 18.5125 3.46534 18.3868 3.07442 18.3714C2.74652 18.359 2.26145 18.6096 1.99656 18.9287ZM14.5213 19.2364L14.4788 20.3081L13.4713 19.4211C12.54 18.6011 12.5469 18.6264 13.5629 19.7523C14.5733 20.8723 14.6715 20.9085 14.7796 20.2047C14.8444 19.7834 14.8221 19.1522 14.7305 18.8019C14.6356 18.4396 14.5455 18.6271 14.5213 19.2364ZM33.0417 18.5927C32.9072 18.7268 32.8164 19.3452 32.8398 19.9666C32.8633 20.5876 32.9556 20.8177 33.0453 20.4773C33.1355 20.1373 33.4872 19.7856 33.8272 19.6955C34.3888 19.5475 34.3866 19.5284 33.8048 19.4899C33.0648 19.4409 32.9472 18.8631 33.6216 18.5909C33.8774 18.4879 33.9041 18.3934 33.6828 18.3773C33.4645 18.3615 33.1758 18.4582 33.0417 18.5927ZM51.2774 18.7499C51.1407 18.9708 51.2961 19.4181 51.6222 19.7442C51.9577 20.0802 52.2149 20.1575 52.2149 19.923C52.2149 19.6951 52.009 19.4247 51.757 19.3225C51.4122 19.1829 51.4349 19.0408 51.8486 18.748C52.1867 18.5092 52.2303 18.3575 51.9618 18.3538C51.7218 18.3509 51.4137 18.529 51.2774 18.7499ZM58.9019 19.6306C58.906 20.4366 58.9811 20.7231 59.0686 20.2674C59.1562 19.8116 59.1529 19.1522 59.0613 18.8019C58.9697 18.4517 58.8979 18.8246 58.9019 19.6306ZM74.9588 18.9283C74.9764 19.3551 75.0633 19.442 75.1801 19.15C75.286 18.8854 75.2728 18.5693 75.1512 18.4476C75.0296 18.326 74.9431 18.5421 74.9588 18.9283ZM93.6811 19.6306C93.7126 20.696 93.7661 20.8232 93.8764 20.0956L94.0284 19.0954L94.9092 20.0956L95.7899 21.0961L95.7467 19.6306C95.7152 18.5652 95.6617 18.4381 95.5514 19.1657L95.3994 20.1659L94.5186 19.1657L93.6379 18.1651L93.6811 19.6306ZM107.835 18.5986C108.099 18.7044 108.415 18.6913 108.537 18.5696C108.658 18.448 108.442 18.3615 108.056 18.3773C107.629 18.3949 107.542 18.4817 107.835 18.5986ZM115.323 19.6306C115.327 20.4366 115.402 20.7231 115.49 20.2674C115.577 19.8116 115.574 19.1522 115.482 18.8019C115.391 18.4517 115.319 18.8246 115.323 19.6306ZM117.155 19.6306C117.159 20.4366 117.234 20.7231 117.322 20.2674C117.409 19.8116 117.406 19.1522 117.314 18.8019C117.223 18.4517 117.151 18.8246 117.155 19.6306ZM132.694 18.5927C132.56 18.7268 132.45 19.1236 132.45 19.4742C132.45 19.9578 132.649 20.0571 133.274 19.886C133.945 19.7024 133.979 19.6354 133.458 19.527C133.105 19.4537 132.816 19.2529 132.816 19.0811C132.816 18.9092 133.105 18.6931 133.458 18.6008C133.971 18.4667 133.983 18.4249 133.519 18.3908C133.2 18.3674 132.828 18.4582 132.694 18.5927ZM139.045 19.4474C139.045 20.5968 138.491 20.9496 138.193 19.9897C138.071 19.5958 138.037 19.6215 138.079 20.0772C138.111 20.4315 138.424 20.7766 138.774 20.844C139.283 20.9419 139.411 20.7037 139.411 19.6574C139.411 18.9375 139.329 18.3483 139.228 18.3483C139.127 18.3483 139.045 18.8429 139.045 19.4474ZM78.044 19.2921C77.6275 19.6072 76.9556 19.7574 76.487 19.6402C75.7887 19.465 75.6626 19.5808 75.6626 20.3982C75.6626 22.6122 78.0602 25.3094 80.0279 25.3094C81.6033 25.3094 82.0067 22.6286 80.7442 20.5466C79.5718 18.6129 79.1816 18.4319 78.044 19.2921ZM17.0434 19.997C17.0434 20.5008 17.1855 20.9129 17.3588 20.9129C17.5325 20.9129 17.5959 20.5008 17.4995 19.997C17.4032 19.4932 17.261 19.0811 17.1837 19.0811C17.1068 19.0811 17.0434 19.4932 17.0434 19.997ZM29.1336 19.8138C29.1336 20.585 28.5928 20.8103 28.2756 20.171C28.1734 19.9644 28.132 20.0058 28.184 20.2626C28.236 20.5194 28.5533 20.7829 28.8892 20.8481C29.3318 20.9342 29.5 20.707 29.5 20.0237C29.5 19.5053 29.4175 19.0811 29.3168 19.0811C29.216 19.0811 29.1336 19.4108 29.1336 19.8138ZM98.0112 19.7922C98.0112 20.1835 98.1523 20.5905 98.3248 20.6971C98.497 20.8038 98.5604 20.4835 98.4652 19.986C98.2585 18.9049 98.0112 18.7993 98.0112 19.7922ZM104.515 19.8706C104.656 20.4125 104.588 20.5788 104.297 20.3989C104.064 20.2549 103.873 20.3117 103.873 20.5249C103.873 20.7382 104.12 20.9129 104.423 20.9129C105.015 20.9129 105.187 19.6237 104.64 19.2855C104.458 19.1723 104.401 19.4357 104.515 19.8706ZM107.9 19.5669C108.332 20.1381 108.329 20.2846 107.88 20.5689C107.55 20.7777 107.516 20.9038 107.79 20.9074C108.582 20.9173 108.734 20.1205 108.058 19.5039C107.433 18.9338 107.424 18.9375 107.9 19.5669ZM4.99567 19.927C4.96892 20.3451 4.78391 20.4942 4.49521 20.3311C4.13177 20.126 4.1303 20.1732 4.48898 20.5601C5.05062 21.1657 5.44191 20.8268 5.21109 19.934C5.04623 19.2954 5.03633 19.295 4.99567 19.927ZM6.78502 19.7691C6.78502 19.9952 6.99129 20.1828 7.24298 20.1857C7.54817 20.1897 7.51776 20.3099 7.15139 20.5466C6.82129 20.7598 6.77586 20.9038 7.03818 20.9074C7.75114 20.9166 7.91637 20.2967 7.33055 19.8105C6.95172 19.4962 6.78502 19.4834 6.78502 19.7691ZM8.2505 19.7691C8.2505 19.9952 8.45677 20.1828 8.70847 20.1857C9.01365 20.1897 8.98324 20.3099 8.61687 20.5466C8.28677 20.7598 8.24134 20.9038 8.50366 20.9074C9.21662 20.9166 9.38185 20.2967 8.79603 19.8105C8.4172 19.4962 8.2505 19.4834 8.2505 19.7691ZM9.81417 19.9666C9.8607 20.3531 10.1465 20.7363 10.4487 20.8188C10.8023 20.9151 10.8543 20.8605 10.5953 20.666C10.3736 20.4997 10.0878 20.1161 9.96072 19.8138C9.79768 19.4277 9.75409 19.4731 9.81417 19.9666ZM18.2004 20.1802C18.2004 20.6839 18.2836 20.8902 18.385 20.6381C18.4869 20.3865 18.4869 19.9743 18.385 19.7222C18.2836 19.4705 18.2004 19.6764 18.2004 20.1802ZM19.0386 19.8457C18.9035 20.0648 18.965 20.4165 19.1757 20.6272C19.6538 21.1053 20.717 20.7323 20.6782 20.1C20.6554 19.7325 20.6093 19.7299 20.4646 20.0886C20.3627 20.3407 20.0286 20.5466 19.7216 20.5466C19.3757 20.5466 19.2434 20.3374 19.3742 19.997C19.6186 19.3603 19.3999 19.2617 19.0386 19.8457ZM21.1313 20.1802C21.1313 20.6839 21.2145 20.8902 21.316 20.6381C21.4179 20.3865 21.4179 19.9743 21.316 19.7222C21.2145 19.4705 21.1313 19.6764 21.1313 20.1802ZM22.2305 20.1802C22.2305 20.6839 22.3136 20.8902 22.4151 20.6381C22.517 20.3865 22.517 19.9743 22.4151 19.7222C22.3136 19.4705 22.2305 19.6764 22.2305 20.1802ZM23.6959 20.1802C23.6959 20.6839 23.7791 20.8902 23.8806 20.6381C23.9824 20.3865 23.9824 19.9743 23.8806 19.7222C23.7791 19.4705 23.6959 19.6764 23.6959 20.1802ZM25.5681 19.9666C25.6146 20.3531 25.9004 20.7363 26.2026 20.8188C26.5562 20.9151 26.6082 20.8605 26.3492 20.666C26.1275 20.4997 25.8418 20.1161 25.7146 19.8138C25.5516 19.4277 25.508 19.4731 25.5681 19.9666ZM38.6087 20.0582C38.3116 20.4158 38.3134 20.5466 38.6145 20.5466C38.8406 20.5466 39.0282 20.3407 39.0311 20.0886C39.0355 19.7457 39.1146 19.7534 39.3465 20.1194C39.6015 20.5216 39.6917 20.5161 39.8554 20.089C40.1097 19.4269 39.152 19.4035 38.6087 20.0582ZM40.8575 19.9054C40.8575 20.2245 40.6516 20.5685 40.3995 20.6704C40.0408 20.8151 40.0434 20.8613 40.4109 20.884C40.9333 20.9162 41.4433 19.9113 41.0861 19.5537C40.9604 19.428 40.8575 19.5863 40.8575 19.9054ZM41.7122 20.6407V21.7116L42.1878 20.8543C42.7967 19.7567 42.7985 19.5694 42.2009 19.5694C41.9053 19.5694 41.7122 19.9922 41.7122 20.6407ZM43.8463 20.1802C43.8463 20.6839 43.9295 20.8902 44.031 20.6381C44.1328 20.3865 44.1328 19.9743 44.031 19.7222C43.9295 19.4705 43.8463 19.6764 43.8463 20.1802ZM44.9454 20.1802C44.9454 20.6839 45.0286 20.8902 45.1301 20.6381C45.2319 20.3865 45.2319 19.9743 45.1301 19.7222C45.0286 19.4705 44.9454 19.6764 44.9454 20.1802ZM48.3017 19.993C48.3457 20.4198 48.678 20.7521 49.1048 20.7961C49.6335 20.8503 49.6635 20.8202 49.2147 20.6861C48.8747 20.5847 48.5131 20.2231 48.4117 19.8831C48.2776 19.4343 48.2475 19.4643 48.3017 19.993ZM54.0468 19.9091C54.0468 20.23 53.7585 20.5682 53.4056 20.6605C52.8048 20.8173 52.8055 20.8305 53.417 20.8704C54.0794 20.9137 54.6934 19.9717 54.2754 19.5537C54.1497 19.428 54.0468 19.5881 54.0468 19.9091ZM54.8777 19.9666C54.9243 20.3531 55.21 20.7363 55.5123 20.8188C55.8658 20.9151 55.9178 20.8605 55.6588 20.666C55.4372 20.4997 55.1514 20.1161 55.0243 19.8138C54.8612 19.4277 54.8176 19.4731 54.8777 19.9666ZM58.1348 20.1802C58.1348 20.6839 58.2179 20.8902 58.3194 20.6381C58.4213 20.3865 58.4213 19.9743 58.3194 19.7222C58.2179 19.4705 58.1348 19.6764 58.1348 20.1802ZM59.7255 19.8138C59.3962 20.3469 59.8549 20.9195 60.5715 20.8704C61.1027 20.8342 61.0958 20.8034 60.5231 20.6554C60.13 20.5535 59.9366 20.2692 60.0534 19.9651C60.2817 19.3705 60.0619 19.2694 59.7255 19.8138ZM99.1393 20.0274C99.1569 20.4542 99.2437 20.5411 99.3606 20.2491C99.4665 19.9845 99.4533 19.6684 99.3316 19.5467C99.21 19.4251 99.1235 19.6413 99.1393 20.0274ZM101.309 19.9091C101.309 20.23 101.02 20.5682 100.667 20.6605C100.067 20.8173 100.067 20.8305 100.679 20.8704C101.341 20.9137 101.955 19.9717 101.537 19.5537C101.412 19.428 101.309 19.5881 101.309 19.9091ZM102.099 20.1802C102.099 20.6839 102.182 20.8902 102.284 20.6381C102.386 20.3865 102.386 19.9743 102.284 19.7222C102.182 19.4705 102.099 19.6764 102.099 20.1802ZM103.198 20.1802C103.198 20.6839 103.281 20.8902 103.383 20.6381C103.485 20.3865 103.485 19.9743 103.383 19.7222C103.281 19.4705 103.198 19.6764 103.198 20.1802ZM110.302 19.9054C110.587 20.6539 109.546 20.8345 109.245 20.0886C109.1 19.7299 109.054 19.7325 109.031 20.1C108.991 20.7528 110.062 21.0987 110.566 20.5953C110.875 20.2861 110.863 20.0633 110.519 19.7222C110.149 19.3551 110.107 19.3914 110.302 19.9054ZM112.695 20.0274C112.713 20.4542 112.799 20.5411 112.916 20.2491C113.022 19.9845 113.009 19.6684 112.887 19.5467C112.766 19.4251 112.679 19.6413 112.695 20.0274ZM119.899 19.8475C120.149 20.1685 120.245 20.5392 120.113 20.6719C119.98 20.8045 120.064 20.9129 120.299 20.9129C120.926 20.9129 120.82 20.3432 120.085 19.7669C119.518 19.3221 119.496 19.3313 119.899 19.8475ZM126.28 20.1802C126.28 20.6839 126.363 20.8902 126.464 20.6381C126.566 20.3865 126.566 19.9743 126.464 19.7222C126.363 19.4705 126.28 19.6764 126.28 20.1802ZM127.379 20.1802C127.379 20.6839 127.462 20.8902 127.563 20.6381C127.665 20.3865 127.665 19.9743 127.563 19.7222C127.462 19.4705 127.379 19.6764 127.379 20.1802ZM128.152 19.9666C128.198 20.3531 128.484 20.7363 128.786 20.8188C129.14 20.9151 129.192 20.8605 128.933 20.666C128.711 20.4997 128.425 20.1161 128.298 19.8138C128.135 19.4277 128.092 19.4731 128.152 19.9666ZM134.282 19.9754C134.282 20.2659 134.431 20.5957 134.614 20.7085C134.797 20.8217 134.86 20.5839 134.755 20.1806C134.531 19.3251 134.282 19.217 134.282 19.9754ZM135.439 20.1802C135.439 20.6839 135.522 20.8902 135.624 20.6381C135.725 20.3865 135.725 19.9743 135.624 19.7222C135.522 19.4705 135.439 19.6764 135.439 20.1802ZM136.172 20.1802C136.172 20.6839 136.255 20.8902 136.356 20.6381C136.458 20.3865 136.458 19.9743 136.356 19.7222C136.255 19.4705 136.172 19.6764 136.172 20.1802ZM137.271 20.1802C137.271 20.6839 137.354 20.8902 137.455 20.6381C137.557 20.3865 137.557 19.9743 137.455 19.7222C137.354 19.4705 137.271 19.6764 137.271 20.1802ZM36.1888 20.1802C36.2712 20.4824 36.6545 20.7682 37.041 20.8147C37.5345 20.8748 37.5799 20.8312 37.1938 20.6682C36.8915 20.5411 36.5079 20.2553 36.3416 20.0336C36.147 19.7746 36.0924 19.8266 36.1888 20.1802ZM15.4801 20.592C15.7289 20.8426 16.0245 20.9551 16.137 20.8422C16.2498 20.7294 16.0465 20.5246 15.6853 20.3868C15.1632 20.1882 15.121 20.23 15.4801 20.592ZM46.9879 20.592C47.2367 20.8426 47.5324 20.9551 47.6448 20.8422C47.7577 20.7294 47.5543 20.5246 47.1931 20.3868C46.671 20.1882 46.6289 20.23 46.9879 20.592ZM74.7742 21.4625C74.9764 22.9906 75.9044 24.596 76.7486 24.8774C77.0193 24.9679 76.8292 24.4836 76.3261 23.8014C75.8235 23.1196 75.2248 21.9846 74.9962 21.2793L74.5804 19.997L74.7742 21.4625ZM96.1794 20.5466C96.1794 20.7481 96.3541 20.9129 96.5674 20.9129C96.7806 20.9129 96.8535 20.7481 96.7289 20.5466C96.6044 20.3451 96.43 20.1802 96.341 20.1802C96.2519 20.1802 96.1794 20.3451 96.1794 20.5466ZM111.469 20.592C111.718 20.8426 112.014 20.9551 112.126 20.8422C112.239 20.7294 112.036 20.5246 111.674 20.3868C111.152 20.1882 111.11 20.23 111.469 20.592ZM121.825 20.5466C121.356 20.8499 121.369 20.9027 121.917 20.9074C122.269 20.9104 122.558 20.7481 122.558 20.5466C122.558 20.0996 122.517 20.0996 121.825 20.5466ZM30.5306 20.7968C30.7947 20.9027 31.1109 20.8895 31.2325 20.7678C31.3542 20.6462 31.138 20.5597 30.7519 20.5755C30.325 20.5931 30.2382 20.6799 30.5306 20.7968ZM51.4137 20.7968C51.6778 20.9027 51.994 20.8895 52.1157 20.7678C52.2373 20.6462 52.0211 20.5597 51.635 20.5755C51.2082 20.5931 51.1213 20.6799 51.4137 20.7968ZM130.183 20.7968C130.447 20.9027 130.764 20.8895 130.885 20.7678C131.007 20.6462 130.791 20.5597 130.405 20.5755C129.978 20.5931 129.891 20.6799 130.183 20.7968ZM58.0769 30.4386C57.6739 30.8416 57.3632 31.4596 57.3866 31.8124C57.4269 32.4232 57.4372 32.4232 57.5966 31.8124C57.6889 31.4596 57.9267 31.1713 58.1252 31.1713C58.3238 31.1713 58.3952 31.0237 58.2839 30.8434C57.9285 30.2682 59.1335 30.0821 59.6794 30.628C60.1241 31.0727 60.2337 31.0749 60.3997 30.6426C60.5795 30.1733 59.9545 29.7058 59.1459 29.7058C58.9609 29.7058 58.4799 30.0355 58.0769 30.4386ZM64.9218 29.9443C64.784 30.0817 64.6715 31.7329 64.6715 33.6139V37.0332L71.3578 37.034L78.044 37.0347L77.9272 33.5534L77.8107 30.0722H81.1025C82.9853 30.0722 84.4742 30.233 84.5808 30.4477C84.683 30.6543 84.7244 30.6129 84.6724 30.3561C84.5995 29.9945 82.3833 29.867 74.8749 29.7915C69.538 29.7381 65.0592 29.8066 64.9218 29.9443ZM60.5315 31.2962C60.4279 31.5662 60.4718 31.996 60.6297 32.251C60.8129 32.5477 60.9162 32.3708 60.9162 31.7601C60.9162 30.6939 60.8111 30.5672 60.5315 31.2962ZM67.2303 31.896C67.6142 32.4283 67.8282 32.5012 68.0381 32.1708C68.255 31.8297 68.3253 31.8425 68.3297 32.2235C68.3341 32.6291 68.4418 32.6382 68.8848 32.2704C69.3373 31.8949 69.4343 31.9264 69.4343 32.4488C69.4343 32.9581 69.1815 33.0537 68.152 32.9335C67.4468 32.8511 66.8698 32.9156 66.8698 33.0768C66.8698 33.5897 66.1224 33.3911 65.9033 32.82C65.6604 32.1872 65.9732 31.1713 66.4111 31.1713C66.5745 31.1713 66.943 31.4974 67.2303 31.896ZM70.0546 32.5382C69.9615 32.8947 69.8795 32.6917 69.8722 32.0872C69.8648 31.4827 69.9407 31.1911 70.0411 31.4391C70.1414 31.6871 70.1477 32.1817 70.0546 32.5382ZM72.5467 32.6397C72.1931 33.212 70.5335 33.0764 70.5335 32.4752C70.5335 31.6981 71.2193 31.4091 71.8403 31.9242C72.2924 32.2994 72.3459 32.2591 72.1627 31.6809C71.9601 31.0401 71.9748 31.0365 72.3576 31.6322C72.5851 31.9865 72.6701 32.4397 72.5467 32.6397ZM74.5635 32.0872C74.5635 32.6573 74.3558 33.0031 74.014 33.0031C73.7117 33.0031 73.467 32.7148 73.4699 32.362C73.4747 31.8139 73.5274 31.8007 73.8308 32.2704C74.118 32.7148 74.1869 32.6621 74.1917 31.9956C74.1946 31.5424 74.2796 31.1713 74.3803 31.1713C74.4811 31.1713 74.5635 31.5835 74.5635 32.0872ZM79.4253 31.9293C79.3619 32.7709 79.5344 32.8449 79.8206 32.0989C79.9342 31.8033 79.9037 31.4849 79.7528 31.3915C79.6019 31.2984 79.4546 31.5402 79.4253 31.9293ZM66.137 32.2704C66.137 32.9544 66.2348 33.0519 66.5767 32.7101C66.9185 32.3682 66.9185 32.1726 66.5767 31.8308C66.2348 31.4889 66.137 31.5864 66.137 32.2704ZM81.9199 32.1176C81.9375 32.5445 82.0243 32.6313 82.1412 32.3393C82.247 32.0748 82.2339 31.7586 82.1122 31.637C81.9906 31.5153 81.9041 31.7315 81.9199 32.1176ZM75.6626 32.2488C75.6626 32.4386 75.4978 32.6954 75.2963 32.82C75.0948 32.9445 74.9299 32.7892 74.9299 32.4752C74.9299 32.1612 75.0948 31.904 75.2963 31.904C75.4978 31.904 75.6626 32.059 75.6626 32.2488ZM82.6603 34.3605C82.9274 34.8046 83.2245 35.0893 83.3209 34.9929C83.4172 34.8965 83.1989 34.5331 82.8358 34.1851C82.2049 33.5809 82.1969 33.5886 82.6603 34.3605ZM79.555 34.6661C79.4293 34.9933 79.3454 35.7011 79.3685 36.2389C79.4 36.9709 79.4824 36.8486 79.6964 35.7509C79.9997 34.1935 79.9327 33.6809 79.555 34.6661ZM66.4979 34.9266C66.5008 34.6749 66.7507 34.4686 67.0529 34.4686C67.3552 34.4686 67.6051 34.6749 67.608 34.9266C67.612 35.2369 67.7388 35.2076 68.0022 34.835C68.3477 34.3466 68.3733 34.3466 68.2334 34.835C68.1469 35.1373 67.7882 35.3322 67.4362 35.2684C67.0841 35.2047 66.8829 35.293 66.9892 35.4648C67.0954 35.6366 66.8972 35.7769 66.5484 35.7769C66.1751 35.7769 65.8919 35.4729 65.8589 35.0358C65.8139 34.4379 65.8696 34.4001 66.1476 34.8398C66.3785 35.2043 66.4939 35.2332 66.4979 34.9266ZM69.4343 35.2446C69.4343 35.4461 69.2695 35.5091 69.068 35.3846C68.8665 35.26 68.7016 34.9933 68.7016 34.7918C68.7016 34.5903 68.8665 34.5272 69.068 34.6518C69.2695 34.7764 69.4343 35.0431 69.4343 35.2446ZM70.0509 35.2702C69.9341 35.5622 69.8472 35.4754 69.8297 35.0486C69.8139 34.6624 69.9004 34.4463 70.022 34.5679C70.1436 34.6896 70.1568 35.0057 70.0509 35.2702ZM71.0222 35.1098C70.8441 35.626 70.9123 35.608 71.3702 35.0189C71.9938 34.2162 72.5108 34.3965 72.1653 35.2959C71.8854 36.0253 70.7525 35.8656 70.5983 35.0753C70.5331 34.7416 70.6514 34.4686 70.8614 34.4686C71.0713 34.4686 71.1438 34.757 71.0222 35.1098ZM82.0584 35.227C81.925 35.4428 81.4747 35.7454 81.0582 35.8993C80.6361 36.0554 80.4669 36.2829 80.6761 36.4119C80.8827 36.5397 81.4341 36.2371 81.9016 35.7396C82.369 35.242 82.6501 34.835 82.5259 34.835C82.402 34.835 82.1914 35.0116 82.0584 35.227ZM57.0356 36.3005C57.0356 36.8042 57.1188 37.0105 57.2203 36.7584C57.3221 36.5067 57.3221 36.0946 57.2203 35.8425C57.1188 35.5908 57.0356 35.7967 57.0356 36.3005ZM58.1135 36.1924C58.3806 36.6364 58.6777 36.9211 58.7741 36.8248C58.8704 36.7284 58.6521 36.365 58.289 36.0169C57.6581 35.4128 57.65 35.4205 58.1135 36.1924ZM59.579 36.1924C59.8461 36.6364 60.1432 36.9211 60.2395 36.8248C60.3359 36.7284 60.1175 36.365 59.7545 36.0169C59.1236 35.4128 59.1155 35.4205 59.579 36.1924ZM84.4845 36.5141C84.5021 36.9409 84.5889 37.0277 84.7058 36.7357C84.8116 36.4712 84.7985 36.155 84.6768 36.0334C84.5552 35.9118 84.4687 36.1279 84.4845 36.5141ZM82.8303 36.9259C82.6317 37.448 82.6735 37.4901 83.0355 37.131C83.2861 36.8823 83.3986 36.5866 83.2857 36.4741C83.1729 36.3613 82.9681 36.5646 82.8303 36.9259ZM80.3276 37.445C80.5764 37.6956 80.8721 37.8081 80.9845 37.6953C81.0974 37.5824 80.894 37.3776 80.5328 37.2399C80.0107 37.0413 79.9686 37.083 80.3276 37.445Z" fill="white"/>
</svg>
