<svg width="81" height="42" viewBox="0 0 81 42" fill="none" xmlns="http://www.w3.org/2000/svg">
<path fill-rule="evenodd" clip-rule="evenodd" d="M49.9441 0.995717C50.0037 1.09599 50.2482 1.51792 50.4875 1.93335C50.7267 2.34877 51.2591 3.19117 51.6705 3.80537C52.514 5.0644 52.6031 5.21505 52.5038 5.21499C52.3997 5.21494 50.6452 4.96663 50.1342 4.87963C49.8815 4.83661 49.4402 4.76285 49.1535 4.71565C48.3066 4.57626 47.5946 4.45307 46.6255 4.27815C44.2212 3.84413 43.5295 3.72317 41.9082 3.45309C35.9523 2.46097 31.6808 2.23604 26.9225 2.66397C20.1414 3.27384 14.4833 5.07914 10.295 7.96933C7.90903 9.61575 5.39863 12.022 3.95709 14.0444C2.37726 16.2607 1.29428 19.1757 0.986485 22.0403C0.884061 22.9933 0.908455 24.4706 1.04017 25.2959C1.31591 27.0235 2.05305 28.842 3.11998 30.4268C3.42506 30.88 4.2151 31.9156 4.55057 32.3021C5.05795 32.8866 6.34192 34.1459 6.93296 34.6388C10.7416 37.8147 15.6403 40.0529 20.2965 40.7445C24.0102 41.2961 27.1237 41.6384 29.2681 41.7307C30.7707 41.7955 34.4022 41.795 35.7576 41.7298C36.8088 41.6793 39.1713 41.4672 39.8233 41.3647C39.9953 41.3377 40.4878 41.2669 40.9179 41.2074C41.728 41.0953 44.3732 40.56 46.1733 40.1437C48.7255 39.5535 50.1157 39.0925 52.0985 38.1788C52.2848 38.0929 52.6718 37.9151 52.9585 37.7836C53.5813 37.4981 55.5017 36.5243 56.2684 36.1052C56.5694 35.9407 57.0268 35.6933 57.2848 35.5554C58.7194 34.7887 60.5028 33.603 61.8155 32.5431C62.4837 32.0036 63.7888 30.8406 63.7592 30.8111C63.7343 30.7863 62.4991 31.122 61.0899 31.5365C60.4592 31.722 59.4623 32.0072 58.8746 32.1702C58.2869 32.3332 57.7005 32.4995 57.5715 32.5395C57.4425 32.5795 56.8209 32.74 56.1902 32.8959C48.3223 34.8421 39.3953 35.3388 30.884 34.304C29.8254 34.1753 29.1139 34.0547 27.6523 33.7562C23.2824 32.8638 20.1408 31.4573 18.0716 29.4669C16.571 28.0234 15.7772 26.5654 15.4514 24.6541C15.3569 24.0991 15.3434 23.8648 15.367 23.1863C15.4207 21.6409 15.7541 20.4009 16.5292 18.8628C17.934 16.0753 20.4803 13.5796 23.7793 11.7569C24.5372 11.3381 25.9018 10.7041 26.5316 10.4781C31.299 8.7672 35.7833 7.79837 40.7615 7.40363C42.8383 7.23897 46.4596 7.19058 48.6062 7.29882C52.0869 7.47437 56.4972 7.91245 60.0995 8.44044C60.4722 8.49508 60.7814 8.53566 60.7865 8.5306C60.7917 8.52555 60.4415 8.3225 60.0083 8.07935C57.2358 6.52314 53.5796 3.94664 50.6651 1.49511C49.7838 0.753808 49.8117 0.773186 49.9441 0.995717ZM80.1673 10.3006C80.0813 10.3095 79.0141 10.3532 77.7957 10.3977C76.5772 10.4422 75.1113 10.5015 74.5379 10.5294C73.9645 10.5573 72.2874 10.6271 70.811 10.6846C67.2814 10.8219 66.7461 10.8495 66.7178 10.8954C66.7047 10.9165 66.5648 11.4344 66.4069 12.0463C66.249 12.6582 65.9409 13.8503 65.7223 14.6955C65.5036 15.5407 65.1399 16.9471 64.914 17.8209C64.6881 18.6948 64.3363 20.0543 64.1323 20.8422C63.488 23.3309 63.2726 24.1656 62.9157 25.5564C62.7245 26.3013 62.4963 27.1803 62.4086 27.5098C62.2029 28.2817 62.1327 28.5965 62.1614 28.6193C62.1741 28.6294 62.8413 28.5953 63.644 28.5436C65.7407 28.4085 68.89 28.2091 71.3583 28.0553C75.6229 27.7894 76.4431 27.7328 76.4738 27.7021C76.5043 27.6716 76.6169 27.1936 76.9913 25.5043C77.0929 25.0459 77.292 24.1585 77.4337 23.5324C77.5754 22.9063 77.6914 22.3712 77.6914 22.3432C77.6914 22.3122 77.5643 22.3048 77.3656 22.3243C77.1865 22.3418 76.3127 22.4035 75.424 22.4613C72.3775 22.6597 71.7447 22.7046 71.7276 22.7241C71.7181 22.7347 71.6077 23.0568 71.4822 23.4398C71.293 24.0173 71.2329 24.1441 71.1301 24.1833C71.0619 24.2093 70.6377 24.2242 70.1873 24.2163L69.3685 24.202L69.726 22.8477C69.9225 22.1028 70.1513 21.2355 70.2344 20.9203C70.3175 20.6052 70.4324 20.1715 70.4899 19.9567C70.7226 19.087 70.877 18.5055 70.9673 18.1595C71.1236 17.5603 71.7521 15.1976 71.7813 15.0992C71.8059 15.0164 71.9017 15.0081 72.8213 15.0081C73.3784 15.0081 73.8343 15.0256 73.8344 15.0471C73.8346 15.0686 73.7603 15.4202 73.6694 15.8285C73.5785 16.2368 73.5139 16.5776 73.5258 16.586C73.5378 16.5945 73.9228 16.5854 74.3815 16.5659C74.8402 16.5464 76.0013 16.5035 76.9617 16.4705C77.9221 16.4376 78.851 16.3984 79.0258 16.3832L79.3439 16.3558L79.8242 14.5229C80.0884 13.5148 80.3384 12.5728 80.3798 12.4296C80.5152 11.9608 80.9231 10.3792 80.9231 10.3229C80.9231 10.2712 80.5568 10.2604 80.1673 10.3006ZM62.1845 10.9002C61.7831 10.9245 60.3875 11.0033 59.0831 11.0754C57.7787 11.1475 55.8905 11.2526 54.8871 11.309C53.8837 11.3654 52.5819 11.4366 51.9942 11.4671C51.4065 11.4977 50.3745 11.5565 49.7008 11.598C49.0271 11.6394 48.317 11.6735 48.1229 11.6737C47.7125 11.6744 47.74 11.6411 47.5427 12.3775C47.3391 13.1376 46.9117 14.7022 46.6247 15.7373C46.4778 16.2673 46.2433 17.1229 46.1035 17.6386C45.9637 18.1543 45.7294 19.0099 45.5828 19.5399C45.349 20.385 44.7688 22.4958 44.4087 23.8113C44.342 24.0549 44.0487 25.1214 43.757 26.1815C43.4652 27.2415 43.1612 28.3491 43.0815 28.6427L42.9365 29.1767H43.2021C43.3481 29.1767 44.4889 29.13 45.7372 29.073C47.9793 28.9705 52.6483 28.7653 55.3302 28.6513C56.0899 28.619 56.9573 28.5775 57.2577 28.5591L57.8039 28.5255L58.2791 26.6503C58.5404 25.6189 58.772 24.7197 58.7937 24.652L58.8332 24.5291L57.9808 24.5619C57.512 24.5799 56.2137 24.6169 55.0956 24.644C53.9776 24.6711 52.4471 24.7088 51.6945 24.7277C50.942 24.7467 50.3263 24.7475 50.3263 24.7295C50.3263 24.7012 50.4773 24.2868 51.1502 22.4686C51.2519 22.194 51.3193 22.084 51.3948 22.0695C51.4521 22.0586 52.1558 22.0109 52.9585 21.9636C54.2685 21.8865 55.3068 21.8236 58.6661 21.618C59.2251 21.5838 59.6866 21.5533 59.6915 21.5503C59.7002 21.545 59.7548 21.3679 60.3269 19.4878C60.8909 17.6347 60.9433 17.4574 60.93 17.4441C60.9162 17.4302 59.8872 17.4687 55.0229 17.6651C53.5782 17.7234 52.3866 17.7616 52.375 17.75C52.3535 17.7285 52.3895 17.6062 52.7784 16.379L52.996 15.6923L53.316 15.6651C53.4921 15.6502 55.1608 15.588 57.0242 15.5269C58.8876 15.4658 60.704 15.4002 61.0605 15.3812L61.7088 15.3466L61.7707 15.1122C61.8047 14.9833 61.9198 14.5848 62.0265 14.2267C62.4052 12.9551 62.9924 10.9122 62.9924 10.8663C62.9924 10.8523 62.9748 10.8443 62.9533 10.8484C62.9318 10.8526 62.5858 10.8759 62.1845 10.9002ZM41.8561 11.8315C41.1107 11.8822 39.8558 11.9621 39.0675 12.0088C37.4012 12.1078 37.2952 12.1206 37.2952 12.2248C37.2952 12.2671 37.1783 12.7172 37.0353 13.2251C36.5468 14.9607 36.105 16.5443 35.8621 17.4303C35.7286 17.9173 35.6102 18.3451 35.5989 18.3809C35.5837 18.4292 35.3585 18.4476 34.7297 18.4523C34.263 18.4557 33.2749 18.4733 32.5339 18.4913C31.7928 18.5094 31.1784 18.5109 31.1684 18.4946C31.1584 18.4783 31.3131 17.8337 31.5122 17.0621C31.7113 16.2905 32.0496 14.9794 32.2641 14.1486C32.4785 13.3177 32.6772 12.5584 32.7057 12.4612C32.7341 12.364 32.745 12.2644 32.7297 12.2398C32.7145 12.2151 32.5803 12.2063 32.4315 12.2202C32.2827 12.234 30.8944 12.2946 29.3463 12.3547C27.7982 12.4148 26.4818 12.4735 26.4209 12.4852C26.3341 12.5018 26.2914 12.5773 26.2244 12.8327C26.0966 13.3192 25.9798 13.731 24.8984 17.5084C22.2166 26.8762 21.2939 30.1325 21.3155 30.1539C21.3284 30.1669 21.9092 30.1397 22.6061 30.0936C23.303 30.0475 24.4714 29.9734 25.2024 29.9291C27.388 29.7964 27.7046 29.7705 27.7524 29.7199C27.7775 29.6933 27.8447 29.5074 27.9016 29.3069C27.9585 29.1063 28.3032 27.9578 28.6677 26.7545C29.0322 25.5512 29.4197 24.2661 29.5289 23.8987C29.6381 23.5314 29.7355 23.2237 29.7454 23.2151C29.7552 23.2064 30.7084 23.1825 31.8635 23.1619L33.9637 23.1245L33.9348 23.2465C33.838 23.6558 33.4736 25.2467 33.4118 25.5303C33.3712 25.7166 33.1954 26.4784 33.021 27.2233C32.6177 28.9458 32.4873 29.5461 32.5109 29.5697C32.5213 29.5801 32.9746 29.5667 33.5182 29.5399C34.0618 29.5132 35.5621 29.4415 36.8522 29.3808C38.1423 29.3199 39.2031 29.2652 39.2098 29.2592C39.227 29.2434 39.7871 27.129 40.37 24.8792C40.4888 24.4208 40.6333 23.87 40.6911 23.6551C40.7489 23.4402 40.8781 22.948 40.9784 22.5612C41.0787 22.1744 41.2041 21.6939 41.2571 21.4933C41.3102 21.2928 41.4357 20.8122 41.5359 20.4255C41.7155 19.7327 42.9051 15.1911 43.1596 14.2267C43.2314 13.9545 43.3966 13.3216 43.5265 12.8203C43.6565 12.3189 43.7751 11.8677 43.7903 11.8175C43.8246 11.7036 43.7233 11.7044 41.8561 11.8315Z" fill="white"/>
</svg>
