<svg width="81" height="37" viewBox="0 0 81 37" fill="none" xmlns="http://www.w3.org/2000/svg">
<path fill-rule="evenodd" clip-rule="evenodd" d="M44.755 0.357706C43.6513 0.813078 44.3933 5.66929 46.1236 9.31554C47.1095 11.3933 47.5016 10.4552 47.502 6.01879C47.5024 1.27295 46.6738 -0.434087 44.755 0.357706ZM51.2749 3.03476C50.9655 3.3442 50.7938 4.81455 50.8102 7.02029C50.8392 10.8954 51.221 10.6187 52.1918 6.01879C52.854 2.87983 52.5192 1.79045 51.2749 3.03476ZM39.1557 4.96253C39.0281 5.16855 39.1119 5.83076 39.3416 6.43452C39.8882 7.87299 42.6564 12.0351 42.902 11.789C43.2401 11.451 41.7415 6.89275 40.9076 5.72121C40.0705 4.54558 39.5522 4.32116 39.1557 4.96253ZM55.2695 9.51461C55.0226 9.97612 54.8873 10.6661 54.969 11.0475C55.0798 11.5654 55.294 11.4097 55.8123 10.4335C56.6135 8.92516 56.656 8.67581 56.1128 8.67581C55.8961 8.67581 55.5164 9.05352 55.2695 9.51461ZM37.2949 11.7792C37.2949 11.9125 37.6628 12.4893 38.1125 13.0607C38.9721 14.1538 39.2288 13.6767 38.5069 12.3278C38.1149 11.5957 37.2949 11.2245 37.2949 11.7792ZM44.8498 12.7778C43.722 13.212 42.1585 14.1386 41.3753 14.8368L39.9519 16.1061L41.4108 15.3098C45.2141 13.234 48.3735 12.8138 52.5826 13.8239C54.2169 14.2163 53.6344 13.3493 51.7283 12.553C49.7829 11.74 47.3393 11.8201 44.8498 12.7778ZM46.2879 15.2207C38.9635 16.4458 35.1824 22.5479 37.4735 29.4459C38.4857 32.4925 41.782 35.4251 44.9283 36.0783C51.0186 37.3426 57.2177 34.1656 58.7538 28.9926C59.5203 26.4116 59.5207 25.6877 58.7579 23.1194C57.5839 19.1661 54.4789 16.1752 50.7844 15.4398C49.9975 15.2832 49.0778 15.1005 48.7405 15.0339C48.4033 14.9672 47.2996 15.0514 46.2879 15.2207ZM11.1637 15.5223C5.97723 15.6061 3.44326 15.7999 3.0259 16.1453C2.23043 16.8034 0.934619 19.6767 0.923173 20.8078C0.912954 21.8383 1.91486 22.9828 2.82724 22.9828C3.17265 22.9828 4.26898 22.1089 5.26311 21.0412C7.02655 19.1469 7.08623 19.1195 7.71084 19.9171C8.25328 20.6091 8.3101 21.582 8.08282 26.253C7.80935 31.8696 7.32005 33.6109 6.01443 33.6109C5.64613 33.6109 5.41068 34.0017 5.41068 34.6136C5.41068 35.9054 7.27059 36.4678 11.5423 36.4678C17.4061 36.4678 19.3298 35.1925 16.6769 33.0644L15.2212 31.8965V26.0589C15.2212 21.1847 15.3299 20.1313 15.8814 19.6738C16.5661 19.1052 16.4545 19.0178 18.9263 22.0631C19.4545 22.7135 21.446 22.7261 22.0886 22.0835C23.6096 20.5625 21.1116 14.8695 19.1156 15.3086C18.8846 15.3592 15.3066 15.4557 11.1637 15.5223ZM26.6108 15.5665C24.7771 15.8473 23.3967 16.5888 23.3967 17.2936C23.3967 17.4816 23.9023 18.1046 24.5208 18.6777L25.6449 19.7196V26.2326C25.6449 32.4602 25.6044 32.7832 24.7252 33.6028C23.6272 34.6263 23.588 34.9656 24.4815 35.7071C25.2226 36.3219 31.7409 36.5042 33.6732 35.9638C35.3173 35.5035 35.5106 34.4052 34.1527 33.2381L33.0028 32.2501L32.8724 26.0074L32.7416 19.7646L33.9708 18.4786C35.2384 17.1517 35.2809 16.2896 34.1004 15.8363C32.9918 15.4112 28.6486 15.2546 26.6108 15.5665ZM61.5748 15.9295C61.0229 16.4817 61.0908 16.6792 62.2063 17.7702L63.4564 18.992V25.1019C63.4564 31.3521 63.2274 32.488 61.7563 33.532C60.7818 34.2237 60.7977 35.107 61.7943 35.6405C62.7749 36.1653 70.4014 36.2001 71.754 35.6863C73.293 35.1009 73.4296 34.1248 72.0708 33.4221C70.1897 32.4496 69.2343 28.2119 70.6344 27.0501C71.5337 26.3037 73.4328 27.0232 73.598 28.1734C73.6679 28.6582 73.999 29.2824 74.3338 29.5604C75.4788 30.5108 76.3 29.0355 76.4672 25.7273C76.5927 23.2391 76.4868 22.6027 75.8062 21.7623C75.11 20.9026 74.9024 20.8384 74.3358 21.3089C73.9728 21.6102 73.6757 22.1036 73.6757 22.4053C73.6757 23.1725 72.1697 23.8965 71.2087 23.5915C69.7437 23.1263 69.6448 20.1231 71.0485 18.7194C72.3296 17.4383 76.806 18.3384 78.0606 20.1296C78.8842 21.3061 80.5455 21.1928 80.8602 19.9387C81.1394 18.8256 80.4421 16.3145 79.6842 15.7051C79.4046 15.4802 75.5397 15.311 70.6937 15.311C63.6509 15.311 62.0874 15.4173 61.5748 15.9295ZM49.5094 20.9369C51.8954 24.2304 52.7032 30.4401 50.9213 31.7903C48.2615 33.8059 44.8425 29.7084 44.3499 23.9148C44.0715 20.6349 44.8098 19.3039 46.908 19.3039C48.093 19.3039 48.5214 19.5729 49.5094 20.9369Z" fill="white"/>
</svg>
