<svg width="194" height="24" viewBox="0 0 194 24" fill="none" xmlns="http://www.w3.org/2000/svg">
<path fill-rule="evenodd" clip-rule="evenodd" d="M9.852 1.10809C5.589 2.41909 0.5 8.36409 0.5 12.0301C0.5 15.9621 4.616 20.5691 9.95 22.6061C15.759 24.8241 29.374 24.3061 34.786 21.6611C36.868 20.6431 38.443 19.6891 38.286 19.5421C38.129 19.3941 35.525 19.6931 32.5 20.2051C20.968 22.1571 10.365 18.6641 9.674 12.6861C8.944 6.38209 17.075 2.57909 29.898 3.22709C35.074 3.48809 36.887 3.30609 35.71 2.64209C33.453 1.36809 31.601 1.09909 21.5 0.577087C16.825 0.336087 11.583 0.575087 9.852 1.10809ZM58.124 4.87109C57.716 5.53209 56.509 6.07209 55.441 6.07209C53.951 6.07209 53.5 6.76909 53.5 9.07209C53.5 11.4051 53.944 12.0721 55.5 12.0721C56.611 12.0721 57.5 12.7391 57.5 13.5721C57.5 14.3971 57.95 15.0721 58.5 15.0721C59.05 15.0721 59.5 14.3971 59.5 13.5721C59.5 12.7391 60.389 12.0721 61.5 12.0721C63.056 12.0721 63.5 11.4051 63.5 9.07209C63.5 6.78209 63.046 6.07209 61.583 6.07209C60.529 6.07209 59.487 5.53209 59.266 4.87109C58.955 3.93709 58.702 3.93709 58.124 4.87109ZM66.214 4.69209C65.821 5.08409 65.5 7.58009 65.5 10.2391V15.0721H70.552H75.605L75.302 9.82209L75 4.57209L70.964 4.27509C68.744 4.11209 66.606 4.29909 66.214 4.69209ZM81.382 5.03909C81.316 5.33209 81.316 5.90909 81.382 6.32209C81.447 6.73509 81.05 7.07209 80.5 7.07209C79.95 7.07209 79.5 6.62209 79.5 6.07209C79.5 5.52209 79.114 5.07209 78.641 5.07209C78.169 5.07209 77.806 7.32209 77.834 10.0721C77.884 14.9081 79.435 17.3751 79.563 12.8221L79.627 10.5721L80.531 12.8221C81.229 14.5571 82.187 15.0451 84.718 14.9541L88 14.8351L85 14.0721L82 13.3091L84.824 13.1901C87.511 13.0781 87.631 12.8701 87.299 8.90809C86.985 5.16309 86.676 4.73309 84.225 4.62509C82.726 4.56009 81.447 4.74609 81.382 5.03909ZM93 5.01709C91.9 5.46009 90.662 5.62609 90.25 5.38809C89.838 5.14909 89.5 6.10609 89.5 7.51309C89.5 8.92009 89.9 10.0721 90.389 10.0721C90.878 10.0721 91.215 9.33309 91.139 8.43009C91.063 7.52609 91.625 6.56809 92.389 6.30009C93.237 6.00309 93.506 6.25309 93.08 6.94209C92.696 7.56409 92.891 8.07209 93.512 8.07209C94.189 8.07209 94.04 8.67509 93.143 9.57209C92.318 10.3971 91.213 11.0721 90.688 11.0721C90.163 11.0721 89.498 11.9721 89.21 13.0721C88.63 15.2901 89.987 15.8521 90.8 13.7321C91.15 12.8201 92.385 12.5631 94.657 12.9271L98 13.4621L95 14.1491C92.032 14.8281 92.039 14.8371 95.683 14.9541C99.153 15.0651 99.361 14.8981 99.281 12.0721C99.234 10.4221 98.702 9.06509 98.098 9.05709C97.389 9.04709 97.354 8.78109 98 8.30709C99.332 7.32809 99.738 5.07209 98.582 5.07209C98.077 5.07209 97.064 4.87809 96.332 4.64209C95.599 4.40509 94.1 4.57409 93 5.01709ZM114.5 4.89209C113.564 5.31609 112.89 7.26509 112.707 10.0721L112.414 14.5721L118.207 14.7541C121.393 14.8541 123.464 14.7121 122.808 14.4401C122.016 14.1101 121.778 12.2891 122.099 9.00809C122.538 4.52609 122.392 4.07209 120.51 4.07209C119.37 4.07209 118.178 4.74709 117.862 5.57209C117.545 6.39709 116.898 7.07209 116.424 7.07209C115.951 7.07209 115.822 6.39709 116.138 5.57209C116.769 3.92909 116.694 3.89809 114.5 4.89209ZM126.327 5.03209C125.597 5.32909 125.046 6.47209 125.102 7.57209C125.158 8.67209 125.271 10.8991 125.352 12.5221C125.467 14.8161 125.767 15.2051 126.7 14.2721C127.36 13.6121 129.048 13.1041 130.45 13.1421C132.771 13.2061 132.821 13.2901 131 14.0721C129.228 14.8341 129.313 14.9391 131.75 15.0021C134.303 15.0671 134.5 14.7861 134.5 11.0721C134.5 7.25309 134.353 7.06609 131.25 6.94009L128 6.80909L131.5 6.14209L135 5.47609L131.327 4.98409C129.307 4.71309 127.057 4.73509 126.327 5.03209ZM136.503 9.43109L136.507 14.5721L141.503 14.6881C144.252 14.7521 146.5 14.4151 146.5 13.9381C146.5 13.4621 145.938 13.0651 145.25 13.0571C144.356 13.0461 144.397 12.7901 145.395 12.1581C146.516 11.4481 146.418 11.1791 144.895 10.7891C143.148 10.3421 143.142 10.2951 144.816 10.1881C146.188 10.1001 146.555 9.39809 146.316 7.32209C146.023 4.77609 145.648 4.56209 141.25 4.43109L136.5 4.28909L136.503 9.43109ZM150.75 4.88409C148.779 5.17109 148.5 5.79909 148.5 9.95109V14.6901L153.322 14.7631L158.144 14.8361L158.086 10.0331C158.034 5.67709 157.795 5.19809 155.514 4.89309C154.131 4.70809 151.988 4.70409 150.75 4.88409ZM160.639 5.78809C159.696 7.47309 160.486 15.0721 161.605 15.0721C162.097 15.0721 162.5 13.9471 162.5 12.5721C162.5 11.0161 163.067 10.0721 164 10.0721C164.825 10.0721 165.5 10.7471 165.5 11.5721C165.5 12.3971 165.05 13.0721 164.5 13.0721C163.95 13.0721 163.5 13.5221 163.5 14.0721C163.5 14.6221 164.85 15.0721 166.5 15.0721C168.15 15.0721 169.5 14.6221 169.5 14.0721C169.5 13.5221 169.05 13.0721 168.5 13.0721C166.773 13.0721 167.414 10.2411 169.25 9.76109C170.917 9.32609 170.917 9.29809 169.25 9.18809C168.288 9.12409 167.5 8.43009 167.5 7.64509C167.5 6.86109 168.288 6.04109 169.25 5.82309C170.212 5.60509 168.825 5.22909 166.167 4.98609C162.953 4.69209 161.102 4.96109 160.639 5.78809ZM173.5 5.07209C173.5 5.62209 174.798 6.07209 176.383 6.07209C178.472 6.07209 179.418 6.65109 179.816 8.17309C180.118 9.32809 180.841 9.97909 181.422 9.62009C183.436 8.37509 179.53 4.07209 176.385 4.07209C174.798 4.07209 173.5 4.52209 173.5 5.07209ZM103.25 5.77809C105.062 6.12709 105.5 6.87909 105.5 9.64209C105.5 12.6341 105.181 13.0721 103 13.0721C101.625 13.0721 100.5 13.5221 100.5 14.0721C100.5 14.6221 102.75 15.0721 105.5 15.0721C108.25 15.0721 110.5 14.6221 110.5 14.0721C110.5 13.5221 109.6 13.0721 108.5 13.0721C106.889 13.0721 106.5 12.4051 106.5 9.64209C106.5 6.87909 106.938 6.12709 108.75 5.77809C109.988 5.53909 108.75 5.34409 106 5.34409C103.25 5.34409 102.012 5.53909 103.25 5.77809ZM187.873 5.81209L192.747 6.19209L192.246 10.6321C191.971 13.0741 192.14 15.0721 192.623 15.0721C193.105 15.0721 193.5 12.8221 193.5 10.0721V5.07209L188.25 5.25209L183 5.43209L187.873 5.81209ZM16.094 10.7501C14.114 16.5611 14.114 17.0721 16.094 17.0721C16.97 17.0721 17.923 16.1721 18.21 15.0721C18.498 13.9721 19.539 13.0721 20.523 13.0721C21.849 13.0721 22.17 13.6161 21.763 15.1731C21.337 16.8031 21.617 17.1951 23.012 16.9231C24.162 16.6991 25.455 14.6761 26.595 11.3221C28.327 6.22309 28.324 6.07209 26.506 6.07209C25.477 6.07209 24.349 6.97209 24 8.07209C23.651 9.17209 22.668 10.0721 21.816 10.0721C20.759 10.0721 20.433 9.43609 20.79 8.07209C21.171 6.61509 20.82 6.07209 19.5 6.07209C18.236 6.07209 17.206 7.48609 16.094 10.7501ZM29.109 10.0921C26.588 16.3931 26.869 17.0721 32 17.0721C34.475 17.0721 36.5 16.6221 36.5 16.0721C36.5 15.5221 35.375 15.0721 34 15.0721C32.625 15.0721 31.5 14.6221 31.5 14.0721C31.5 13.5221 32.802 13.0721 34.393 13.0721C38.276 13.0721 39.531 10.1201 35.719 9.95409L33 9.83509L35.918 9.20409C40.79 8.14909 40.309 6.07209 35.192 6.07209C30.901 6.07209 30.651 6.23709 29.109 10.0921ZM40.587 10.1761C39.911 12.4331 39.116 14.9081 38.822 15.6761C38.411 16.7461 39.361 17.0721 42.893 17.0721C46.469 17.0721 47.5 16.7101 47.5 15.4551C47.5 14.3311 46.891 13.9981 45.5 14.3621C44.091 14.7301 43.505 14.3951 43.515 13.2281C43.541 10.4901 45.023 8.95209 46.931 9.68409C47.997 10.0931 49.054 9.80809 49.586 8.96809C51.134 6.52309 50.6 6.07209 46.158 6.07209C41.941 6.07209 41.781 6.19009 40.587 10.1761ZM121.229 6.67609C120.897 7.00809 120.034 7.04409 119.313 6.75509C118.515 6.43609 118.752 6.19909 119.917 6.15109C120.971 6.10809 121.561 6.34409 121.229 6.67609ZM165.5 7.57209C165.5 8.39709 164.825 9.07209 164 9.07209C163.175 9.07209 162.5 8.39709 162.5 7.57209C162.5 6.74709 163.175 6.07209 164 6.07209C164.825 6.07209 165.5 6.74709 165.5 7.57209ZM57.5 8.57209C57.5 9.39709 57.05 10.0721 56.5 10.0721C55.95 10.0721 55.5 9.39709 55.5 8.57209C55.5 7.74709 55.95 7.07209 56.5 7.07209C57.05 7.07209 57.5 7.74709 57.5 8.57209ZM62.5 9.13109C62.5 9.64909 61.825 10.0721 61 10.0721C59.454 10.0721 59.013 8.89209 60.139 7.76609C60.938 6.96709 62.5 7.87009 62.5 9.13109ZM172.138 8.57209C171.822 9.39709 171.951 10.0721 172.424 10.0721C172.898 10.0721 173.545 9.39709 173.862 8.57209C174.178 7.74709 174.049 7.07209 173.576 7.07209C173.102 7.07209 172.455 7.74709 172.138 8.57209ZM186.262 7.77909C187.506 8.01809 189.306 8.00909 190.262 7.75909C191.218 7.50909 190.2 7.31309 188 7.32409C185.8 7.33509 185.018 7.54009 186.262 7.77909ZM80.5 9.07209C80.5 9.62209 80.302 10.0721 80.059 10.0721C79.816 10.0721 79.34 9.62209 79 9.07209C78.66 8.52209 78.859 8.07209 79.441 8.07209C80.023 8.07209 80.5 8.52209 80.5 9.07209ZM85 9.07209C85.34 9.62209 84.89 10.0721 84 10.0721C83.11 10.0721 82.66 9.62209 83 9.07209C83.34 8.52209 83.79 8.07209 84 8.07209C84.21 8.07209 84.66 8.52209 85 9.07209ZM118 9.07209C117.66 9.62209 117.971 10.1081 118.691 10.1511C119.749 10.2151 119.752 10.3291 118.708 10.7481C117.716 11.1461 117.687 11.5921 118.581 12.6691C119.3 13.5361 119.353 14.0721 118.72 14.0721C118.157 14.0721 117.225 12.7221 116.65 11.0721C115.789 8.60309 115.871 8.07209 117.111 8.07209C117.94 8.07209 118.34 8.52209 118 9.07209ZM131.769 8.72809C131.092 9.00209 129.742 9.01909 128.769 8.76509C127.796 8.51109 128.35 8.28709 130 8.26709C131.65 8.24709 132.446 8.45409 131.769 8.72809ZM174.026 11.0221C173.187 12.6451 172.5 14.2201 172.5 14.5221C172.5 14.8251 174.525 15.0721 177 15.0721C180.833 15.0721 181.5 14.7761 181.5 13.0721C181.5 11.9721 181.05 11.0721 180.5 11.0721C179.95 11.0721 179.5 11.5221 179.5 12.0721C179.5 12.6221 178.323 13.0721 176.885 13.0721C174.325 13.0721 174.305 13.0191 175.908 10.5721C176.809 9.19709 177.097 8.07209 176.549 8.07209C176 8.07209 174.865 9.40009 174.026 11.0221ZM184.5 11.5721C184.5 13.6831 184.967 14.0721 187.5 14.0721C190.033 14.0721 190.5 13.6831 190.5 11.5721C190.5 9.46109 190.033 9.07209 187.5 9.07209C184.967 9.07209 184.5 9.46109 184.5 11.5721ZM69.5 11.0721C69.5 11.6221 69.05 12.0721 68.5 12.0721C67.95 12.0721 67.5 11.6221 67.5 11.0721C67.5 10.5221 67.95 10.0721 68.5 10.0721C69.05 10.0721 69.5 10.5221 69.5 11.0721ZM138.183 12.2601C137.864 13.0571 137.627 12.8201 137.579 11.6551C137.536 10.6011 137.772 10.0111 138.104 10.3431C138.436 10.6751 138.472 11.5381 138.183 12.2601ZM131.769 11.7281C131.092 12.0021 129.742 12.0191 128.769 11.7651C127.796 11.5111 128.35 11.2871 130 11.2671C131.65 11.2471 132.446 11.4541 131.769 11.7281ZM152 12.0721C152.34 12.6221 151.89 13.0721 151 13.0721C150.11 13.0721 149.66 12.6221 150 12.0721C150.34 11.5221 150.79 11.0721 151 11.0721C151.21 11.0721 151.66 11.5221 152 12.0721ZM156 12.0721C156.34 12.6221 156.141 13.0721 155.559 13.0721C154.977 13.0721 154.5 12.6221 154.5 12.0721C154.5 11.5221 154.698 11.0721 154.941 11.0721C155.184 11.0721 155.66 11.5221 156 12.0721ZM189 12.0721C188.66 12.6221 187.959 13.0721 187.441 13.0721C186.923 13.0721 186.5 12.6221 186.5 12.0721C186.5 11.5221 187.202 11.0721 188.059 11.0721C188.916 11.0721 189.34 11.5221 189 12.0721ZM53.5 17.5131C53.5 19.1891 55.332 20.5731 56.288 19.6181C56.648 19.2581 56.342 18.5921 55.608 18.1391C54.501 17.4551 54.506 17.2221 55.637 16.7721C56.587 16.3941 56.47 16.2061 55.25 16.1511C54.287 16.1081 53.5 16.7201 53.5 17.5131ZM57.5 17.7411C57.5 18.6731 58.07 19.0671 58.935 18.7351C59.725 18.4321 60.589 18.7221 60.856 19.3781C61.124 20.0351 61.378 19.6551 61.421 18.5351C61.473 17.1841 60.826 16.4471 59.5 16.3471C58.298 16.2561 57.5 16.8131 57.5 17.7411ZM62.658 18.0721C62.658 19.4471 62.885 20.0101 63.162 19.3221C63.44 18.6351 63.44 17.5101 63.162 16.8221C62.885 16.1351 62.658 16.6971 62.658 18.0721ZM64.579 18.5351C64.622 19.6551 64.886 20.0071 65.164 19.3161C65.443 18.6251 66.108 18.3301 66.643 18.6601C68.025 19.5141 72.503 19.9161 72.485 19.1841C72.476 18.8481 72.026 17.8971 71.485 17.0721C70.609 15.7391 70.391 15.7391 69.515 17.0721C68.925 17.9721 68.524 18.0971 68.515 17.3841C68.507 16.7311 67.6 16.2641 66.5 16.3471C65.174 16.4471 64.527 17.1841 64.579 18.5351ZM74.515 18.5361C74.528 20.2231 74.7 20.3151 75.515 19.0721C76.391 17.7391 76.609 17.7391 77.485 19.0721C78.3 20.3151 78.472 20.2231 78.485 18.5361C78.495 17.1621 77.85 16.5011 76.5 16.5011C75.15 16.5011 74.505 17.1621 74.515 18.5361ZM79.5 17.3821C79.5 18.1941 80.208 19.1301 81.073 19.4621C82.169 19.8821 82.548 19.5611 82.323 18.4011C81.912 16.2851 79.5 15.4131 79.5 17.3821ZM83.5 17.9051C83.5 18.9141 84.175 19.7391 85 19.7391C85.825 19.7391 86.5 18.9141 86.5 17.9051C86.5 16.8971 85.825 16.0721 85 16.0721C84.175 16.0721 83.5 16.8971 83.5 17.9051ZM87.5 18.0721C87.5 19.1831 88.167 20.0721 89 20.0721C89.833 20.0721 90.5 19.1831 90.5 18.0721C90.5 16.9611 89.833 16.0721 89 16.0721C88.167 16.0721 87.5 16.9611 87.5 18.0721ZM91.5 17.5531C91.5 19.5801 93.368 20.4271 94.947 19.1161C95.963 18.2731 96.408 18.2961 96.712 19.2071C97.281 20.9151 99.515 19.3171 99.43 17.2631C99.372 15.8841 99.201 15.9421 98.5 17.5721C97.926 18.9071 97.617 19.0731 97.568 18.0721C97.472 16.0771 91.5 15.5661 91.5 17.5531ZM100.5 18.0411C100.5 19.3801 100.98 19.8251 102 19.4341C102.825 19.1171 103.5 18.2311 103.5 17.4651C103.5 16.6991 102.825 16.0721 102 16.0721C101.175 16.0721 100.5 16.9571 100.5 18.0411ZM106.5 18.0721C106.5 19.1721 107.079 20.0721 107.786 20.0721C108.493 20.0721 109.071 19.1721 109.071 18.0721C109.071 16.9721 108.493 16.0721 107.786 16.0721C107.079 16.0721 106.5 16.9721 106.5 18.0721ZM110.5 17.7981C110.5 18.5631 110.912 18.9361 111.415 18.6251C111.918 18.3141 112.557 18.6251 112.836 19.3161C113.114 20.0071 113.378 19.6351 113.421 18.4891C113.467 17.2681 112.879 16.4051 112 16.4051C111.175 16.4051 110.5 17.0321 110.5 17.7981ZM114.946 17.1591C113.916 18.8271 116.233 20.7391 117.613 19.3591C118.767 18.2051 118.045 16.0721 116.5 16.0721C116.015 16.0721 115.316 16.5611 114.946 17.1591ZM119.658 18.0721C119.658 19.4471 119.885 20.0101 120.162 19.3221C120.44 18.6351 120.44 17.5101 120.162 16.8221C119.885 16.1351 119.658 16.6971 119.658 18.0721ZM121.5 17.7981C121.5 18.5631 121.912 18.9361 122.415 18.6251C122.918 18.3141 123.557 18.6251 123.836 19.3161C124.114 20.0071 124.378 19.6351 124.421 18.4891C124.467 17.2681 123.879 16.4051 123 16.4051C122.175 16.4051 121.5 17.0321 121.5 17.7981ZM125.677 17.7391C126.149 20.1771 128.047 20.4341 128.224 18.0841C128.314 16.8891 127.762 16.0721 126.865 16.0721C125.991 16.0721 125.49 16.7761 125.677 17.7391ZM129.677 17.7391C130.149 20.1771 132.047 20.4341 132.224 18.0841C132.314 16.8891 131.762 16.0721 130.865 16.0721C129.991 16.0721 129.49 16.7761 129.677 17.7391ZM133.5 18.0411C133.5 19.3801 133.98 19.8251 135 19.4341C135.825 19.1171 136.5 18.2311 136.5 17.4651C136.5 16.6991 135.825 16.0721 135 16.0721C134.175 16.0721 133.5 16.9571 133.5 18.0411ZM137.579 17.6551C137.627 18.8201 137.864 19.0571 138.183 18.2601C138.472 17.5381 138.436 16.6751 138.104 16.3431C137.772 16.0111 137.536 16.6011 137.579 17.6551ZM139.5 17.6801C139.5 18.3871 140.557 18.7801 142.024 18.6191C143.413 18.4661 144.794 18.7381 145.093 19.2231C145.824 20.4051 147.5 19.2901 147.5 17.6211C147.5 16.7181 146.21 16.3171 143.5 16.3761C141.075 16.4301 139.5 16.9431 139.5 17.6801ZM150.5 17.5131C150.5 19.4581 152.188 20.3861 153.085 18.9341C153.537 18.2031 153.376 18.0311 152.655 18.4771C152.02 18.8691 151.5 18.7511 151.5 18.2141C151.5 17.6781 152.063 17.0121 152.75 16.7341C153.497 16.4331 153.295 16.1981 152.25 16.1511C151.287 16.1081 150.5 16.7201 150.5 17.5131ZM154.731 17.9051C154.934 18.8841 155.887 19.4791 157.038 19.3461C158.117 19.2211 161.598 19.0281 164.773 18.9161C173.427 18.6111 171.313 16.6231 162.112 16.4141C155.375 16.2611 154.43 16.4521 154.731 17.9051ZM171.5 17.4211C171.5 18.0951 172.4 18.7141 173.5 18.7971C174.6 18.8801 175.5 18.3961 175.5 17.7231C175.5 17.0491 174.6 16.4301 173.5 16.3471C172.4 16.2641 171.5 16.7481 171.5 17.4211ZM176.5 17.5721C176.5 18.3971 176.902 19.0721 177.393 19.0721C177.884 19.0721 178.545 18.3971 178.862 17.5721C179.212 16.6581 178.863 16.0721 177.969 16.0721C177.161 16.0721 176.5 16.7471 176.5 17.5721ZM181.677 17.7391C181.855 18.6561 182.527 19.5821 183.171 19.7961C183.916 20.0441 184.147 19.4381 183.805 18.1291C183.166 15.6851 181.209 15.3261 181.677 17.7391ZM186.215 17.7711C186.623 18.8341 187.017 19.0221 187.267 18.2711C187.798 16.6781 189.57 16.7231 189.25 18.3221C189.113 19.0101 189.669 19.5721 190.486 19.5721C191.304 19.5721 192.124 18.7841 192.31 17.8221C192.579 16.4211 191.94 16.0721 189.105 16.0721C186.182 16.0721 185.677 16.3691 186.215 17.7711ZM94.5 17.5131C94.5 17.7561 94.05 18.2321 93.5 18.5721C92.95 18.9121 92.5 18.7131 92.5 18.1311C92.5 17.5491 92.95 17.0721 93.5 17.0721C94.05 17.0721 94.5 17.2701 94.5 17.5131ZM157.5 17.5131C157.5 17.7561 157.05 18.2321 156.5 18.5721C155.95 18.9121 155.5 18.7131 155.5 18.1311C155.5 17.5491 155.95 17.0721 156.5 17.0721C157.05 17.0721 157.5 17.2701 157.5 17.5131Z" fill="#0163B1"/>
</svg>
