<svg width="61" height="51" viewBox="0 0 61 51" fill="none" xmlns="http://www.w3.org/2000/svg">
<g clip-path="url(#clip0_402_840)">
<path d="M25.887 44.9518C23.9101 45.2115 21.9188 45.1826 19.9274 45.0095C15.1655 44.6199 10.9231 42.9171 7.17129 39.9445C4.66047 37.9821 2.5104 35.7165 1.0674 32.8305C1.03854 32.7728 0.966386 32.7295 0.923096 32.6862C0.923096 28.9344 0.923096 25.1826 0.923096 21.4308C1.67346 21.0557 2.17851 20.3774 2.91444 19.9734C3.15975 19.9445 3.30405 19.5549 3.60708 19.7137C3.9534 19.8868 3.86682 20.2331 3.88125 20.5362C3.92454 21.2721 3.78024 22.008 3.96783 22.7295C4.86249 29.8291 8.59986 35.0816 14.4296 39.021C17.229 40.9114 20.3026 42.2533 23.4483 43.451C24.3863 43.8262 25.3243 44.2014 26.3344 44.3601C26.3776 44.3457 26.4209 44.3457 26.4642 44.3746C26.7817 45.0816 26.0313 44.7209 25.887 44.9518Z" fill="white"/>
<path d="M60.9231 50.132C59.6677 50.1464 58.4267 50.1753 57.1713 50.1464C55.8437 50.1176 55.0357 49.2662 55.0212 47.9531C55.0068 46.0772 55.0068 44.2013 55.0212 42.3254C55.0357 40.9689 55.4686 40.4062 56.8105 40.2907C58.167 40.1753 59.5378 40.2042 60.9087 40.1753C60.9087 40.8968 60.9087 41.6183 60.9087 42.3398C60.317 42.7438 59.6533 42.5418 59.0183 42.5562C57.5321 42.5851 57.5321 42.5707 57.5321 44.0425C57.5321 45.0094 57.5465 45.9617 57.5321 46.9285C57.5176 47.5346 57.8062 47.8088 58.369 47.8521C58.9029 47.8954 59.4224 47.8665 59.9563 47.8809C60.2882 47.8953 60.6345 47.8521 60.9087 48.0974C60.9231 48.79 60.9231 49.4538 60.9231 50.132Z" fill="white"/>
<path d="M46.1756 23.0758C45.8437 22.715 45.6706 22.2966 45.5118 21.8492C45.3675 21.5606 45.2232 21.272 45.0789 20.9834C41.76 16.1061 37.0991 14.1436 31.3271 14.6631C26.0458 15.1393 21.2117 19.0787 19.711 23.9993C18.1525 29.1508 20.2882 34.7352 25.0501 37.8954C26.2766 38.7179 27.5898 39.3384 29.0039 39.728C29.408 39.8435 29.5667 40.0166 29.509 40.4207C29.4801 40.6804 29.509 40.9546 29.509 41.2143C29.509 42.4409 29.509 42.4842 28.3257 42.311C24.0977 41.6905 20.5191 39.8579 17.8062 36.5246C12.597 30.1032 13.7658 20.8824 20.3748 15.8463C27.7341 10.2331 38.4267 11.6328 44.0256 18.9488C44.4729 19.5404 44.8769 20.1609 45.18 20.8391C45.3243 21.0844 45.4541 21.3298 45.5984 21.5895C45.9592 22.0368 46.1035 22.5419 46.1756 23.0758Z" fill="white"/>
<path d="M11.5436 33.422C10.5768 32.2099 9.66769 30.9544 8.84518 29.6269C3.18861 20.5648 5.75715 7.85199 15.2232 1.60379C17.3589 0.189653 17.3589 0.175223 19.7976 0.925584C20.8221 1.24304 21.8611 1.54607 22.9 1.87796C23.102 1.93569 23.4195 1.8924 23.4484 2.25315C23.4772 2.59947 23.1598 2.59947 22.9722 2.70048C18.6143 4.93713 15.281 8.22717 13.0732 12.6139C10.9231 16.914 10.418 21.4884 10.8077 26.2214C10.9808 28.3715 11.4137 30.4783 11.861 32.585C11.9476 32.9169 12.2074 33.3498 11.5436 33.422Z" fill="white"/>
<path d="M18.5421 8.60233C19.3502 7.88083 20.1727 7.15933 20.9808 6.43783C23.1309 4.82167 25.5118 3.65284 28.066 2.84476C29.4657 2.46958 30.851 2.00782 32.3084 1.77694C34.8336 1.40176 37.33 1.45948 39.8409 1.87795C41.7889 2.19541 43.6504 2.80147 45.483 3.50854C45.887 3.66727 46.1323 3.88372 46.2478 4.27333C46.7384 5.90392 47.2579 7.52008 47.7485 9.15067C47.7918 9.29497 47.8062 9.52585 47.7196 9.62686C47.5753 9.80002 47.431 9.58357 47.2867 9.51142C43.7947 7.76539 40.0862 6.95731 36.1756 6.97174C32.3372 6.98617 28.7153 7.83754 25.2521 9.43927C21.4282 11.1853 18.066 13.5951 15.0501 16.5244C14.3863 17.1593 13.7081 17.7943 12.9433 18.5158C12.8567 17.6211 13.4339 17.0872 13.4916 16.409C14.7038 13.5085 16.2766 10.839 18.5421 8.60233Z" fill="white"/>
<path d="M31.3416 21.0411C30.5768 20.9112 29.6677 19.8722 29.6821 19.1507C29.6821 18.7034 30.2882 18.0685 30.8077 17.9819C31.457 17.8665 32.0053 18.1262 32.1496 18.7756C32.2939 19.4249 32.5825 19.6558 33.2463 19.5692C33.5926 19.5259 33.9678 19.5836 34.3141 19.6847C35.1367 19.93 35.8293 19.3095 36.6374 19.4105C36.8683 19.4393 36.7817 19.1075 36.926 18.9632C37.4455 18.4148 37.9072 19.0497 38.5421 18.79C38.1958 19.1219 38.1814 19.4538 37.8062 19.5259C36.926 19.6991 36.3776 20.6659 35.382 20.6226C35.3387 20.6226 35.2521 20.6515 35.2521 20.6659C35.3675 21.4018 34.7615 21.3585 34.343 21.5173C34.2853 21.5461 34.2564 21.676 34.242 21.7626C34.0544 23.1334 33.9678 24.5187 34.242 25.8896C34.2853 26.0771 34.4007 26.1493 34.545 26.2647C34.7759 26.4379 35.0068 26.6255 35.1655 26.8564C35.3387 27.0873 35.3242 27.3614 35.1078 27.5779C34.8769 27.8088 34.7326 27.5202 34.5595 27.448C34.343 27.3614 34.1987 26.9285 33.939 27.1883C33.7369 27.3903 33.7225 27.7222 33.8235 28.0685C34.0111 28.7034 34.141 29.2373 35.0645 29.0642C35.6561 28.9487 36.2911 29.1507 36.8971 29.3383C37.2579 29.4393 37.7485 29.5259 38.0227 29.3672C39.0905 28.7467 39.4945 29.6558 40.1006 30.132C40.3459 30.3196 40.317 30.5937 40.317 30.8535C40.317 31.0266 40.216 31.1277 40.0284 31.0411C38.4844 30.1753 36.825 30.5072 35.1944 30.6226C34.5595 30.6659 33.9245 30.637 33.2752 30.7958C32.5825 30.9689 32.2362 30.3773 32.0198 29.8434C31.7456 29.2229 31.558 29.4249 31.3127 29.829C31.1973 30.0165 31.0385 30.1753 30.9808 30.3773C30.8798 30.7236 30.7355 30.6803 30.4613 30.5649C29.8264 30.2907 29.1193 30.5216 28.8163 31.1565C28.3401 32.1233 27.6475 32.8593 26.724 33.3643C26.0313 33.7395 25.6561 34.3888 25.1078 34.8795C24.5883 35.3412 24.2997 35.3268 23.9245 34.7352C23.6792 34.36 23.304 34.0858 23.1165 33.6529C23.0443 33.4797 22.9866 33.3499 23.0876 33.2344C23.1742 33.119 23.3329 33.1334 23.4772 33.2056C24.5739 33.8116 24.6749 33.7972 25.7427 32.7005C27.3156 31.0699 28.4844 29.1075 30.0862 27.5057C30.4902 27.1017 30.7644 26.409 30.6201 25.8318C30.1872 24.0858 30.418 22.5274 31.3416 21.0411Z" fill="white"/>
<path d="M53.939 42.7151C53.939 40.9835 53.2319 40.2475 51.5147 40.2331C49.9851 40.2187 48.4411 40.2476 46.9116 40.2187C46.4498 40.2043 46.2911 40.3197 46.2911 40.8103C46.3199 42.2678 46.3055 43.7396 46.3055 45.197C46.3055 46.2793 46.3055 47.3616 46.3055 48.4438C46.3055 50.2908 46.3055 50.2764 48.1381 50.1754C48.4989 50.161 48.571 50.0311 48.5566 49.6992C48.5421 48.8767 48.5854 48.0686 48.5421 47.2461C48.5133 46.7266 48.6432 46.5246 49.2059 46.5535C50.1439 46.5968 51.0818 46.5968 52.0198 46.5535C53.2175 46.5102 53.9245 45.7598 53.939 44.5766C53.939 43.9561 53.939 43.3356 53.939 42.7151ZM50.8942 44.4034C50.5912 44.3745 50.2737 44.4034 49.9563 44.4034C48.47 44.4034 48.4844 44.4034 48.5277 42.8594C48.5421 42.4986 48.6143 42.3399 49.0039 42.3543C49.6244 42.3832 50.2449 42.3688 50.8654 42.3688C51.7745 42.3688 51.6013 43.0325 51.6302 43.5953C51.6735 44.1292 51.5147 44.4467 50.8942 44.4034Z" fill="white"/>
<path d="M38.2247 45.8753C38.2247 44.6776 38.2103 43.4655 38.2247 42.2678C38.2391 40.9402 38.7442 40.3342 40.0573 40.2764C41.6446 40.2043 43.2319 40.2476 44.8192 40.2332C44.9924 40.2332 45.18 40.2332 45.18 40.464C45.18 41.0124 45.1944 41.5751 45.18 42.1235C45.1655 42.4842 44.8625 42.3399 44.6749 42.3399C43.6215 42.3544 42.5537 42.3399 41.5003 42.3544C40.6489 42.3544 40.1295 43.1913 40.4902 43.9417C40.6056 44.1726 40.8221 44.1004 40.9953 44.1004C42.1785 44.1004 43.3473 44.1293 44.5306 44.1004C45.0068 44.086 45.1944 44.187 45.1944 44.7209C45.1655 46.236 45.1944 46.2505 43.6648 46.2505C42.9 46.2505 42.1208 46.2938 41.356 46.236C40.6778 46.1783 40.4181 46.3659 40.4758 47.0874C40.5479 47.9532 40.4758 48.819 40.5046 49.6848C40.5191 50.06 40.4036 50.1754 40.0284 50.1899C38.2391 50.262 38.2391 50.2764 38.2391 48.5016C38.2391 48.0687 38.2391 47.6358 38.2391 47.2029C38.2247 46.7411 38.2247 46.3082 38.2247 45.8753Z" fill="white"/>
<path d="M30.2882 44.36C30.2882 43.1623 30.3026 41.9646 30.2737 40.7669C30.2737 40.3773 30.3748 40.233 30.7932 40.2186C32.5537 40.1753 32.5537 40.1608 32.5537 41.8924C32.5537 43.6962 32.5825 45.4855 32.5537 47.2893C32.5393 47.8665 32.7846 48.0541 33.3185 48.0541C34.4152 48.0396 35.5263 48.0685 36.6229 48.0396C37.0703 48.0252 37.2579 48.1118 37.229 48.6313C37.1569 50.1608 37.1857 50.1608 35.685 50.1608C34.6027 50.1608 33.5205 50.1897 32.4527 50.132C30.9952 50.0598 30.3315 49.3383 30.3026 47.8953C30.2737 46.7121 30.2882 45.5288 30.2882 44.36Z" fill="white"/>
<path d="M46.089 32.2532C45.9592 32.715 45.8004 33.1767 45.4974 33.5663C45.3531 33.8116 45.2954 34.1002 45.0645 34.2878C43.9967 36.3946 42.395 38.0108 40.5191 39.3961C40.2882 39.5692 40.0429 39.5836 39.7831 39.6125C38.975 39.6847 38.3113 40.0166 37.8639 40.7236C37.7629 40.8824 37.6619 41.0266 37.4599 41.1132C36.2622 41.6327 35.0357 41.9935 33.7658 42.2243C33.3473 42.2965 33.203 42.1811 33.2463 41.7626C33.2896 41.3297 33.1165 40.8102 33.3041 40.4927C33.5205 40.132 34.0977 40.3629 34.5162 40.3196C38.9029 39.8001 42.4094 37.8232 44.9346 34.158C45.1222 33.8405 45.2954 33.523 45.483 33.2056C45.5263 32.8448 45.7427 32.5562 45.9015 32.2388C45.9447 32.2965 46.0169 32.3109 46.089 32.2532Z" fill="white"/>
<path d="M46.089 32.2533C46.0313 32.2389 45.9592 32.2245 45.9015 32.2101C45.9447 31.7339 46.2622 31.3587 46.4354 30.9258C46.4642 31.402 46.3488 31.8493 46.089 32.2533Z" fill="white"/>
<path d="M22.7124 31.1132C21.9476 31.0988 21.4137 30.5793 21.4281 29.8867C21.4426 29.2085 22.0342 28.7034 22.7846 28.7178C23.4916 28.7323 24.0544 29.2662 24.0544 29.9155C24.0544 30.5793 23.4339 31.1276 22.7124 31.1132Z" fill="white"/>
<path d="M3.96783 22.7295C3.63594 22.0801 3.83796 21.3731 3.8091 20.6949C3.76581 19.7713 3.75138 19.728 2.91444 19.9734C3.15975 19.6126 3.54936 19.425 4.01112 19.0354C3.88125 20.3774 3.9534 21.5462 3.96783 22.7295Z" fill="white"/>
<path d="M11.5436 33.422C11.9909 33.2632 11.8466 32.8736 11.8755 32.5562C12.1785 33.1045 12.2507 33.725 12.4671 34.5331C12.0198 34.1002 11.7456 33.7971 11.5436 33.422Z" fill="white"/>
<path d="M25.887 44.9517C26.0169 44.7064 26.5652 44.8507 26.4498 44.3745C26.926 44.3889 27.3445 44.591 27.8639 44.7353C27.1569 44.9084 26.5219 44.995 25.887 44.9517Z" fill="white"/>
<path d="M26.3199 44.36C25.2665 44.3312 24.3286 43.956 23.4339 43.4509C24.4296 43.6818 25.382 43.9993 26.3199 44.36Z" fill="white"/>
<path d="M46.089 32.2533C46.0169 32.311 45.9447 32.2965 45.9015 32.21C45.9592 32.2244 46.0313 32.2388 46.089 32.2533Z" fill="white"/>
<path d="M46.089 32.2533C46.0169 32.311 45.9447 32.2965 45.9015 32.21C45.9592 32.2244 46.0313 32.2388 46.089 32.2533Z" fill="white"/>
<path d="M23.1453 30.3918C22.7701 30.8247 22.4382 30.6226 22.1496 30.3052C21.8899 30.031 22.0198 29.7568 22.2507 29.5548C22.5825 29.2806 22.9866 29.2518 23.2752 29.5981C23.5061 29.8434 23.6071 30.1897 23.1453 30.3918C23.0299 30.2908 23.1309 30.1032 22.9866 30.0021C23.0443 30.132 23.0587 30.2763 23.1453 30.3918Z" fill="white"/>
<path d="M23.1453 30.3918C23.102 30.3196 23.0587 30.2186 22.9866 30.1609C22.8856 30.0599 22.5393 30.2908 22.6258 29.93C22.6691 29.7424 22.9433 29.7424 23.0443 29.7713C23.2896 29.8434 23.203 30.0599 23.1165 30.2475C23.1165 30.2763 23.1309 30.3341 23.1453 30.3918C23.1453 30.3774 23.1453 30.3918 23.1453 30.3918Z" fill="white"/>
</g>
<defs>
<clipPath id="clip0_402_840">
<rect width="60" height="49.7691" fill="white" transform="translate(0.923096 0.435059)"/>
</clipPath>
</defs>
</svg>
