<svg width="70" height="59" viewBox="0 0 70 59" fill="none" xmlns="http://www.w3.org/2000/svg">
<g clip-path="url(#clip0_417_99)">
<path d="M29.1106 52.1947C26.8053 52.4975 24.4832 52.4639 22.161 52.262C16.6082 51.8076 11.6611 49.8221 7.28606 46.3557C4.35817 44.0673 1.85096 41.4254 0.168269 38.0601C0.134615 37.9927 0.0504808 37.9423 0 37.8918C0 33.5168 0 29.1418 0 24.7668C0.875 24.3293 1.46394 23.5384 2.32211 23.0673C2.60817 23.0336 2.77644 22.5793 3.12981 22.7644C3.53365 22.9663 3.43269 23.3702 3.44952 23.7235C3.5 24.5817 3.33173 25.4399 3.55048 26.2812C4.59375 34.5601 8.95192 40.685 15.75 45.2788C19.0144 47.4831 22.5986 49.048 26.2668 50.4447C27.3606 50.8822 28.4543 51.3197 29.6322 51.5048C29.6827 51.4879 29.7332 51.4879 29.7836 51.5216C30.1538 52.3461 29.2788 51.9254 29.1106 52.1947Z" fill="#00A552"/>
<path d="M69.9663 58.2356C68.5024 58.2524 67.0553 58.2861 65.5913 58.2524C64.0433 58.2187 63.101 57.226 63.0841 55.6947C63.0673 53.5072 63.0673 51.3197 63.0841 49.1322C63.101 47.5505 63.6058 46.8942 65.1707 46.7596C66.7524 46.625 68.351 46.6587 69.9495 46.625C69.9495 47.4663 69.9495 48.3077 69.9495 49.149C69.2596 49.6202 68.4856 49.3846 67.7452 49.4014C66.012 49.4351 66.012 49.4183 66.012 51.1346C66.012 52.262 66.0288 53.3726 66.012 54.5C65.9952 55.2067 66.3317 55.5264 66.988 55.5769C67.6106 55.6274 68.2164 55.5937 68.8389 55.6106C69.226 55.6274 69.6298 55.5769 69.9495 55.863C69.9664 56.6707 69.9663 57.4447 69.9663 58.2356Z" fill="#010101"/>
<path d="M52.7692 26.685C52.3822 26.2644 52.1803 25.7764 51.9952 25.2548C51.8269 24.9182 51.6587 24.5817 51.4904 24.2451C47.6202 18.5576 42.1851 16.2692 35.4543 16.875C29.2957 17.4302 23.6587 22.024 21.9087 27.762C20.0913 33.7692 22.5817 40.2812 28.1346 43.9663C29.5649 44.9254 31.0962 45.649 32.7452 46.1033C33.2164 46.2379 33.4014 46.4398 33.3341 46.911C33.3005 47.2139 33.3341 47.5336 33.3341 47.8365C33.3341 49.2668 33.3341 49.3172 31.9543 49.1153C27.024 48.3918 22.851 46.2547 19.6875 42.3677C13.613 34.8798 14.976 24.1274 22.6827 18.2548C31.2644 11.7091 43.7332 13.3413 50.262 21.8725C50.7837 22.5624 51.2548 23.286 51.6082 24.0769C51.7764 24.3629 51.9279 24.649 52.0962 24.9519C52.5168 25.4735 52.6851 26.0624 52.7692 26.685Z" fill="black"/>
<path d="M12.3846 38.75C11.2572 37.3365 10.1971 35.8726 9.23798 34.3245C2.64183 23.7572 5.63702 8.93266 16.6755 1.6466C19.1659 -0.00243816 19.1659 -0.019265 22.0096 0.855735C23.2043 1.22593 24.4159 1.57929 25.6274 1.96631C25.863 2.03362 26.2332 1.98314 26.2668 2.40382C26.3005 2.80766 25.9303 2.80766 25.7115 2.92545C20.6298 5.53362 16.7428 9.37016 14.1683 14.4855C11.6611 19.5 11.0721 24.8341 11.5264 30.3533C11.7284 32.8605 12.2332 35.3173 12.7548 37.774C12.8558 38.161 13.1586 38.6658 12.3846 38.75Z" fill="#EC1B24"/>
<path d="M20.5457 9.80788C21.488 8.96653 22.4471 8.12519 23.3894 7.28384C25.8966 5.39923 28.6731 4.03625 31.6514 3.09394C33.2837 2.65644 34.899 2.11798 36.5986 1.84875C39.5433 1.41125 42.4543 1.47856 45.3822 1.96654C47.6538 2.33673 49.8245 3.04346 51.9615 3.86798C52.4327 4.05307 52.7188 4.30548 52.8534 4.7598C53.4255 6.66125 54.0312 8.54586 54.6034 10.4473C54.6538 10.6156 54.6707 10.8848 54.5697 11.0026C54.4014 11.2045 54.2332 10.9521 54.0649 10.868C49.9928 8.83192 45.6683 7.88961 41.1082 7.90644C36.6322 7.92326 32.4087 8.91605 28.3702 10.7838C23.9111 12.8199 19.9904 15.63 16.4736 19.0459C15.6995 19.7862 14.9087 20.5266 14.0168 21.368C13.9159 20.3247 14.5889 19.7021 14.6563 18.9112C16.0697 15.529 17.9038 12.4161 20.5457 9.80788Z" fill="#FCF000"/>
<path d="M35.4712 24.3127C34.5793 24.1612 33.5192 22.9497 33.5361 22.1083C33.5361 21.5867 34.2428 20.8463 34.8486 20.7454C35.6058 20.6107 36.2452 20.9136 36.4135 21.6708C36.5817 22.4281 36.9183 22.6973 37.6923 22.5963C38.0962 22.5458 38.5337 22.6131 38.9375 22.7309C39.8966 23.017 40.7043 22.2934 41.6466 22.4112C41.9159 22.4449 41.8149 22.0579 41.9832 21.8896C42.589 21.2502 43.1274 21.9906 43.8678 21.6877C43.464 22.0747 43.4471 22.4617 43.0096 22.5458C41.9832 22.7478 41.3438 23.8752 40.1827 23.8247C40.1322 23.8247 40.0313 23.8583 40.0313 23.8752C40.1659 24.7333 39.4591 24.6829 38.9712 24.868C38.9039 24.9016 38.8702 25.0531 38.8534 25.154C38.6346 26.7526 38.5337 28.368 38.8534 29.9665C38.9039 30.1853 39.0385 30.2694 39.2067 30.404C39.476 30.6059 39.7452 30.8247 39.9303 31.0939C40.1322 31.3631 40.1154 31.6829 39.863 31.9353C39.5938 32.2045 39.4255 31.868 39.2236 31.7838C38.9712 31.6829 38.8029 31.178 38.5 31.4809C38.2644 31.7165 38.2476 32.1035 38.3654 32.5074C38.5841 33.2478 38.7356 33.8704 39.8125 33.6684C40.5024 33.5338 41.2428 33.7694 41.9495 33.9881C42.3702 34.1059 42.9423 34.2069 43.262 34.0218C44.5072 33.2982 44.9784 34.3583 45.6851 34.9136C45.9712 35.1324 45.9375 35.4521 45.9375 35.755C45.9375 35.9569 45.8197 36.0747 45.601 35.9737C43.8005 34.9641 41.8654 35.3511 39.964 35.4857C39.2236 35.5362 38.4832 35.5026 37.726 35.6877C36.9183 35.8896 36.5144 35.1997 36.262 34.5771C35.9423 33.8535 35.7236 34.0891 35.4375 34.5603C35.3029 34.779 35.1178 34.9641 35.0505 35.1997C34.9327 35.6035 34.7644 35.5531 34.4447 35.4184C33.7043 35.0987 32.8798 35.368 32.5265 36.1083C31.9712 37.2357 31.1635 38.0939 30.0865 38.6829C29.2789 39.1204 28.8414 39.8776 28.2019 40.4497C27.5962 40.9881 27.2596 40.9713 26.8221 40.2814C26.5361 39.8439 26.0986 39.5242 25.8798 39.0194C25.7957 38.8175 25.7284 38.666 25.8462 38.5314C25.9471 38.3968 26.1322 38.4136 26.3005 38.4978C27.5793 39.2045 27.6971 39.1877 28.9423 37.9088C30.7765 36.0074 32.1394 33.7189 34.0072 31.8511C34.4784 31.38 34.7981 30.5723 34.6298 29.8992C34.125 27.8631 34.3942 26.0458 35.4712 24.3127Z" fill="black"/>
<path d="M61.8221 49.5865C61.8221 47.5673 60.9976 46.7091 58.9952 46.6923C57.2115 46.6754 55.4111 46.7091 53.6274 46.6754C53.089 46.6586 52.9039 46.7932 52.9039 47.3653C52.9375 49.0648 52.9207 50.7812 52.9207 52.4807C52.9207 53.7427 52.9207 55.0048 52.9207 56.2668C52.9207 58.4206 52.9207 58.4038 55.0577 58.286C55.4784 58.2692 55.5625 58.1177 55.5457 57.7307C55.5289 56.7716 55.5793 55.8293 55.5289 54.8701C55.4952 54.2644 55.6466 54.0288 56.3029 54.0624C57.3966 54.1129 58.4904 54.1129 59.5841 54.0624C60.9808 54.012 61.8053 53.137 61.8221 51.7572C61.8221 51.0336 61.8221 50.31 61.8221 49.5865ZM58.2716 51.5552C57.9183 51.5216 57.5481 51.5552 57.1779 51.5552C55.4447 51.5552 55.4615 51.5552 55.512 49.7548C55.5289 49.3341 55.613 49.149 56.0673 49.1658C56.7909 49.1995 57.5144 49.1826 58.238 49.1826C59.2981 49.1826 59.0962 49.9567 59.1298 50.6129C59.1803 51.2355 58.9952 51.6057 58.2716 51.5552Z" fill="#010101"/>
<path d="M43.4976 53.2717C43.4976 51.8751 43.4808 50.4616 43.4976 49.065C43.5144 47.5169 44.1034 46.8102 45.6346 46.7429C47.4856 46.6587 49.3365 46.7092 51.1875 46.6924C51.3894 46.6924 51.6082 46.6924 51.6082 46.9616C51.6082 47.601 51.625 48.2573 51.6082 48.8967C51.5913 49.3174 51.238 49.1491 51.0192 49.1491C49.7909 49.1659 48.5457 49.1491 47.3173 49.1659C46.3245 49.1659 45.7187 50.1419 46.1394 51.0169C46.274 51.2861 46.5264 51.202 46.7284 51.202C48.1082 51.202 49.4712 51.2357 50.851 51.202C51.4062 51.1852 51.625 51.303 51.625 51.9256C51.5913 53.6924 51.625 53.7092 49.8413 53.7092C48.9495 53.7092 48.0409 53.7597 47.149 53.6924C46.3582 53.6251 46.0553 53.8438 46.1226 54.6852C46.2067 55.6948 46.1226 56.7044 46.1562 57.714C46.1731 58.1515 46.0385 58.2861 45.601 58.303C43.5144 58.3871 43.5144 58.4039 43.5144 56.3342C43.5144 55.8294 43.5144 55.3246 43.5144 54.8198C43.4976 54.2813 43.4976 53.7765 43.4976 53.2717Z" fill="black"/>
<path d="M34.2428 51.5049C34.2428 50.1083 34.2596 48.7117 34.226 47.315C34.226 46.8607 34.3437 46.6924 34.8317 46.6756C36.8846 46.6251 36.8846 46.6083 36.8846 48.6275C36.8846 50.7309 36.9183 52.8174 36.8846 54.9208C36.8678 55.5939 37.1538 55.8126 37.7764 55.8126C39.0553 55.7958 40.351 55.8294 41.6298 55.7958C42.1514 55.779 42.3702 55.8799 42.3365 56.4857C42.2524 58.2693 42.2861 58.2693 40.5361 58.2693C39.274 58.2693 38.012 58.303 36.7668 58.2357C35.0673 58.1516 34.2933 57.3102 34.2596 55.6275C34.226 54.2477 34.2428 52.8679 34.2428 51.5049Z" fill="black"/>
<path d="M52.6683 37.3872C52.5168 37.9257 52.3317 38.4641 51.9784 38.9184C51.8101 39.2045 51.7428 39.541 51.4735 39.7598C50.2284 42.2165 48.3606 44.1011 46.1731 45.7165C45.9038 45.9184 45.6178 45.9353 45.3149 45.9689C44.3726 46.0531 43.5986 46.4401 43.0769 47.2646C42.9591 47.4497 42.8413 47.618 42.6058 47.7189C41.2091 48.3247 39.7788 48.7454 38.2981 49.0146C37.8101 49.0987 37.6418 48.9641 37.6923 48.4761C37.7428 47.9713 37.5409 47.3656 37.7596 46.9954C38.012 46.5747 38.6851 46.8439 39.1731 46.7934C44.2885 46.1877 48.3774 43.8824 51.3221 39.6083C51.5409 39.2381 51.7428 38.868 51.9615 38.4978C52.012 38.0771 52.2644 37.7406 52.4495 37.3704C52.5 37.4377 52.5841 37.4545 52.6683 37.3872Z" fill="black"/>
<path d="M52.6683 37.3872C52.601 37.3704 52.5168 37.3535 52.4495 37.3367C52.5 36.7814 52.8702 36.3439 53.0721 35.8391C53.1058 36.3944 52.9712 36.916 52.6683 37.3872Z" fill="black"/>
<path d="M25.4087 36.0578C24.5168 36.041 23.8942 35.4352 23.9111 34.6275C23.9279 33.8366 24.6178 33.2477 25.4928 33.2645C26.3173 33.2813 26.9736 33.9039 26.9736 34.6611C26.9736 35.4352 26.25 36.0746 25.4087 36.0578Z" fill="#070707"/>
<path d="M3.55048 26.2813C3.16346 25.5241 3.39904 24.6996 3.36538 23.9087C3.3149 22.8318 3.29807 22.7813 2.32211 23.0674C2.60817 22.6467 3.0625 22.428 3.60096 21.9736C3.44952 23.5385 3.53365 24.9015 3.55048 26.2813Z" fill="#339B67"/>
<path d="M12.3846 38.7501C12.9063 38.565 12.738 38.1107 12.7717 37.7405C13.125 38.3799 13.2092 39.1035 13.4616 40.0458C12.9399 39.541 12.6202 39.1876 12.3846 38.7501Z" fill="#CA4C59"/>
<path d="M29.1106 52.1948C29.262 51.9087 29.9014 52.077 29.7668 51.5217C30.3221 51.5386 30.8101 51.7741 31.4159 51.9424C30.5913 52.1443 29.851 52.2453 29.1106 52.1948Z" fill="#23945D"/>
<path d="M29.6154 51.5049C28.387 51.4713 27.2933 51.0338 26.25 50.4448C27.4111 50.7141 28.5216 51.0842 29.6154 51.5049Z" fill="#23945D"/>
<path d="M52.6683 37.3872C52.5841 37.4545 52.5 37.4376 52.4495 37.3367C52.5168 37.3535 52.601 37.3703 52.6683 37.3872Z" fill="black"/>
<path d="M52.6683 37.3872C52.5841 37.4545 52.5 37.4376 52.4495 37.3367C52.5168 37.3535 52.601 37.3703 52.6683 37.3872Z" fill="black"/>
<path d="M25.9135 35.2165C25.476 35.7213 25.0889 35.4857 24.7524 35.1155C24.4495 34.7958 24.601 34.4761 24.8702 34.2405C25.2572 33.9208 25.7284 33.8872 26.0649 34.291C26.3341 34.5771 26.4519 34.9809 25.9135 35.2165C25.7788 35.0987 25.8966 34.8799 25.7284 34.7621C25.7957 34.9136 25.8125 35.0819 25.9135 35.2165Z" fill="#757575"/>
<path d="M25.9135 35.2164C25.863 35.1323 25.8125 35.0145 25.7284 34.9472C25.6106 34.8294 25.2067 35.0986 25.3077 34.6779C25.3582 34.4592 25.6779 34.4592 25.7957 34.4929C26.0817 34.577 25.9808 34.8294 25.8798 35.0481C25.8798 35.0818 25.8966 35.1491 25.9135 35.2164C25.9135 35.2164 25.9135 35.1996 25.9135 35.2164Z" fill="#222222"/>
</g>
<defs>
<clipPath id="clip0_417_99">
<rect width="70" height="58.0529" fill="white" transform="translate(0 0.283691)"/>
</clipPath>
</defs>
</svg>
