<svg width="95" height="44" viewBox="0 0 95 44" fill="none" xmlns="http://www.w3.org/2000/svg">
<path fill-rule="evenodd" clip-rule="evenodd" d="M12.1561 0.932238C12.0656 0.99089 11.8059 1.03957 11.5789 1.04055C11.3519 1.04143 11.0805 1.08572 10.9758 1.13889C10.8026 1.22692 10.239 1.38983 9.52451 1.55833C9.37374 1.59396 9.22572 1.65316 9.19557 1.69C9.16541 1.72683 8.84469 1.90257 8.48285 2.0805C7.72144 2.45499 6.71651 3.0767 6.40752 3.36448C6.28986 3.47411 6.15247 3.56368 6.10203 3.56368C5.94853 3.56368 3.71311 5.8864 3.71311 6.04591C3.71311 6.12781 3.67078 6.19479 3.61903 6.19479C3.32002 6.19479 1.7448 9.04637 1.19655 10.58C1.12111 10.791 1.01486 11.0623 0.960477 11.1829C0.685258 11.7927 0.284052 13.6076 0.099951 15.0748C-0.0370008 16.167 -0.0316279 28.4931 0.106311 29.5459C0.165631 29.9981 0.241069 30.6148 0.274183 30.9163C0.307188 31.2178 0.379008 31.5112 0.433723 31.5686C0.488438 31.6258 0.533284 31.7852 0.533284 31.9227C0.533284 32.0601 0.601376 32.3586 0.6846 32.5859C0.767824 32.8132 0.901924 33.2212 0.982626 33.4926C1.06322 33.7639 1.19217 34.1092 1.26914 34.26C1.34611 34.4107 1.40938 34.6204 1.40982 34.7259C1.41015 34.8314 1.45982 34.9178 1.52013 34.9178C1.58043 34.9178 1.62978 34.9786 1.62978 35.053C1.62978 35.1822 2.17309 36.338 2.28767 36.4526C2.3369 36.5018 2.55269 36.8794 2.88263 37.494C2.94743 37.6146 3.02539 37.738 3.05587 37.7681C3.08635 37.7983 3.25774 38.0203 3.43668 38.2615C4.17309 39.2536 5.53734 40.6381 6.44293 41.3122C6.78087 41.5638 7.07385 41.8065 7.09392 41.8518C7.1141 41.8971 7.22506 41.934 7.34063 41.934C7.45631 41.934 7.55083 41.9834 7.55083 42.0437C7.55083 42.104 7.62133 42.1533 7.70752 42.1533C7.79359 42.1533 7.92934 42.2169 8.00905 42.2945C8.1585 42.4402 8.63635 42.6715 9.30521 42.9218C9.51629 43.0009 9.73581 43.1069 9.79315 43.1575C9.85039 43.2082 10.0355 43.2496 10.2043 43.2496C10.3732 43.2496 10.5114 43.2902 10.5114 43.3397C10.5114 43.3894 10.869 43.4989 11.3063 43.5832C11.9748 43.7121 17.6796 43.7416 47.189 43.7683C78.8333 43.7968 82.3628 43.7828 83.1539 43.6264C84.0987 43.4395 84.6864 43.2794 84.989 43.1265C85.0937 43.0737 85.226 43.0303 85.283 43.0303C85.5347 43.0303 86.9098 42.3078 87.8399 41.6867C88.7446 41.0824 90.2373 39.7188 90.9906 38.8082C91.4864 38.2089 92.6281 36.4422 92.766 36.061C92.8407 35.8543 92.9413 35.6852 92.9895 35.6852C93.0377 35.6852 93.0771 35.5865 93.0771 35.4659C93.0771 35.3453 93.1265 35.2466 93.1868 35.2466C93.2471 35.2466 93.2964 35.1509 93.2964 35.0339C93.2964 34.9168 93.3419 34.7929 93.3976 34.7586C93.4533 34.7241 93.5336 34.5378 93.576 34.3445C93.6185 34.1512 93.6906 33.9175 93.7361 33.8251C93.9626 33.3663 94.0813 32.9722 94.4147 31.574C94.8196 29.8762 94.9247 27.9597 94.9231 22.3103C94.9211 15.9784 94.8076 14.3385 94.2324 12.3341C93.9023 11.1835 93.7893 10.839 93.6571 10.58C93.5801 10.4292 93.5168 10.2225 93.5164 10.1205C93.5161 10.0186 93.4664 9.90466 93.4061 9.86738C93.3458 9.83011 93.2964 9.70393 93.2964 9.58684C93.2964 9.46976 93.2579 9.37405 93.2109 9.37405C93.1639 9.37405 93.0297 9.12738 92.9127 8.8259C92.7957 8.52442 92.6615 8.27775 92.6144 8.27775C92.5674 8.27775 92.5289 8.17909 92.5289 8.05849C92.5289 7.9379 92.4907 7.83923 92.4441 7.83923C92.3975 7.83923 92.2665 7.66657 92.1528 7.45553C92.0391 7.24449 91.9046 7.07183 91.8538 7.07183C91.8029 7.07183 91.7614 6.99783 91.7614 6.90738C91.7614 6.81694 91.7153 6.74294 91.659 6.74294C91.6028 6.74294 91.5291 6.65655 91.4952 6.55109C91.4615 6.44551 91.3224 6.22713 91.1863 6.06565C90.0571 4.72521 89.7889 4.43447 89.4039 4.13353C89.1627 3.94486 88.8076 3.64086 88.6149 3.45789C88.4222 3.27492 88.2377 3.12516 88.2048 3.12516C88.172 3.12516 87.8108 2.91555 87.402 2.65923C86.7575 2.25514 86.4226 2.07666 85.621 1.71006C85.5305 1.66873 85.1605 1.54397 84.7986 1.43281C84.4368 1.32164 84.0421 1.19108 83.9214 1.14273C83.8008 1.09427 83.4801 1.01994 83.2087 0.977517C82.416 0.853525 12.3464 0.808905 12.1561 0.932238ZM83.5629 2.56287C83.9687 2.66866 84.3346 2.78915 84.376 2.83059C84.4175 2.87203 84.5665 2.9059 84.7073 2.9059C84.848 2.9059 84.9631 2.95523 84.9631 3.01553C84.9631 3.07583 85.0375 3.12516 85.1283 3.12516C85.3171 3.12516 86.3703 3.65906 86.5882 3.86516C86.6679 3.94048 86.7927 4.0022 86.8656 4.0022C86.9384 4.0022 87.0691 4.10086 87.1561 4.22146C87.243 4.34205 87.3687 4.44072 87.4354 4.44072C87.7984 4.44072 90.6649 7.52657 90.6649 7.91729C90.6649 7.99491 90.7063 8.05849 90.7569 8.05849C90.8075 8.05849 90.9431 8.25528 91.0584 8.49581C91.1736 8.73622 91.3049 8.93356 91.3502 8.93433C91.3955 8.93498 91.4324 9.0342 91.4324 9.15479C91.4324 9.27538 91.4817 9.37405 91.5421 9.37405C91.6024 9.37405 91.6517 9.41977 91.6517 9.47568C91.6517 9.53159 91.8292 9.96156 92.0462 10.4312C92.2632 10.9009 92.4671 11.4471 92.4992 11.6451C92.5313 11.8431 92.6005 12.0052 92.6529 12.0052C92.7053 12.0052 92.7482 12.1778 92.7482 12.3889C92.7482 12.5999 92.7865 12.7726 92.8332 12.7726C92.9309 12.7726 93.1629 14.0242 93.331 15.4585C93.4673 16.6208 93.5015 27.6481 93.3729 28.9429C93.2634 30.0448 92.9812 31.6234 92.8487 31.874C92.7935 31.9787 92.7482 32.1608 92.7482 32.2786C92.7482 32.3965 92.6989 32.5234 92.6385 32.5607C92.5782 32.598 92.5286 32.7366 92.5282 32.8687C92.5278 33.0008 92.4538 33.2502 92.3638 33.4228C92.2736 33.5956 92.1999 33.8299 92.1999 33.9436C92.1999 34.0573 92.1506 34.1503 92.0903 34.1503C92.03 34.1503 91.9807 34.2113 91.9807 34.2858C91.9807 34.4581 91.405 35.6182 91.2953 35.6669C91.2501 35.687 91.2131 35.7498 91.2131 35.8066C91.2131 35.9103 90.4272 37.1977 90.118 37.6005C89.7255 38.1118 87.4785 40.2769 87.2724 40.3423C87.1481 40.3817 87.0464 40.46 87.0464 40.5162C87.0464 40.5724 86.9724 40.6185 86.882 40.6185C86.7915 40.6185 86.7175 40.6678 86.7175 40.7281C86.7175 40.7884 86.6188 40.8378 86.4982 40.8378C86.3776 40.8378 86.2789 40.8748 86.2789 40.9202C86.2789 41.0856 84.2949 41.934 83.9081 41.934C83.7646 41.934 83.6473 41.9769 83.6473 42.0294C83.6473 42.0818 83.4129 42.1659 83.1265 42.2161C82.4447 42.3356 12.4802 42.3354 11.7972 42.2158C11.5094 42.1655 11.2474 42.0814 11.2151 42.0291C11.1827 41.9768 11.0548 41.934 10.9308 41.934C10.6323 41.934 9.63416 41.5767 9.63416 41.4698C9.63416 41.4236 9.53548 41.3859 9.41486 41.3859C9.29425 41.3859 9.19557 41.3366 9.19557 41.2763C9.19557 41.216 9.12057 41.1666 9.0289 41.1666C8.8425 41.1666 7.95489 40.6375 7.89809 40.4925C7.87791 40.4412 7.79929 40.3992 7.72331 40.3992C7.36245 40.3992 4.71256 37.7655 4.49381 37.1893C4.47089 37.1289 4.37561 36.9902 4.28208 36.881C3.76289 36.2746 2.39732 33.4919 2.39732 33.0401C2.39732 32.9272 2.34798 32.8348 2.28767 32.8348C2.22736 32.8348 2.17802 32.6967 2.17802 32.5278C2.17802 32.359 2.13624 32.1739 2.08526 32.1167C2.00225 32.0234 1.78931 31.0326 1.55664 29.6555C1.42594 28.8821 1.46848 15.5819 1.60456 14.6911C1.76453 13.6439 2.00225 12.5829 2.09853 12.4867C2.14228 12.4429 2.17802 12.3161 2.17802 12.2047C2.17802 12.0933 2.22122 11.9165 2.27407 11.8118C2.32681 11.7071 2.45817 11.3377 2.56596 10.9911C2.67374 10.6444 2.80324 10.3607 2.85368 10.3607C2.90423 10.3607 2.94556 10.265 2.94556 10.1479C2.94556 10.0308 2.99107 9.90696 3.04677 9.87265C3.10247 9.83822 3.18043 9.66259 3.22002 9.48247C3.2596 9.30224 3.33734 9.15479 3.39282 9.15479C3.44842 9.15479 3.49381 9.08079 3.49381 8.99035C3.49381 8.8999 3.53076 8.82535 3.57605 8.8247C3.62133 8.82393 3.75181 8.62824 3.86607 8.3898C3.98032 8.15124 4.1653 7.85787 4.27725 7.73783C4.3891 7.61778 4.48065 7.47581 4.48065 7.42253C4.48065 7.22049 6.47813 5.10902 7.04217 4.71479C7.21464 4.5942 7.42089 4.43392 7.50028 4.35849C7.57978 4.28318 7.69765 4.22146 7.76234 4.22146C7.82692 4.22146 7.87978 4.18331 7.87978 4.13671C7.87978 4.09012 8.06486 3.95495 8.29096 3.83633C8.51717 3.71771 8.72682 3.59284 8.75697 3.55897C8.86146 3.44155 9.61333 3.12516 9.78778 3.12516C9.88427 3.12516 9.96311 3.07583 9.96311 3.01553C9.96311 2.95523 10.0824 2.9059 10.2281 2.9059C10.3739 2.9059 10.5095 2.86852 10.5297 2.8228C10.5497 2.77709 10.8622 2.66033 11.2241 2.56331C11.822 2.40292 15.1151 2.38615 47.3535 2.37858C80.8392 2.3708 82.8663 2.38121 83.5629 2.56287ZM50.8645 3.95396C50.7151 4.10108 50.5552 4.22146 50.5094 4.22146C50.3233 4.22146 48.9982 5.47167 48.9982 5.6473C48.9982 5.7623 49.7595 5.76175 49.876 5.64664C49.9066 5.61649 50.1251 5.48801 50.3615 5.36117C50.9531 5.04368 51.7042 3.65906 51.2734 3.67989C51.1981 3.68361 51.014 3.80695 50.8645 3.95396ZM54.3162 3.87832C53.9309 4.00735 53.0053 4.48172 52.858 4.62566C52.7796 4.70218 52.6089 4.83933 52.4787 4.93054C52.0929 5.20067 52.3796 5.35897 53.0928 5.26985C53.6927 5.19486 54.4678 4.75338 54.4767 4.4815C54.4789 4.41353 54.5547 4.29655 54.6451 4.22146C54.7356 4.14636 54.8096 4.017 54.8096 3.93401C54.8096 3.77384 54.6737 3.75849 54.3162 3.87832ZM47.6002 4.64879C47.4041 4.85369 47.2438 5.06341 47.2438 5.11472C47.2438 5.16613 47.1698 5.20812 47.0793 5.20812C46.9889 5.20812 46.9149 5.27796 46.9149 5.36347C46.9149 5.44887 46.8779 5.53515 46.8326 5.55532C46.6705 5.62735 46.1473 6.40287 46.1473 6.57115C46.1473 6.76114 46.4243 6.80598 46.5311 6.63331C46.5684 6.57301 46.7439 6.52368 46.9213 6.52368C47.0987 6.52368 47.2438 6.46777 47.2438 6.39947C47.2438 6.33117 47.3391 6.19271 47.4555 6.09174C47.7536 5.83323 48.0333 5.07745 47.9916 4.64298L47.9565 4.27627L47.6002 4.64879ZM56.7833 4.7377C56.6928 4.77103 56.3092 4.94556 55.9307 5.12557C55.1597 5.49239 55.1569 5.61869 55.9138 5.86842C56.2648 5.9843 56.4088 5.98825 56.5718 5.88651C56.6865 5.81492 56.8348 5.75627 56.9014 5.75627C57.1103 5.75627 57.8619 5.1646 57.9808 4.90664C58.091 4.66732 58.0773 4.66019 57.5211 4.66864C57.2058 4.67335 56.8737 4.70448 56.7833 4.7377ZM44.7493 5.72777C44.674 5.75353 44.6122 5.81876 44.6122 5.87292C44.6122 5.92696 44.4442 6.23371 44.2391 6.55459C43.8082 7.22805 43.5157 7.88572 43.5157 8.1815C43.5157 8.44505 43.5229 8.44384 44.1143 8.08667C44.4021 7.91291 44.6122 7.70472 44.6122 7.59334C44.6122 7.48743 44.6537 7.40072 44.7043 7.40072C44.755 7.40072 44.8584 7.21281 44.9343 6.98325C45.0961 6.49276 44.9722 5.65158 44.7493 5.72777ZM52.4164 6.19534C52.2327 6.34838 52.1819 6.47259 52.2347 6.63901C52.3387 6.9668 52.9322 7.50508 53.2662 7.57448C53.4216 7.60682 53.6343 7.67961 53.739 7.73618C53.8437 7.79286 54.1061 7.83923 54.3221 7.83923C54.6771 7.83923 54.708 7.81566 54.6439 7.59257C54.5834 7.38175 53.8058 6.56358 53.2372 6.11257C52.9939 5.91962 52.7133 5.9479 52.4164 6.19534ZM58.8666 6.17418C58.5037 6.34882 58.3239 6.50197 58.32 6.63967C58.3191 6.67321 58.5076 6.78427 58.739 6.88633C59.2013 7.09024 60.0208 7.13497 60.1276 6.9622C60.1649 6.9019 60.2957 6.85257 60.4183 6.85257C60.6963 6.85257 61.1763 6.48728 61.0778 6.35068C60.7878 5.94889 59.5416 5.84946 58.8666 6.17418ZM49.7425 6.44321C49.2867 6.62695 49.28 6.83711 49.7172 7.24932C50.1065 7.61647 50.1201 7.61998 51.1441 7.61998C51.8415 7.61998 52.178 7.57952 52.178 7.49566C52.178 7.34491 51.6489 6.87493 51.3831 6.78975C51.2776 6.75587 51.1912 6.68834 51.1912 6.63967C51.1912 6.59088 51.0489 6.52258 50.8751 6.48783C50.7012 6.45308 50.4421 6.40188 50.2994 6.37403C50.1566 6.34619 49.9061 6.37732 49.7425 6.44321ZM55.1605 6.5456C54.8741 6.83196 55.0949 7.54784 55.5881 7.93198C55.7328 8.04468 56.0486 8.19937 56.2899 8.27556C56.5311 8.35186 56.8149 8.45798 56.9203 8.51137C57.085 8.5948 57.1122 8.55413 57.1122 8.22382C57.1122 8.01234 57.0629 7.83923 57.0026 7.83923C56.9423 7.83923 56.8929 7.77401 56.8929 7.69419C56.8929 7.61438 56.6543 7.29372 56.3628 6.9816C55.8224 6.40309 55.4413 6.26484 55.1605 6.5456ZM47.3826 7.27223C47.1877 7.31268 46.9225 7.43689 46.7936 7.54817L46.5591 7.75043L47.0385 8.07582C47.4603 8.36195 47.5876 8.39462 48.0966 8.34704C48.7072 8.29003 49.5007 7.96805 49.4784 7.7865C49.4343 7.42768 48.1502 7.11261 47.3826 7.27223ZM57.7902 7.74912C57.7016 8.09818 57.7083 8.28959 57.8185 8.55325C57.9641 8.90177 58.8361 9.70294 59.0698 9.70294C59.139 9.70294 59.1956 9.75227 59.1956 9.81257C59.1956 9.87286 59.2449 9.9222 59.3052 9.9222C59.3655 9.9222 59.4149 9.67553 59.4149 9.37405C59.4149 9.07257 59.3655 8.8259 59.3052 8.8259C59.2449 8.8259 59.1956 8.75015 59.1956 8.65762C59.1956 8.29858 58.3419 7.29109 58.0379 7.29109C57.9655 7.29109 57.8541 7.49719 57.7902 7.74912ZM60.0082 7.96465C59.9655 8.03361 59.9347 8.23149 59.9395 8.40427C59.9493 8.74489 60.4867 9.37405 60.7679 9.37405C60.858 9.37405 60.9502 9.42963 60.9729 9.4976C60.9956 9.56557 61.2719 9.64593 61.587 9.67619C62.1126 9.72662 62.1538 9.71412 62.0848 9.52523C61.8883 8.98761 61.0992 8.05849 60.8391 8.05849C60.7794 8.05849 60.7306 8.00916 60.7306 7.94886C60.7306 7.79681 60.1035 7.81051 60.0082 7.96465ZM45.3798 8.57321C44.8895 8.6562 44.1769 9.03584 44.2337 9.18373C44.2989 9.35366 45.0742 9.70294 45.386 9.70294C45.6593 9.70294 46.1536 9.45649 46.7907 9.00262L47.2698 8.66146L46.9552 8.59217C46.5989 8.51368 45.7892 8.50403 45.3798 8.57321ZM53.2471 11.8612C53.0237 11.8974 52.9456 11.973 52.9456 12.1525C52.9456 12.4412 52.5924 12.7726 52.2849 12.7726C52.1642 12.7726 51.9797 12.8175 51.875 12.8724C51.7702 12.9275 51.4379 13.0555 51.1364 13.157C50.3143 13.4339 49.6593 13.7465 49.224 14.0699C48.3769 14.699 46.9149 16.3025 46.9149 16.6023C46.9149 16.6666 46.8655 16.7192 46.8052 16.7192C46.7449 16.7192 46.6956 16.7939 46.6956 16.8852C46.6956 16.9764 46.6486 17.1368 46.5912 17.2415C46.41 17.5722 46.1695 18.1889 46.1108 18.4733C46.0798 18.624 45.9823 19.068 45.8942 19.46C45.8062 19.8519 45.6997 20.4932 45.6575 20.8852C45.5254 22.1145 45.4121 22.3732 44.9561 22.4865L44.5574 22.5857L44.5709 23.4406C44.5814 24.1062 44.652 24.4581 44.8901 25.0296C45.1833 25.7339 45.8609 26.8202 46.0547 26.8965C46.1057 26.9167 46.1473 26.9922 46.1473 27.0645C46.1473 27.2933 47.8346 28.6689 48.1152 28.6689C48.1787 28.6689 48.2307 28.7182 48.2307 28.7785C48.2307 28.8388 48.2787 28.8881 48.3373 28.8881C48.396 28.8881 48.7043 29.0042 49.0226 29.1461C49.9458 29.5576 50.599 29.6801 52.1787 29.7376C53.3254 29.7794 53.8161 29.7515 54.3531 29.6139C54.7345 29.5162 55.166 29.4363 55.3119 29.4363C55.4577 29.4363 55.5771 29.3869 55.5771 29.3266C55.5771 29.2663 55.6551 29.217 55.7505 29.217C55.9877 29.217 57.4672 28.4733 57.6177 28.2783C57.6847 28.1916 57.7805 28.1207 57.8309 28.1207C57.9632 28.1207 59.4149 26.5724 59.4149 26.4312C59.4149 26.4079 59.5876 26.1321 59.7986 25.8185C60.0097 25.5048 60.1824 25.1644 60.1824 25.062C60.1824 24.9595 60.2356 24.8225 60.3006 24.7575C60.4256 24.6325 60.5215 24.298 60.8139 22.9681C61.0485 21.9004 61.0642 19.2999 60.8435 18.0622C60.7548 17.5647 60.6438 17.1578 60.5968 17.1578C60.5498 17.1578 60.5114 17.0831 60.5114 16.9918C60.5114 16.9006 60.4688 16.7402 60.4168 16.6355C60.3649 16.5308 60.1799 16.1531 60.0056 15.7963C59.8013 15.3775 59.3923 14.8526 58.8523 14.3163C57.8071 13.278 57.2239 12.773 57.0683 12.7713C57.0019 12.7705 56.7331 12.6472 56.4706 12.4972C56.2081 12.3472 55.8997 12.2244 55.7853 12.2244C55.6708 12.2244 55.5771 12.1814 55.5771 12.1289C55.5771 12.0764 55.2688 12.0004 54.8918 11.9601C54.515 11.9198 54.0585 11.87 53.8776 11.8495C53.6967 11.8291 53.4129 11.8344 53.2471 11.8612ZM18.269 12.1578C18.1634 12.2379 18.0771 12.3596 18.0771 12.4283C18.0771 12.4971 18.0031 12.5533 17.9127 12.5533C17.8222 12.5533 17.7482 12.6026 17.7482 12.6629C17.7482 12.7259 17.4109 12.7726 16.9555 12.7726C16.3691 12.7726 15.9769 12.8447 15.4479 13.0499C14.5802 13.3865 14.4861 13.4572 14.0421 14.1073C13.8495 14.3892 13.6301 14.6852 13.5546 14.7651C13.4789 14.845 13.285 15.0873 13.1236 15.3035L12.8302 15.6966L12.8378 19.1953C12.8455 22.7955 12.7338 24.3216 12.431 24.7551C12.3382 24.8877 12.0535 25.0959 11.7981 25.2177L11.3337 25.4392L11.3476 26.0399C11.3661 26.8386 11.4725 27.2173 11.8155 27.7036C12.1629 28.1959 13.4517 29.0731 13.9711 29.1705C14.179 29.2096 14.3491 29.2761 14.3491 29.3185C14.3491 29.4553 17.2785 29.6898 18.1017 29.6188C18.5405 29.581 19.2942 29.5171 19.7767 29.4768C20.2592 29.4366 20.6786 29.374 20.7087 29.3377C20.7389 29.3015 21.0349 29.1823 21.3666 29.0727C22.0106 28.8602 22.8687 28.4654 23.0787 28.2852C23.1489 28.2249 23.3438 28.0769 23.5118 27.9563C23.9604 27.6343 24.2179 27.3351 24.2884 27.054C24.3228 26.9171 24.3893 26.8052 24.4364 26.8052C24.5717 26.8052 25.0724 25.499 25.2117 24.7827C25.3109 24.2725 25.308 24.0028 25.1979 23.5442C25.1206 23.2217 25.0163 22.9326 24.9663 22.9017C24.9163 22.8709 24.8754 22.7539 24.8754 22.6419C24.8754 22.5299 24.838 22.4218 24.7924 22.4017C24.7467 22.3816 24.5377 22.1432 24.328 21.8718C23.8402 21.2406 23.3201 20.8214 22.4808 20.3827C22.23 20.2517 22.2392 20.2387 22.9004 19.7897C23.6537 19.2783 24.1774 18.7724 24.2764 18.4606C24.3125 18.347 24.3879 18.254 24.4441 18.254C24.5004 18.254 24.5464 18.1653 24.5464 18.0567C24.5464 17.9482 24.6001 17.8058 24.6656 17.7402C24.8941 17.5117 24.9228 15.9279 24.7106 15.2535C24.6038 14.9141 24.4739 14.6363 24.4218 14.6363C24.3697 14.6363 24.3271 14.5699 24.3271 14.4889C24.3271 14.4078 24.2039 14.1982 24.0531 14.023C23.9025 13.8477 23.778 13.6798 23.7766 13.6496C23.7752 13.6195 23.5532 13.4468 23.2833 13.2659C23.0133 13.085 22.7924 12.9 22.7923 12.8548C22.7922 12.8096 22.7274 12.7726 22.6482 12.7726C22.569 12.7726 22.2907 12.6694 22.0297 12.5433C21.7686 12.4171 21.2882 12.2445 20.962 12.1596C20.2001 11.9611 18.5296 11.96 18.269 12.1578ZM34.2504 12.3911C33.8717 12.6468 33.5718 12.7631 33.2804 12.767C32.5169 12.7771 31.6706 13.096 31.2178 13.5441C30.986 13.7736 30.7964 14.0109 30.7964 14.0717C30.7964 14.1324 30.6237 14.3653 30.4127 14.589C30.2016 14.8128 30.0289 15.0156 30.0289 15.0397C30.0289 15.0639 29.9309 15.2173 29.8109 15.3807C29.5259 15.7693 29.4843 17.0048 29.6877 19.0366C29.8195 20.3535 29.8161 20.7396 29.6589 22.2733C29.5609 23.2312 29.4782 24.2357 29.4754 24.5056C29.4689 25.1097 29.1719 25.7493 28.8773 25.7939C28.2612 25.8871 28.214 25.924 28.0653 26.4274C27.9409 26.8489 27.9395 27.0355 28.0576 27.5278C28.1359 27.8539 28.2414 28.1207 28.2921 28.1207C28.3427 28.1207 28.3842 28.1779 28.3842 28.248C28.3842 28.4129 28.951 28.9178 29.3411 29.1003C29.5083 29.1785 29.7308 29.2862 29.8355 29.3395C29.9402 29.3927 30.5641 29.4363 31.2218 29.4363C32.2111 29.4363 32.4292 29.4063 32.4843 29.2628C32.5209 29.1675 32.5508 27.6628 32.5508 25.9191C32.5508 23.222 32.5746 22.7489 32.7099 22.7489C33.003 22.7489 34.0281 22.9797 34.3052 23.1082C34.6712 23.2779 35.5114 24.1361 35.5114 24.3405C35.5114 24.4298 35.5607 24.5029 35.621 24.5029C35.6813 24.5029 35.7307 24.6221 35.7307 24.7679C35.7307 24.9136 35.7676 25.0492 35.8129 25.0694C35.9393 25.1255 36.4982 26.2914 36.4982 26.499C36.4982 26.5999 36.5402 26.7086 36.5916 26.7403C36.6429 26.7721 36.7741 27.034 36.8831 27.3223C36.9921 27.6107 37.113 27.8713 37.1518 27.9015C37.1907 27.9316 37.3542 28.1319 37.5153 28.3464C37.8411 28.7806 38.6153 29.217 39.0596 29.217C39.2188 29.217 39.3491 29.2663 39.3491 29.3266C39.3491 29.5015 41.5594 29.4637 41.9947 29.2815C42.1981 29.1964 42.3962 29.0947 42.4351 29.0554C42.4987 28.9914 42.0337 28.036 41.8735 27.9015C41.8377 27.8713 41.5948 27.3533 41.3338 26.7503C41.073 26.1474 40.8156 25.6071 40.7621 25.5499C40.7086 25.4926 40.6649 25.3363 40.6649 25.2027C40.6649 25.0691 40.624 24.9433 40.5739 24.9231C40.5239 24.9031 40.351 24.6059 40.1899 24.2626C40.0288 23.9194 39.8476 23.6081 39.7874 23.571C39.7273 23.5338 39.678 23.4194 39.678 23.3169C39.678 23.2142 39.5547 22.9973 39.4039 22.8347C39.2531 22.6722 39.1298 22.4877 39.1298 22.4248C39.1298 22.3619 39.0928 22.3102 39.0475 22.31C39.0023 22.3099 38.8666 22.162 38.746 21.9815C38.6254 21.8009 38.4666 21.653 38.393 21.6529C38.1369 21.6522 38.3742 21.36 38.7506 21.2123C38.9592 21.1304 39.1298 21.0234 39.1298 20.9743C39.1298 20.9253 39.193 20.8852 39.2705 20.8852C39.3478 20.8852 39.6314 20.6303 39.9009 20.3188C40.1703 20.0074 40.4459 19.6968 40.5133 19.6286C40.5808 19.5604 40.6705 19.3958 40.7126 19.263C40.7548 19.1302 40.8353 19.0215 40.8915 19.0215C40.9478 19.0215 40.9938 18.8488 40.9938 18.6378C40.9938 18.4267 41.0432 18.254 41.1035 18.254C41.2567 18.254 41.2445 15.8203 41.0891 15.4362C40.8178 14.7652 40.5998 14.3585 40.3907 14.133C40.2701 14.0028 40.0914 13.8039 39.9936 13.6908C39.6981 13.349 39.0194 12.7726 38.9126 12.7726C38.8575 12.7726 38.5804 12.6492 38.2969 12.4985C38.0133 12.3478 37.6683 12.2244 37.53 12.2244C37.3917 12.2244 37.2482 12.1751 37.2109 12.1148C37.1721 12.052 36.6429 12.0084 35.9709 12.0129C34.8263 12.0206 34.7857 12.0295 34.2504 12.3911ZM66.4674 12.2022C66.2467 12.2349 66.2251 12.3109 66.1859 13.1903C66.1626 13.7143 66.0576 14.4143 65.9528 14.7459C65.6068 15.8401 65.5535 16.4195 65.5643 18.9666C65.5794 22.5311 65.4805 23.9413 65.1935 24.2563C65.0699 24.392 64.8593 24.5029 64.7255 24.5029C64.413 24.5029 64.3246 24.7457 64.4089 25.3716C64.5479 26.4036 64.9514 27.3828 65.4465 27.8893C65.8471 28.2991 66.3087 28.6689 66.4198 28.6689C66.4723 28.6689 66.5765 28.7426 66.6513 28.8328C66.7262 28.923 66.9912 29.0562 67.2404 29.129C67.4895 29.2017 67.718 29.2915 67.7482 29.3285C67.8476 29.4507 70.0837 29.6567 71.3118 29.6568C72.6933 29.657 74.2047 29.4589 74.4172 29.2499C74.4969 29.1715 74.5983 29.1074 74.6425 29.1074C74.7691 29.1074 75.5333 28.3774 75.5333 28.2564C75.5333 28.1966 75.6073 28.0862 75.6978 28.0111C75.8255 27.9051 75.8622 27.6084 75.8622 26.6822V25.4896L75.1769 25.4908C74.8001 25.4915 74.2696 25.5592 73.9982 25.6416C73.1458 25.8998 72.2488 25.9449 71.257 25.7792C70.0558 25.5786 69.505 25.3329 69.1583 24.8431C68.6351 24.104 68.6254 23.9934 68.6254 18.7896C68.6254 13.275 68.643 13.4085 67.8161 12.6629C67.399 12.2869 66.9438 12.1315 66.4674 12.2022ZM80.394 12.1982C80.32 12.2462 80.2449 12.6743 80.2163 13.2121C80.1595 14.2813 80.0381 14.863 79.7608 15.3949C79.5833 15.7355 79.563 16.2093 79.5391 20.5622C79.5137 25.2233 79.5067 25.3611 79.2881 25.5958C79.1644 25.7285 78.8752 25.9017 78.6451 25.9807C78.1429 26.1534 78.0264 26.4637 78.1299 27.353C78.2235 28.1582 78.9043 29.2017 79.3436 29.2134C79.419 29.2154 79.4807 29.2663 79.4807 29.3266C79.4807 29.3947 80.0837 29.4363 81.0706 29.4363H82.6605V21.4881C82.6605 16.6453 82.6206 13.54 82.5582 13.54C82.5019 13.54 82.4268 13.4481 82.3912 13.3358C82.3555 13.2236 82.1386 12.9345 81.9093 12.6933C81.5876 12.3552 81.3813 12.239 81.0073 12.1851C80.7405 12.1467 80.4646 12.1526 80.394 12.1982ZM18.8907 15.4992C18.9232 15.5517 19.0865 15.6245 19.2536 15.661C19.5788 15.732 20.3798 16.3991 20.3798 16.5989C20.3798 16.6651 20.4185 16.7192 20.4657 16.7192C20.6685 16.7192 20.928 17.3883 20.928 17.9109C20.928 18.4456 20.6536 19.2407 20.4691 19.2407C20.42 19.2407 20.3798 19.2936 20.3798 19.3581C20.3798 19.634 19.6959 20.0081 19.1916 20.0081C18.7997 20.0081 18.1253 19.6604 17.8577 19.3203C17.6462 19.0514 17.3362 18.9534 16.2679 18.8172L15.7197 18.7474L15.6893 17.1852C15.6588 15.6241 15.6591 15.6229 15.9086 15.6213C16.0459 15.6203 16.2323 15.5717 16.3228 15.5133C16.5275 15.3811 18.81 15.3685 18.8907 15.4992ZM35.5271 15.5955C35.9802 15.8219 36.4982 16.2213 36.4982 16.3442C36.4982 16.4616 36.9526 16.9385 37.0643 16.9385C37.1134 16.9385 37.2528 17.0235 37.3742 17.1273C37.7678 17.4644 37.589 19.1414 37.107 19.6323C37.0436 19.697 36.8754 19.919 36.7334 20.1256C36.3286 20.7148 35.96 20.94 35.4336 20.9199C34.8794 20.8988 34.464 20.623 34.2908 20.1615C34.1305 19.7343 33.8892 19.5827 33.2337 19.4972C32.9486 19.4601 32.6537 19.3812 32.5782 19.3217C32.4096 19.189 32.3842 16.1161 32.5481 15.6849C32.6542 15.4059 32.6645 15.4037 33.8992 15.4037C34.8646 15.4037 35.2292 15.4467 35.5271 15.5955ZM53.7131 15.5133C53.7131 15.5736 53.8004 15.6229 53.907 15.6229C54.3632 15.6229 55.7964 16.8703 55.7964 17.2675C55.7964 17.378 55.8355 17.4848 55.8831 17.5049C55.9792 17.5455 56.564 18.7503 56.564 18.9079C56.564 18.9627 56.7223 19.023 56.916 19.042C57.1837 19.0681 57.3401 19.1811 57.5701 19.5148C57.8614 19.9372 57.8726 20.0055 57.8762 21.3707C57.8781 22.1503 57.823 22.9643 57.7537 23.1796C57.4976 23.9742 57.2745 24.5022 57.1945 24.5025C57.1492 24.5027 57.1122 24.5752 57.1122 24.6634C57.1122 24.7517 56.8039 25.1413 56.4269 25.5291C55.5995 26.3805 54.7714 26.7935 53.7148 26.8821C52.999 26.9421 52.9861 26.9384 52.5658 26.5419C52.1558 26.1553 51.3235 25.7089 51.0128 25.7089C50.93 25.7089 50.8622 25.6595 50.8622 25.5992C50.8622 25.5389 50.8003 25.4896 50.7245 25.4896C50.508 25.4896 49.3271 24.198 49.3271 23.9611C49.3271 23.8442 49.2811 23.72 49.2247 23.6852C48.8425 23.449 48.4918 20.7532 48.6632 19.3689C48.8585 17.7928 49.1623 17.1025 50.0383 16.2454C50.6889 15.609 51.2328 15.428 52.5344 15.4153C53.2548 15.4082 53.7131 15.4463 53.7131 15.5133ZM19.2285 22.0911C19.2657 22.1514 19.4166 22.2007 19.5639 22.2007C19.7111 22.2007 19.8315 22.2417 19.8315 22.2918C19.8315 22.3419 19.9549 22.4489 20.1057 22.5296C20.2564 22.6103 20.3798 22.7242 20.3798 22.7827C20.3798 22.9564 20.7432 23.1799 21.0377 23.1874C21.5463 23.2003 21.6956 23.4211 21.6956 24.1609C21.6956 24.6837 21.6368 24.9285 21.4353 25.2451C20.8539 26.1585 20.0817 26.5859 19.0134 26.5859C18.3623 26.5859 18.314 26.5667 17.9383 26.1609C17.6073 25.803 17.4309 25.7131 16.8231 25.5924C15.6898 25.3671 15.6649 25.3224 15.6649 23.512V21.9815H17.4128C18.4598 21.9815 19.1879 22.0254 19.2285 22.0911ZM42.7482 32.2866C42.7482 32.9809 42.7274 33.0541 42.5289 33.0541C42.4083 33.0541 42.3096 33.0047 42.3096 32.9444C42.3096 32.7923 41.6448 32.8069 41.3065 32.9666C40.8606 33.1769 40.6644 33.6365 40.6685 34.4607C40.6723 35.2292 40.8104 35.5206 41.2927 35.7787C41.5821 35.9336 42.163 35.9432 42.2548 35.7948C42.2921 35.7345 42.4183 35.6852 42.5354 35.6852C42.6525 35.6852 42.7482 35.7345 42.7482 35.7948C42.7482 35.8551 42.8222 35.9044 42.9127 35.9044C43.0533 35.9044 43.0771 35.5877 43.0771 33.7118C43.0771 31.836 43.0533 31.5192 42.9127 31.5192C42.7822 31.5192 42.7482 31.6775 42.7482 32.2866ZM48.0114 33.6505C48.0114 35.8022 48.0608 36.0722 48.4031 35.7881C48.528 35.6845 48.6305 35.6823 48.8422 35.7787C49.4854 36.0717 50.0873 35.836 50.4142 35.1633C50.6914 34.5929 50.7031 34.1952 50.4575 33.7027C50.162 33.1105 49.824 32.8348 49.3934 32.8348C49.1832 32.8348 48.9807 32.8841 48.9434 32.9444C48.9061 33.0047 48.7799 33.0541 48.6628 33.0541C48.4724 33.0541 48.45 32.9731 48.45 32.2866C48.45 31.5924 48.4291 31.5192 48.2307 31.5192C48.0189 31.5192 48.0114 31.5924 48.0114 33.6505ZM12.951 32.0121C12.8757 32.0977 12.814 32.234 12.814 32.3149C12.814 32.3958 12.7581 32.518 12.6898 32.5863C12.5592 32.7168 12.6315 33.0541 12.7902 33.0541C12.905 33.0541 13.3622 32.2132 13.3622 32.0022C13.3622 31.8049 13.1286 31.8105 12.951 32.0121ZM13.7586 32.1184C13.6612 32.2669 13.5815 32.4396 13.5815 32.5021C13.5815 32.5644 13.5322 32.6155 13.4719 32.6155C13.3141 32.6155 13.3365 32.9176 13.4983 32.9715C13.651 33.0224 13.9105 32.8032 13.9105 32.6233C13.9105 32.5587 13.9598 32.5059 14.0201 32.5059C14.0804 32.5059 14.1298 32.3579 14.1298 32.177C14.1298 31.7776 13.9958 31.7565 13.7586 32.1184ZM14.7535 31.9189C14.7119 31.9604 14.678 32.8485 14.678 33.8925C14.678 36.0686 14.6121 35.9498 15.7803 35.8835C16.2231 35.8584 16.3776 35.8071 16.3776 35.6852C16.3776 35.5619 16.2201 35.5125 15.7498 35.4879L15.122 35.4552L15.0919 33.688C15.0638 32.0338 14.9955 31.677 14.7535 31.9189ZM32.3315 32.0674C32.3315 32.2325 32.3888 32.2917 32.5234 32.2658C32.6289 32.2454 32.7153 32.1562 32.7153 32.0674C32.7153 31.9786 32.6289 31.8893 32.5234 31.869C32.3888 31.8431 32.3315 31.9023 32.3315 32.0674ZM51.1584 31.9174C50.9861 32.0896 51.0957 32.2866 51.3637 32.2866C51.5726 32.2866 51.6364 32.2372 51.6092 32.096C51.5707 31.8965 51.2904 31.7854 51.1584 31.9174ZM71.9149 32.0674C71.9149 32.2282 71.988 32.2866 72.189 32.2866C72.4951 32.2866 72.5669 32.021 72.2896 31.9147C71.9998 31.8035 71.9149 31.8381 71.9149 32.0674ZM79.5127 32.04C79.4736 32.1454 79.4019 32.2589 79.3532 32.2921C79.3046 32.3252 79.2317 32.5169 79.1915 32.7179C79.1345 33.0032 79.1521 33.073 79.2721 33.0359C79.4559 32.979 79.9369 32.0751 79.8544 31.9416C79.7587 31.7868 79.5879 31.836 79.5127 32.04ZM80.3853 31.9207C80.3099 31.9512 80.2482 32.0459 80.2482 32.1313C80.2482 32.2168 80.2046 32.2866 80.1514 32.2866C80.009 32.2866 79.9357 32.797 80.0538 32.9647C80.1347 33.0797 80.1666 33.0807 80.2115 32.9699C80.2425 32.8934 80.3373 32.7612 80.4224 32.6763C80.5075 32.5912 80.5771 32.4728 80.5771 32.4133C80.5771 32.3536 80.6354 32.2855 80.7065 32.2618C80.7788 32.2377 80.8044 32.1369 80.7647 32.0334C80.6919 31.8437 80.6253 31.8239 80.3853 31.9207ZM17.4192 32.9444C17.4192 33.0047 17.3592 33.0541 17.2857 33.0541C17.2122 33.0541 17.0395 33.1851 16.9019 33.3452C16.6974 33.5831 16.6517 33.7653 16.6517 34.3423C16.6517 35.1815 16.8558 35.5959 17.3583 35.7777C17.7894 35.9335 18.2605 35.9416 18.3513 35.7948C18.4451 35.6431 18.8171 35.657 18.8695 35.8142C18.893 35.8851 18.9712 35.9069 19.043 35.8625C19.1332 35.8069 19.1736 35.3438 19.1736 34.3696C19.1736 33.3954 19.1332 32.9324 19.043 32.8767C18.9712 32.8323 18.893 32.8541 18.8695 32.925C18.8173 33.0815 18.2964 33.0991 18.2964 32.9444C18.2964 32.8841 18.0991 32.8348 17.8578 32.8348C17.6166 32.8348 17.4192 32.8841 17.4192 32.9444ZM21.1473 34.9806C21.1473 36.9651 21.1618 37.1237 21.3392 37.0898C21.4936 37.0605 21.5376 36.9173 21.564 36.358C21.5953 35.6969 21.6089 35.6663 21.8381 35.7401C22.7292 36.0268 23.2017 35.8517 23.5648 35.1004C23.7913 34.6317 23.8539 33.9311 23.6692 33.9311C23.6089 33.9311 23.5588 33.8447 23.5578 33.7392C23.5569 33.6338 23.4146 33.3871 23.2418 33.1911C22.9728 32.8859 22.855 32.8348 22.4212 32.8348C22.1427 32.8348 21.9149 32.8841 21.9149 32.9444C21.9149 33.0047 21.8162 33.0541 21.6956 33.0541C21.575 33.0541 21.4763 33.0047 21.4763 32.9444C21.4763 32.8841 21.4023 32.8348 21.3118 32.8348C21.1712 32.8348 21.1473 33.1462 21.1473 34.9806ZM24.8042 32.9791C24.2963 33.2321 24.0164 34.1708 24.2216 34.9327C24.353 35.4208 24.4676 35.5766 24.843 35.7775C25.1751 35.9552 25.6031 35.9356 25.9198 35.7281C26.1671 35.5661 26.1945 35.5661 26.2566 35.7281C26.2938 35.825 26.393 35.9044 26.477 35.9044C26.6003 35.9044 26.6298 35.6084 26.6298 34.3696C26.6298 33.1359 26.6001 32.8348 26.4781 32.8348C26.3947 32.8348 26.298 32.9433 26.2633 33.076L26.2002 33.3173L25.991 33.076C25.7627 32.8129 25.2259 32.769 24.8042 32.9791ZM27.8359 32.9444C27.8359 33.0047 27.7634 33.0541 27.675 33.0541C27.5865 33.0541 27.444 33.1875 27.3586 33.3506C27.1287 33.7892 27.3226 34.0991 28.0392 34.438C28.9891 34.8873 29.1833 35.2068 28.6531 35.4482C28.2619 35.6265 28.0542 35.6075 27.6414 35.3558C27.1981 35.0856 27.178 35.0855 27.178 35.3534C27.178 35.636 27.7023 35.9044 28.2542 35.9044C28.8563 35.9044 29.2614 35.5673 29.2614 35.0664C29.2614 34.6066 29.1418 34.4743 28.4938 34.217C27.9041 33.9829 27.7263 33.8482 27.7263 33.6357C27.7263 33.423 27.9969 33.1637 28.219 33.1637C28.4372 33.1637 28.8489 33.3715 28.9552 33.5354C29.0096 33.6193 29.0754 33.612 29.1745 33.5109C29.3944 33.287 28.7752 32.836 28.2471 32.8353C28.021 32.835 27.8359 32.8841 27.8359 32.9444ZM30.0563 33.1202C29.768 33.4489 29.738 33.8438 29.9825 34.0883C30.0776 34.1833 30.399 34.3659 30.6967 34.4939C31.3202 34.7621 31.529 35.1696 31.1754 35.4282C30.8941 35.6337 30.5826 35.6115 30.1633 35.3558C29.7134 35.0816 29.7 35.0826 29.7 35.3891C29.7 35.9154 30.9985 36.0939 31.4932 35.6356C31.9244 35.236 31.8177 34.3889 31.3326 34.3607C31.039 34.3437 30.3055 33.874 30.268 33.6789C30.1735 33.1887 30.758 33.0098 31.235 33.3829C31.5767 33.6501 31.6736 33.6555 31.6736 33.4073C31.6736 32.82 30.5018 32.612 30.0563 33.1202ZM32.3315 34.3696C32.3315 35.6608 32.3576 35.9044 32.496 35.9044C32.6344 35.9044 32.6605 35.6608 32.6605 34.3696C32.6605 33.0784 32.6344 32.8348 32.496 32.8348C32.3576 32.8348 32.3315 33.0784 32.3315 34.3696ZM34.0859 32.9444C34.0859 33.0047 34.0155 33.0541 33.9294 33.0541C33.5786 33.0541 33.3184 33.6016 33.3184 34.3401C33.3184 35.1816 33.5219 35.5958 34.025 35.7777C34.616 35.9914 34.9357 35.9325 35.3759 35.529C35.777 35.1615 35.7854 35.1377 35.7792 34.3732C35.7737 33.6739 35.7428 33.5647 35.4825 33.3234C35.3228 33.1753 35.1405 33.0541 35.0776 33.0541C35.0146 33.0541 34.9631 33.0047 34.9631 32.9444C34.9631 32.8841 34.7657 32.8348 34.5245 32.8348C34.2833 32.8348 34.0859 32.8841 34.0859 32.9444ZM36.4105 32.9663C36.3225 33.0543 36.2789 33.5411 36.2789 34.4346C36.2789 35.5554 36.3071 35.7822 36.4532 35.8382C36.77 35.9598 36.8271 35.7924 36.8271 34.7419C36.8271 33.7839 36.8483 33.6807 37.0963 33.4328C37.3644 33.1647 37.814 33.0648 37.814 33.2733C37.814 33.3336 37.8801 33.3829 37.9608 33.3829C38.2223 33.3829 38.3622 33.9197 38.3622 34.9229C38.3622 35.7459 38.3903 35.9044 38.5361 35.9044C38.687 35.9044 38.7052 35.7372 38.6732 34.6444C38.6379 33.4375 38.6239 33.3729 38.3396 33.1096C37.9955 32.7909 37.45 32.7446 37.1831 33.0114C37.0207 33.1738 36.9961 33.1738 36.8773 33.0114C36.7234 32.801 36.5889 32.788 36.4105 32.9663ZM44.5026 32.9444C44.5026 33.0047 44.4322 33.0541 44.3461 33.0541C44.2599 33.0541 44.0827 33.1898 43.9521 33.3555C43.7458 33.6174 43.7196 33.7673 43.7527 34.4978C43.7854 35.22 43.8274 35.3704 44.051 35.5644C44.4168 35.8815 45.0055 35.9689 45.5289 35.7837C45.9423 35.6375 46.2632 35.3259 46.1337 35.1965C46.1004 35.1631 45.8745 35.2446 45.6317 35.3775C45.2376 35.5934 45.1435 35.6051 44.75 35.4873C44.4291 35.3911 44.2733 35.2679 44.1762 35.0335C44.1028 34.8566 44.0752 34.6595 44.1148 34.5954C44.1566 34.5277 44.5925 34.4792 45.1605 34.4792C45.6961 34.4792 46.158 34.441 46.1869 34.3943C46.3543 34.1234 45.8209 33.0541 45.5183 33.0541C45.4421 33.0541 45.3798 33.0047 45.3798 32.9444C45.3798 32.8841 45.1824 32.8348 44.9412 32.8348C44.7 32.8348 44.5026 32.8841 44.5026 32.9444ZM51.0815 34.3083C51.0815 35.1188 51.1264 35.8096 51.1813 35.8435C51.2361 35.8773 51.3595 35.875 51.4554 35.8382C51.6016 35.7822 51.6298 35.5554 51.6298 34.4346C51.6298 33.1032 51.5617 32.8348 51.2241 32.8348C51.1142 32.8348 51.0815 33.1723 51.0815 34.3083ZM52.5169 33.2132C52.1997 33.5245 52.1353 33.674 52.0916 34.1999C52.0018 35.2834 52.4726 35.9044 53.3842 35.9044C53.7074 35.9044 54.399 35.6683 54.5064 35.5213C54.6415 35.3364 54.5997 35.137 54.4258 35.137C54.3354 35.137 54.2614 35.1785 54.2614 35.2291C54.2614 35.2798 54.0584 35.3882 53.8104 35.47C53.4026 35.6046 53.3218 35.5983 52.9671 35.4053C52.5299 35.1675 52.2994 34.6499 52.5822 34.5414C52.6713 34.5072 53.1663 34.4792 53.6822 34.4792H54.6201L54.5501 33.9679C54.4003 32.8756 53.2835 32.4611 52.5169 33.2132ZM55.2482 34.3696C55.2482 35.6608 55.2743 35.9044 55.4127 35.9044C55.548 35.9044 55.5771 35.709 55.5771 34.8032C55.5771 33.78 55.5962 33.6828 55.8463 33.4328C56.1402 33.1389 56.4132 33.097 56.6832 33.3042C57.0153 33.5592 57.1122 33.922 57.1122 34.9105C57.1122 35.7209 57.1426 35.9044 57.2767 35.9044C57.4133 35.9044 57.4406 35.6958 57.4377 34.6711C57.4343 33.4505 57.3313 33.0541 57.0179 33.0541C56.9492 33.0541 56.8929 33.0047 56.8929 32.9444C56.8929 32.7659 56.1249 32.8196 55.9331 33.0114C55.7707 33.1738 55.7461 33.1738 55.6273 33.0114C55.3155 32.5851 55.2482 32.8263 55.2482 34.3696ZM59.4149 34.3083C59.4149 35.1188 59.4597 35.8096 59.5146 35.8435C59.5695 35.8773 59.6912 35.8757 59.7851 35.8396C59.9218 35.7872 59.9621 35.5446 59.9869 34.6261C60.0171 33.5113 60.0265 33.4731 60.3134 33.2992C60.5741 33.1413 60.6436 33.1387 60.9024 33.2771C61.0638 33.3635 61.2181 33.509 61.2453 33.6004C61.2726 33.6919 61.3406 33.8523 61.3965 33.957C61.4525 34.0617 61.4982 34.5427 61.4982 35.0258C61.4982 35.7337 61.5301 35.9044 61.6627 35.9044C61.7982 35.9044 61.8271 35.7061 61.8271 34.7778C61.8271 33.6469 61.7662 33.4305 61.3186 32.9718C61.1349 32.7836 60.5572 32.7997 60.2489 33.0018C60.0207 33.1512 59.9795 33.1512 59.8555 33.0018C59.7793 32.9099 59.649 32.8348 59.566 32.8348C59.4451 32.8348 59.4149 33.1298 59.4149 34.3083ZM63.1429 32.9444C63.1429 33.0047 63.087 33.0541 63.0187 33.0541C62.8077 33.0541 62.5198 33.4704 62.3762 33.9829C62.259 34.4015 62.2654 34.538 62.4207 34.9259C62.6985 35.6203 63.0735 35.9045 63.7114 35.9043C64.08 35.9042 64.678 35.5064 64.678 35.2613C64.678 35.1929 64.7274 35.137 64.7877 35.137C64.8503 35.137 64.8973 34.8081 64.8973 34.3696C64.8973 33.9311 64.8503 33.6022 64.7877 33.6022C64.7274 33.6022 64.678 33.5494 64.678 33.4848C64.678 33.3329 64.3991 33.0541 64.2472 33.0541C64.1826 33.0541 64.1298 33.0047 64.1298 32.9444C64.1298 32.8841 63.9077 32.8348 63.6364 32.8348C63.365 32.8348 63.1429 32.8841 63.1429 32.9444ZM65.4456 34.0955C65.4456 34.8629 65.4884 35.3563 65.5552 35.3563C65.6155 35.3563 65.6649 35.4204 65.6649 35.4987C65.6649 35.6527 66.2548 35.9044 66.6157 35.9044C67.0373 35.9044 67.499 35.6735 67.6234 35.4005C67.6921 35.2499 67.7482 34.611 67.7482 33.9807C67.7482 33.0352 67.7195 32.8348 67.5837 32.8348C67.4486 32.8348 67.4192 33.028 67.4192 33.9151C67.4192 34.9099 67.398 35.0183 67.1504 35.2854C66.8549 35.6041 66.687 35.6368 66.2851 35.4538C65.8889 35.2733 65.7745 34.9066 65.7745 33.8163C65.7745 33.0169 65.744 32.8348 65.61 32.8348C65.4734 32.8348 65.4456 33.0479 65.4456 34.0955ZM68.5157 34.3696C68.5157 35.6608 68.5418 35.9044 68.6802 35.9044C68.8149 35.9044 68.8447 35.7156 68.8447 34.8629C68.8447 34.2901 68.8907 33.8215 68.947 33.8215C69.0032 33.8215 69.0805 33.7228 69.1188 33.6022C69.1571 33.4816 69.2738 33.3829 69.3783 33.3829C69.6028 33.3829 69.8315 33.1783 69.8315 32.9773C69.8315 32.748 69.3823 32.8134 69.1545 33.076L68.9453 33.3173L68.8822 33.076C68.8475 32.9433 68.7508 32.8348 68.6674 32.8348C68.5454 32.8348 68.5157 33.1359 68.5157 34.3696ZM70.213 33.0815C70.1792 33.2172 70.166 33.8955 70.1835 34.5889C70.2096 35.6223 70.2449 35.8496 70.3798 35.8496C70.5107 35.8496 70.5554 35.6356 70.5991 34.8002C70.6547 33.7372 70.7979 33.3829 71.1724 33.3829C71.3897 33.3829 71.5782 33.1617 71.5108 32.9859C71.4316 32.7798 71.2905 32.796 70.93 33.0526C70.6246 33.2701 70.6238 33.2701 70.5669 33.0526C70.4904 32.7599 70.2889 32.7764 70.213 33.0815ZM71.9149 34.3696C71.9149 35.6084 71.9444 35.9044 72.0676 35.9044C72.3056 35.9044 72.3535 35.6474 72.3535 34.3696C72.3535 33.0918 72.3056 32.8348 72.0676 32.8348C71.9444 32.8348 71.9149 33.1308 71.9149 34.3696ZM73.0114 34.3083C73.0114 35.2712 73.0536 35.8079 73.1333 35.8572C73.3501 35.9911 73.4465 35.6495 73.4483 34.7427C73.4501 33.7965 73.601 33.454 74.0546 33.3674C74.3497 33.3111 74.4226 32.8348 74.1361 32.8348C74.0228 32.8348 73.8249 32.9326 73.6967 33.0521C73.4642 33.2686 73.4632 33.2686 73.3945 33.0521C73.3565 32.9326 73.2549 32.8348 73.1685 32.8348C73.0399 32.8348 73.0114 33.1024 73.0114 34.3083ZM18.229 33.2876C18.7135 33.5082 18.938 34.5959 18.6081 35.1241C18.2697 35.6658 17.5042 35.6456 17.1371 35.0853C16.8743 34.6844 16.9701 33.83 17.3196 33.4581C17.6141 33.1447 17.8276 33.1047 18.229 33.2876ZM22.9291 33.4233C23.1984 33.6548 23.2307 33.756 23.2307 34.3698C23.2307 34.9658 23.1935 35.0915 22.9508 35.3163C22.5072 35.7274 21.9415 35.5973 21.6524 35.0176C21.4572 34.6266 21.4146 33.9311 21.5859 33.9311C21.6462 33.9311 21.6956 33.8591 21.6956 33.7709C21.6956 33.5417 22.1351 33.1637 22.4016 33.1638C22.5258 33.1639 22.7633 33.2807 22.9291 33.4233ZM25.7847 33.3007C25.947 33.3761 26.0802 33.5241 26.0807 33.6296C26.0811 33.7351 26.1309 33.8215 26.1912 33.8215C26.2515 33.8215 26.3008 34.0681 26.3008 34.3696C26.3008 34.6711 26.2515 34.9178 26.1912 34.9178C26.1309 34.9178 26.0815 35.0104 26.0815 35.1237C26.0815 35.4342 25.511 35.6383 25.1089 35.4718C24.722 35.3115 24.5464 34.9493 24.5464 34.3115C24.5464 33.9338 24.6138 33.7518 24.848 33.4965C25.1817 33.1327 25.348 33.0979 25.7847 33.3007ZM34.8911 33.2854C35.2243 33.4372 35.4017 33.8139 35.4017 34.3696C35.4017 34.9423 35.2167 35.3155 34.8594 35.4635C34.2211 35.7278 33.6473 35.205 33.6473 34.359C33.6473 33.9577 33.7116 33.7768 33.9489 33.5107C34.2751 33.1445 34.4762 33.0965 34.8911 33.2854ZM42.2586 33.3407C42.4073 33.4381 42.5289 33.5861 42.5289 33.6696C42.5289 33.7532 42.5782 33.8215 42.6385 33.8215C42.6989 33.8215 42.7482 34.0681 42.7482 34.3696C42.7482 34.6711 42.6989 34.9178 42.6385 34.9178C42.5782 34.9178 42.5289 35.0104 42.5289 35.1237C42.5289 35.2492 42.4004 35.3829 42.2 35.4659C41.7762 35.6414 41.3226 35.4683 41.1309 35.0578C40.9674 34.7078 40.9478 33.8215 41.1035 33.8215C41.1638 33.8215 41.2131 33.7405 41.2131 33.6417C41.2131 33.4251 41.5223 33.172 41.7926 33.1672C41.9003 33.1652 42.11 33.2434 42.2586 33.3407ZM45.3077 33.2854C45.5528 33.3971 45.8184 33.7925 45.8184 34.0459C45.8184 34.1034 45.424 34.1503 44.9412 34.1503C44.4584 34.1503 44.064 34.1034 44.064 34.0459C44.064 33.8174 44.327 33.3829 44.4654 33.3829C44.5461 33.3829 44.6122 33.3336 44.6122 33.2733C44.6122 33.1276 44.9753 33.134 45.3077 33.2854ZM49.7763 33.3904C50.0737 33.6022 50.0946 33.6653 50.093 34.3497C50.0921 34.7525 50.0551 35.1365 50.0108 35.2028C49.8561 35.4344 49.4216 35.5896 49.1156 35.5225C48.4254 35.3708 48.2205 34.0636 48.7916 33.4554C49.1134 33.1127 49.3631 33.0963 49.7763 33.3904ZM53.8634 33.4137C54.001 33.5512 54.1422 33.7732 54.1771 33.9071C54.2392 34.144 54.2168 34.1503 53.3293 34.1503C52.443 34.1503 52.4196 34.1437 52.4812 33.9082C52.66 33.2244 53.407 32.9572 53.8634 33.4137ZM64.1422 33.4883C64.5406 33.9051 64.6366 34.3023 64.4585 34.7973C64.1857 35.5551 63.6452 35.7748 63.1029 35.3483C62.8455 35.1459 62.814 35.0459 62.814 34.4314C62.814 33.8324 62.852 33.7037 63.103 33.4527C63.4779 33.0778 63.759 33.0875 64.1422 33.4883ZM74.5464 35.6852C74.5464 35.9164 74.7192 35.9653 74.9717 35.8053C75.1677 35.6812 75.033 35.4659 74.7593 35.4659C74.6196 35.4659 74.5464 35.5412 74.5464 35.6852ZM76.5201 35.6932C76.5201 35.9741 76.8831 35.9422 76.9381 35.6565C76.9634 35.525 76.9043 35.4659 76.7474 35.4659C76.5905 35.4659 76.5201 35.5363 76.5201 35.6932ZM78.3842 35.6337C78.3842 35.8593 78.712 35.9739 78.8266 35.7885C78.948 35.5922 78.8582 35.4659 78.597 35.4659C78.479 35.4659 78.3842 35.5407 78.3842 35.6337Z" fill="white"/>
</svg>
