<svg width="62" height="81" viewBox="0 0 62 81" fill="none" xmlns="http://www.w3.org/2000/svg">
<path d="M31.0923 0.0136401C32.341 0.0136401 33.281 -0.0144195 34.2069 0.0136401C35.9747 0.0837892 37.7424 0.210058 39.5102 0.378416C42.6529 0.687072 45.7535 1.23424 48.812 1.9217C51.0988 2.4408 53.3576 3.11423 55.5743 3.8999C56.5143 4.22259 57.4263 4.58736 58.3663 4.92408C59.4466 5.31691 60.4848 5.83602 61.5651 6.24288C61.8878 6.36915 62 6.60766 62 6.91631C61.9719 8.68407 62.0281 10.4378 61.9579 12.2056C61.8878 13.8891 61.9299 15.5867 61.9299 17.2703C61.9299 19.4449 61.9439 21.6196 61.9158 23.7802C61.9018 25.3936 61.7896 27.021 61.6493 28.6204C61.551 29.7007 61.4528 30.8091 61.2564 31.8894C61.074 32.8715 61.0319 33.8816 60.9057 34.8637C60.8215 35.5512 60.6812 36.2246 60.597 36.898C60.4708 37.9222 60.2603 38.9464 60.0919 39.9706C59.9096 41.121 59.657 42.2855 59.3905 43.4219C59.3063 43.7727 59.3203 44.1515 59.2221 44.5022C58.9555 45.5264 58.717 46.5646 58.4645 47.6028C57.9594 49.6932 57.4964 51.7837 56.8511 53.832C56.0794 56.2873 54.943 58.5881 53.6382 60.7908C53.1332 61.6607 52.5579 62.4744 51.9967 63.3022C51.5197 64.0177 50.9024 64.6631 50.3412 65.3225C49.8361 65.9258 49.3591 66.5431 48.7979 67.0902C47.8018 68.0583 46.8338 69.0544 45.7815 69.9663C44.9959 70.6398 44.1821 71.2711 43.4526 72.0007C43.0036 72.4496 42.4424 72.7442 41.9374 73.1511C41.1096 73.8245 40.1977 74.4418 39.3138 75.0451C38.2896 75.7466 37.2654 76.4201 36.2132 77.0795C35.0207 77.8371 33.8141 78.5526 32.6216 79.2821C32.2848 79.4786 31.9201 79.6469 31.6114 79.8714C31.2326 80.152 30.8959 80.0678 30.5311 79.8433C29.6332 79.2821 28.7213 78.7069 27.7813 78.2159C27.2762 77.9493 26.8553 77.5424 26.2941 77.3741C25.9574 77.2759 25.6908 76.9111 25.3401 76.7147C24.1055 75.9991 22.969 75.1293 21.7344 74.4138C21.061 74.021 20.4577 73.5159 19.8404 73.0389C18.7461 72.1971 17.6658 71.3413 16.6276 70.4293C15.0702 69.0544 13.541 67.6514 12.2082 66.052C11.7873 65.5469 11.3103 65.0699 10.9034 64.5648C9.86518 63.2881 8.9813 61.8852 8.09742 60.4962C7.40996 59.4159 6.80668 58.2935 6.3016 57.129C5.51593 55.3473 4.87056 53.4953 4.40758 51.5873C4.02877 50.03 3.64997 48.4726 3.27117 46.9294C2.8643 45.2598 2.55564 43.5762 2.19087 41.8927C1.93833 40.7001 1.75594 39.4936 1.53147 38.287C1.29296 36.9963 1.1246 35.6915 0.942215 34.4007C0.773857 33.2503 0.633557 32.0858 0.493259 30.9213C0.42311 30.276 0.366993 29.6306 0.324904 28.9712C0.212665 27.2315 0.282813 25.4918 0.226693 23.7521C0.128484 20.876 0.240722 17.9999 0.142513 15.1238C0.0723643 13.1456 0.128484 11.1814 0.0723643 9.20317C0.0583345 8.58586 0.0302749 7.98258 0.00221523 7.36527C-0.0258444 6.79004 0.212663 6.4393 0.717737 6.20079C1.64371 5.76587 2.5837 5.38706 3.53773 5.05035C5.72638 4.26468 7.9431 3.50707 10.1879 2.87572C12.0398 2.35662 13.9198 1.90767 15.7998 1.52886C17.329 1.22021 18.8583 0.93961 20.4156 0.743193C21.9589 0.546775 23.5022 0.336326 25.0735 0.224087C27.164 0.0837892 29.2965 -0.0424792 31.0923 0.0136401Z" fill="#BFBFB8"/>
<path d="M30.4609 77.9913C29.4788 77.402 28.4827 76.8268 27.5006 76.2376C25.4803 75.017 23.5021 73.7262 21.5941 72.3232C19.7842 70.9904 18.0305 69.5874 16.403 68.0441C15.6454 67.3146 14.8036 66.6692 14.1022 65.8836C12.0538 63.6388 10.258 61.2256 8.79888 58.546C7.07322 55.3752 6.11919 51.9519 5.33352 48.4725C4.8565 46.3961 4.39352 44.3197 3.98665 42.2293C3.49561 39.746 3.10278 37.2487 2.75203 34.7373C2.37322 32.0156 2.14875 29.2797 1.99442 26.5439C1.96636 25.9547 1.98039 25.3654 1.96636 24.7762C1.95233 24.5236 2.09263 24.3833 2.28905 24.2992C4.35143 23.4153 6.4559 22.6296 8.58844 21.9281C10.4965 21.2968 12.4326 20.7636 14.3828 20.3007C16.2207 19.8657 18.0866 19.515 19.9526 19.2063C22.0851 18.8556 24.2177 18.6171 26.3642 18.4628C27.8654 18.3505 29.3666 18.2242 30.8678 18.3084C31.0221 18.4347 31.0502 18.6171 31.0502 18.7995C31.0362 19.8236 31.0502 20.8478 31.0502 21.872C31.0642 23.1347 31.0361 24.4114 31.0782 25.6741C31.0361 25.8705 31.0502 26.0669 31.0502 26.2633C31.0502 29.869 31.0502 33.4606 31.0502 37.0663C31.0502 37.2347 31.0642 37.403 31.0221 37.5714C30.952 37.8099 30.7415 37.866 30.5451 37.9361C29.1982 38.4132 27.8794 38.9603 26.5326 39.4093C26.3362 39.4794 26.1397 39.5636 25.9433 39.6338C25.3681 39.8302 24.9893 40.195 24.849 40.8123C24.7788 41.1209 24.5263 41.3173 24.2457 41.4436C23.2496 41.8926 22.2395 42.3415 21.2574 42.8326C19.3353 43.7866 17.4553 44.8388 16.0242 46.5084C15.6454 46.9573 15.3227 47.4484 15.1544 48.0236C14.8598 48.9916 15.1965 49.9316 16.0383 50.4788C16.1645 50.563 16.3048 50.6331 16.4451 50.7173C16.5714 50.8015 16.7678 50.8436 16.7398 51.04C16.7117 51.2224 16.5013 51.2364 16.361 51.2645C15.9541 51.3767 15.5613 51.489 15.1544 51.6012C14.4248 51.7836 14.0039 52.2185 13.9198 52.9901C13.8636 53.4952 13.7795 54.0003 13.7654 54.5054C13.7654 54.7158 13.8216 54.814 14.032 54.8421C14.3126 54.8842 14.6072 54.9122 14.8878 54.9122C18.4795 54.9122 22.0851 54.9122 25.6768 54.8982C26.1538 54.8982 26.6168 54.9824 27.0517 55.1507C27.5848 55.3612 28.132 55.5576 28.6651 55.768C29.2684 56.0066 29.8857 56.1469 30.5311 56.1609C30.7415 56.1609 30.966 56.1609 31.0642 56.3994C31.1905 57.2412 31.0923 58.097 31.1203 58.9388C31.1484 59.6964 30.98 60.454 31.0502 61.1976C31.1484 62.1797 31.0782 63.1477 31.1063 64.1158C31.1063 64.3122 31.1484 64.5507 30.8959 64.6489C30.8538 64.663 30.8117 64.663 30.7696 64.663C30.4609 64.5648 30.1523 64.6209 29.8436 64.6209C29.4648 64.6209 29.3105 64.8874 29.5069 65.2242C29.6191 65.4206 29.8015 65.5889 29.8717 65.8274C29.9839 66.1501 29.8296 66.3044 29.4929 66.2483C29.8296 66.3185 30.1663 66.2483 30.503 66.2624C30.6153 66.2764 30.6012 66.1361 30.6012 66.0379C30.6012 65.8695 30.5872 65.7012 30.6153 65.5328C30.6573 65.3364 30.7556 65.2943 30.9099 65.4486C31.0362 65.6591 31.1063 65.8835 31.1203 66.1221C31.1063 66.6833 31.1344 67.2444 31.1203 67.8056C31.1203 68.0021 31.1344 68.2125 30.8678 68.2546C30.6854 68.2546 30.6012 68.1143 30.489 68.0021C30.0681 67.5952 29.4368 67.6653 29.1562 68.1704C28.7353 68.914 28.7072 69.6856 29.086 70.4573C29.2403 70.78 29.4929 70.8782 29.8717 70.7379C30.2364 70.5835 30.4469 70.7238 30.4048 71.1588C30.3627 71.5376 30.3627 71.9444 30.1242 72.2812C30.026 72.4214 29.9138 72.5618 29.7173 72.5477C29.5069 72.5337 29.4929 72.3653 29.4508 72.211C29.4087 72.0426 29.2965 71.9585 29.1281 72.0426C28.9457 72.1409 28.9176 72.2952 29.0159 72.4776C29.1702 72.7441 29.5911 72.8564 29.9278 72.7161C30.1382 72.6319 30.2926 72.4776 30.4469 72.3092C30.5591 72.197 30.6293 72.0426 30.8117 72.0286C31.0361 72.0286 31.0923 72.1829 31.0923 72.3653C30.9941 74.0349 31.0782 75.7044 31.0502 77.374C31.0502 77.4161 31.0502 77.4582 31.0502 77.4862C31.0221 78.0193 30.9099 78.1035 30.4609 77.9913Z" fill="#CC161F"/>
<path d="M31.2186 18.3084C31.6114 18.1962 31.9902 18.2663 32.3831 18.2804C33.7439 18.3225 35.1048 18.3365 36.4517 18.4347C37.546 18.5189 38.6123 18.7434 39.6926 18.8556C41.8111 19.0801 43.9015 19.4168 45.992 19.8517C50.6499 20.8198 55.1535 22.2648 59.5027 24.201C59.8675 24.3553 60.0358 24.5938 60.0358 25.0147C60.0358 27.0911 59.8534 29.1675 59.657 31.2299C59.4887 33.0117 59.2642 34.7794 58.9976 36.5472C58.5487 39.4935 58.0155 42.4117 57.3842 45.3299C56.8511 47.7991 56.2478 50.2403 55.6024 52.6675C55.0412 54.7579 54.1714 56.7361 53.1472 58.6301C51.7161 61.2397 49.9484 63.5967 47.9281 65.7854C46.3708 67.483 44.6591 69.0122 42.8774 70.4573C40.4923 72.3934 37.9669 74.1331 35.3714 75.7606C34.0105 76.6023 32.6636 77.4722 31.2326 78.2017C31.0642 78.0614 31.0362 77.865 31.0362 77.6686C31.0222 76.0832 31.0362 74.5119 31.0222 72.9265C31.0222 72.8143 31.0362 72.7161 31.1063 72.6319C31.2466 72.5056 31.3729 72.6179 31.4992 72.674C32.1866 72.9686 32.7478 72.8283 33.1266 72.2671C33.5054 71.7059 33.4353 70.9062 32.9442 70.4292C32.5514 70.0364 32.5514 70.0224 32.9442 69.5874C33.295 69.1946 33.3371 68.5071 33.0424 68.1424C32.7198 67.7495 32.1586 67.6653 31.6535 67.9459C31.5132 68.0161 31.401 68.1283 31.2186 68.1003C31.0923 68.0582 31.0642 67.974 31.0642 67.8618C31.0783 67.3848 31.0081 66.8937 31.1204 66.4167C31.1344 66.3746 31.1344 66.3465 31.1484 66.3045C31.3028 65.9116 31.3308 65.8976 31.6254 66.2343C31.6395 66.2483 31.6535 66.2624 31.6535 66.2764C31.6816 66.3045 31.6956 66.3465 31.7096 66.3746C31.7657 66.4728 31.8499 66.557 31.9622 66.5009C32.3129 66.3465 32.5935 66.5009 32.8601 66.7113C32.9162 66.7534 33.0004 66.8095 33.0705 66.7674C33.1547 66.7113 33.0986 66.6271 33.0845 66.557C33.0004 65.9818 33.0144 65.4066 33.0565 64.8313C33.0845 64.3964 32.9583 64.2701 32.5374 64.3824C32.5093 64.3824 32.4813 64.4104 32.4672 64.3964C32.0604 64.2 31.7377 64.3683 31.429 64.6068C31.3729 64.6489 31.2747 64.6349 31.2045 64.5788C31.1484 64.5367 31.1344 64.4665 31.1204 64.3964C31.0783 63.9054 31.0923 63.4003 31.1063 62.9092C31.1344 61.8851 30.9801 60.8609 31.0502 59.8227C31.1204 58.8687 31.1063 57.9006 31.1063 56.9325C31.1063 56.3854 31.1204 56.3713 31.6535 56.2872C31.7236 56.2731 31.7798 56.2591 31.8359 56.217C32.369 55.9504 32.9863 55.8803 33.5335 55.6137C33.8141 55.4734 34.1087 55.3472 34.3613 55.1648C34.7681 54.8842 35.203 54.786 35.6941 54.8C37.1111 54.814 38.5141 54.8 39.9311 54.8702C40.7168 54.9122 40.9974 54.6457 41.0956 53.86C41.2218 52.8639 41.32 51.8678 41.2078 50.8576C41.0394 49.3705 40.4502 48.0797 39.4541 46.9573C39.2577 46.7329 39.0472 46.5084 38.8789 46.2699C38.5983 45.877 38.6544 45.6946 39.0893 45.4702C40.2257 44.8809 41.4323 44.432 42.5968 43.8988C43.4245 43.506 44.2803 43.1833 45.0941 42.7764C45.2203 42.7063 45.3466 42.6502 45.5009 42.6361C45.9078 42.6221 46.2305 42.3976 46.5532 42.1732C46.8197 41.9908 47.0442 41.8364 47.409 41.9767C47.6896 42.075 48.0403 42.0749 48.3209 41.8785C48.5454 41.7242 48.8681 41.8084 49.0084 41.5278C49.3311 41.3735 49.3591 41.163 49.2188 40.8263C48.4472 38.8341 47.6194 36.8418 46.8899 34.8356C46.7075 34.3305 46.455 33.8535 46.3147 33.3344C46.2165 32.9556 46.0902 32.9275 45.7394 33.0959C45.1923 33.3484 44.6311 33.5588 44.3645 34.1902C44.2523 34.4568 43.9577 34.4848 43.6911 34.2744C43.3684 34.0218 43.1159 34.078 42.7651 34.2323C41.9654 34.6111 41.1517 34.9899 40.3239 35.2845C39.8048 35.3827 39.3559 35.6633 38.8648 35.8597C38.8368 35.8738 38.7947 35.8878 38.7666 35.9018C38.2896 36.0842 37.7986 36.2385 37.3636 36.5191C36.3114 37.0242 35.2311 37.4591 34.1508 37.88C33.7439 38.0344 33.4213 37.9362 33.1407 37.6135C32.7198 37.1365 32.6216 37.1224 32.0183 37.3329C31.8359 37.403 31.6535 37.4872 31.4571 37.4872C31.1905 37.4872 31.0783 37.3329 31.0783 37.0944C31.0783 36.9681 31.0783 36.8278 31.0783 36.7015C31.0783 33.3063 31.0783 29.9111 31.0783 26.5299C31.0783 26.1371 31.0081 25.7302 31.5272 25.5759C31.5693 25.5619 31.5833 25.4917 31.5833 25.4356C31.6535 24.3974 31.6114 23.3592 31.6114 22.321C31.6114 22.0544 31.415 21.9842 31.2466 21.872C31.1484 21.7598 31.0923 21.6335 31.0923 21.4792C31.0923 20.5953 31.0502 19.7114 31.1063 18.8275C31.0783 18.7013 31.0783 18.4908 31.2186 18.3084Z" fill="#127760"/>
<path d="M31.0783 1.34657C32.355 1.31852 33.6457 1.37464 34.9224 1.43075C36.3114 1.5009 37.7144 1.57105 39.1033 1.73941C42.3863 2.11822 45.6412 2.67941 48.84 3.49314C51.7723 4.23672 54.6343 5.16269 57.4263 6.31313C58.1558 6.60776 58.8714 6.91642 59.6009 7.21104C59.9517 7.35134 60.12 7.58985 60.12 7.99671C60.106 10.7606 60.12 13.5104 60.106 16.2743C60.0919 18.1824 60.0639 20.0904 60.0499 21.9985C60.0499 22.4194 60.0218 22.4334 59.643 22.2791C58.5206 21.8301 57.3982 21.3531 56.2478 20.9743C54.7185 20.4692 53.1893 19.9501 51.6179 19.5292C50.5657 19.2486 49.4994 18.968 48.4332 18.7155C46.9039 18.3648 45.3747 18.0701 43.8314 17.8176C41.3341 17.3967 38.8087 17.1582 36.2833 17.0039C34.5998 16.9057 32.9162 16.8495 31.2326 16.8916C31.0222 16.7233 30.966 16.4848 30.966 16.2322C30.966 11.42 30.966 6.60776 30.966 1.79553C30.952 1.62717 30.966 1.47284 31.0783 1.34657Z" fill="#CA181E"/>
<path d="M30.7696 16.8213C29.9278 16.8494 29.0861 16.8774 28.2302 16.9055C26.4064 16.9756 24.5825 17.144 22.7586 17.3404C20.3735 17.593 18.0025 17.9858 15.6455 18.4768C13.2464 18.9679 10.8753 19.5571 8.5464 20.2727C6.46998 20.918 4.4076 21.6336 2.37327 22.4192C2.06462 22.5455 2.02253 22.4473 2.02253 22.1667C1.99447 20.2867 1.95238 18.4067 1.92432 16.5127C1.88223 13.6927 1.8682 10.8586 1.82611 8.03865C1.82611 7.61776 1.96641 7.40731 2.35925 7.25298C4.95476 6.17269 7.59237 5.21866 10.2861 4.43299C12.9377 3.64732 15.6315 3.01598 18.3673 2.52493C21.3697 1.9918 24.3861 1.64105 27.4305 1.4727C28.567 1.41658 29.7034 1.34643 30.8398 1.36046C30.9661 1.48673 30.952 1.65508 30.952 1.80941C30.952 6.63567 30.952 11.4619 30.952 16.2882C30.952 16.4846 30.9801 16.6951 30.7696 16.8213Z" fill="#127860"/>
<path d="M30.7696 16.8214C30.8678 16.5829 30.8398 16.3304 30.8398 16.0919C30.8398 11.1814 30.8398 6.28502 30.8398 1.37459C30.9099 1.3325 30.9941 1.3325 31.0783 1.34653C31.0783 6.32711 31.0783 11.3077 31.0642 16.2883C31.0642 16.5128 31.2045 16.6811 31.2186 16.8916C31.0642 16.9337 30.9099 16.9196 30.7696 16.8214Z" fill="#75433D"/>
<path d="M31.2466 72.6179C31.1484 72.6881 31.1203 72.7722 31.1203 72.8845C31.1344 74.4137 31.1484 75.957 31.1484 77.4862C31.1484 77.7388 31.2185 77.9773 31.2326 78.2158C31.1344 78.3982 31.0081 78.3842 30.8538 78.2719C30.7275 78.1737 30.5451 78.1457 30.4469 77.9913C30.8117 78.0334 30.9239 77.8931 30.9239 77.5143C30.8959 75.9991 30.9099 74.4839 30.9099 72.9687C30.9099 72.8003 30.8959 72.6319 30.952 72.4636C31.0362 72.2391 30.9239 72.1549 30.7135 72.1549C30.6433 71.8463 30.7275 71.5797 30.952 71.3552C31.1203 71.4113 31.1905 71.5797 31.3168 71.6779C31.1905 71.9866 31.2466 72.3093 31.2466 72.6179Z" fill="#72483E"/>
<path d="M31.2186 18.3086C31.1204 19.2626 31.1484 20.2167 31.1484 21.1707C31.1484 21.4232 31.1484 21.6617 31.2186 21.9002C31.1344 21.9844 31.0362 21.9844 30.938 21.9143C30.938 20.9181 30.9239 19.9361 30.9239 18.9399C30.9239 18.7295 30.9099 18.5331 30.8538 18.3226C30.9801 18.3226 31.1063 18.3226 31.2186 18.3086Z" fill="#675241"/>
<path d="M31.5412 37.4732C31.7938 37.4311 32.0183 37.3048 32.2568 37.2207C32.6777 37.0663 32.9302 37.2347 33.1547 37.5433C33.4493 37.9362 33.6457 38.0063 34.0806 37.838C35.1189 37.4592 36.129 37.0242 37.1251 36.5613C37.1953 36.5332 37.2794 36.5192 37.3496 36.4911C37.8266 36.2807 38.3036 36.1123 38.7666 35.8738C39.2717 35.6914 39.7627 35.4529 40.2538 35.2425C41.1517 34.8636 42.0636 34.5269 42.9054 34.0359C43.1439 33.8956 43.3684 33.9377 43.5929 34.1201C43.9997 34.4568 44.1541 34.4147 44.3785 33.9517C44.5188 33.6571 44.7433 33.4607 45.052 33.3344C45.2344 33.2502 45.4027 33.166 45.5851 33.0819C46.2024 32.7872 46.2164 32.8013 46.4549 33.4607C47.0582 35.1583 47.7317 36.8138 48.4051 38.4833C48.7278 39.2971 49.0505 40.1248 49.3591 40.9526C49.5415 41.4156 49.5275 41.4436 49.0645 41.598C48.5875 41.8224 48.1245 42.1311 47.5493 42.0609C47.4932 42.0609 47.437 42.075 47.3949 42.0469C47.0161 41.7944 46.8057 42.075 46.5251 42.2574C46.2164 42.4678 45.8657 42.6081 45.5149 42.7484C45.2203 42.7765 44.9958 42.9729 44.7293 43.0851C42.8493 43.9129 40.9693 44.7547 39.1033 45.5965C38.7105 45.7648 38.6965 45.863 38.935 46.1857C39.4681 46.9012 40.1275 47.5185 40.5484 48.3323C41.4042 50.0018 41.5165 51.7556 41.2499 53.5654C41.2218 53.7758 41.1938 53.9863 41.1517 54.1827C41.0254 54.7579 40.7588 54.9964 40.1696 54.9824C38.963 54.9684 37.7705 54.9403 36.5639 54.9123C36.2693 54.9123 35.9606 54.9123 35.666 54.8982C35.2311 54.8842 34.8383 54.9824 34.4594 55.249C33.7018 55.7681 32.818 56.0347 31.9341 56.2451C31.6254 56.3854 31.3027 56.3293 30.9941 56.3293C30.6714 56.203 30.3207 56.2732 29.9839 56.217C28.9738 56.0767 28.0618 55.6138 27.1359 55.277C26.6027 55.0806 26.0556 54.9964 25.4944 54.9964C21.9028 54.9964 18.2971 54.9964 14.7055 54.9964C13.6111 54.9964 13.527 54.8982 13.6813 53.832C13.7234 53.5093 13.7655 53.1866 13.8075 52.8639C13.9058 52.1624 14.2986 51.7135 15.0001 51.517C15.5613 51.3627 16.1225 51.1944 16.7538 51.026C16.375 50.7875 16.0383 50.6051 15.7296 50.3806C15.0983 49.9177 14.7756 48.9215 14.972 48.1639C15.1544 47.4344 15.5473 46.8311 16.0383 46.2839C17.2729 44.8809 18.8302 43.955 20.4577 43.0851C21.5941 42.4818 22.7586 41.9627 23.9371 41.4577C24.386 41.2753 24.7368 41.0227 24.835 40.4756C24.9051 40.0407 25.2559 39.7601 25.6768 39.6057C27.1499 39.0586 28.6371 38.5114 30.1102 37.9502C30.3908 37.852 30.6574 37.7257 30.938 37.6135C31.0783 37.4451 31.3589 37.5995 31.5412 37.4732Z" fill="#F2D31A"/>
<path d="M5.51594 27.0913C5.81057 27.0632 6.04907 27.2176 6.24549 27.442C6.35773 27.5543 6.55415 27.7086 6.38579 27.8629C6.21743 28.0173 6.00699 28.2137 5.72639 28.0313C5.65624 27.9892 5.60012 27.9471 5.52997 27.9191C5.38967 27.8629 5.24937 27.891 5.13714 28.0032C5.03893 28.1014 4.99684 28.2137 5.05296 28.354C5.2634 28.8591 5.47385 29.3641 5.6843 29.8692C5.75445 30.0516 5.89474 30.1217 6.09116 30.0937C6.28758 30.0656 6.41385 29.9534 6.41385 29.757C6.42788 29.5185 6.55415 29.3922 6.7646 29.3501C7.12937 29.2659 7.17146 29.0274 7.11534 28.7047C7.03116 28.1295 6.97504 27.5403 6.87683 26.965C6.82071 26.6003 7.01713 26.474 7.31176 26.3337C7.62041 26.1934 7.70459 26.4319 7.83086 26.6003C8.40609 27.428 8.98131 28.2558 9.5425 29.0835C9.62668 29.2098 9.8231 29.3782 9.58459 29.5044C9.38817 29.6026 9.13563 29.8692 8.91116 29.5185C8.78489 29.308 8.65862 29.1817 8.37802 29.294C8.11146 29.3922 7.95713 29.5044 7.98519 29.8271C8.01325 30.1919 7.60638 30.4023 7.29773 30.2059C7.12937 30.0937 7.12937 30.248 7.08728 30.3041C6.84877 30.5988 6.59624 30.8513 6.2034 30.8934C5.544 30.9776 5.19325 30.7671 4.91266 30.1358C4.71624 29.6868 4.51982 29.2238 4.33743 28.7608C4.00072 27.8489 4.53385 27.0913 5.51594 27.0913Z" fill="#F2D11C"/>
<path d="M16.2487 25.6461C16.1365 25.127 16.0664 24.6079 15.912 24.1028C15.8278 23.8082 15.9681 23.71 16.2207 23.6398C16.5013 23.5697 16.6135 23.6819 16.6696 23.9485C16.8801 24.9025 17.1186 25.8565 17.329 26.7965C17.3711 26.9649 17.4834 27.1613 17.2168 27.2595C16.9783 27.3437 16.7258 27.47 16.5153 27.1753C16.1926 26.7264 15.8559 26.3055 15.5332 25.8565C15.4911 25.8004 15.4771 25.7443 15.3508 25.7303C15.4771 26.2213 15.6174 26.6843 15.7437 27.1613C15.8419 27.5401 15.7577 27.6524 15.407 27.7085C15.1684 27.7506 15.0843 27.6383 15.0422 27.4279C14.8177 26.4458 14.5792 25.4777 14.3407 24.4956C14.2986 24.3273 14.2144 24.1449 14.467 24.0747C14.7055 24.0046 14.944 23.8362 15.1684 24.1449C15.5052 24.678 15.884 25.155 16.2487 25.6461Z" fill="#F2CF1B"/>
<path d="M10.9174 27.1473C10.7491 26.6843 10.5947 26.2213 10.4264 25.7583C10.3422 25.5058 10.272 25.2953 10.6368 25.1831C10.9876 25.0709 11.0577 25.2392 11.1419 25.5198C11.4225 26.4318 11.7311 27.3297 12.0258 28.2276C12.0819 28.3959 12.1941 28.5924 11.9556 28.7046C11.7311 28.8028 11.4786 28.9431 11.2541 28.6625C10.9314 28.2697 10.5947 27.8909 10.258 27.5121C10.2019 27.4559 10.1598 27.3998 10.0476 27.3858C10.0897 27.8909 10.3562 28.2977 10.4825 28.7607C10.5386 28.9712 10.6088 29.1535 10.3141 29.2658C10.0195 29.378 9.87921 29.378 9.76697 28.9992C9.51444 28.1013 9.17772 27.2174 8.89712 26.3195C8.841 26.1371 8.65862 25.8846 8.9813 25.7443C9.27593 25.618 9.51443 25.6321 9.73891 25.9127C10.1037 26.3476 10.4965 26.7544 10.8753 27.1753C10.8753 27.1613 10.8894 27.1473 10.9174 27.1473Z" fill="#F3D01D"/>
<path d="M30.9941 71.3553C30.9099 71.6218 30.8117 71.8884 30.7275 72.155C30.4469 72.6039 30.1242 72.9827 29.521 72.9406C29.2123 72.9126 28.9598 72.8144 28.8475 72.4917C28.7914 72.3093 28.8335 72.155 28.9598 72.0287C29.058 71.9305 29.1983 71.9165 29.3245 71.9586C29.5069 72.0147 29.549 72.155 29.5631 72.3233C29.5631 72.4075 29.521 72.5198 29.6332 72.5618C29.7454 72.6039 29.8296 72.5338 29.9138 72.4636C30.1663 72.2392 30.3908 71.215 30.2645 70.9063C30.2084 70.7801 30.1523 70.8081 30.0541 70.8502C29.3105 71.0887 29.0019 70.9204 28.7914 70.1627C28.609 69.5174 28.6792 68.886 28.9738 68.2968C29.3666 67.5111 30.1944 67.5111 30.7696 68.2968C31.0362 68.5493 31.0783 68.886 31.0923 69.2227C31.1063 69.4472 31.0783 69.6577 31.1484 69.8821C31.2045 70.3592 31.2186 70.8783 30.9941 71.3553Z" fill="#F8F7F7"/>
<path d="M25.7189 24.7763C25.7329 25.604 25.2419 26.1091 24.5123 26.1371C23.8529 26.1652 23.3619 25.7162 23.2917 25.0148C23.2356 24.4957 23.1795 23.9766 23.1514 23.4574C23.1234 22.9945 23.2917 22.5876 23.7267 22.3771C24.2037 22.1386 24.6947 22.1667 25.1437 22.4473C25.4383 22.6297 25.4804 22.9664 25.5646 23.261C25.5786 23.3172 25.5786 23.3873 25.5926 23.4574C25.6347 23.9345 25.6768 24.4115 25.7189 24.7763Z" fill="#F7CE1B"/>
<path d="M25.9714 22.8261C25.9714 22.7139 25.9714 22.5876 25.9714 22.4754C25.9574 22.2649 26.0416 22.1527 26.2661 22.1386C26.5326 22.1246 26.7852 22.0825 27.0517 22.0825C28.0478 22.0825 28.6792 23.1067 28.1461 23.9765C27.8935 24.3974 27.9917 24.664 28.2302 24.9867C28.3004 25.0849 28.3705 25.1831 28.3986 25.2953C28.4266 25.4356 28.7072 25.5619 28.4828 25.7303C28.2443 25.8986 27.8795 25.8285 27.7392 25.604C27.5849 25.3515 27.4586 25.0989 27.3043 24.8604C27.2481 24.7622 27.164 24.65 27.0237 24.678C26.8693 24.7201 26.8834 24.8745 26.8974 25.0007C26.9114 25.1691 26.9395 25.3374 26.9535 25.5058C26.9675 25.7162 26.9535 25.8986 26.6729 25.9127C26.3923 25.9267 26.2099 25.8706 26.1959 25.5479C26.1678 25.141 26.1398 24.7482 26.1117 24.3413C26.0837 23.8362 26.0556 23.3312 26.0275 22.8121C25.9714 22.8261 25.9714 22.8261 25.9714 22.8261Z" fill="#F5CE22"/>
<path d="M11.7452 25.8567C11.7311 25.0008 12.0959 24.594 12.7834 24.4677C13.3446 24.3695 13.8777 24.6782 14.0461 25.2674C14.2425 25.8988 14.5231 26.5161 14.509 27.2035C14.495 27.8349 14.1302 28.1996 13.3726 28.3259C12.9096 28.4101 12.3765 28.0874 12.2082 27.5964C12.0398 26.951 11.7873 26.3337 11.7452 25.8567Z" fill="#F4CE22"/>
<path d="M19.3774 26.8667C19.0547 26.8807 18.7882 26.7685 18.5777 26.5159C18.4374 26.3476 18.2691 26.1652 18.4094 25.9267C18.5076 25.7583 18.9986 25.7864 19.181 25.9828C19.3634 26.1792 19.5458 26.1371 19.7001 26.0109C19.8685 25.8565 19.8264 25.6601 19.6861 25.4918C19.5738 25.3655 19.4055 25.3094 19.2511 25.2392C19.0407 25.141 18.8162 25.0568 18.6058 24.9446C18.1989 24.7201 18.0025 24.2852 18.0586 23.8222C18.1007 23.4855 18.4514 23.1207 18.7882 23.0365C19.2792 22.9103 19.8264 23.0646 20.0649 23.4154C20.1631 23.5557 20.2613 23.7521 20.121 23.8783C19.9526 24.0327 19.7001 24.0186 19.4896 23.9625C19.4195 23.9485 19.3634 23.8643 19.3073 23.8222C19.167 23.724 19.0407 23.738 18.9285 23.8643C18.8022 24.0046 18.8723 24.1449 18.9705 24.2571C19.0968 24.4115 19.2792 24.4956 19.4756 24.5518C19.7141 24.6219 19.9526 24.7201 20.149 24.8604C20.612 25.1971 20.7523 25.6601 20.584 26.2073C20.4296 26.5721 19.9246 26.8667 19.3774 26.8667Z" fill="#F4CE1F"/>
<path d="M22.9129 23.9346C22.927 24.6501 22.6604 25.0009 21.9589 25.1552C21.6783 25.2113 21.4959 25.2955 21.6222 25.6322C21.6783 25.7865 21.6502 25.9689 21.6643 26.1373C21.6923 26.4038 21.524 26.46 21.2995 26.488C21.075 26.5161 20.9628 26.46 20.9347 26.2214C20.7944 25.1832 20.6261 24.1591 20.4858 23.1349C20.4717 22.9946 20.4577 22.8262 20.6541 22.7982C21.075 22.728 21.4959 22.6158 21.9308 22.6579C22.5481 22.714 22.9129 23.191 22.9129 23.9346Z" fill="#F3CF1C"/>
<path d="M27.8514 70.0505C27.8514 70.6959 27.8514 71.3272 27.8514 71.9726C27.8514 72.1971 27.8654 72.3935 28.0899 72.5057C28.1741 72.5478 28.2302 72.618 28.2162 72.7302C28.1881 72.8565 28.0899 72.8845 27.9777 72.8845C27.641 72.8845 27.3043 72.8845 26.9535 72.8845C26.8413 72.8845 26.7431 72.8565 26.715 72.7302C26.6869 72.632 26.7431 72.5478 26.8272 72.5057C27.0798 72.3935 27.0938 72.183 27.0938 71.9445C27.0938 70.8923 27.0938 69.826 27.0938 68.7738C27.0938 68.5634 27.0798 68.381 26.7992 68.381C26.701 68.381 26.6168 68.3529 26.6028 68.2407C26.5887 68.1425 26.6449 68.0583 26.729 68.0162C26.7571 68.0022 26.7992 67.9741 26.8272 67.9601C27.6831 67.4971 27.8514 67.5813 27.8514 68.5353C27.8514 69.0263 27.8514 69.5314 27.8514 70.0505Z" fill="#FBF5F4"/>
<path d="M30.012 21.9844C30.2786 21.9703 30.6574 21.7879 30.6714 22.293C30.6714 22.5035 30.6153 22.6578 30.3627 22.6438C30.012 22.6297 29.9418 22.8262 29.9559 23.1348C29.9839 23.8644 29.9699 24.5939 29.998 25.3235C30.012 25.6321 29.8717 25.6882 29.6051 25.7023C29.3245 25.7163 29.2123 25.6321 29.1983 25.3375C29.1702 24.5658 29.2404 23.7942 29.1421 23.0366C29.1141 22.7841 29.0439 22.6718 28.7914 22.7139C28.4968 22.756 28.4126 22.6017 28.3986 22.3211C28.3986 22.0265 28.5529 21.9703 28.7914 21.9844C29.1983 21.9844 29.6051 21.9844 30.012 21.9844Z" fill="#F5CE1E"/>
<path d="M31.5413 37.4733C31.3729 37.6697 31.1344 37.6136 30.938 37.6697C30.938 33.7694 30.938 29.8692 30.924 25.9829C30.924 25.8847 30.9099 25.7724 30.9941 25.6883C31.2046 25.562 31.4431 25.548 31.6956 25.562C31.6956 25.7023 31.6395 25.8426 31.4852 25.8426C31.1344 25.8286 31.1625 26.039 31.1625 26.2775C31.1625 29.8832 31.1625 33.4888 31.1625 37.0805C31.1485 37.3611 31.2326 37.5014 31.5413 37.4733Z" fill="#6D4D41"/>
<path d="M31.6815 25.5478C31.4711 25.7302 31.2186 25.6601 30.98 25.6741C30.8959 25.5338 30.9099 25.3795 30.9099 25.2251C30.8818 24.2571 30.966 23.275 30.8538 22.3069C30.8397 22.1807 30.8959 22.0544 30.9239 21.9281C31.0221 21.9281 31.1063 21.9281 31.2045 21.9141C31.5833 21.886 31.6956 22.0404 31.6815 22.4192C31.6675 23.4574 31.6815 24.5096 31.6815 25.5478Z" fill="#EECD22"/>
<path d="M30.9801 56.3855C31.2887 56.2592 31.6114 56.3153 31.9201 56.3013C31.8499 56.4837 31.6956 56.4696 31.5553 56.4556C31.3028 56.4416 31.2186 56.5258 31.2046 56.7783C31.1905 58.2655 31.1064 59.7526 31.1625 61.2398C31.2046 62.3481 31.2046 63.4565 31.2046 64.5648C31.1484 64.7192 31.1765 64.9016 31.1484 65.0559C31.1344 65.126 31.1064 65.2242 31.0362 65.2383C30.952 65.2523 30.8959 65.1681 30.8678 65.098C30.7977 64.9436 30.6995 64.8034 30.7837 64.621C31.0222 64.6069 30.9941 64.4386 30.9941 64.2842C30.9801 63.1759 30.938 62.0675 30.952 60.9592C30.9661 59.6404 30.9801 58.3216 30.9941 57.0168C30.9941 56.8204 30.8959 56.5959 30.9801 56.3855Z" fill="#5B5B4E"/>
<path d="M30.7836 64.6351C30.8538 64.8175 30.938 65.0139 31.0081 65.1963C31.2466 65.0139 30.8538 64.6772 31.2186 64.5649C31.2466 64.579 31.2747 64.607 31.3027 64.6211C31.3729 64.6772 31.3869 64.7614 31.3729 64.8315C31.3729 64.8596 31.3589 64.8876 31.3589 64.9017C31.3589 64.9157 31.3308 64.9858 31.3869 64.9297C31.4571 64.8596 31.4851 64.7193 31.6114 64.7754C31.7096 64.8175 31.7096 64.9437 31.7236 65.056C31.7517 65.4488 31.6956 65.8417 31.7938 66.2205C31.8218 66.3187 31.7657 66.4028 31.6395 66.3187C31.5272 66.2205 31.5272 66.024 31.3729 65.9679C31.1765 65.9679 31.4009 66.3467 31.0923 66.2345C31.0502 66.1924 31.0362 66.1503 31.0081 66.1082C30.952 65.8978 30.8818 65.6873 30.8257 65.4769C30.7415 65.3506 30.6714 65.3226 30.6433 65.5049C30.6153 65.7014 30.6433 65.8978 30.6293 66.0942C30.6293 66.2064 30.6714 66.3467 30.503 66.3748C30.3487 66.4029 30.1804 66.4028 30.0962 66.2205C29.998 66.024 29.998 65.8136 30.0401 65.6172C30.0821 65.4067 30.0962 65.2103 30.0821 64.9999C30.0541 64.5649 30.0541 64.5649 30.489 64.579C30.5592 64.579 30.6153 64.579 30.6714 64.607C30.7275 64.6211 30.7556 64.6351 30.7836 64.6351Z" fill="#F3EDEB"/>
<path d="M30.6854 64.621C30.5872 64.621 30.503 64.635 30.4048 64.621C30.2224 64.607 30.0962 64.6491 30.1663 64.8876C30.2365 65.1541 30.1944 65.4347 30.1383 65.7013C30.1102 65.8416 30.1242 65.9959 30.1383 66.1362C30.1523 66.2906 30.2505 66.3607 30.4189 66.3467C30.5872 66.3327 30.5872 66.2204 30.5872 66.0941C30.5872 65.8837 30.5872 65.6733 30.5872 65.4628C30.5872 65.3927 30.6153 65.2944 30.7135 65.3085C30.7977 65.3225 30.8257 65.4067 30.7977 65.4909C30.5451 65.6031 30.6854 65.8276 30.6714 65.9959C30.6574 66.4028 30.5732 66.501 30.1944 66.4028C30.0401 66.3607 29.8998 66.3467 29.7454 66.4168C29.5911 66.487 29.4087 66.4729 29.2965 66.2906C29.2544 66.2064 29.2263 66.1082 29.2965 66.038C29.4087 65.9258 29.4368 66.0661 29.4929 66.1362C29.535 66.2064 29.5771 66.2765 29.6753 66.2344C29.7735 66.1924 29.8016 66.0941 29.7875 66.01C29.7595 65.7855 29.6192 65.6312 29.4789 65.4768C29.2684 65.2524 29.1983 64.9998 29.3526 64.7333C29.4789 64.4947 29.7174 64.5509 29.9419 64.5789C30.1944 64.607 30.461 64.4106 30.6854 64.621Z" fill="#EEB5B4"/>
<path d="M31.0081 66.1221C31.0362 66.1501 31.0642 66.1782 31.1063 66.2063C31.1063 66.3045 31.2606 66.2764 31.2466 66.3886C31.1344 66.8376 31.1765 67.3006 31.1765 67.7495C31.1765 67.8898 31.1484 68.0442 31.3448 68.1003C31.429 68.3107 31.3869 68.5212 31.3308 68.7316C31.1765 68.8579 31.2045 69.0262 31.1905 69.1946C31.1765 69.391 31.2606 69.6155 31.0783 69.7839C31.0362 69.2648 30.9941 68.7456 30.7836 68.2546C31.0081 68.2265 31.0081 68.0582 31.0081 67.8758C30.9941 67.3006 31.0081 66.7113 31.0081 66.1221Z" fill="#5E6151"/>
<path d="M54.7887 32.8996C55.7988 32.8996 56.5564 33.6291 56.5564 34.6252C56.5564 35.6073 55.7848 36.379 54.7887 36.3649C53.8066 36.3649 53.063 35.6073 53.049 34.6252C53.0349 33.7834 53.8627 32.7873 54.7887 32.8996Z" fill="#F3D318"/>
<path d="M51.5057 34.3025C51.4917 35.2846 50.6779 36.0984 49.6678 36.0282C48.812 35.9721 47.9842 35.3548 48.0123 34.2043C48.0403 33.2784 48.84 32.4927 49.752 32.5207C50.7761 32.5628 51.5197 33.3204 51.5057 34.3025Z" fill="#F4D21B"/>
<path d="M52.0669 39.8582C51.0708 39.8582 50.3131 39.1006 50.3131 38.1045C50.3272 37.3188 50.9866 36.4209 52.0248 36.4209C53.063 36.4349 53.8206 37.1084 53.8066 38.2027C53.8066 38.9884 53.1612 39.9143 52.0669 39.8582Z" fill="#F3D21A"/>
<path d="M36.0308 70.275C36.0448 70.8362 36.0027 71.3974 35.8624 71.9445C35.8063 72.141 35.7362 72.3234 35.6239 72.4777C35.175 73.1231 34.4735 73.095 34.0807 72.4216C33.8983 72.1269 33.8001 71.8042 33.758 71.4675C33.6177 70.4434 33.6036 69.4332 33.9684 68.4511C34.1227 68.0443 34.3472 67.6795 34.8523 67.6935C35.3574 67.7075 35.6239 68.0302 35.7783 68.4651C36.0168 69.0544 36.0589 69.6577 36.0308 70.275Z" fill="#F5FAFA"/>
<path d="M45.2624 26.2353C45.3326 25.6601 45.5009 24.9446 45.7956 24.2711C45.9779 23.8362 46.4129 23.6398 46.932 23.71C47.4932 23.7941 47.9141 24.1168 47.9562 24.5658C48.0544 25.4637 47.7878 26.3055 47.409 27.0911C47.1985 27.5401 46.5953 27.6523 46.02 27.4699C45.515 27.3156 45.2484 26.9368 45.2624 26.2353Z" fill="#EDD31E"/>
<path d="M55.9952 27.4419C55.8269 28.2557 55.5884 29.0413 55.0693 29.6867C54.7466 30.0936 54.2415 30.0374 53.7925 29.8831C52.8946 29.5885 52.8806 29.5745 53.2033 28.6906C53.4979 27.9049 53.8346 27.1473 54.1433 26.3616C54.2134 26.2073 54.2976 26.053 54.48 26.1231C54.929 26.2915 55.42 26.3757 55.7427 26.7685C55.911 26.9789 56.0233 27.1894 55.9952 27.4419Z" fill="#F0D11C"/>
<path d="M47.872 27.0632C47.9281 26.502 48.1806 25.8987 48.349 25.2674C48.4191 25.0148 48.5033 24.7763 48.5735 24.5238C48.6717 24.2292 48.8541 24.2572 49.1066 24.3274C49.3872 24.4116 49.4012 24.5799 49.3311 24.8044C49.1206 25.5059 48.8821 26.1933 48.6857 26.8948C48.5735 27.2877 48.7979 27.5121 49.1627 27.4139C49.3451 27.3718 49.4012 27.2315 49.4433 27.0772C49.6257 26.4318 49.8221 25.8005 50.0045 25.1551C50.0747 24.9026 50.1448 24.636 50.5236 24.7342C50.8042 24.8044 50.9305 24.9587 50.8323 25.2533C50.5797 26.039 50.3412 26.8247 50.0606 27.5963C49.8782 28.0874 49.3732 28.3399 48.8541 28.2277C48.2648 28.1154 47.886 27.7086 47.872 27.0632Z" fill="#EED120"/>
<path d="M51.2672 27.7366C51.183 27.9891 51.1129 28.2276 51.0287 28.4802C50.9585 28.7327 50.8042 28.7888 50.5517 28.7187C50.2991 28.6485 50.2009 28.5503 50.2991 28.2837C50.6499 27.3157 50.9726 26.3476 51.3233 25.3796C51.4636 24.9587 51.7863 25.2673 52.0248 25.2252C52.1511 25.2814 52.1791 25.3796 52.1932 25.5058C52.2353 26.039 52.2773 26.5861 52.3615 27.1052C52.6141 26.8387 52.5579 26.4178 52.7684 26.1091C52.8245 26.039 52.8666 25.9548 52.9227 25.8846C53.063 25.7443 53.2314 25.7303 53.3857 25.8145C53.54 25.8846 53.54 26.039 53.54 26.1933C53.54 26.2634 53.526 26.3196 53.4979 26.3757C53.1332 27.1754 52.9227 28.0172 52.6141 28.8309C52.5299 29.0413 52.4878 29.2658 52.1791 29.2378C51.8564 29.2237 51.8144 28.9852 51.7863 28.7467C51.7161 28.2837 51.6741 27.8208 51.646 27.3437C51.646 27.2455 51.6881 27.1052 51.5338 27.1052C51.4215 27.1052 51.3935 27.2315 51.3935 27.3016C51.3654 27.4419 51.2953 27.5822 51.2672 27.7366Z" fill="#EED11C"/>
<path d="M45.052 26.3617C45.066 27.0492 44.9818 27.1614 44.575 27.0773C44.3645 27.0352 44.2523 26.9229 44.2804 26.6985C44.3084 26.4319 44.1681 26.3337 43.9156 26.2916C43.6911 26.2635 43.4947 26.1934 43.3824 26.502C43.2842 26.7546 42.8633 26.7967 42.6389 26.6423C42.5266 26.5582 42.5827 26.488 42.6108 26.4038C43.0878 25.3797 43.5648 24.3555 44.0418 23.3313C44.1541 23.1068 44.3645 23.191 44.5329 23.2191C44.7012 23.2471 44.9117 23.2752 44.9257 23.5277C44.9398 23.7662 44.9678 23.9907 44.9678 24.2292C44.9678 24.9728 44.9538 25.7304 45.052 26.3617Z" fill="#EFD217"/>
<path d="M58.4505 27.9891C58.4505 28.3679 58.1839 28.5363 57.9033 28.4241C57.777 28.3679 57.6367 28.3118 57.5105 28.2417C57.2299 28.1014 57.0755 28.2276 56.9633 28.4802C56.823 28.7608 57.0194 28.859 57.2018 28.9572C57.3 29.0133 57.4123 29.0414 57.5245 29.0835C57.7209 29.1676 57.8051 29.2939 57.6928 29.5184C57.5806 29.7429 57.4263 29.8411 57.1878 29.7288C57.1317 29.7008 57.0755 29.6587 57.0194 29.6306C56.5985 29.4062 56.4582 29.4623 56.332 29.9253C56.2758 30.1217 56.3179 30.2199 56.5003 30.29C56.6687 30.3602 56.823 30.4444 56.9914 30.5285C57.1878 30.6267 57.314 30.725 57.2018 30.9775C57.1036 31.202 56.9773 31.3142 56.7248 31.1879C56.3039 30.9915 55.869 30.8232 55.4481 30.6127C55.2096 30.5005 55.3218 30.3041 55.392 30.1357C55.7567 29.336 56.1075 28.5363 56.4723 27.7506C56.7809 27.1053 56.7949 27.1053 57.4824 27.4139C57.7349 27.5262 57.9875 27.6384 58.226 27.7647C58.3382 27.8208 58.4505 27.905 58.4505 27.9891Z" fill="#EED220"/>
<path d="M37.1111 25.5198C36.5639 26.0109 35.9045 25.8285 35.2732 25.8144C35.1048 25.8144 35.0768 25.604 35.0908 25.4777C35.1329 24.9727 35.189 24.4676 35.2311 23.9625C35.3574 23.724 35.3012 23.4715 35.3153 23.233C35.3153 23.1488 35.3153 23.0786 35.3153 22.9945C35.3293 22.2228 35.8344 21.9001 36.5639 22.1807C37.2935 22.4473 37.518 23.0646 37.4338 23.6959C37.3777 24.187 37.3777 24.678 37.2935 25.1691C37.2935 25.3094 37.2233 25.4356 37.1111 25.5198Z" fill="#EED21E"/>
<path d="M31.2887 68.7036C31.2326 68.4932 31.2747 68.2968 31.3308 68.1004C32.0744 67.469 32.9302 67.5813 33.295 68.3529C33.5055 68.8299 33.3932 69.3911 32.9443 69.7699C32.6637 69.9944 32.7058 70.1207 32.9723 70.3171C33.4914 70.7099 33.6458 71.4395 33.3932 72.0848C33.1687 72.632 32.6356 72.9687 32.0323 72.9547C31.7237 72.9407 31.4852 72.8144 31.2607 72.618C31.1064 72.3093 31.0222 72.0007 31.3308 71.7201C31.6816 71.5377 31.9061 71.6639 31.9622 72.0708C31.9762 72.2111 31.9061 72.4216 32.1586 72.4216C32.369 72.4356 32.4532 72.2672 32.5093 72.1129C32.6777 71.6639 32.6496 71.215 32.5234 70.766C32.4672 70.5556 32.2849 70.4714 32.1305 70.3592C31.8078 70.1487 31.8078 69.9663 32.1305 69.7419C32.5234 69.4753 32.6917 68.9141 32.5093 68.4651C32.4532 68.3389 32.3831 68.2266 32.2287 68.2407C32.0744 68.2547 32.0884 68.395 32.0604 68.5072C31.9481 68.9141 31.6675 69.0684 31.387 68.886C31.3028 68.8299 31.2747 68.7738 31.2887 68.7036Z" fill="#F2F9F9"/>
<path d="M32.1866 23.8504C32.1866 23.3733 32.1866 22.8823 32.1866 22.4053C32.1866 22.0545 32.3269 21.9002 32.6777 21.9283C33.0004 21.9563 33.3371 21.9563 33.6598 21.9423C33.9544 21.9283 34.0526 22.0405 34.0526 22.3211C34.0526 22.6017 33.9684 22.742 33.6738 22.6999C33.5756 22.6859 33.4634 22.6999 33.3652 22.6859C33.0846 22.6438 32.9583 22.756 32.9302 23.0366C32.9162 23.3313 33.0565 23.4435 33.3231 23.4575C33.4072 23.4575 33.5055 23.4716 33.5896 23.4716C33.8141 23.4575 33.9263 23.5277 33.9263 23.7802C33.9263 24.0047 33.8562 24.159 33.6177 24.1871C33.6037 24.1871 33.5896 24.1871 33.5756 24.1871C32.9302 24.2853 32.9302 24.2853 32.9162 24.9447C32.9162 25.0569 32.9022 25.1832 32.9162 25.2954C32.9302 25.5901 32.804 25.7023 32.4953 25.7023C32.1866 25.7023 32.1586 25.5339 32.1726 25.2954C32.1726 24.8184 32.1726 24.3274 32.1726 23.8504C32.1586 23.8504 32.1726 23.8504 32.1866 23.8504Z" fill="#E3CE26"/>
<path d="M43.3965 23.0227C43.5368 23.2051 43.3965 23.3313 43.3123 23.4857C43.0177 24.0468 42.7231 24.6221 42.4144 25.1833C42.218 25.534 42.1338 25.9128 42.0917 26.3056C42.0637 26.5862 41.8532 26.5862 41.6568 26.5442C41.4884 26.5161 41.292 26.488 41.3481 26.2355C41.6007 25.2113 41.2639 24.2433 41.1377 23.2471C41.0675 22.6719 41.0675 22.6579 41.6708 22.714C41.8251 22.7701 41.8672 22.8964 41.8813 23.0507C41.8953 23.3734 41.9514 23.6961 42.0777 24.0188C42.2881 23.8083 42.3863 23.5558 42.5126 23.3313C42.7231 22.9104 42.9335 22.8403 43.3965 23.0227Z" fill="#ECD321"/>
<path d="M31.3027 64.8594C31.3027 64.7892 31.3027 64.705 31.3027 64.6349C31.4571 64.5086 31.6675 64.4665 31.7797 64.2701C31.906 64.0456 32.0884 64.1719 32.2147 64.2701C32.355 64.3683 32.4532 64.3823 32.6075 64.2982C32.9302 64.1158 33.2529 64.2701 33.1687 64.6209C33.0565 65.1119 33.323 65.5889 33.1266 66.0659C33.0565 66.2483 33.1968 66.4447 33.2108 66.6411C33.2248 66.7253 33.3651 66.8235 33.2248 66.9077C33.1126 66.9779 32.9723 67.0199 32.86 66.8937C32.6075 66.6131 32.3269 66.5008 31.9481 66.6692C31.7657 66.7534 31.6675 66.5991 31.6254 66.4307C31.7517 66.4026 31.878 66.3746 31.9762 66.2623C31.7096 66.2623 31.6535 66.094 31.6535 65.8835C31.6535 65.6029 31.6535 65.3083 31.6535 65.0277C31.6535 64.8874 31.6394 64.677 31.8359 64.705C32.0183 64.7331 32.3129 64.705 32.3409 65.0137C32.369 65.3083 32.369 65.617 32.355 65.9116C32.3409 66.2483 32.4672 66.4026 32.818 66.3465C32.7618 66.3325 32.846 66.3325 32.832 66.3325C32.369 66.2623 32.4391 65.9537 32.5794 65.6731C32.6496 65.5328 32.7057 65.4907 32.5794 65.3364C32.383 65.0979 32.4812 64.8594 32.7759 64.691C32.4672 64.6489 32.1726 64.705 31.8639 64.6629C31.6394 64.6349 31.5412 64.8874 31.3589 64.9716L31.3308 64.9576C31.2887 64.9155 31.2887 64.8874 31.3027 64.8594Z" fill="#187760"/>
<path d="M37.1111 25.5198C37.1392 25.4216 37.1672 25.3374 37.2093 25.2392C37.3496 24.4816 37.532 23.724 37.3496 22.9664C37.2233 22.4333 36.8165 22.1807 36.2553 22.1527C35.9466 22.1386 35.638 22.2088 35.3293 22.1106C35.3153 21.9422 35.4275 21.9142 35.5538 21.9282C36.101 21.9563 36.6341 21.844 37.1532 22.1948C37.4478 22.3912 37.4478 22.7139 37.7003 22.9383C37.7424 22.6718 37.8126 22.4473 37.9809 22.2509C38.1212 22.0685 38.3036 22.0124 38.458 22.0966C38.8368 22.307 39.2436 22.2088 39.6365 22.2369C39.889 22.2649 40.0433 22.4192 40.0854 22.6437C40.1275 22.8401 40.1696 23.1067 39.8469 23.1628C39.8329 23.1348 39.8189 23.1207 39.8048 23.0927C39.7627 22.5174 39.7627 22.5175 39.1314 22.4894C38.9209 22.4754 38.7245 22.4192 38.5141 22.4052C38.1072 22.3631 38.0932 22.3772 38.0792 22.784C38.0792 22.8822 38.0792 22.9664 38.0651 23.0646C37.9669 23.7661 37.8687 24.4536 37.8126 25.1551C37.7845 25.2813 37.7424 25.4076 37.7144 25.5339C37.6442 25.8004 37.7284 25.9548 38.023 25.9828C38.1493 25.9968 38.3177 25.9548 38.3598 26.1652C38.2335 26.1652 38.0932 26.1652 37.9669 26.1792C37.6021 26.2073 37.3496 26.1512 37.4057 25.6882C37.4759 25.3515 37.2233 25.5479 37.1111 25.5198Z" fill="#367744"/>
<path d="M31.3027 64.8595C31.3168 64.8735 31.3168 64.8735 31.3308 64.8876C31.6815 64.3685 32.2147 64.607 32.6776 64.5509C32.7759 64.5368 32.9021 64.5509 32.9442 64.6631C32.9723 64.7052 32.9582 64.7894 32.9302 64.8455C32.9021 64.9156 32.846 64.8736 32.8039 64.8455C32.7057 64.7894 32.5935 64.7192 32.5794 64.8876C32.5654 65.0138 32.4672 65.1822 32.6636 65.2944C32.9302 65.4488 32.9162 65.4768 32.6636 65.6592C32.4672 65.7995 32.5514 66.01 32.6075 66.1503C32.6776 66.3327 32.7759 66.1783 32.86 66.0941C32.9162 66.024 33.0003 66.01 33.0424 66.1222C33.0845 66.2204 33.0705 66.3467 32.9582 66.3888C32.7618 66.4589 32.5374 66.473 32.3409 66.3888C32.1585 66.3046 32.2568 66.1222 32.2568 65.9679C32.2568 65.7294 32.2147 65.4909 32.2708 65.2664C32.355 64.9156 32.0463 64.9016 31.892 64.7473C31.8218 64.6771 31.7517 64.7894 31.7377 64.8595C31.6815 65.2524 31.6394 65.6452 31.7517 66.024C31.8639 66.4168 32.0042 65.9819 32.1445 66.01C32.1866 66.3747 32.1024 66.4449 31.6394 66.4168C31.6394 66.3888 31.6394 66.3747 31.6394 66.3467C31.6675 66.3327 31.7377 66.3046 31.7377 66.2906C31.5553 65.8276 31.6675 65.3365 31.6254 64.8315C31.4571 64.9297 31.4571 65.1261 31.3448 65.2804C31.3168 65.1261 31.1484 65.0138 31.3027 64.8595Z" fill="#A2D1C5"/>
<path d="M51.2672 27.7366C51.2952 27.5402 51.3093 27.3438 51.3514 27.1614C51.3794 27.0491 51.4215 26.9229 51.5899 26.9509C51.7302 26.979 51.7302 27.0912 51.7161 27.1894C51.7021 27.6243 51.7442 28.0452 51.8003 28.4802C51.8143 28.6485 51.8564 28.8169 51.9126 28.9712C51.9546 29.0975 52.0529 29.1396 52.1932 29.1396C52.3335 29.1396 52.4176 29.0975 52.4597 28.9712C52.7684 28.1154 53.077 27.2736 53.3717 26.4038C53.4278 26.2214 53.5821 25.9829 53.3155 25.8566C53.0349 25.7163 52.9367 25.9969 52.8105 26.1512C52.6982 25.9688 52.8526 25.8285 52.8946 25.6742C53.1612 25.4918 53.3997 25.6041 53.5821 25.7864C53.7925 26.0109 53.5961 26.2354 53.4979 26.4458C53.2033 27.2035 52.9508 27.9611 52.7123 28.7327C52.5299 29.3079 52.3896 29.4061 51.9827 29.2518C51.8003 29.1817 51.7161 29.0694 51.7021 28.873C51.66 28.2978 51.5899 27.7366 51.5338 27.1333C51.3514 27.3157 51.4636 27.6103 51.2672 27.7366Z" fill="#B0C04B"/>
<path d="M35.3293 22.0967C35.7362 22.0265 36.143 22.0406 36.5359 22.1247C37.2093 22.251 37.518 22.6158 37.4899 23.3032C37.4759 23.8644 37.4057 24.4256 37.3496 24.9868C37.3356 25.0991 37.3075 25.1973 37.1953 25.2534C37.2374 24.7623 37.2654 24.2713 37.3216 23.7803C37.4619 22.6579 36.7604 22.1107 35.7221 22.265C35.4275 22.3071 35.4836 22.728 35.3995 22.9665C35.3433 23.1489 35.3854 23.3594 35.3854 23.5558C35.3854 23.7101 35.3714 23.8644 35.2311 23.9767C35.2171 23.3453 35.2451 22.714 35.3293 22.0967Z" fill="#CDCD47"/>
<path d="M39.412 23.1768C39.3138 23.1768 39.2016 23.1909 39.1033 23.1768C38.9069 23.1628 38.8087 23.261 38.7947 23.4434C38.7666 23.6398 38.921 23.6118 39.0472 23.6539C39.2717 23.724 39.4681 23.8362 39.6786 23.9344C39.861 24.0327 39.8189 24.201 39.7908 24.3553C39.7487 24.5518 39.6505 24.7342 39.412 24.7342C39.2296 24.7482 39.0472 24.7482 38.8648 24.7342C38.6965 24.7342 38.6404 24.8183 38.6404 24.9727C38.6404 25.141 38.7105 25.2112 38.8789 25.2112C39.1314 25.1971 39.3699 25.2112 39.5804 25.3655C39.875 25.5759 39.889 25.9127 39.5944 26.1512C39.4822 25.5058 39.4822 25.5058 38.7807 25.4637C38.7105 25.4637 38.6263 25.4497 38.5562 25.4216C38.472 25.3795 38.4299 25.3094 38.4159 25.2252C38.4299 25.0147 38.458 24.8043 38.5141 24.5939C38.5422 24.5518 38.5702 24.5237 38.6123 24.5097C38.8228 24.4395 39.0332 24.4816 39.2436 24.4536C39.3839 24.4395 39.5242 24.4115 39.5102 24.2291C39.4962 24.0327 39.3138 24.0607 39.1735 24.0467C38.5422 23.9625 38.3738 23.6118 38.7105 23.0786C38.935 22.9804 39.2016 22.8542 39.412 23.1768Z" fill="#55883D"/>
<path d="M39.412 23.177C39.1735 23.0367 38.935 23.0788 38.7105 23.177C38.6404 22.8683 38.8228 22.8122 39.0613 22.8543C39.2016 22.8823 39.3419 22.9385 39.4822 22.8964C39.5523 22.8823 39.6084 22.8543 39.6084 22.7701C39.6084 22.6859 39.5383 22.6719 39.4822 22.6579C39.1174 22.6158 38.7526 22.6579 38.4019 22.5176C38.2896 22.4755 38.2756 22.6158 38.2475 22.6999C38.2054 22.8402 38.2195 23.0226 37.995 23.0086C37.995 22.8683 37.995 22.728 37.995 22.5877C38.009 22.3352 38.1353 22.2229 38.4019 22.2791C38.6825 22.3352 38.963 22.3632 39.2436 22.3773C40.0013 22.4194 40.0293 22.4474 39.861 23.1629C39.7066 23.1629 39.5523 23.177 39.412 23.177Z" fill="#B5C44E"/>
<path d="M52.9087 25.6881C52.8806 25.8424 52.8525 25.9968 52.8245 26.1651C52.6702 26.6141 52.5158 27.063 52.3334 27.5821C52.1651 26.8807 52.2212 26.2353 52.123 25.6039C52.109 25.4777 52.0949 25.3514 52.0248 25.2392C52.3054 25.1971 52.2773 25.3935 52.2633 25.5619C52.2633 25.9547 52.3475 26.3475 52.4316 26.7263C52.5018 26.3195 52.614 25.9687 52.9087 25.6881Z" fill="#4A7F42"/>
<path d="M45.515 42.7905C45.9499 42.4257 46.5391 42.3134 46.96 41.8925C47.0161 41.8364 47.1003 41.8645 47.1845 41.9066C47.5773 42.103 47.9421 42.0609 48.335 41.8925C48.5735 41.7803 48.7979 41.654 49.0645 41.626C49.0645 41.9487 48.7558 41.8224 48.6015 41.9206C48.349 42.0749 48.0544 42.2854 47.7738 42.1731C47.0302 41.8785 46.5391 42.3976 45.992 42.6922C45.8236 42.7624 45.6833 42.8185 45.515 42.7905Z" fill="#5D8B3C"/>
<path d="M43.3965 23.0226C42.7371 22.9945 42.7371 22.9945 42.4565 23.6259C42.3583 23.8504 42.246 24.0608 42.0496 24.2993C41.8812 23.9345 41.8672 23.5698 41.8392 23.219C41.8251 23.0366 41.8111 22.8542 41.6708 22.7139C41.783 22.6999 41.8812 22.6999 41.9093 22.8402C41.9233 22.9104 41.8953 23.0086 41.9374 23.0647C42.0356 23.2471 41.8672 23.5557 42.1198 23.6118C42.4144 23.682 42.4004 23.3312 42.5126 23.1629C42.723 22.7981 43.1439 22.728 43.3965 23.0226Z" fill="#58853A"/>
<path d="M38.5421 25.3795C38.7386 25.3936 38.935 25.3795 39.1314 25.4076C39.6926 25.5058 39.7347 25.59 39.5663 26.1652C39.1735 26.3476 38.7806 26.081 38.3878 26.1652C38.3457 26.1371 38.3036 26.1091 38.2475 26.0951C37.546 25.9969 37.4759 25.8846 37.7424 25.2112C37.8126 25.2533 37.8266 25.3374 37.8406 25.4076C37.9389 25.8706 37.9389 25.8846 38.4018 25.8986C38.6263 25.8986 38.8368 25.9127 39.0612 25.9407C39.1735 25.9548 39.3559 26.0109 39.3699 25.8145C39.3839 25.6601 39.2296 25.6601 39.1033 25.6461C38.935 25.6321 38.7666 25.618 38.6123 25.5339C38.5702 25.4918 38.5141 25.4497 38.5421 25.3795Z" fill="#96B145"/>
<path d="M38.7666 35.9019C38.3457 36.2386 37.8687 36.4069 37.3496 36.5192C37.7565 36.1544 38.2756 36.0422 38.7666 35.9019Z" fill="#7B9D47"/>
<path d="M40.2678 35.2705C39.8189 35.6072 39.3278 35.8036 38.7806 35.9018C39.2436 35.6072 39.7206 35.3827 40.2678 35.2705Z" fill="#7B9D47"/>
<path d="M53.5119 26.4599C53.5119 26.4319 53.5119 26.4038 53.526 26.3898C53.6943 25.7724 53.5821 25.6462 52.9087 25.6883C53.0209 25.3936 53.2594 25.5059 53.4137 25.576C53.6101 25.6742 53.8487 25.8145 53.7364 26.1092C53.6943 26.2495 53.6522 26.3898 53.5119 26.4599Z" fill="#4A7F42"/>
<path d="M31.2326 66.3886C31.1625 66.3465 31.0783 66.3185 31.0923 66.2062C31.1204 66.2062 31.1484 66.2203 31.1625 66.2062C31.3028 66.1221 31.1344 65.8134 31.3448 65.8555C31.5272 65.8835 31.5553 66.1501 31.6254 66.3325C31.4711 66.3185 31.4851 66.122 31.3589 66.08C31.2887 66.1782 31.3448 66.3185 31.2326 66.3886Z" fill="#A2D1C5"/>
<path d="M55.2938 17.1299C54.6063 16.3443 53.9469 15.6007 53.3015 14.8431C52.8666 14.338 52.8666 14.324 52.2633 14.5765C51.3233 14.9693 50.3974 15.3762 49.4012 15.7971C49.5135 15.2499 49.8642 14.8992 50.0887 14.4923C50.4114 13.9031 50.7621 13.3419 51.0988 12.7667C51.2111 12.5702 51.183 12.444 51.0427 12.2756C50.3974 11.5461 49.752 10.8025 49.1066 10.0589C49.0084 9.94667 48.9382 9.83443 48.812 9.65205C49.3732 9.6801 49.8362 9.84846 50.2991 9.93264C50.8744 10.0449 51.4496 10.1711 52.0108 10.3395C52.3756 10.4377 52.572 10.3114 52.7403 10.0168C53.1893 9.23115 53.6663 8.44548 54.1293 7.65981C54.1994 7.53354 54.2836 7.43533 54.3958 7.28101C54.6063 7.75802 54.5361 8.221 54.6063 8.66996C54.6905 9.3013 54.7326 9.94667 54.7747 10.578C54.7887 10.9007 54.943 11.0129 55.2517 11.0831C56.2618 11.2935 57.2579 11.532 58.2681 11.7565C58.3242 11.7705 58.3803 11.7986 58.5206 11.8547C58.1699 12.0231 57.8753 12.1634 57.5947 12.2896C56.8651 12.5983 56.1356 12.907 55.392 13.2156C55.1254 13.3279 55.0272 13.4682 55.0693 13.7908C55.1815 14.7028 55.2517 15.6147 55.3218 16.5126C55.3499 16.695 55.3779 16.8774 55.2938 17.1299Z" fill="#F3D31A"/>
<path d="M41.1376 14.4083C40.5765 13.9594 40.0433 13.5525 39.5242 13.1316C39.2015 12.865 38.8789 12.6125 38.5562 12.3319C38.3036 12.1074 38.0792 12.2056 37.8547 12.36C37.0269 12.9632 36.1711 13.4964 35.3012 14.0435C35.2451 14.0716 35.203 14.1277 35.1048 14.0856C35.2311 13.5104 35.4977 12.9632 35.7081 12.4161C35.8905 11.9391 36.0448 11.448 36.2553 10.985C36.3675 10.7325 36.3254 10.5641 36.115 10.4098C35.3293 9.7925 34.5577 9.17519 33.786 8.55788C33.6878 8.48773 33.5054 8.44564 33.5756 8.27728C33.6177 8.16504 33.786 8.22116 33.8983 8.22116C34.8803 8.24922 35.8624 8.27728 36.8305 8.3334C37.1251 8.34743 37.2794 8.23519 37.3777 7.96863C37.7003 7.07072 38.0371 6.18684 38.3738 5.28893C38.4159 5.17669 38.4159 4.9943 38.5842 5.00833C38.7105 5.02236 38.7105 5.19072 38.7386 5.30296C39.0051 6.24296 39.2717 7.18295 39.5242 8.13698C39.5944 8.40355 39.7206 8.48773 39.9872 8.48773C40.9693 8.52982 41.9514 8.57191 42.9194 8.62803C43.0457 8.62803 43.2281 8.57191 43.2702 8.71221C43.3263 8.89459 43.1018 8.90862 42.9896 8.97877C42.2179 9.49787 41.4463 10.003 40.6606 10.508C40.338 10.7044 40.2678 10.9429 40.38 11.2937C40.6466 12.1635 40.8711 13.0474 41.1236 13.9313C41.1657 14.0716 41.2218 14.1979 41.1376 14.4083Z" fill="#F2D31A"/>
<path d="M12.8535 9.90473C12.4607 10.4519 11.9556 10.9008 11.5067 11.4059C11.2121 11.7286 10.9034 12.0513 10.5947 12.374C10.4124 12.5564 10.4685 12.7247 10.5807 12.9071C11.0156 13.6647 11.4365 14.4223 11.8715 15.1799C11.9837 15.3764 12.0959 15.5868 12.138 15.8253C11.7031 15.8534 11.4225 15.5587 11.0858 15.4185C10.4825 15.1799 9.90728 14.8713 9.33206 14.5907C8.98131 14.4223 8.68669 14.4223 8.40609 14.759C7.85893 15.4044 7.26968 16.0077 6.69445 16.639C6.56819 16.7793 6.45595 16.9196 6.31565 17.088C6.16132 16.8635 6.20341 16.6952 6.23147 16.5408C6.3858 15.6289 6.39983 14.6889 6.59624 13.791C6.66639 13.4402 6.49804 13.2719 6.18938 13.1316C5.34759 12.7668 4.5058 12.374 3.66401 11.9952C3.55177 11.9391 3.45357 11.8549 3.27118 11.7426C3.72013 11.5182 4.16909 11.4901 4.58998 11.4059C5.23535 11.2797 5.89475 11.1534 6.54013 11.0271C6.79266 10.985 6.91893 10.8588 6.94699 10.5782C7.05923 9.63816 7.1855 8.68413 7.29774 7.74414C7.31177 7.64593 7.32579 7.53369 7.35385 7.43548C7.40997 7.28115 7.49415 7.29518 7.5643 7.42145C8.01326 8.22115 8.46221 9.00682 8.88311 9.80652C9.24788 10.494 9.33206 10.48 9.9634 10.3397C10.9034 10.1152 11.8715 9.96085 12.8255 9.77846C12.8255 9.83458 12.8395 9.86264 12.8535 9.90473Z" fill="#F4D21A"/>
<path d="M27.6971 8.72622C27.0377 9.24532 26.3923 9.7504 25.7329 10.2555C25.4383 10.4799 25.3681 10.7325 25.5084 11.0973C25.8592 12.0232 26.266 12.9352 26.5466 13.8892C26.5607 13.9313 26.6028 13.9874 26.5326 14.0576C25.9153 13.819 25.3962 13.3561 24.821 13.0193C24.4562 12.8089 24.0914 12.5704 23.7407 12.3179C23.4881 12.1355 23.2917 12.2056 23.0813 12.388C22.3798 12.9632 21.6783 13.5384 20.9768 14.1137C20.8505 14.2119 20.7523 14.3241 20.5559 14.3662C20.5138 14.2119 20.5419 14.0576 20.584 13.9173C20.8365 13.0053 21.075 12.1074 21.3275 11.1955C21.4117 10.8868 21.3135 10.7185 21.0469 10.5501C20.1911 10.0029 19.3493 9.44174 18.5075 8.88055C18.4655 8.85249 18.4374 8.8104 18.3672 8.75428C18.7601 8.57189 19.1529 8.59995 19.5458 8.58592C20.2613 8.54383 20.9768 8.51577 21.7063 8.50174C21.9168 8.50174 22.0571 8.43159 22.1132 8.22115C22.3096 7.50563 22.492 6.79011 22.6884 6.07459C22.7025 5.77996 22.8428 5.52742 22.9129 5.24682C22.941 5.13459 22.9971 5.03638 23.1093 5.03638C23.2356 5.03638 23.2917 5.12056 23.3198 5.2328C23.6004 6.17279 24.0493 7.04264 24.3299 7.98264C24.4001 8.22115 24.5404 8.37547 24.8069 8.34741C25.2419 8.29129 25.6908 8.2913 26.1257 8.23518C26.715 8.16503 27.3183 8.16503 27.9216 8.19309C28.0198 8.19309 28.1039 8.22115 28.132 8.33339C28.146 8.4316 28.0899 8.50174 28.0198 8.57189C27.9216 8.64204 27.7813 8.64204 27.6971 8.72622Z" fill="#F3D21A"/>
<path d="M27.6971 8.72609C27.7111 8.50161 28.0478 8.5437 28.0478 8.2631C27.4025 8.24907 26.7571 8.2631 26.1117 8.30519C25.6628 8.33325 25.1998 8.36131 24.7508 8.4034C24.5123 8.41743 24.3861 8.30519 24.3019 8.10878C23.9652 7.21087 23.6284 6.29893 23.2917 5.40102C23.2496 5.28878 23.2496 5.09236 23.0953 5.10639C22.941 5.10639 22.955 5.30281 22.9129 5.41505C22.8287 5.63953 22.7586 5.84997 22.6744 6.07445C22.5762 5.69565 22.8428 5.37296 22.8568 5.00818C22.8568 4.89595 22.9831 4.81177 23.1234 4.81177C23.2777 4.81177 23.3338 4.924 23.3619 5.03624C23.5864 5.92012 23.9371 6.76191 24.3299 7.57564C24.372 7.65982 24.3861 7.744 24.4001 7.84221C24.4141 8.1649 24.5965 8.27713 24.8911 8.24907C25.284 8.22101 25.6768 8.20698 26.0837 8.13683C26.7431 8.02459 27.4305 8.09474 28.104 8.09474C28.2022 8.09474 28.2863 8.12281 28.2863 8.24907C28.2723 8.41743 28.2162 8.5437 28.0899 8.65594C27.9637 8.75415 27.8234 8.72609 27.6971 8.72609Z" fill="#538944"/>
<path d="M31.2887 68.7037C31.415 68.8861 31.5974 68.9001 31.7657 68.816C31.92 68.7458 31.9762 68.5915 31.9481 68.4231C31.9341 68.2968 31.8639 68.1565 32.0323 68.0864C32.1866 68.0303 32.3409 68.0724 32.4672 68.1986C32.832 68.5634 32.6496 69.6016 32.1866 69.8121C32.0603 69.8682 31.9341 69.9103 31.9481 70.0786C31.9481 70.233 32.0744 70.261 32.1866 70.3031C32.4672 70.4013 32.5935 70.6118 32.6496 70.8783C32.7478 71.3273 32.7478 71.7622 32.5935 72.1831C32.5093 72.4356 32.355 72.59 32.0744 72.5759C31.892 72.5759 31.7938 72.5339 31.8359 72.2953C31.9341 71.8043 31.8078 71.6921 31.3168 71.7201C31.0923 71.7061 31.0221 71.5518 30.9941 71.3694C31.0221 70.8503 31.0502 70.3312 31.0642 69.8121C31.0642 69.5174 31.0923 69.2088 31.0642 68.9142C31.0362 68.6616 31.1765 68.7177 31.2887 68.7037Z" fill="#12765F"/>
<path d="M31.1204 54.6317C29.3386 54.7299 27.9216 54.0284 26.8132 52.6815C26.1258 51.8397 25.7049 50.8576 25.6768 49.7773C25.6347 48.0376 26.4204 46.6627 27.7532 45.5824C28.6511 44.8669 29.6613 44.4039 30.8538 44.5583C30.9801 44.6424 31.0222 44.7547 31.0222 44.895C31.0222 45.4281 31.0783 45.9612 30.9941 46.4944C30.924 46.6487 30.7696 46.6487 30.6293 46.6627C29.4789 46.775 28.6231 47.3502 28.1881 48.4305C27.7532 49.4827 27.9216 50.5069 28.581 51.4048C29.0019 51.9941 29.6332 52.3448 30.3487 52.4991C30.5592 52.5412 30.7556 52.5693 30.9661 52.6254C31.0502 52.6675 31.1204 52.7236 31.1625 52.8078C31.2046 53.4111 31.2607 54.0284 31.1204 54.6317Z" fill="#CB161F"/>
<path d="M21.4398 45.1054C19.4475 45.6947 18.2971 47.1959 17.329 48.8795C17.0204 48.5287 17.0064 47.9816 17.301 47.5045C17.5816 47.0556 18.0025 46.775 18.4093 46.4663C19.4896 45.6526 20.584 44.8389 21.7765 44.1795C22.492 43.7866 23.2637 43.492 24.0353 43.1834C24.2317 43.0992 24.3439 43.1413 24.3019 43.3798C23.9932 45.2457 23.8669 47.1538 22.9269 48.8514C22.492 49.623 21.9869 50.3245 21.1592 50.7314C20.2472 51.1804 19.2652 50.7735 18.6899 50.2824C18.4935 50.1281 18.6338 49.9738 18.718 49.8335C19.3774 48.7392 20.0368 47.6448 20.6822 46.5365C20.9628 46.0875 21.2854 45.6386 21.4398 45.1054Z" fill="#CA181E"/>
<path d="M31.1204 54.6317C31.0222 54.0144 31.1063 53.383 31.0643 52.7517C31.1484 52.6114 31.3028 52.6114 31.4431 52.5693C32.3831 52.3588 33.0565 51.7976 33.5756 50.9979C34.0666 50.2403 34.0386 48.4585 33.3932 47.8693C32.9022 47.28 32.2989 46.8591 31.5272 46.7048C31.3869 46.6768 31.2466 46.6487 31.1484 46.5224C30.938 45.9893 31.0362 45.4562 31.0783 44.923C31.0923 44.6986 31.2607 44.6144 31.4992 44.6003C31.8359 44.5863 32.1586 44.7266 32.4813 44.7547C33.2669 44.923 33.8983 45.372 34.4595 45.9332C36.0589 47.6448 36.6622 49.5529 35.5257 51.8397C35.3433 52.1905 35.0908 52.5132 34.8383 52.8359C33.9263 53.8741 32.7619 54.4353 31.415 54.6317C31.3168 54.6457 31.2186 54.6317 31.1204 54.6317Z" fill="#14775E"/>
<path d="M47.7176 39.0587C47.8018 39.5077 48.0403 39.9145 48.1666 40.3494C48.2928 40.7563 48.1526 41.0088 47.8158 40.9247C46.932 40.7002 46.2725 41.093 45.6973 41.6262C45.066 42.2154 44.2943 42.4539 43.5508 42.7626C42.1618 43.3378 40.7588 43.885 39.3559 44.4321C39.2436 44.4742 39.1314 44.5023 39.0191 44.5444C38.8929 44.6145 38.7385 44.6566 38.6263 44.5444C38.5 44.4181 38.6263 44.2918 38.6684 44.1655C38.7666 43.8709 38.9209 43.6044 38.977 43.2957C38.9911 42.6924 39.0612 42.1032 38.977 41.4999C38.963 41.3596 38.949 41.2193 38.9069 41.079C38.8788 40.9668 38.8367 40.8405 38.949 40.7563C39.0753 40.6581 39.2015 40.7282 39.3138 40.7984C39.5382 40.9387 39.7487 41.079 39.9732 41.2053C40.9552 41.7524 41.6988 41.4999 42.3161 40.5318C42.7651 39.8303 43.4245 39.4515 44.2803 39.4796C44.7012 39.4936 45.1221 39.5357 45.529 39.4094C46.02 39.2411 46.3988 38.8903 46.6934 38.4694C46.7776 38.3572 46.8478 38.2309 46.932 38.1187C47.1143 37.8662 47.1845 37.8802 47.3248 38.1468C47.4651 38.4274 47.5773 38.75 47.7176 39.0587Z" fill="#0E7760"/>
<path d="M38.1774 41.8786C38.2335 42.51 38.0371 43.0852 37.7284 43.6323C37.6863 43.7165 37.6302 43.8007 37.532 43.7867C37.4198 43.7586 37.3777 43.6464 37.3356 43.5482C37.083 42.9589 36.8305 42.3697 36.592 41.7944C36.2833 41.0509 35.9887 40.3073 35.666 39.5637C35.5398 39.2831 35.5117 39.0726 35.8484 38.9464C35.9045 38.9183 35.9607 38.8762 36.0168 38.8482C36.606 38.4834 36.7744 38.5255 37.1392 39.1147C37.7424 40.0547 38.0932 40.9947 38.1774 41.8786Z" fill="#13775B"/>
<path d="M31.0502 41.3735C29.4368 41.3735 28.0338 42.0048 26.729 42.9027C26.4204 43.1132 26.3502 43.0711 26.3081 42.7063C26.1959 41.8365 26.4204 41.3594 27.2341 41.0508C28.4547 40.5738 29.7034 40.1388 30.9801 39.8162C31.0783 39.8583 31.1344 39.9565 31.1484 40.0547C31.2046 40.4896 31.1905 40.9385 31.0502 41.3735Z" fill="#CA151D"/>
<path d="M31.0502 41.3734C30.938 41.0367 31.0642 40.714 31.0783 40.3773C31.0783 40.1809 31.0642 39.9985 30.9941 39.8021C31.0221 39.7881 31.0362 39.774 31.0642 39.76C32.7197 39.1848 32.4953 39.283 33.3791 40.5176C33.758 41.0367 34.1227 41.5558 34.4875 42.0749C34.5717 42.2012 34.698 42.3415 34.5436 42.4958C34.4033 42.6361 34.263 42.5099 34.1508 42.4397C33.2108 41.7803 32.1445 41.5418 31.0502 41.3734Z" fill="#12775A"/>
<path d="M47.7177 39.0586C47.4511 38.7359 47.3809 38.315 47.1284 37.8941C47.0021 38.0905 46.9039 38.2448 46.8197 38.4132C46.3287 39.2269 45.6272 39.6759 44.6872 39.5777C43.4947 39.4654 42.695 39.9565 42.0917 40.9386C41.7129 41.5699 40.8992 41.7663 40.2398 41.4156C39.889 41.2332 39.5523 41.0368 39.2156 40.8403C39.1454 40.7983 39.0893 40.7281 39.0051 40.7842C38.921 40.8403 38.9771 40.9245 38.9771 40.9947C39.0613 41.7523 39.1314 42.4959 39.0051 43.2535C38.9911 43.2956 38.963 43.2956 38.935 43.2675C38.935 42.7624 38.935 42.2433 38.935 41.7383C38.935 41.5278 38.9771 41.3174 38.7666 41.135C38.6263 41.0227 38.6684 40.7842 38.8087 40.672C38.9771 40.5317 39.2436 40.5177 39.3839 40.672C39.6786 41.0227 40.0995 41.0929 40.4923 41.2612C40.8992 41.4296 41.5726 41.3314 41.8251 40.9806C42.0215 40.7141 42.3302 40.5177 42.4003 40.1529C42.4003 40.1248 42.4144 40.0827 42.4284 40.0827C42.9335 39.8863 43.2562 39.3392 43.8595 39.3392C44.2803 39.3392 44.7012 39.3392 45.1081 39.3392C45.4729 39.3251 45.7815 39.2269 46.0481 38.9183C46.3568 38.5675 46.7356 38.3009 46.946 37.866C47.0302 37.7117 47.2406 37.6836 47.3108 37.8801C47.4371 38.2729 47.7036 38.6236 47.7177 39.0586Z" fill="#C8CC48"/>
<path d="M34.8523 52.8499C34.8803 52.5413 35.1189 52.3449 35.2732 52.1204C36.1009 50.8577 36.2553 49.5108 35.7783 48.0798C35.5538 47.3923 35.1048 46.8311 34.6699 46.2559C34.5998 46.1577 34.4454 46.1016 34.4595 45.9473C34.6278 45.9473 34.712 46.0735 34.7962 46.1858C35.638 47.238 36.2412 48.3744 36.1711 49.7634C36.115 50.9138 35.68 51.924 34.9505 52.8219C34.9365 52.8359 34.8803 52.8359 34.8523 52.8499Z" fill="#89A53A"/>
<path d="M32.5654 44.8249C32.2007 44.867 31.878 44.6004 31.4992 44.6706C31.2887 44.6986 31.1625 44.7688 31.1625 44.9652C31.1625 45.4983 31.0783 46.0314 31.2186 46.5505C31.1063 46.6488 31.0081 46.6628 30.9099 46.5225C30.8678 45.8631 30.9801 45.2037 30.8398 44.5583C31.3449 44.4882 31.8359 44.5022 32.3129 44.6706C32.369 44.7828 32.5795 44.6285 32.5654 44.8249Z" fill="#6B5B3A"/>
<path d="M32.5654 44.825C32.4813 44.7689 32.4111 44.7268 32.3269 44.6707C32.9723 44.7268 33.5195 45.0354 33.9965 45.4423C34.1648 45.5826 34.4314 45.6527 34.4595 45.9333C34.1789 45.8772 34.0105 45.6387 33.8141 45.4563C33.4353 45.1477 32.9863 45.0354 32.5654 44.825Z" fill="#89A53A"/>
<path d="M38.9209 43.2816C38.949 43.2816 38.9771 43.2676 38.9911 43.2676C39.0191 43.5903 38.8789 43.8849 38.7386 44.1515C38.5421 44.5303 38.6965 44.5583 39.0051 44.5443C38.8789 44.8109 38.6123 44.7267 38.472 44.6565C38.3036 44.5723 38.458 44.3759 38.5141 44.2497C38.6403 43.9129 38.7947 43.6043 38.9209 43.2816Z" fill="#5E8D3E"/>
<path d="M7.60638 27.5542C7.91504 27.7787 8.04131 28.1014 8.20966 28.396C8.29384 28.5223 8.20966 28.6205 8.06937 28.6626C7.9431 28.7046 7.81683 28.6906 7.78877 28.5363C7.71862 28.1996 7.6625 27.8769 7.60638 27.5542Z" fill="#B64608"/>
<path d="M29.4929 69.4192C29.5069 68.9703 29.4929 68.6336 29.5911 68.3249C29.6332 68.1986 29.6893 68.0864 29.8437 68.0724C30.0261 68.0583 30.1102 68.1566 30.1523 68.3109C30.3066 68.9142 30.3066 69.5315 30.2365 70.1348C30.2225 70.3312 30.0681 70.4154 29.8717 70.4154C29.6613 70.4154 29.549 70.3031 29.535 70.1067C29.5069 69.8401 29.4929 69.5595 29.4929 69.4192Z" fill="#C81F29"/>
<path d="M24.9613 24.7622C24.9893 25.0989 24.849 25.3093 24.5264 25.3374C24.2177 25.3654 24.1055 25.141 24.0774 24.8604C24.0353 24.4114 23.9792 23.9484 23.9371 23.4995C23.909 23.2469 24.0353 23.0505 24.2879 23.0084C24.5825 22.9523 24.7368 23.1628 24.7789 23.4013C24.849 23.8643 24.9052 24.3132 24.9613 24.7622Z" fill="#C91D1A"/>
<path d="M26.7571 23.2752C26.7711 23.0507 26.6869 22.7982 27.0236 22.7982C27.2902 22.7841 27.5287 23.0367 27.5287 23.3734C27.5287 23.668 27.3744 23.8504 27.0938 23.8644C26.6168 23.8644 26.8413 23.4716 26.7571 23.2752Z" fill="#C03013"/>
<path d="M12.5168 25.6601C12.5028 25.4356 12.601 25.2672 12.8255 25.2251C13.05 25.1831 13.2183 25.2813 13.2885 25.4917C13.4849 26.0108 13.6252 26.5299 13.7515 27.0631C13.8076 27.3156 13.6533 27.4138 13.4709 27.498C13.2604 27.5962 13.0921 27.512 13.0079 27.3436C12.7694 26.8105 12.6291 26.2353 12.5168 25.6601Z" fill="#C81E1D"/>
<path d="M21.3416 23.7239C21.3275 23.5836 21.2995 23.3872 21.6081 23.3872C21.9449 23.3872 22.1272 23.5415 22.1413 23.9063C22.1553 24.2571 21.9729 24.4535 21.6362 24.4675C21.4258 24.4956 21.3556 24.3412 21.3416 23.7239Z" fill="#C12A11"/>
<path d="M30.0541 65.5469C29.8577 65.3365 29.6893 65.1962 29.5911 64.9858C29.549 64.9016 29.535 64.7893 29.6192 64.7332C29.7034 64.6771 29.7454 64.8174 29.8016 64.8174C30.2505 64.9296 30.1102 65.2243 30.0541 65.5469Z" fill="#CC161F"/>
<path d="M34.5156 70.275C34.5156 69.7419 34.5015 69.2087 34.5296 68.6756C34.5436 68.4511 34.5296 68.1004 34.8523 68.0863C35.189 68.0723 35.2171 68.4231 35.2311 68.6756C35.2872 69.7699 35.2732 70.8643 35.2311 71.9586C35.2311 71.9726 35.2311 71.9866 35.2311 72.0007C35.175 72.2392 35.189 72.5619 34.8523 72.5478C34.5577 72.5338 34.5296 72.2251 34.5296 72.0007C34.5015 71.4254 34.5156 70.8502 34.5156 70.275Z" fill="#0F765D"/>
<path d="M47.2406 24.9166C47.1565 25.4778 47.0162 26.039 46.8338 26.5721C46.7496 26.8247 46.5251 26.8247 46.3147 26.7686C46.1183 26.7124 46.006 26.5721 46.0341 26.3617C46.1323 25.8145 46.2726 25.2674 46.455 24.7483C46.5392 24.5238 46.6935 24.4817 46.8899 24.5238C47.1003 24.5518 47.2266 24.6781 47.2406 24.9166Z" fill="#1A7757"/>
<path d="M54.3257 29.2238C54.003 29.2379 53.8767 29.0695 53.989 28.7749C54.1714 28.2838 54.3678 27.8068 54.5642 27.3298C54.6343 27.1334 54.7606 27.0071 54.9711 27.1053C55.1675 27.1895 55.2937 27.3719 55.2236 27.5683C55.0412 28.0594 54.8448 28.5364 54.6343 29.0134C54.5782 29.1677 54.4379 29.2098 54.3257 29.2238Z" fill="#207954"/>
<path d="M44.2523 24.6218C44.2663 24.8463 44.3084 25.0848 44.3084 25.3093C44.3084 25.4636 44.2242 25.632 44.0138 25.5759C43.8314 25.5197 43.8314 25.3794 43.9015 25.2251C43.9857 25.0147 44.0138 24.7762 44.2523 24.6218Z" fill="#4E7C2F"/>
<path d="M35.9326 24.5659C35.9606 24.0608 35.9887 23.6539 36.0168 23.233C36.0308 23.0787 35.9887 22.8683 36.2412 22.8542C36.4938 22.8402 36.6762 22.9805 36.6902 23.191C36.7463 23.7662 36.6902 24.3414 36.5499 24.8886C36.4938 25.085 36.3114 25.1551 36.115 25.1271C35.9326 25.099 35.9326 24.9306 35.9326 24.7903C35.9326 24.6781 35.9326 24.5799 35.9326 24.5659Z" fill="#277555"/>
<path d="M38.5421 25.3795C38.7245 25.5338 38.949 25.5478 39.1594 25.5338C39.3979 25.5198 39.5523 25.604 39.5382 25.8565C39.5242 26.1231 39.2997 26.109 39.1314 26.067C38.8648 25.9968 38.5982 26.0108 38.3176 25.9968C37.7424 25.9828 37.7284 25.9547 37.7424 25.3935C37.7424 25.3234 37.7424 25.2673 37.7284 25.1971C37.7565 24.4676 37.8547 23.738 37.9669 23.0084C38.1353 22.7559 38.6403 22.5034 38.949 22.5174C39.1454 22.5174 39.3418 22.5314 39.5382 22.5455C39.6785 22.5455 39.7767 22.6016 39.7627 22.7559C39.7487 22.8962 39.6926 23.0225 39.5242 23.0225C39.3699 23.0225 39.1875 23.0646 39.0612 22.9944C38.8087 22.8541 38.7526 23.0085 38.6824 23.1908C38.472 23.7941 38.5702 23.9204 39.2436 23.9625C39.426 23.9765 39.6224 23.9625 39.6084 24.2431C39.6084 24.4956 39.4962 24.6359 39.2296 24.5938C38.9911 24.5658 38.7526 24.4255 38.5141 24.6079C38.4159 24.8043 38.3878 25.0147 38.4299 25.2392C38.4579 25.2813 38.472 25.3514 38.5421 25.3795Z" fill="#F0D21F"/>
<path d="M38.5421 24.594C38.7666 24.2713 39.0192 24.5098 39.2577 24.58C39.0192 24.58 38.7807 24.58 38.5421 24.594Z" fill="#96B145"/>
<path d="M38.444 25.2112C38.3317 24.9867 38.3457 24.7763 38.5281 24.5798C38.5422 24.8043 38.5281 25.0148 38.444 25.2112Z" fill="#96B145"/>
<path d="M30.9239 46.5366C31.0221 46.5507 31.1344 46.5507 31.2326 46.5647C32.1305 46.691 32.9021 47.0557 33.4353 47.8274C34.2209 49.3286 34.1227 50.4088 33.0705 51.6715C32.5233 52.3309 31.7377 52.5835 30.9099 52.6817C28.4547 52.5694 27.0657 50.0862 28.2863 47.9677C28.7633 47.1259 29.535 46.705 30.489 46.5787C30.6433 46.5506 30.7836 46.5507 30.9239 46.5366Z" fill="#FBD10C"/>
<path d="M30.9099 52.6816C31.1064 52.4571 31.429 52.4291 31.6395 52.415C32.2708 52.3729 32.6637 51.952 33.0144 51.5732C33.5616 50.984 33.9264 50.2404 33.8702 49.3986C33.8281 48.9216 33.6037 48.4726 33.4634 47.9956C33.4493 47.9395 33.4353 47.8694 33.4213 47.8132C33.7299 48.0096 33.8141 48.3604 33.8843 48.6691C34.3753 50.5771 33.2529 52.3168 31.3028 52.6816C31.2186 52.6956 31.1204 52.7237 31.0362 52.7377C31.0082 52.7237 30.9661 52.6956 30.9099 52.6816Z" fill="#BDBE44"/>
</svg>
