<svg width="121" height="22" viewBox="0 0 121 22" fill="none" xmlns="http://www.w3.org/2000/svg">
<g clip-path="url(#clip0_417_18)">
<path d="M120.38 9.65799V21.4932H115.158V8.58206C115.158 7.35589 114.793 6.46897 114.063 5.90678C113.329 5.34943 112.513 5.06833 111.601 5.06833C110.694 5.06833 109.882 5.34943 109.177 5.90678C108.471 6.46897 108.116 7.35589 108.116 8.58206V13.8115V21.4884H102.822V12.7404V9.65799V0.817924L111.98 0.82277C113.996 0.910008 115.863 1.46736 117.582 2.54329C119.449 3.72099 120.38 6.09094 120.38 9.65799ZM83.6984 1.22988C83.0264 1.90839 80.2712 5.22342 80.1944 5.30096C79.5704 5.93101 79.0328 5.95524 78.2696 6.02794C77.1512 6.11033 76.4216 6.28481 75.836 6.8567C75.1256 7.66607 75.1448 8.80985 75.1448 10.2735V21.4932H69.8648V9.64829C69.8648 6.08125 70.796 3.70645 72.668 2.53359C74.3288 1.49159 76.1192 0.953627 78.0584 0.847003C78.4904 0.82277 80.1512 0.803384 80.2184 0.803384L83.6024 0.85185C83.7992 0.85185 83.8424 1.08448 83.6984 1.22988ZM64.6808 15.0328H68.4632C67.9064 17.1701 66.8456 18.8034 65.2856 19.9229C63.7208 21.0958 61.748 21.6822 59.3768 21.6822C56.5016 21.6822 54.2552 20.742 52.6424 18.8567C51.0248 17.0247 50.2184 14.6499 50.2184 11.238C50.2184 7.97624 51.0008 5.42697 52.5656 3.59498C54.1832 1.70968 56.4296 0.764612 59.3048 0.764612C62.3336 0.764612 64.6808 1.68061 66.3464 3.51744C67.2536 4.64183 67.9112 5.93586 68.3144 7.41405H63.0152C62.7608 6.90516 62.5112 6.52229 62.2568 6.27027C61.5992 5.55783 60.668 5.19918 59.4536 5.19918C58.34 5.19918 57.4328 5.55783 56.7272 6.27027C55.8152 7.28804 55.364 8.96978 55.364 11.3107C55.364 13.6564 55.8152 15.057 56.7272 16.0263C57.38 16.8454 58.364 17.2477 59.6792 17.2477C60.5384 17.2477 61.2728 17.0683 61.8728 16.7145C62.0264 16.6661 62.1608 16.574 62.2904 16.448C62.4152 16.322 62.5544 16.1814 62.708 16.0263C62.8088 15.8712 63.0104 15.6725 63.3128 15.4157C63.62 15.1588 64.076 15.0328 64.6808 15.0328ZM30.5192 9.62891V21.4641H25.2968V8.55783C25.2968 7.33166 24.932 6.44474 24.1976 5.88254C23.4632 5.32035 22.6472 5.0441 21.74 5.0441C20.8328 5.0441 20.012 5.32519 19.2776 5.88254C18.548 6.44474 18.1784 7.33166 18.1784 8.55783V9.62891V21.4641H12.956V9.62891V8.55783C12.956 7.33166 12.5912 6.44474 11.8616 5.88254C11.1272 5.32035 10.3064 5.0441 9.3992 5.0441C8.4872 5.0441 7.6808 5.32519 6.9752 5.88254C6.2696 6.44474 5.9144 7.33166 5.9144 8.55783V13.7872V21.4641H0.620001V0.759766L9.2504 0.764612C10.412 0.764612 11.5448 0.890622 12.6584 1.14749C13.7672 1.40435 14.7752 1.91324 15.6872 2.67414C16.4456 2.01502 17.3384 1.54006 18.3752 1.25896C19.4072 0.977859 20.4824 0.813077 21.5912 0.764612C23.8136 0.764612 25.8536 1.35104 27.7208 2.5239C29.588 3.69676 30.5192 6.06671 30.5192 9.62891ZM43.2632 16.8793C42.8072 17.2864 42.1544 17.49 41.2952 17.49H39.404C38.5448 17.49 37.892 17.2864 37.436 16.8793C36.98 16.4189 36.7544 15.8179 36.7544 15.057C36.7544 14.1556 37.4168 13.3753 38.3816 12.9924C38.6408 12.8858 38.9288 12.7792 39.2504 12.6871L40.9928 12.3042C42.2552 11.9989 43.2392 11.6693 43.9448 11.3107V13.225V15.0473C43.9448 15.8082 43.7192 16.4189 43.2632 16.8793ZM46.6712 2.21372C45.2552 1.24926 43.1384 0.764612 40.3112 0.764612C37.7864 0.764612 35.8472 1.35104 34.484 2.5239C33.2744 3.54652 32.564 4.84539 32.3672 6.42051H37.4408C37.6904 5.85831 38.0936 5.47544 38.6504 5.27188C39.2072 5.06833 39.836 4.96655 40.5416 4.96655C41.1944 4.96655 41.9144 5.07802 42.6968 5.31065C43.4792 5.54329 43.8728 6.03763 43.8728 6.80338C43.8728 7.826 42.764 8.48513 40.5416 8.79046L38.42 9.09579C36.5 9.40112 34.9256 10.0118 33.6872 10.9278C32.4488 11.8486 31.8296 13.0603 31.8296 15.1976C31.8296 17.49 32.5112 19.1329 33.8744 20.1313C35.2376 21.1249 36.8264 21.6192 38.6456 21.6192H42.0536C43.8728 21.6192 45.4616 21.1249 46.8248 20.1313C48.188 19.1329 48.8648 17.49 48.8648 15.1976V6.49805C48.8648 4.66122 48.1304 3.23634 46.6712 2.21372ZM80.6792 11.2767C80.6792 16.8842 85.0472 21.4593 90.5384 21.721L83.2232 4.41889C81.6392 6.25573 80.6792 8.64991 80.6792 11.2767ZM101.391 11.2767C101.391 8.65476 100.431 6.25573 98.852 4.41889L91.5464 21.721C97.028 21.4496 101.391 16.8793 101.391 11.2767ZM91.676 7.65153C91.5128 7.82116 91.2872 7.92778 91.0328 7.92778C90.8072 7.92778 90.6008 7.84054 90.4424 7.70484L87.9512 5.53359C87.8408 5.43666 87.7736 5.29127 87.7736 5.13133C87.7736 4.9714 87.8456 4.826 87.956 4.72422L90.4616 2.53844C90.6152 2.40758 90.8168 2.32519 91.0376 2.32519C91.2776 2.32519 91.4936 2.42212 91.652 2.57237L94.1048 4.70968C94.22 4.80662 94.292 4.95686 94.292 5.12164C94.292 5.27673 94.2248 5.41728 94.124 5.51905L91.676 7.65153ZM91.0328 0.817924C88.0904 0.817924 85.436 2.05863 83.5544 4.04571L90.0104 10.0409C90.284 10.2929 90.644 10.4431 91.0376 10.4431C91.4312 10.4431 91.7912 10.2929 92.06 10.0457L98.516 4.05056C96.6296 2.05863 93.9752 0.817924 91.0328 0.817924Z" fill="black"/>
</g>
<defs>
<clipPath id="clip0_417_18">
<rect width="120" height="21" fill="white" transform="translate(0.5 0.740723)"/>
</clipPath>
</defs>
</svg>
