<svg width="120" height="22" viewBox="0 0 120 22" fill="none" xmlns="http://www.w3.org/2000/svg">
<g clip-path="url(#clip0_402_835)">
<path d="M119.88 9.73685V21.5721H114.658V8.66092C114.658 7.43475 114.293 6.54783 113.563 5.98563C112.829 5.42828 112.013 5.14719 111.101 5.14719C110.194 5.14719 109.382 5.42828 108.677 5.98563C107.971 6.54783 107.616 7.43475 107.616 8.66092V13.8903V21.5672H102.322V12.8192V9.73685V0.896781L111.48 0.901628C113.496 0.988865 115.363 1.54622 117.082 2.62214C118.949 3.79985 119.88 6.1698 119.88 9.73685ZM83.1984 1.30874C82.5264 1.98725 79.7712 5.30227 79.6944 5.37982C79.0704 6.00987 78.5328 6.0341 77.7696 6.1068C76.6512 6.18919 75.9216 6.36366 75.336 6.93555C74.6256 7.74492 74.6448 8.8887 74.6448 10.3524V21.5721H69.3648V9.72715C69.3648 6.16011 70.296 3.78531 72.168 2.61245C73.8288 1.57045 75.6192 1.03248 77.5584 0.925861C77.9904 0.901628 79.6512 0.882242 79.7184 0.882242L83.1024 0.930707C83.2992 0.930707 83.3424 1.16334 83.1984 1.30874ZM64.1808 15.1116H67.9632C67.4064 17.249 66.3456 18.8822 64.7856 20.0018C63.2208 21.1747 61.248 21.7611 58.8768 21.7611C56.0016 21.7611 53.7552 20.8209 52.1424 18.9356C50.5248 17.1036 49.7184 14.7288 49.7184 11.3168C49.7184 8.0551 50.5008 5.50583 52.0656 3.67384C53.6832 1.78854 55.9296 0.84347 58.8048 0.84347C61.8336 0.84347 64.1808 1.75946 65.8464 3.5963C66.7536 4.72069 67.4112 6.01471 67.8144 7.4929H62.5152C62.2608 6.98402 62.0112 6.60114 61.7568 6.34912C61.0992 5.63668 60.168 5.27804 58.9536 5.27804C57.84 5.27804 56.9328 5.63668 56.2272 6.34912C55.3152 7.36689 54.864 9.04864 54.864 11.3895C54.864 13.7352 55.3152 15.1359 56.2272 16.1052C56.88 16.9242 57.864 17.3265 59.1792 17.3265C60.0384 17.3265 60.7728 17.1472 61.3728 16.7934C61.5264 16.7449 61.6608 16.6528 61.7904 16.5268C61.9152 16.4008 62.0544 16.2603 62.208 16.1052C62.3088 15.9501 62.5104 15.7514 62.8128 15.4945C63.12 15.2377 63.576 15.1116 64.1808 15.1116ZM30.0192 9.70777V21.543H24.7968V8.63668C24.7968 7.41051 24.432 6.5236 23.6976 5.9614C22.9632 5.3992 22.1472 5.12295 21.24 5.12295C20.3328 5.12295 19.512 5.40405 18.7776 5.9614C18.048 6.5236 17.6784 7.41051 17.6784 8.63668V9.70777V21.543H12.456V9.70777V8.63668C12.456 7.41051 12.0912 6.5236 11.3616 5.9614C10.6272 5.3992 9.8064 5.12295 8.8992 5.12295C7.9872 5.12295 7.1808 5.40405 6.4752 5.9614C5.7696 6.5236 5.4144 7.41051 5.4144 8.63668V13.8661V21.543H0.119995V0.838623L8.75039 0.84347C9.91199 0.84347 11.0448 0.969479 12.1584 1.22635C13.2672 1.48321 14.2752 1.9921 15.1872 2.753C15.9456 2.09387 16.8384 1.61891 17.8752 1.33782C18.9072 1.05672 19.9824 0.891935 21.0912 0.84347C23.3136 0.84347 25.3536 1.4299 27.2208 2.60276C29.088 3.77562 30.0192 6.14557 30.0192 9.70777ZM42.7632 16.9582C42.3072 17.3653 41.6544 17.5688 40.7952 17.5688H38.904C38.0448 17.5688 37.392 17.3653 36.936 16.9582C36.48 16.4978 36.2544 15.8968 36.2544 15.1359C36.2544 14.2344 36.9168 13.4541 37.8816 13.0713C38.1408 12.9646 38.4288 12.858 38.7504 12.7659L40.4928 12.383C41.7552 12.0777 42.7392 11.7482 43.4448 11.3895V13.3039V15.1262C43.4448 15.8871 43.2192 16.4978 42.7632 16.9582ZM46.1712 2.29258C44.7552 1.32812 42.6384 0.84347 39.8112 0.84347C37.2864 0.84347 35.3472 1.4299 33.984 2.60276C32.7744 3.62538 32.064 4.92425 31.8672 6.49937H36.9408C37.1904 5.93717 37.5936 5.55429 38.1504 5.35074C38.7072 5.14719 39.336 5.04541 40.0416 5.04541C40.6944 5.04541 41.4144 5.15688 42.1968 5.38951C42.9792 5.62215 43.3728 6.11649 43.3728 6.88224C43.3728 7.90486 42.264 8.56399 40.0416 8.86932L37.92 9.17465C36 9.47998 34.4256 10.0906 33.1872 11.0066C31.9488 11.9275 31.3296 13.1391 31.3296 15.2764C31.3296 17.5688 32.0112 19.2118 33.3744 20.2102C34.7376 21.2037 36.3264 21.6981 38.1456 21.6981H41.5536C43.3728 21.6981 44.9616 21.2037 46.3248 20.2102C47.688 19.2118 48.3648 17.5688 48.3648 15.2764V6.57691C48.3648 4.74008 47.6304 3.3152 46.1712 2.29258ZM80.1792 11.3556C80.1792 16.963 84.5472 21.5381 90.0384 21.7999L82.7232 4.49775C81.1392 6.33458 80.1792 8.72877 80.1792 11.3556ZM100.891 11.3556C100.891 8.73361 99.9312 6.33458 98.352 4.49775L91.0464 21.7999C96.528 21.5284 100.891 16.9582 100.891 11.3556ZM91.176 7.73038C91.0128 7.90001 90.7872 8.00664 90.5328 8.00664C90.3072 8.00664 90.1008 7.9194 89.9424 7.7837L87.4512 5.61245C87.3408 5.51552 87.2736 5.37013 87.2736 5.21019C87.2736 5.05025 87.3456 4.90486 87.456 4.80308L89.9616 2.6173C90.1152 2.48644 90.3168 2.40405 90.5376 2.40405C90.7776 2.40405 90.9936 2.50098 91.152 2.65122L93.6048 4.78854C93.72 4.88547 93.792 5.03572 93.792 5.2005C93.792 5.35559 93.7248 5.49614 93.624 5.59791L91.176 7.73038ZM90.5328 0.896781C87.5904 0.896781 84.936 2.13749 83.0544 4.12457L89.5104 10.1197C89.784 10.3717 90.144 10.522 90.5376 10.522C90.9312 10.522 91.2912 10.3717 91.56 10.1246L98.016 4.12941C96.1296 2.13749 93.4752 0.896781 90.5328 0.896781Z" fill="white"/>
</g>
<defs>
<clipPath id="clip0_402_835">
<rect width="120" height="21" fill="white" transform="translate(0 0.81958)"/>
</clipPath>
</defs>
</svg>
