<svg width="18" height="16" viewBox="0 0 18 16" fill="none" xmlns="http://www.w3.org/2000/svg">
<path d="M16.1859 4.42722C16.1859 4.59214 16.1859 4.75707 16.1859 4.89843C16.1859 9.77539 12.4634 15.4063 5.67801 15.4063C3.58115 15.4063 1.64921 14.7937 0 13.7571C0.282723 13.7806 0.589005 13.8042 0.871728 13.8042C2.59162 13.8042 4.19372 13.2152 5.46597 12.2257C3.84031 12.2021 2.47382 11.1183 2.02618 9.65759C2.26178 9.70471 2.47382 9.72827 2.73298 9.72827C3.06283 9.72827 3.39267 9.68115 3.69895 9.58691C2.00262 9.25707 0.730366 7.77277 0.730366 5.9822C0.730366 5.95864 0.730366 5.95864 0.730366 5.93508C1.22513 6.2178 1.79058 6.38272 2.40314 6.40628C1.41361 5.7466 0.753927 4.61571 0.753927 3.31989C0.753927 2.63665 0.942408 2.00052 1.24869 1.45864C3.06283 3.69686 5.79581 5.15759 8.85864 5.32251C8.78796 5.06335 8.7644 4.75707 8.7644 4.47434C8.7644 2.42461 10.4136 0.775391 12.4634 0.775391C13.5236 0.775391 14.4895 1.22303 15.1492 1.92984C15.9974 1.76492 16.7749 1.45864 17.5052 1.03455C17.2225 1.90628 16.6335 2.61309 15.8796 3.08429C16.6335 2.99005 17.3403 2.80157 18 2.49529C17.5288 3.24921 16.9162 3.9089 16.1859 4.42722Z" fill="white"/>
</svg>
