<svg width="77" height="59" viewBox="0 0 77 59" fill="none" xmlns="http://www.w3.org/2000/svg">
<g clip-path="url(#clip0_402_883)">
<path d="M49.4109 33.7124C48.4651 33.7124 47.5194 33.7334 46.5736 33.7124C46.0481 33.6913 45.8379 33.8174 45.8379 34.4059C45.859 35.3938 45.7328 36.3606 45.7749 37.3484C45.7959 38.2732 45.6488 38.6725 44.5138 38.5674C41.8866 38.3152 39.4696 38.8407 38.0824 41.4679C37.3258 42.8971 37.0315 44.4314 37.1997 46.0287C37.4098 47.8783 38.1455 49.4336 39.974 50.1482C41.6764 50.8208 43.3578 50.6526 44.7871 49.4126C45.3545 48.9292 45.4176 49.2444 45.4806 49.7278C45.3966 49.938 45.3755 50.1692 45.6698 50.1902C46.7417 50.2113 47.8346 50.2112 48.9065 50.2112C49.3059 50.2112 49.3059 49.917 49.3269 49.6228C49.3479 48.2356 49.3479 46.8484 49.3689 45.4402C49.6211 41.7201 49.8523 37.9789 50.1045 34.2588C50.1466 33.6703 49.7682 33.7124 49.4109 33.7124ZM45.5017 43.1283C45.4596 43.8219 45.3966 44.7677 45.0393 45.6504C44.5979 46.7433 43.6941 47.3318 42.7904 47.1427C41.9076 46.9535 41.3402 46.1338 41.2771 44.9989C41.214 43.1703 42.2439 41.6991 43.8413 41.4259C45.3335 41.1947 45.5437 41.3838 45.5017 43.1283ZM49.2008 44.5155C49.2008 44.4104 49.2008 44.3053 49.2008 44.2002C49.2008 44.1371 49.2008 44.0951 49.2218 44.032C49.2218 44.1792 49.2008 44.3473 49.2008 44.5155Z" fill="white"/>
<path d="M7.73283 34.9104C9.72951 34.9104 11.7262 34.9314 13.7229 34.8894C14.3324 34.8894 14.4795 35.0786 14.4795 35.6671C14.4375 38.2522 14.4585 38.2522 11.8313 38.2312C9.89765 38.2102 9.87663 38.2102 9.79256 40.1228C9.66646 43.1914 9.51933 46.281 9.45628 49.3496C9.43526 50.0642 9.20407 50.2323 8.55252 50.2113C7.5857 50.1693 6.59787 50.1483 5.61004 50.2113C4.83239 50.2744 4.76933 49.9171 4.83239 49.2865C5.18969 45.9447 5.27376 42.5819 5.39986 39.2401C5.42088 38.4624 5.23172 38.1682 4.43305 38.2522C3.48725 38.3363 2.54146 38.2733 1.59566 38.3363C1.09124 38.3783 0.944111 38.2312 0.944111 37.7058C0.902076 34.9314 0.881058 34.9314 3.65539 34.9104C5.00053 34.8894 6.36668 34.8894 7.73283 34.9104Z" fill="white"/>
<path d="M35.4552 41.9303C35.3711 44.4734 35.203 47.0166 35.0979 49.5807C35.0769 50.0221 34.9508 50.1902 34.4884 50.1902C33.5426 50.1692 32.5968 50.1692 31.651 50.1902C31.1045 50.2112 30.9364 50.0431 30.9784 49.4756C31.1045 48.0885 31.1466 46.7013 31.2306 45.188C30.4109 45.4823 29.6753 45.7135 28.9817 45.9867C28.3932 46.1969 27.8468 46.5542 27.9939 47.2688C28.1621 48.0674 28.8556 48.0885 29.5072 48.0254C29.6963 48.0044 29.9065 47.9413 30.0536 47.9203C30.2638 48.0674 30.1798 48.2356 30.1167 48.3197C29.6543 49.0763 30.1798 50.4424 28.5614 50.4845C25.9972 50.5475 24.7992 50.0431 24.1267 48.3617C23.6012 47.0586 23.9585 45.5874 25.0304 44.6416C25.8711 43.9059 26.901 43.5697 27.9519 43.3174C28.7295 43.1283 29.5282 42.9601 30.2848 42.75C30.7893 42.6028 31.2096 42.3086 31.1466 41.7201C31.0625 41.1316 30.5791 40.9845 30.0536 40.9635C28.4773 40.9004 27.0271 41.4259 25.4508 41.9723C25.5559 41.1106 25.682 40.3329 25.766 39.5553C25.8081 39.261 25.9342 39.1349 26.2074 39.0719C28.4353 38.6095 30.6842 38.1681 32.9541 38.6725C34.8457 39.0929 35.5182 39.9546 35.4552 41.9303Z" fill="white"/>
<path d="M56.641 44.8518C58.0282 44.8518 59.4153 44.8728 60.8235 44.8728C63.1775 44.8728 63.4087 44.5995 62.9463 42.2666C62.9043 42.0354 62.7992 41.8042 62.7151 41.573C61.7693 38.5254 56.4308 37.3064 53.8036 39.4712C51.5968 41.2998 51.0923 43.6748 51.5337 46.302C51.912 48.5299 53.2992 49.938 55.5691 50.2743C57.2715 50.5476 58.974 50.5686 60.6764 50.1692C61.412 50.2953 61.6852 49.938 61.7273 49.2445C61.7483 48.8241 61.8954 48.4248 61.8954 48.0044C61.9164 47.6471 62.2527 47.1637 61.8954 46.9325C61.6012 46.7434 61.1808 47.0376 60.8445 47.2057C59.6045 47.4159 58.3645 47.6261 57.0824 47.4159C56.662 47.1847 56.1996 46.9745 55.9054 46.5752C55.6111 46.1759 55.401 45.6925 55.5271 45.2091C55.7162 44.6626 56.2837 45.0409 56.641 44.8518ZM56.3257 41.573C56.9353 40.9635 57.6498 40.9425 58.3645 41.2998C58.9529 41.594 59.1631 42.2245 59.0791 42.8341C58.974 43.5276 58.3434 43.1283 57.9441 43.2124C57.7549 43.2544 57.5237 43.2124 57.3136 43.2124C57.1664 43.2124 57.0193 43.2334 56.8932 43.2124C56.4939 43.1283 55.8633 43.5066 55.6952 42.9602C55.5691 42.4557 55.9474 41.9513 56.3257 41.573Z" fill="white"/>
<path d="M73.8545 45.3771C74.8423 46.8694 75.683 48.4667 76.6919 50.1902C75.1156 50.1902 73.6863 50.1902 72.2782 50.1902C71.9419 50.1902 71.7737 50.0431 71.6476 49.7488C71.2063 48.719 70.7649 47.7101 70.3235 46.6802C69.4618 47.4159 69.1045 48.5088 68.537 49.4336C68.2007 49.98 67.8644 50.2322 67.2129 50.1902C66.0359 50.1271 64.8379 50.1692 63.6609 50.1692C63.6189 50.1692 63.5979 50.1482 63.3456 50.0851C64.7118 48.1515 66.0569 46.2809 67.381 44.4313C67.4231 43.7378 66.8976 43.2964 66.5824 42.771C65.8467 41.4889 65.0481 40.2068 64.2074 38.7776C65.8257 38.7776 67.276 38.7776 68.7262 38.7776C69.1465 38.7776 69.2516 39.0508 69.3777 39.3451C69.735 40.1648 70.1133 40.9634 70.5547 41.9513C71.1432 40.9844 71.6476 40.1437 72.11 39.324C72.2992 39.0088 72.4883 38.7776 72.9087 38.7986C74.1908 38.8196 75.4729 38.7986 76.9651 38.7986C75.9142 40.3119 75.0105 41.699 74.0016 43.0021C73.308 43.8218 73.245 44.4734 73.8545 45.3771Z" fill="white"/>
<path d="M26.4175 6.91476C27.1532 4.62383 28.3932 2.71122 30.495 1.42914C32.5337 0.210115 34.7826 -0.189221 37.1156 0.0840092C38.6919 0.273169 40.2682 0.546399 41.5293 1.68135C41.151 2.01764 40.7306 1.80746 40.3313 1.76543C38.9231 1.6183 37.62 1.82848 36.506 2.79529C36.0437 3.17361 35.9806 3.50989 36.3379 3.95127C35.0768 4.32958 34.8456 5.44352 34.5094 6.47339C34.4463 6.55746 34.3622 6.62051 34.2782 6.68357C32.4917 6.99883 31.0625 8.09175 29.4231 8.76432C29.0658 8.91144 28.7505 9.12162 28.3932 9.24773C27.0271 9.73113 26.8799 9.96233 27.0481 11.3705C27.0901 11.7278 27.1532 12.0641 26.964 12.4004C26.8379 12.6316 26.6487 12.6526 26.4806 12.4424C25.8291 10.6139 25.4928 8.76432 26.4175 6.91476Z" fill="white"/>
<path d="M48.2339 23.0985C48.5912 23.7921 49.2218 23.4138 49.7262 23.4558C50.2937 23.5189 50.9032 23.5609 51.4707 23.3297C52.8788 23.3508 54.203 22.8884 55.6111 22.447C54.6443 21.291 53.3623 20.7446 52.0802 19.8198C55.6952 19.3364 58.9109 18.3065 61.8744 16.562C62.9043 15.9525 63.8501 15.28 64.7959 14.5443C65.0691 14.3342 65.2793 14.0189 65.6786 14.0609C65.5946 15.0278 64.8379 15.5532 64.2915 16.1837C62.547 18.1804 60.6974 20.093 58.5957 21.7324C55.9264 23.8342 52.8368 24.822 49.495 25.1373C48.6333 25.2213 48.2339 25.5156 48.1499 26.3773C48.1078 26.7977 48.0238 27.3021 47.5614 27.5333C47.4353 27.5333 47.3512 27.4702 47.2881 27.3651C47.12 26.9868 47.2251 26.6085 47.2671 26.2512C47.3722 25.5156 47.0569 25.2634 46.3423 25.2424C45.2494 25.2213 44.1355 25.4105 43.0846 24.8851C42.7063 24.4437 43.1687 24.3596 43.3999 24.2335C43.9043 23.9393 44.4928 23.8131 45.0392 23.624C45.4176 23.4769 45.7959 23.3928 45.4596 22.8674C46.1322 22.5941 46.7417 23.0775 47.3932 23.0355C47.6875 23.1826 47.9817 23.0775 48.2339 23.0985Z" fill="white"/>
<path d="M20.2804 24.0022C19.2295 22.8462 18.4098 21.5851 18.1786 20.0088C18.2417 18.6637 19.0193 17.823 20.1963 17.3816C21.2682 16.9612 22.4242 16.7721 23.5802 16.667C24.7151 17.6128 25.5558 18.7688 26.0603 20.1559C24.9253 20.6604 24.1266 21.6482 22.9707 22.1106C22.3191 22.3628 21.7306 22.7201 21.3733 23.3716C21.1631 23.792 20.7638 23.9811 20.2804 24.0022Z" fill="white"/>
<path d="M47.6244 27.4701C47.6664 27.3439 47.6874 27.1968 47.7505 27.0707C48.0447 26.3982 47.7715 25.4524 48.36 25.053C48.8855 24.7167 49.7051 24.8428 50.3987 24.7588C53.7405 24.3384 56.704 23.0774 59.2682 20.8915C61.6642 18.8528 63.808 16.5829 65.6996 14.0608C66.0989 13.7245 66.3091 13.8296 66.141 14.334C65.9939 14.7543 65.7206 15.1327 65.5105 15.532C65.0901 16.0995 64.7958 16.751 64.3545 17.3185C62.8622 19.3782 61.0757 21.1647 59.2051 22.8672C56.2416 25.2632 52.8998 26.8395 49.1797 27.6382C48.6753 27.7433 48.0658 28.1216 47.6244 27.4701Z" fill="white"/>
<path d="M23.7273 16.7721C22.8866 16.9823 22.0669 17.2555 21.2262 17.3606C19.5868 17.5498 18.8092 18.6427 18.2207 20.0088C17.6742 18.2644 17.9474 16.5619 18.599 14.9015C19.5658 12.4214 20.9319 10.2356 23.2859 8.8064C23.6853 9.22675 23.433 9.6471 23.3069 10.0675C22.6554 12.1482 22.9496 14.1659 23.8534 16.0995C23.8744 16.3307 23.8954 16.5619 23.7273 16.7721Z" fill="white"/>
<path d="M20.2804 24.0023C20.8689 23.7501 21.037 22.9724 21.4994 22.7412C23.0337 21.9005 24.2948 20.5764 26.0392 20.135C27.1322 20.5554 27.8257 21.4171 28.4142 22.3839C28.2041 22.8673 28.9607 23.1405 28.6875 23.645C27.5105 24.4647 26.2704 25.0742 24.8412 25.3054C24.2948 25.3894 23.7693 25.5786 23.412 26.041C23.2439 26.1881 23.0547 26.2301 22.8446 26.2512C21.7937 25.7047 21.0791 24.822 20.2804 24.0023Z" fill="white"/>
<path d="M23.6853 16.1626C22.7605 15.3219 22.8446 14.1239 22.6554 13.052C22.3822 11.5807 22.9917 10.2146 23.2649 8.80639C24.1477 7.90263 25.2406 7.31413 26.4176 6.91479C26.0813 8.82741 26.1233 10.698 26.6908 12.5686C26.859 12.7367 26.859 12.9469 26.838 13.1571C26.7749 13.4513 26.5857 13.6615 26.3545 13.7876C25.2616 14.3761 24.7362 15.5531 23.6853 16.1626Z" fill="white"/>
<path d="M40.9408 5.65375C39.4695 4.91813 37.9983 4.1615 36.3379 3.95132C36.0857 3.86725 35.8125 3.76216 35.5602 3.67809C36.443 1.97566 38.3976 1.13495 40.5204 1.51327C40.8567 1.57632 41.193 1.61836 41.5503 1.68141C42.37 2.16482 43.2107 2.62721 43.8622 3.36283C43.9043 3.53097 43.8202 3.65707 43.6731 3.65707C41.9076 3.67809 41.5713 3.97234 41.3401 5.5907C41.2981 5.80088 41.0879 5.77986 40.9408 5.65375Z" fill="white"/>
<path d="M28.7295 23.5189C28.5404 23.1826 27.7207 23.0776 28.3092 22.447C29.1078 22.468 29.6123 23.0776 30.1797 23.4979C35.1609 27.0079 40.6886 28.0798 46.6576 27.4492C46.9098 27.4282 47.141 27.3862 47.3722 27.4703C47.4563 27.4703 47.5193 27.4913 47.6034 27.4913C48.7384 27.7014 49.7682 27.2391 50.8191 26.9448C53.8877 26.0831 56.599 24.5488 59.1421 22.6152C59.1842 22.6362 59.2052 22.6782 59.2472 22.6992C59.1211 23.603 58.0492 23.8552 57.818 24.6959C57.776 24.7169 57.7339 24.759 57.7129 24.78C54.9806 27.0289 51.9751 28.7733 48.4862 29.509C48.36 29.4879 48.276 29.4249 48.2339 29.3198C48.318 28.9625 48.6543 28.8364 48.9485 28.7733C50.8822 28.2899 52.5846 27.3441 54.266 26.3143C51.6178 27.7225 48.7384 28.0798 45.8379 28.5001C43.4629 28.8364 41.151 28.395 38.839 28.1008C35.8755 27.7014 33.2273 26.4404 30.6842 24.9481C30.2848 24.7169 29.9065 24.4857 29.4862 24.2756C29.1499 24.1074 28.7085 24.0233 28.7295 23.5189Z" fill="white"/>
<path d="M46.3423 11.1394C45.3966 9.64718 44.2406 8.34408 42.9795 7.14607C42.8534 6.76776 42.5381 6.30537 43.3578 6.41045C43.7782 6.47351 43.9673 6.13722 44.2196 5.90603C44.6189 5.54873 45.0603 5.29652 45.5857 5.17041C46.9519 6.68368 47.7505 8.49121 48.318 10.4248C48.276 11.2655 47.4773 11.0133 47.0569 11.2655C46.8468 11.3706 46.5735 11.2025 46.3423 11.1394Z" fill="white"/>
<path d="M22.5503 42.2036C20.7007 42.1195 19.776 42.9182 19.5238 44.7677C19.3136 46.302 19.2926 47.8363 19.3556 49.3706C19.3766 49.9801 19.2505 50.2533 18.5569 50.2113C17.6532 50.1482 16.7494 50.1693 15.8246 50.2113C15.2572 50.2323 15.11 50.0221 15.1521 49.4757C15.4253 46.1339 15.6145 42.792 15.5304 39.4292C15.5094 38.9248 15.7196 38.7567 16.224 38.7777C17.0647 38.7987 17.9054 38.8407 18.7461 38.7777C19.5027 38.7146 19.6919 39.0089 19.5027 39.6814C19.5658 39.7235 19.6288 39.7655 19.6919 39.7865C20.3855 39.0089 21.2052 38.4624 22.3191 38.4624C22.8446 38.4624 23.1808 38.5675 23.1598 39.219C23.1388 39.9757 23.1808 40.7533 23.2649 41.531C23.2859 42.0564 23.1388 42.2246 22.5503 42.2036Z" fill="white"/>
<path d="M45.5647 5.17033C45.1023 5.80086 44.1565 5.92697 43.8202 6.72564C43.7572 6.87276 43.568 6.89378 43.4629 6.78869C42.7273 6.13714 43.1897 7.10396 42.9795 7.14599C42.3069 6.64157 41.6134 6.15816 40.9408 5.65374C41.172 4.3086 41.3191 4.45573 42.1808 3.57298C42.8324 2.90042 43.3368 3.48891 43.8623 3.36281C44.5558 3.84621 45.1023 4.47674 45.5647 5.17033Z" fill="white"/>
<path d="M46.3423 11.1394C47.078 11.1394 47.6665 10.719 48.297 10.4458C49.3899 13.3042 49.6631 16.2887 49.537 19.3153C49.2638 19.4414 49.6842 19.9878 49.1377 19.9248C48.8434 16.7931 48.0238 13.8296 46.3423 11.1394Z" fill="white"/>
<path d="M48.276 29.3827C48.3391 29.4248 48.4021 29.4668 48.4862 29.5088C40.0581 31.5896 31.8612 31.2323 24.0636 27.0498C23.6433 26.8186 23.2649 26.5033 22.8656 26.2301C22.9497 26.0619 23.1178 26.0199 23.286 26.0199C23.8114 25.9779 24.2318 26.2721 24.6521 26.5243C28.2671 28.7102 32.2605 29.4668 36.38 29.9712C40.016 30.4336 43.547 29.7611 47.099 29.2777C47.4773 29.2146 47.8977 29.0465 48.276 29.3827Z" fill="white"/>
<path d="M44.0935 55.739C44.4928 55.6339 44.8081 55.3817 45.2074 55.3817C45.985 55.3817 46.5105 55.6129 46.4685 56.5166C46.4474 56.979 46.4264 57.4204 46.4054 57.8828C46.3844 58.177 46.4895 58.5553 45.985 58.5343C45.3755 58.5133 45.6067 58.0719 45.5857 57.7777C45.5647 57.4624 45.6067 57.1471 45.6067 56.8319C45.6277 56.4536 45.5227 56.1173 45.0813 56.0752C44.6609 56.0332 44.3036 56.1803 44.1985 56.6217C44.0935 57.0631 44.0724 57.5255 44.0304 57.9668C44.0094 58.2611 43.9884 58.5343 43.589 58.5343C43.0846 58.5343 43.1897 58.156 43.1897 57.8617C43.2107 56.958 43.2527 56.0542 43.2738 55.1294C43.2948 54.7932 43.1897 54.3728 43.7572 54.3938C44.3667 54.4148 44.0724 54.8772 44.0935 55.1715C44.1145 55.3606 44.0935 55.5498 44.0935 55.739Z" fill="white"/>
<path d="M10.9695 57.5463C12.1045 56.6636 11.7682 54.751 13.6598 54.2676C12.9242 55.7178 12.3147 56.9158 11.7262 58.1348C11.537 58.5342 11.2428 58.5342 10.8645 58.5552C10.4441 58.5762 10.36 58.282 10.2549 57.9877C9.91866 57.0419 9.58238 56.0961 9.26712 55.1293C9.20406 54.9191 8.90981 54.5828 9.28813 54.4357C9.6034 54.3096 9.9607 54.3516 10.0868 54.8351C10.339 55.7388 10.6543 56.6216 10.9695 57.5463Z" fill="white"/>
<path d="M59.1421 22.615C60.9916 20.9546 62.652 19.126 64.1653 17.1714C64.8589 17.2765 64.4596 17.7389 64.4386 18.0541C63.4717 20.4501 62.4839 22.8251 61.5171 25.2212C61.4751 25.2001 61.433 25.1581 61.412 25.1371C61.1598 24.3594 61.5381 23.7079 61.7903 23.0353C62.1686 22.0895 62.652 21.1647 62.7571 20.0928C62.1056 20.7024 61.4751 21.2488 60.8445 21.8373C60.3821 22.2577 60.0038 22.9092 59.2051 22.699L59.1421 22.615Z" fill="white"/>
<path d="M66.099 57.105C66.099 57.2521 66.099 57.6094 66.099 57.9457C66.12 58.4711 65.8678 58.7233 65.4054 58.4711C65.1322 58.324 64.985 58.3871 64.7538 58.4711C63.4297 58.8915 62.9673 58.5132 62.9884 57.105C62.9884 56.6846 63.0094 56.2643 63.0304 55.8439C63.0514 55.5287 63.2616 55.4656 63.5348 55.4656C63.808 55.4866 63.8711 55.6758 63.8711 55.8859C63.8711 56.2643 63.8501 56.6636 63.8291 57.0419C63.808 57.5043 63.8921 57.9247 64.4596 57.9457C64.943 57.9457 65.2162 57.6094 65.2793 57.147C65.3423 56.8107 65.3213 56.4534 65.3423 56.0961C65.3423 55.7598 65.3423 55.4446 65.8047 55.4656C66.3302 55.4866 66.141 55.8859 66.162 56.1802C66.162 56.4114 66.12 56.6636 66.099 57.105Z" fill="white"/>
<path d="M15.047 55.4026C13.9961 55.3816 13.2605 56.0331 13.2185 56.9999C13.1974 57.9247 13.891 58.6183 14.8789 58.6183C15.9297 58.6183 16.6233 57.9668 16.6233 56.9579C16.6443 56.0121 16.0558 55.4236 15.047 55.4026ZM15.7826 56.8108C15.7826 57.5674 15.5724 58.0088 14.8999 58.0088C14.2693 58.0088 14.0802 57.5674 14.0802 57.042C14.1012 56.4745 14.3534 55.9911 14.9839 56.0121C15.5935 55.9911 15.8036 56.4114 15.7826 56.8108Z" fill="white"/>
<path d="M60.8235 55.4026C59.7516 55.3816 59.037 55.9911 58.995 56.979C58.974 57.9668 59.5625 58.5763 60.6134 58.5973C61.6642 58.6183 62.3578 58.0088 62.3578 56.979C62.3999 56.0121 61.8324 55.4236 60.8235 55.4026ZM60.6764 57.9878C60.0459 57.9878 59.8567 57.5674 59.8567 57.021C59.8567 56.4325 60.1089 55.9911 60.7395 55.9701C61.349 55.9701 61.5592 56.3905 61.5381 56.8108C61.5381 57.5464 61.349 57.9878 60.6764 57.9878Z" fill="white"/>
<path d="M49.2218 55.4446C48.5492 55.3185 47.8766 55.3395 47.4142 55.9701C46.9519 56.6006 46.9098 57.2942 47.2881 57.9457C47.7085 58.6393 48.4441 58.6603 49.1587 58.6183C49.4319 58.5973 49.8103 58.5973 49.8103 58.24C49.7892 57.7566 49.3899 58.1139 49.1797 58.0508C48.6123 58.0718 47.9607 58.0508 48.0027 57.3572C48.0448 56.8318 48.6963 57.1891 49.0536 57.084C49.0957 57.084 49.1167 57.084 49.1587 57.084C49.495 56.9579 50.1045 57.3362 50.1465 56.6637C50.1886 56.0331 49.8523 55.5707 49.2218 55.4446ZM48.6543 56.6847C48.4231 56.6216 48.0238 56.8318 48.0658 56.3484C48.1078 56.0541 48.36 55.886 48.6753 55.886C49.0116 55.886 49.3479 56.0121 49.3058 56.3904C49.2848 56.8108 48.8855 56.6006 48.6543 56.6847Z" fill="white"/>
<path d="M33.6056 57.0629C34.0049 56.8948 34.8036 57.4413 34.7826 56.5165C34.7616 55.7809 34.2151 55.4446 33.5005 55.4025C32.4286 55.3395 31.735 55.928 31.714 56.9789C31.672 58.0928 32.2605 58.6393 33.5636 58.6183C33.8578 58.5552 34.4463 58.7444 34.4043 58.1979C34.3833 57.7355 33.8999 58.0718 33.6266 58.0508C33.1432 58.0087 32.5757 57.9457 32.6178 57.3992C32.6388 56.7477 33.2693 57.2101 33.6056 57.0629ZM33.3954 55.907C33.7317 55.907 33.9629 56.1171 33.9209 56.4114C33.8578 56.8107 33.4585 56.5375 33.2903 56.6636C33.0171 56.6216 32.6598 56.7477 32.7018 56.3904C32.7229 56.0751 33.0591 55.907 33.3954 55.907Z" fill="white"/>
<path d="M27.7207 57.0631C28.12 56.8739 28.9187 57.4414 28.9187 56.5377C28.9187 55.802 28.3722 55.4658 27.6576 55.4027C26.5857 55.3186 25.808 56.0332 25.808 57.0631C25.808 58.114 26.5226 58.7025 27.8047 58.6184C28.099 58.5974 28.5614 58.6604 28.5403 58.2401C28.5403 57.6726 28.0569 58.0509 27.8257 58.0509C27.3003 58.0299 26.7118 57.9669 26.7118 57.3784C26.7538 56.7478 27.3844 57.2102 27.7207 57.0631ZM26.7959 56.3695C26.8799 56.0332 27.1742 55.8861 27.5105 55.8861C27.8047 55.9071 28.12 56.0543 28.078 56.3695C28.0149 56.916 27.5315 56.5797 27.2583 56.6848C27.0691 56.6217 26.6908 56.7899 26.7959 56.3695Z" fill="white"/>
<path d="M51.6388 57.8197C52.1222 58.1981 52.9839 57.6726 52.9419 58.2191C52.8999 58.8496 52.0802 58.4713 51.6178 58.5133C51.2815 58.5343 50.7771 58.7445 50.5879 58.3031C50.3777 57.8407 50.8191 57.5465 51.0923 57.2523C51.4076 56.895 51.7229 56.5377 52.0592 56.1803C51.933 56.0963 51.891 56.0542 51.828 56.0332C51.4917 55.8861 50.7981 56.3065 50.8191 55.718C50.8401 55.1925 51.4917 55.5288 51.87 55.4447C52.0591 55.4027 52.2903 55.4447 52.5005 55.4447C53.3412 55.4237 53.2782 55.8861 52.9209 56.3695C52.5426 56.8739 52.1012 57.3153 51.6388 57.8197Z" fill="white"/>
<path d="M56.9353 57.5045C57.7549 56.979 57.2085 55.4237 58.7638 55.4658C58.3224 56.4536 57.9441 57.3574 57.5658 58.2401C57.4187 58.5764 57.1454 58.5344 56.8512 58.5554C56.5569 58.5554 56.4308 58.4083 56.3468 58.135C56.1156 57.4414 55.8634 56.7479 55.6322 56.0543C55.5691 55.8651 55.2749 55.5919 55.6952 55.4658C55.9684 55.3817 56.2627 55.4237 56.3678 55.781C56.5359 56.3485 56.7251 56.916 56.9353 57.5045Z" fill="white"/>
<path d="M68.2428 55.4237C68.4109 55.4447 68.5791 55.4447 68.7682 55.4657C68.9784 55.4867 69.0625 55.6128 69.0625 55.823C69.0415 56.0962 68.8523 56.0121 68.6842 55.9911C68.432 55.9701 68.1587 55.9071 68.0326 56.1593C67.8645 56.5166 68.2218 56.6217 68.3899 56.8108C68.7683 57.1891 69.3778 57.5464 68.9154 58.177C68.495 58.7655 67.8225 58.6604 67.1919 58.5553C66.9607 58.5133 66.7926 58.3872 66.8556 58.1349C66.9187 57.9037 67.1289 58.0088 67.276 58.0088C67.5492 58.0088 67.8855 58.156 68.0116 57.8407C68.1798 57.4624 67.8014 57.2942 67.5702 57.1051C67.1709 56.7898 66.7926 56.4535 67.0448 55.886C67.297 55.4026 67.7594 55.3606 68.2428 55.4237Z" fill="white"/>
<path d="M22.7184 55.4236C22.6134 55.4236 22.7815 55.4236 22.9496 55.4446C23.1388 55.4656 23.2859 55.5287 23.2859 55.7599C23.2859 56.0121 23.0968 55.97 22.9286 55.97C22.6554 55.97 22.3191 55.8649 22.214 56.2222C22.13 56.4955 22.4032 56.6426 22.5923 56.7897C23.0337 57.147 23.5592 57.5464 23.1598 58.1559C22.7395 58.8074 22.0038 58.6603 21.3523 58.5552C21.1631 58.5132 21.0581 58.3871 21.0791 58.1769C21.1001 57.9247 21.2892 57.9667 21.4784 57.9877C21.7937 58.0298 22.172 58.1559 22.3191 57.8196C22.5083 57.3782 22.0038 57.2941 21.7727 57.063C21.4364 56.7477 21.0581 56.4324 21.2892 55.907C21.4784 55.4236 21.9618 55.3815 22.7184 55.4236Z" fill="white"/>
<path d="M41.6764 55.4236C41.7815 55.4236 41.8866 55.4026 41.9917 55.4236C42.2229 55.4657 42.5381 55.4447 42.5381 55.7809C42.5381 56.1803 42.2019 56.0542 41.9917 56.0332C41.2771 56.0121 40.8357 56.2644 40.8567 57.042C40.8567 57.7776 41.235 58.0298 41.9286 57.9878C42.1178 57.9668 42.391 57.8617 42.391 58.219C42.391 58.4712 42.2019 58.5763 41.9707 58.5973C41.3612 58.6604 40.7516 58.6604 40.3313 58.1349C39.8689 57.5675 39.8689 56.9159 40.1421 56.2644C40.4154 55.5708 41.0039 55.4026 41.6764 55.4236Z" fill="white"/>
<path d="M30.495 58.6183C30.2428 58.6183 30.0116 58.5552 29.8224 58.3661C29.5492 58.1139 29.5492 57.7566 29.6333 57.4833C29.8855 56.6426 29.0448 55.7179 29.8434 54.9612C30.0536 54.751 30.4319 54.5619 30.558 55.0453C30.6421 55.3395 30.7682 55.4026 31.0204 55.4656C31.3987 55.5917 31.3777 55.8019 31.0414 56.0121C30.2217 56.5375 30.1797 57.4623 30.9363 57.9457C31.1045 58.0508 31.2306 58.1139 31.1675 58.324C31.0835 58.7024 30.7682 58.5973 30.495 58.6183Z" fill="white"/>
<path d="M36.6111 55.4026C36.9054 55.4446 37.3678 55.3185 37.4098 55.6968C37.4519 56.2853 36.9474 55.8229 36.7162 55.928C36.5691 55.9911 36.3589 56.0121 36.3169 56.2013C36.2749 56.3904 36.422 56.5165 36.5481 56.6216C36.6322 56.6847 36.7162 56.7477 36.8003 56.8108C37.2207 57.1891 37.7461 57.5884 37.2627 58.1979C36.8003 58.7864 36.0857 58.6603 35.4342 58.4922C35.3501 58.4712 35.245 58.282 35.245 58.1769C35.245 57.9037 35.4552 57.9667 35.6233 58.0088C35.9386 58.0718 36.3379 58.1769 36.464 57.8406C36.6322 57.4203 36.1698 57.2732 35.9386 57.063C35.5603 56.7477 35.266 56.4114 35.4762 55.907C35.6653 55.4026 36.1488 55.4026 36.6111 55.4026Z" fill="white"/>
<path d="M49.2218 44.011C49.2218 44.1791 49.2007 44.3263 49.2007 44.4944C49.2007 44.3893 49.2007 44.2842 49.2007 44.1791C49.2218 44.1371 49.2218 44.074 49.2218 44.011Z" fill="white"/>
<path d="M20.3224 57.7356C20.3014 58.0088 20.4906 58.3872 20.0702 58.5343C19.6919 58.6604 19.5028 58.3661 19.2926 58.156C18.8092 58.5763 18.3047 58.7865 17.6742 58.4502C17.0647 58.1349 17.2118 57.5675 17.2118 57.063C17.2118 56.6427 17.2539 56.2223 17.2749 55.802C17.2959 55.4867 17.5271 55.4237 17.8003 55.4447C18.0736 55.4657 18.1366 55.6549 18.1156 55.8861C18.0946 56.2434 18.0315 56.5796 18.0105 56.9369C17.9895 57.6095 18.2207 58.0299 18.9983 57.9248C19.6499 57.4624 19.5028 56.7688 19.5448 56.1172C19.5868 55.7599 19.5448 55.3816 20.0702 55.4447C20.5957 55.5077 20.3645 55.9071 20.3645 56.1803C20.3855 56.7057 20.3645 57.2312 20.3224 57.7356Z" fill="white"/>
<path d="M61.5381 25.2212C61.0547 26.6504 60.5713 28.0586 59.9828 29.74C59.7306 28.8783 59.5625 28.2898 59.3943 27.7223C59.4574 27.6593 59.5415 27.6173 59.6466 27.5962C60.2981 27.6173 60.2351 27.0288 60.4452 26.6715C60.7605 26.146 60.6344 25.3263 61.4751 25.1792L61.5381 25.2212Z" fill="white"/>
<path d="M59.6255 27.7013C59.5624 27.7013 59.4784 27.7013 59.4153 27.7013C58.8899 26.7134 58.4905 25.6415 57.7129 24.7798L57.7549 24.7378C57.9651 24.6117 58.1543 24.6537 58.3434 24.7798C59.1211 25.2632 59.8147 26.8395 59.6255 27.7013Z" fill="white"/>
<path d="M49.1377 19.9247C49.2638 19.7145 49.3899 19.5043 49.537 19.3152C49.7052 20.5552 49.3058 21.7743 49.3058 23.0143C48.9695 21.9844 49.1377 20.9546 49.1377 19.9247Z" fill="white"/>
<path d="M64.4596 18.0541C64.4175 17.7388 64.5226 17.3815 64.1863 17.1713C64.5857 16.6039 64.8169 15.8893 65.5105 15.553C65.3633 16.4567 64.8589 17.2344 64.4596 18.0541Z" fill="white"/>
<path d="M27.3633 54.646C27.1321 54.7301 26.8799 55.2765 26.6908 54.688C26.5857 54.3728 26.943 54.1626 27.3003 54.1626C27.6786 54.1626 28.141 54.2256 28.0779 54.625C27.9518 55.3186 27.6156 54.625 27.3633 54.646Z" fill="white"/>
<path d="M26.6488 13.241C26.6488 13.0098 26.6698 12.7786 26.6698 12.5685C26.9851 12.1061 26.7959 11.6437 26.6698 11.1813C26.4386 10.1094 26.859 9.5209 27.8888 9.12156C29.297 8.55409 30.7052 7.94457 32.0293 7.22997C32.7439 6.83064 33.4165 6.49435 34.2362 6.57842C34.6355 7.20895 34.4253 7.92356 34.4674 8.61714C34.5094 9.35276 34.6565 10.0674 34.7616 10.782C34.8036 11.3284 35.224 11.7908 35.0979 12.3583C34.2782 13.7455 33.0382 14.418 31.5249 14.9645C30.453 15.3428 29.3811 15.8262 28.3092 16.2676C27.2583 15.532 27.0691 14.3129 26.6488 13.241Z" fill="white"/>
<path d="M34.6565 10.9291C34.068 9.49994 34.1731 8.0287 34.2782 6.53644C34.3412 6.53644 34.4043 6.51542 34.4463 6.47339C39.7638 7.69242 43.8622 10.5298 46.4264 15.4479C46.4474 16.6039 46.2162 16.7721 45.2074 16.3937C44.829 16.1415 44.4928 15.8263 44.1775 15.49C41.9076 13.136 39.1543 11.7698 35.9175 11.3285C35.4972 11.2654 35.0138 11.2444 34.6565 10.9291Z" fill="white"/>
<path d="M45.2704 16.1836C46.1952 16.7721 46.2793 16.0575 46.4054 15.448C47.4353 17.3606 48.1499 19.3573 48.0658 21.5852C48.0448 22.0896 47.9817 22.615 48.2339 23.0984C48.0658 23.2666 47.9187 23.5188 47.6244 23.2876C47.2041 20.8916 46.5525 18.5586 45.2284 16.4779C45.1653 16.3938 45.2284 16.2677 45.2704 16.1836Z" fill="white"/>
<path d="M40.7096 19.7356C42.2859 20.8495 43.7782 22.0475 45.5647 22.8252C46.1952 23.4978 45.6908 23.729 45.1233 23.9391C44.4297 24.2124 43.6731 24.3175 43.0426 24.7378C40.8357 24.5486 38.7339 24.0022 36.7162 23.1194C36.5901 22.7832 36.8844 22.573 37.0735 22.4259C38.2505 21.5011 39.2594 20.3031 40.7096 19.7356Z" fill="white"/>
<path d="M48.276 29.3828C46.3844 29.656 44.5138 29.9082 42.6222 30.2235C40.7516 30.5388 38.881 30.4547 37.0105 30.2865C34.9297 30.1184 32.87 29.8031 30.8523 29.3618C29.0237 28.9624 27.3003 28.2058 25.5979 27.4702C24.8202 27.1339 23.9375 26.6715 23.2649 25.9989C23.2859 25.5996 23.5171 25.2633 23.8534 25.2213C25.6189 24.9901 27.1532 24.2124 28.7295 23.4768C37.0525 28.9414 45.7959 29.8242 55.0226 25.8308C54.8545 26.3772 54.4972 26.6084 54.1189 26.7976C52.2903 27.7644 50.4408 28.7102 48.4021 29.1936C48.36 29.2567 48.318 29.3407 48.276 29.3828Z" fill="white"/>
<path d="M59.6255 27.7014C59.3313 26.5034 58.974 25.3474 57.7549 24.7379C57.5658 24.1494 58.0282 23.8972 58.3645 23.5819C58.6587 23.3087 58.9319 22.9934 59.2052 22.6782C60.3611 22.1107 61.2018 21.1859 62.0215 20.2191C62.2738 19.9248 62.4629 19.3574 62.9673 19.6726C63.3667 19.9249 63.2195 20.3872 63.0304 20.8076C62.4419 22.2368 61.6222 23.5819 61.4751 25.1583C60.8656 25.8098 60.7184 26.6925 60.4242 27.4912C60.2561 27.9746 60.0459 28.2689 59.6255 27.7014Z" fill="white"/>
<path d="M35.0138 12.3794C35.6654 13.8927 36.7163 15.1748 37.557 16.583C37.4939 17.0664 37.1787 17.3396 36.7583 17.4447C34.8667 17.9281 33.4585 19.1261 32.0714 20.3872C30.5371 19.2312 29.276 17.802 28.3302 16.1206C28.4983 15.9524 28.6665 15.6161 28.8136 15.6161C30.3269 15.6792 31.2727 14.313 32.7229 14.1659C33.4795 14.0818 34.1311 13.4513 34.4043 12.6526C34.5304 12.3374 34.6775 12.1903 35.0138 12.3794Z" fill="white"/>
<path d="M32.0714 20.4082C32.891 18.7899 34.4253 18.0963 35.9596 17.4658C36.5481 17.2346 37.1156 17.0664 37.557 16.583C38.6079 17.6339 39.6587 18.6848 40.7096 19.7357C39.3645 20.8706 38.0404 21.9846 36.6952 23.1195C34.9928 22.489 33.4585 21.5642 32.0714 20.4082Z" fill="white"/>
</g>
<defs>
<clipPath id="clip0_402_883">
<rect width="76" height="58.6394" fill="white" transform="translate(0.923096)"/>
</clipPath>
</defs>
</svg>
