<svg width="80" height="63" viewBox="0 0 80 63" fill="none" xmlns="http://www.w3.org/2000/svg">
<g clip-path="url(#clip0_417_29)">
<path d="M50.9834 35.929C49.9889 35.929 48.9945 35.9511 48 35.929C47.4475 35.9069 47.2265 36.0395 47.2265 36.6583C47.2486 37.697 47.116 38.7135 47.1602 39.7522C47.1823 40.7246 47.0276 41.1445 45.8343 41.034C43.0718 40.7688 40.5304 41.3213 39.0718 44.0837C38.2762 45.5865 37.9668 47.1997 38.1436 48.8793C38.3646 50.824 39.1381 52.4594 41.0608 53.2108C42.8508 53.918 44.6188 53.7412 46.1215 52.4373C46.7182 51.929 46.7845 52.2605 46.8508 52.7688C46.7624 52.9898 46.7403 53.2329 47.0497 53.255C48.1768 53.2771 49.326 53.2771 50.453 53.2771C50.8729 53.2771 50.8729 52.9677 50.895 52.6583C50.9171 51.1997 50.9171 49.7412 50.9392 48.2605C51.2044 44.3489 51.4475 40.4152 51.7127 36.5036C51.7569 35.8848 51.3591 35.929 50.9834 35.929ZM46.8729 45.8296C46.8287 46.5589 46.7624 47.5533 46.3867 48.4815C45.9226 49.6307 44.9724 50.2495 44.0221 50.0506C43.0939 49.8517 42.4972 48.9898 42.4309 47.7964C42.3646 45.8738 43.4475 44.3268 45.1271 44.0395C46.6961 43.7964 46.9171 43.9953 46.8729 45.8296ZM50.7624 47.2881C50.7624 47.1776 50.7624 47.0671 50.7624 46.9566C50.7624 46.8903 50.7624 46.8461 50.7845 46.7798C50.7845 46.9345 50.7624 47.1113 50.7624 47.2881Z" fill="#AE1C2E"/>
<path d="M7.16022 37.1886C9.25966 37.1886 11.3591 37.2107 13.4586 37.1665C14.0994 37.1665 14.2541 37.3654 14.2541 37.9842C14.2099 40.7024 14.232 40.7024 11.4696 40.6803C9.43646 40.6582 9.41436 40.6582 9.32596 42.6693C9.19337 45.8958 9.03867 49.1444 8.97237 52.3709C8.95027 53.1223 8.70718 53.2991 8.02209 53.277C7.00552 53.2328 5.96685 53.2107 4.92817 53.277C4.11049 53.3433 4.04419 52.9676 4.11049 52.3046C4.48618 48.7908 4.57458 45.2549 4.70718 41.7411C4.72928 40.9234 4.53038 40.614 3.6906 40.7024C2.69613 40.7908 1.70165 40.7245 0.707179 40.7908C0.176793 40.835 0.0220971 40.6803 0.0220971 40.1278C-0.0221017 37.2107 -0.0442012 37.2107 2.87292 37.1886C4.28729 37.1665 5.72375 37.1665 7.16022 37.1886Z" fill="#AD1D2E"/>
<path d="M36.3094 44.5699C36.221 47.244 36.0442 49.918 35.9337 52.6141C35.9116 53.0782 35.779 53.255 35.2928 53.255C34.2983 53.2329 33.3039 53.2329 32.3094 53.255C31.7348 53.2771 31.558 53.1003 31.6022 52.5036C31.7348 51.0451 31.779 49.5865 31.8674 47.9953C31.0055 48.3047 30.232 48.5478 29.5028 48.8351C28.884 49.0561 28.3094 49.4318 28.4641 50.1832C28.6409 51.023 29.3702 51.0451 30.0552 50.9788C30.2541 50.9567 30.4751 50.8904 30.6298 50.8683C30.8508 51.023 30.7624 51.1998 30.6961 51.2882C30.2099 52.0837 30.7624 53.5202 29.0608 53.5644C26.3646 53.6307 25.105 53.1003 24.3978 51.3324C23.8453 49.9622 24.221 48.4152 25.3481 47.4208C26.232 46.6473 27.3149 46.2937 28.4199 46.0285C29.2376 45.8296 30.0773 45.6528 30.8729 45.4318C31.4033 45.2771 31.8453 44.9677 31.779 44.3489C31.6906 43.7301 31.1823 43.5755 30.6298 43.5534C28.9724 43.4871 27.4475 44.0395 25.7901 44.6141C25.9005 43.708 26.0331 42.8904 26.1215 42.0727C26.1657 41.7633 26.2983 41.6307 26.5856 41.5644C28.9282 41.0782 31.2928 40.6141 33.6796 41.1445C35.6685 41.5865 36.3757 42.4926 36.3094 44.5699Z" fill="#AF1C2E"/>
<path d="M58.5856 47.6417C60.0442 47.6417 61.5028 47.6638 62.9834 47.6638C65.4586 47.6638 65.7017 47.3765 65.2155 44.9234C65.1713 44.6803 65.0608 44.4372 64.9724 44.1941C63.9779 40.9897 58.3646 39.708 55.6022 41.9842C53.2818 43.9068 52.7514 46.4041 53.2155 49.1665C53.6133 51.5091 55.0718 52.9897 57.4586 53.3433C59.2486 53.6306 61.0387 53.6527 62.8287 53.2328C63.6022 53.3654 63.8895 52.9897 63.9337 52.2604C63.9558 51.8184 64.1105 51.3986 64.1105 50.9566C64.1326 50.5809 64.4862 50.0726 64.1105 49.8295C63.8011 49.6306 63.3591 49.94 63.0055 50.1168C61.7017 50.3378 60.3978 50.5588 59.0497 50.3378C58.6077 50.0947 58.1216 49.8737 57.8122 49.4538C57.5028 49.0339 57.2818 48.5256 57.4144 48.0173C57.6133 47.4428 58.2099 47.8405 58.5856 47.6417ZM58.2541 44.1941C58.895 43.5533 59.6464 43.5312 60.3978 43.9068C61.0166 44.2162 61.2376 44.8792 61.1492 45.5201C61.0387 46.2494 60.3757 45.8295 59.9558 45.9179C59.7569 45.9621 59.5138 45.9179 59.2928 45.9179C59.1381 45.9179 58.9834 45.94 58.8508 45.9179C58.4309 45.8295 57.768 46.2273 57.5912 45.6527C57.4586 45.1223 57.8564 44.5919 58.2541 44.1941Z" fill="#AE1C2F"/>
<path d="M76.6851 48.1941C77.7238 49.7632 78.6077 51.4427 79.6685 53.2549C78.011 53.2549 76.5083 53.2549 75.0276 53.2549C74.674 53.2549 74.4972 53.1002 74.3646 52.7908C73.9005 51.7079 73.4365 50.6471 72.9724 49.5643C72.0663 50.3378 71.6906 51.4869 71.0939 52.4593C70.7403 53.0339 70.3867 53.2991 69.7017 53.2549C68.4641 53.1886 67.2044 53.2328 65.9668 53.2328C65.9226 53.2328 65.9005 53.2107 65.6354 53.1444C67.0718 51.1112 68.4862 49.1444 69.8784 47.1996C69.9226 46.4704 69.3702 46.0063 69.0387 45.4538C68.2652 44.1057 67.4254 42.7576 66.5414 41.2549C68.2431 41.2549 69.768 41.2549 71.2928 41.2549C71.7348 41.2549 71.8453 41.5422 71.9779 41.8516C72.3536 42.7134 72.7514 43.5532 73.2155 44.5919C73.8342 43.5753 74.3646 42.6913 74.8508 41.8295C75.0497 41.498 75.2486 41.2549 75.6906 41.277C77.0387 41.2991 78.3867 41.277 79.9558 41.277C78.8508 42.8681 77.9005 44.3267 76.8398 45.6969C76.1105 46.5588 76.0442 47.2438 76.6851 48.1941Z" fill="#AE1C2E"/>
<path d="M26.8066 7.75224C27.5801 5.3434 28.884 3.33235 31.0939 1.98429C33.2376 0.702519 35.6022 0.282629 38.0552 0.569922C39.7127 0.768818 41.3702 1.05611 42.6961 2.24948C42.2983 2.60307 41.8563 2.38208 41.4365 2.33788C39.9558 2.18318 38.5856 2.40418 37.4144 3.42075C36.9282 3.81854 36.8619 4.17213 37.2376 4.63622C35.9116 5.03401 35.6685 6.20528 35.3149 7.28815C35.2486 7.37655 35.1602 7.44285 35.0718 7.50915C33.1934 7.84064 31.6906 8.98981 29.9668 9.69699C29.5912 9.85169 29.2597 10.0727 28.884 10.2053C27.4475 10.7136 27.2928 10.9567 27.4696 12.4373C27.5138 12.813 27.5801 13.1666 27.3812 13.5202C27.2486 13.7633 27.0497 13.7854 26.8729 13.5644C26.1878 11.6417 25.8343 9.69699 26.8066 7.75224Z" fill="#9FA0A5"/>
<path d="M49.7459 24.7687C50.1216 25.498 50.7845 25.1002 51.3149 25.1444C51.9116 25.2107 52.5525 25.2549 53.1492 25.0118C54.6298 25.0339 56.0221 24.5477 57.5028 24.0836C56.4862 22.8682 55.1381 22.2936 53.7901 21.3212C57.5912 20.8129 60.9724 19.7301 64.0884 17.8958C65.1713 17.2549 66.1657 16.5477 67.1602 15.7743C67.4475 15.5533 67.6685 15.2218 68.0884 15.266C68 16.2825 67.2044 16.835 66.6298 17.498C64.7956 19.5975 62.8508 21.6085 60.6409 23.3323C57.8343 25.5422 54.5856 26.5809 51.0718 26.9124C50.1658 27.0008 49.7459 27.3102 49.6575 28.2162C49.6133 28.6582 49.5249 29.1886 49.0387 29.4317C48.9061 29.4317 48.8177 29.3654 48.7514 29.2549C48.5746 28.8571 48.6851 28.4593 48.7293 28.0836C48.8398 27.3102 48.5083 27.045 47.7569 27.0229C46.6077 27.0008 45.4365 27.1997 44.3315 26.6472C43.9337 26.1831 44.4199 26.0947 44.663 25.9621C45.1934 25.6527 45.8122 25.5201 46.3867 25.3212C46.7845 25.1665 47.1823 25.0781 46.8287 24.5256C47.5359 24.2383 48.1768 24.7466 48.8619 24.7024C49.1713 24.8571 49.4807 24.7466 49.7459 24.7687Z" fill="#57575A"/>
<path d="M20.3536 25.7191C19.2486 24.5036 18.3867 23.1776 18.1436 21.5202C18.2099 20.1058 19.0276 19.2218 20.2652 18.7577C21.3923 18.3157 22.6077 18.1168 23.8232 18.0063C25.0166 19.0008 25.9006 20.2163 26.4309 21.6749C25.2376 22.2052 24.3978 23.2439 23.1823 23.7301C22.4972 23.9953 21.8785 24.371 21.5028 25.0561C21.2818 25.4981 20.8619 25.697 20.3536 25.7191Z" fill="#BC4253"/>
<path d="M49.105 29.3655C49.1492 29.2329 49.1713 29.0782 49.2376 28.9456C49.547 28.2385 49.2597 27.244 49.8784 26.8241C50.4309 26.4705 51.2928 26.6031 52.0221 26.5147C55.5359 26.0727 58.6519 24.7468 61.3481 22.4484C63.8674 20.3048 66.1215 17.918 68.1105 15.2661C68.5304 14.9125 68.7514 15.023 68.5746 15.5534C68.4199 15.9954 68.1326 16.3932 67.9116 16.813C67.4696 17.4097 67.1602 18.0948 66.6961 18.6915C65.1271 20.8572 63.2486 22.7357 61.2818 24.5258C58.1657 27.0451 54.6519 28.7026 50.7403 29.5423C50.2099 29.6528 49.5691 30.0506 49.105 29.3655Z" fill="#FEFDFD"/>
<path d="M23.9779 18.1169C23.0939 18.3379 22.232 18.6252 21.3481 18.7357C19.6243 18.9346 18.8066 20.0838 18.1879 21.5202C17.6133 19.686 17.9006 17.8959 18.5857 16.1501C19.6022 13.5423 21.0387 11.244 23.5138 9.74121C23.9337 10.1832 23.6685 10.6252 23.5359 11.0672C22.8508 13.255 23.1602 15.3766 24.1105 17.4097C24.1326 17.6528 24.1547 17.8959 23.9779 18.1169Z" fill="#C35764"/>
<path d="M20.3536 25.7191C20.9724 25.4539 21.1492 24.6363 21.6354 24.3932C23.2486 23.5092 24.5746 22.1169 26.4088 21.6528C27.558 22.0948 28.2873 23.0009 28.9061 24.0175C28.6851 24.5258 29.4807 24.8131 29.1934 25.3434C27.9558 26.2053 26.6519 26.8462 25.1492 27.0893C24.5746 27.1777 24.0221 27.3766 23.6464 27.8628C23.4696 28.0175 23.2707 28.0617 23.0497 28.0838C21.9448 27.5092 21.1934 26.581 20.3536 25.7191Z" fill="#B73244"/>
<path d="M23.9337 17.476C22.9613 16.592 23.0497 15.3323 22.8508 14.2052C22.5635 12.6583 23.2044 11.2218 23.4917 9.74115C24.4199 8.79087 25.5691 8.17209 26.8066 7.7522C26.453 9.76325 26.4972 11.7301 27.0939 13.6969C27.2707 13.8737 27.2707 14.0947 27.2486 14.3157C27.1823 14.6251 26.9834 14.8461 26.7403 14.9787C25.5912 15.5975 25.0387 16.8351 23.9337 17.476Z" fill="#7A2422"/>
<path d="M42.0773 6.42639C40.5304 5.65291 38.9834 4.85733 37.2376 4.63633C36.9724 4.54794 36.6851 4.43744 36.4199 4.34904C37.3481 2.55899 39.4033 1.67501 41.6354 2.0728C41.989 2.1391 42.3425 2.1833 42.7182 2.2496C43.5801 2.75788 44.4641 3.24407 45.1492 4.01755C45.1934 4.19435 45.105 4.32694 44.9503 4.32694C43.0939 4.34904 42.7403 4.65843 42.4972 6.36009C42.453 6.58109 42.232 6.55899 42.0773 6.42639Z" fill="#2E2D2F"/>
<path d="M29.2376 25.2108C29.0387 24.8572 28.1768 24.7467 28.7956 24.0837C29.6354 24.1058 30.1657 24.7467 30.7624 25.1887C36 28.8793 41.8122 30.0064 48.0884 29.3434C48.3536 29.3213 48.5967 29.2771 48.8398 29.3655C48.9282 29.3655 48.9945 29.3876 49.0829 29.3876C50.2762 29.6086 51.3591 29.1224 52.4641 28.813C55.6906 27.9069 58.5414 26.2937 61.2155 24.2605C61.2597 24.2826 61.2818 24.3268 61.326 24.3489C61.1934 25.2992 60.0663 25.5644 59.8232 26.4484C59.779 26.4705 59.7348 26.5147 59.7127 26.5368C56.8398 28.9014 53.6796 30.7357 50.0111 31.5092C49.8785 31.4871 49.7901 31.4208 49.7459 31.3103C49.8343 30.9346 50.1878 30.802 50.4972 30.7357C52.5304 30.2274 54.3204 29.2329 56.0884 28.15C53.3039 29.6307 50.2762 30.0064 47.2265 30.4484C44.7293 30.802 42.2983 30.3379 39.8674 30.0285C36.7514 29.6086 33.9669 28.2826 31.2928 26.7136C30.8729 26.4705 30.4751 26.2274 30.0331 26.0064C29.6796 25.8296 29.2155 25.7412 29.2376 25.2108Z" fill="#972F3D"/>
<path d="M47.7569 12.1942C46.7624 10.6252 45.547 9.25498 44.221 7.99532C44.0884 7.59753 43.7569 7.11134 44.6188 7.22184C45.0608 7.28813 45.2597 6.93454 45.5249 6.69145C45.9448 6.31576 46.4088 6.05057 46.9613 5.91797C48.3978 7.50913 49.2376 9.40968 49.8343 11.4428C49.7901 12.3268 48.9503 12.0616 48.5083 12.3268C48.2873 12.4373 48 12.2605 47.7569 12.1942Z" fill="#4C4C4E"/>
<path d="M22.7403 44.8573C20.7956 44.7689 19.8232 45.6087 19.558 47.5534C19.337 49.1667 19.3149 50.7799 19.3812 52.3932C19.4033 53.0341 19.2707 53.3214 18.5415 53.2772C17.5912 53.2109 16.6409 53.233 15.6685 53.2772C15.0718 53.2993 14.9171 53.0783 14.9613 52.5037C15.2486 48.9899 15.4475 45.4761 15.3591 41.9402C15.337 41.4098 15.558 41.233 16.0884 41.2551C16.9724 41.2772 17.8564 41.3214 18.7404 41.2551C19.5359 41.1888 19.7348 41.4982 19.5359 42.2054C19.6022 42.2496 19.6685 42.2938 19.7348 42.3158C20.4641 41.4982 21.326 40.9236 22.4972 40.9236C23.0497 40.9236 23.4033 41.0341 23.3812 41.7192C23.3591 42.5147 23.4033 43.3324 23.4917 44.1501C23.5138 44.7026 23.3591 44.8794 22.7403 44.8573Z" fill="#AF1C2E"/>
<path d="M46.9392 5.9179C46.453 6.58089 45.4586 6.71348 45.105 7.55326C45.0387 7.70796 44.8398 7.73006 44.7293 7.61956C43.9558 6.93448 44.442 7.95105 44.221 7.99525C43.5138 7.46486 42.7845 6.95658 42.0773 6.42619C42.3204 5.01183 42.4751 5.16652 43.3812 4.23835C44.0663 3.53116 44.5967 4.14995 45.1492 4.01735C45.8785 4.52564 46.453 5.18862 46.9392 5.9179Z" fill="#3D3C3F"/>
<path d="M47.7569 12.1941C48.5304 12.1941 49.1492 11.7521 49.8121 11.4648C50.9613 14.4704 51.2486 17.6085 51.116 20.7908C50.8287 20.9234 51.2707 21.498 50.6961 21.4317C50.3867 18.1389 49.5249 15.0229 47.7569 12.1941Z" fill="#5C5B5D"/>
<path d="M49.7901 31.3766C49.8564 31.4208 49.9227 31.465 50.0111 31.5092C41.1492 33.697 32.5304 33.3213 24.3315 28.9235C23.8895 28.6804 23.4917 28.349 23.0718 28.0617C23.1602 27.8849 23.337 27.8407 23.5138 27.8407C24.0663 27.7965 24.5083 28.1059 24.9503 28.3711C28.7514 30.6694 32.9503 31.465 37.2818 31.9954C41.105 32.4816 44.8177 31.7744 48.5525 31.2661C48.9503 31.1998 49.3923 31.023 49.7901 31.3766Z" fill="#8E313F"/>
<path d="M45.3923 59.0892C45.8122 58.9787 46.1436 58.7135 46.5635 58.7135C47.3812 58.7135 47.9337 58.9566 47.8895 59.9069C47.8674 60.3931 47.8453 60.8572 47.8232 61.3434C47.8011 61.6528 47.9116 62.0506 47.3812 62.0285C46.7403 62.0064 46.9834 61.5423 46.9613 61.2329C46.9392 60.9014 46.9834 60.5699 46.9834 60.2384C47.0055 59.8406 46.895 59.487 46.4309 59.4428C45.989 59.3986 45.6133 59.5533 45.5028 60.0174C45.3923 60.4815 45.3702 60.9677 45.326 61.4318C45.3039 61.7412 45.2818 62.0285 44.8619 62.0285C44.3315 62.0285 44.442 61.6307 44.442 61.3213C44.4641 60.371 44.5083 59.4207 44.5304 58.4483C44.5525 58.0948 44.442 57.6528 45.0387 57.6749C45.6796 57.697 45.3702 58.1832 45.3923 58.4926C45.4144 58.6914 45.3923 58.8903 45.3923 59.0892Z" fill="#686868"/>
<path d="M10.5635 60.9897C11.7569 60.0616 11.4033 58.0505 13.3923 57.5422C12.6188 59.0671 11.9779 60.3268 11.3591 61.6085C11.1602 62.0284 10.8508 62.0284 10.453 62.0505C10.011 62.0726 9.92264 61.7632 9.81214 61.4538C9.45855 60.4594 9.10496 59.4649 8.77347 58.4483C8.70717 58.2273 8.39778 57.8737 8.79557 57.719C9.12706 57.5864 9.50275 57.6306 9.63535 58.1389C9.90054 59.0892 10.232 60.0174 10.5635 60.9897Z" fill="#686868"/>
<path d="M61.2155 24.2606C63.1602 22.5148 64.9061 20.5921 66.4972 18.5369C67.2265 18.6474 66.8066 19.1336 66.7845 19.465C65.7679 21.9844 64.7293 24.4816 63.7127 27.001C63.6685 26.9789 63.6243 26.9347 63.6022 26.9126C63.337 26.0949 63.7348 25.4098 64 24.7026C64.3978 23.7081 64.9061 22.7358 65.0166 21.6087C64.3315 22.2496 63.6685 22.8242 63.0055 23.4429C62.5193 23.8849 62.1215 24.57 61.2817 24.349L61.2155 24.2606Z" fill="#993142"/>
<path d="M68.5304 60.5258C68.5304 60.6805 68.5304 61.0562 68.5304 61.4098C68.5525 61.9623 68.2873 62.2275 67.8011 61.9623C67.5138 61.8076 67.3591 61.8739 67.116 61.9623C65.7238 62.4043 65.2376 62.0065 65.2597 60.5258C65.2597 60.0838 65.2818 59.6419 65.3039 59.1999C65.326 58.8684 65.547 58.8021 65.8343 58.8021C66.1215 58.8242 66.1878 59.0231 66.1878 59.2441C66.1878 59.6419 66.1657 60.0617 66.1436 60.4595C66.1215 60.9457 66.2099 61.3877 66.8066 61.4098C67.3149 61.4098 67.6022 61.0562 67.6685 60.57C67.7348 60.2164 67.7127 59.8407 67.7348 59.4651C67.7348 59.1115 67.7348 58.78 68.221 58.8021C68.7735 58.8242 68.5746 59.2441 68.5967 59.5535C68.5967 59.7965 68.5525 60.0617 68.5304 60.5258Z" fill="#646464"/>
<path d="M14.8508 58.7356C13.7459 58.7135 12.9724 59.3986 12.9282 60.4152C12.9061 61.3876 13.6354 62.1168 14.674 62.1168C15.779 62.1168 16.5083 61.4318 16.5083 60.371C16.5304 59.3765 15.9116 58.7577 14.8508 58.7356ZM15.6243 60.2163C15.6243 61.0119 15.4033 61.476 14.6961 61.476C14.0331 61.476 13.8343 61.0119 13.8343 60.4594C13.8564 59.8627 14.1215 59.3544 14.7845 59.3765C15.4254 59.3544 15.6464 59.7964 15.6243 60.2163Z" fill="#686868"/>
<path d="M62.9834 58.7357C61.8563 58.7136 61.105 59.3544 61.0608 60.3931C61.0387 61.4318 61.6574 62.0727 62.7624 62.0948C63.8674 62.1169 64.5967 61.476 64.5967 60.3931C64.6409 59.3765 64.0442 58.7578 62.9834 58.7357ZM62.8287 61.4539C62.1657 61.4539 61.9668 61.0119 61.9668 60.4373C61.9668 59.8185 62.232 59.3544 62.895 59.3323C63.5359 59.3323 63.7569 59.7743 63.7348 60.2163C63.7348 60.9898 63.5359 61.4539 62.8287 61.4539Z" fill="#646464"/>
<path d="M50.7845 58.7798C50.0773 58.6472 49.3702 58.6693 48.884 59.3323C48.3978 59.9953 48.3536 60.7246 48.7514 61.4097C49.1934 62.1389 49.9668 62.161 50.7182 62.1168C51.0055 62.0947 51.4033 62.0947 51.4033 61.719C51.3812 61.2108 50.9613 61.5864 50.7403 61.5202C50.1436 61.5423 49.4586 61.5201 49.5028 60.7909C49.547 60.2384 50.232 60.6141 50.6077 60.5036C50.6519 60.5036 50.674 60.5036 50.7182 60.5036C51.0718 60.371 51.7127 60.7688 51.7569 60.0616C51.8011 59.3986 51.4475 58.9124 50.7845 58.7798ZM50.1878 60.0837C49.9447 60.0174 49.5249 60.2384 49.5691 59.7301C49.6133 59.4207 49.8784 59.2439 50.2099 59.2439C50.5635 59.2439 50.9171 59.3765 50.8729 59.7743C50.8508 60.2163 50.4309 59.9953 50.1878 60.0837Z" fill="#636363"/>
<path d="M34.3646 60.4816C34.7845 60.3049 35.6243 60.8794 35.6022 59.9071C35.5801 59.1336 35.0055 58.78 34.2541 58.7358C33.1271 58.6695 32.3978 59.2883 32.3757 60.3933C32.3315 61.5645 32.9503 62.1391 34.3204 62.117C34.6298 62.0507 35.2486 62.2496 35.2044 61.675C35.1823 61.1888 34.674 61.5424 34.3867 61.5203C33.8784 61.4761 33.2818 61.4098 33.326 60.8352C33.3481 60.1502 34.011 60.6363 34.3646 60.4816ZM34.1436 59.2662C34.4972 59.2662 34.7403 59.4872 34.6961 59.7966C34.6298 60.2165 34.2099 59.9292 34.0331 60.0618C33.7458 60.0176 33.3702 60.1502 33.4144 59.7745C33.4365 59.443 33.79 59.2662 34.1436 59.2662Z" fill="#686868"/>
<path d="M28.1768 60.4814C28.5967 60.2825 29.4365 60.8792 29.4365 59.9289C29.4365 59.1555 28.8619 58.8019 28.1105 58.7356C26.9834 58.6472 26.1657 59.3986 26.1657 60.4814C26.1657 61.5864 26.9171 62.2052 28.2652 62.1168C28.5746 62.0947 29.0608 62.161 29.0387 61.719C29.0387 61.1223 28.5304 61.5201 28.2873 61.5201C27.7348 61.498 27.116 61.4317 27.116 60.8129C27.1602 60.1499 27.8232 60.6361 28.1768 60.4814ZM27.2044 59.7521C27.2928 59.3986 27.6022 59.2439 27.9558 59.2439C28.2652 59.266 28.5967 59.4207 28.5525 59.7521C28.4862 60.3267 27.9779 59.9731 27.6906 60.0836C27.4917 60.0173 27.0939 60.1941 27.2044 59.7521Z" fill="#686868"/>
<path d="M53.326 61.277C53.8342 61.6748 54.7403 61.1223 54.6961 61.6969C54.6519 62.3599 53.79 61.9621 53.3039 62.0063C52.9503 62.0284 52.4199 62.2494 52.221 61.7853C52 61.2991 52.4641 60.9897 52.7514 60.6803C53.0829 60.3046 53.4144 59.9289 53.768 59.5532C53.6354 59.4648 53.5912 59.4206 53.5249 59.3985C53.1713 59.2438 52.442 59.6858 52.4641 59.0671C52.4862 58.5146 53.1713 58.8682 53.5691 58.7798C53.7679 58.7356 54.011 58.7798 54.232 58.7798C55.116 58.7577 55.0497 59.2438 54.674 59.7521C54.2762 60.2825 53.8121 60.7466 53.326 61.277Z" fill="#686868"/>
<path d="M58.895 60.9455C59.7569 60.3931 59.1823 58.7577 60.8177 58.8019C60.3536 59.8406 59.9558 60.7908 59.558 61.719C59.4033 62.0726 59.116 62.0284 58.8066 62.0505C58.4972 62.0505 58.3646 61.8958 58.2762 61.6085C58.0331 60.8792 57.768 60.15 57.5249 59.4207C57.4586 59.2218 57.1492 58.9345 57.5912 58.8019C57.8785 58.7135 58.1878 58.7577 58.2983 59.1334C58.4751 59.7301 58.674 60.3268 58.895 60.9455Z" fill="#676767"/>
<path d="M70.7845 58.7578C70.9613 58.7799 71.1381 58.7799 71.337 58.802C71.558 58.8241 71.6464 58.9567 71.6464 59.1777C71.6243 59.465 71.4254 59.3766 71.2486 59.3545C70.9834 59.3324 70.6961 59.2661 70.5635 59.5313C70.3867 59.907 70.7624 60.0175 70.9392 60.2164C71.337 60.6142 71.9779 60.9899 71.4917 61.6529C71.0497 62.2716 70.3425 62.1611 69.6795 62.0507C69.4365 62.0065 69.2597 61.8739 69.326 61.6087C69.3923 61.3656 69.6133 61.4761 69.7679 61.4761C70.0552 61.4761 70.4088 61.6308 70.5414 61.2993C70.7182 60.9015 70.3204 60.7247 70.0773 60.5258C69.6574 60.1943 69.2597 59.8407 69.5249 59.244C69.79 58.7357 70.2762 58.6915 70.7845 58.7578Z" fill="#656565"/>
<path d="M22.9171 58.7577C22.8066 58.7577 22.9834 58.7577 23.1602 58.7798C23.3591 58.8019 23.5138 58.8682 23.5138 59.1113C23.5138 59.3765 23.3149 59.3323 23.1381 59.3323C22.8508 59.3323 22.4972 59.2218 22.3867 59.5975C22.2983 59.8848 22.5856 60.0395 22.7845 60.1942C23.2486 60.5699 23.8011 60.9898 23.3812 61.6306C22.9392 62.3157 22.1657 62.161 21.4806 62.0505C21.2817 62.0063 21.1712 61.8737 21.1933 61.6527C21.2154 61.3875 21.4143 61.4317 21.6132 61.4538C21.9447 61.498 22.3425 61.6306 22.4972 61.277C22.6961 60.813 22.1657 60.7246 21.9226 60.4815C21.569 60.15 21.1712 59.8185 21.4143 59.266C21.6132 58.7577 22.1215 58.7135 22.9171 58.7577Z" fill="#686868"/>
<path d="M42.8508 58.7579C42.9613 58.7579 43.0718 58.7358 43.1823 58.7579C43.4254 58.8021 43.7569 58.78 43.7569 59.1336C43.7569 59.5534 43.4033 59.4209 43.1823 59.3988C42.4309 59.3767 41.9669 59.6418 41.989 60.4595C41.989 61.233 42.3867 61.4982 43.116 61.454C43.3149 61.4319 43.6022 61.3214 43.6022 61.6971C43.6022 61.9623 43.4033 62.0728 43.1602 62.0949C42.5193 62.1612 41.8785 62.1612 41.4365 61.6087C40.9503 61.012 40.9503 60.3269 41.2376 59.6418C41.5249 58.9126 42.1436 58.7358 42.8508 58.7579Z" fill="#686868"/>
<path d="M31.0939 62.1169C30.8287 62.1169 30.5856 62.0506 30.3867 61.8517C30.0994 61.5865 30.0994 61.2108 30.1878 60.9235C30.453 60.0395 29.5691 59.0672 30.4088 58.2716C30.6298 58.0506 31.0276 57.8517 31.1602 58.36C31.2486 58.6694 31.3812 58.7357 31.6464 58.802C32.0442 58.9346 32.0221 59.1556 31.6685 59.3766C30.8066 59.929 30.7624 60.9014 31.558 61.4097C31.7348 61.5202 31.8674 61.5865 31.8011 61.8075C31.7127 62.2053 31.3812 62.0948 31.0939 62.1169Z" fill="#686868"/>
<path d="M37.5249 58.7356C37.8343 58.7798 38.3204 58.6472 38.3646 59.045C38.4088 59.6638 37.8784 59.1776 37.6354 59.2881C37.4807 59.3544 37.2597 59.3765 37.2155 59.5754C37.1713 59.7743 37.326 59.9069 37.4586 60.0174C37.547 60.0837 37.6354 60.15 37.7238 60.2163C38.1657 60.614 38.7182 61.0339 38.2099 61.6748C37.7238 62.2936 36.9724 62.161 36.2873 61.9842C36.1989 61.9621 36.0884 61.7632 36.0884 61.6527C36.0884 61.3654 36.3094 61.4317 36.4862 61.4759C36.8177 61.5422 37.2376 61.6527 37.3702 61.2991C37.547 60.8571 37.0608 60.7024 36.8177 60.4815C36.4199 60.15 36.1105 59.7964 36.3315 59.266C36.5304 58.7356 37.0387 58.7356 37.5249 58.7356Z" fill="#686868"/>
<path d="M50.7845 46.7578C50.7845 46.9346 50.7624 47.0893 50.7624 47.2661C50.7624 47.1556 50.7624 47.0451 50.7624 46.9346C50.7845 46.8904 50.7845 46.8241 50.7845 46.7578Z" fill="#881E2E"/>
<path d="M20.3978 61.1886C20.3757 61.4759 20.5746 61.8737 20.1326 62.0284C19.7348 62.161 19.5359 61.8516 19.3149 61.6306C18.8066 62.0726 18.2762 62.2936 17.6133 61.94C16.9724 61.6085 17.1271 61.0118 17.1271 60.4814C17.1271 60.0394 17.1713 59.5974 17.1934 59.1554C17.2155 58.824 17.4586 58.7577 17.7459 58.7798C18.0331 58.8019 18.0994 59.0007 18.0773 59.2438C18.0552 59.6195 17.9889 59.9731 17.9669 60.3488C17.9448 61.056 18.1878 61.498 19.0055 61.3875C19.6906 60.9013 19.5359 60.172 19.5801 59.4869C19.6243 59.1112 19.5801 58.7135 20.1326 58.7798C20.6851 58.8461 20.442 59.2659 20.442 59.5532C20.4641 60.1057 20.442 60.6582 20.3978 61.1886Z" fill="#686868"/>
<path d="M63.7348 27.0007C63.2265 28.5035 62.7182 29.9842 62.0994 31.7521C61.8342 30.846 61.6574 30.2273 61.4807 29.6306C61.547 29.5643 61.6353 29.5201 61.7458 29.498C62.4309 29.5201 62.3646 28.9013 62.5856 28.5256C62.9171 27.9731 62.7845 27.1112 63.6685 26.9565L63.7348 27.0007Z" fill="#8E3242"/>
<path d="M61.7238 29.6087C61.6575 29.6087 61.5691 29.6087 61.5028 29.6087C60.9503 28.57 60.5304 27.4429 59.7127 26.5369L59.7569 26.4927C59.9779 26.3601 60.1768 26.4043 60.3757 26.5369C61.1934 27.0451 61.9226 28.7026 61.7238 29.6087Z" fill="#972F3D"/>
<path d="M50.6961 21.4319C50.8287 21.2109 50.9613 20.9899 51.116 20.791C51.2928 22.0949 50.8729 23.3767 50.8729 24.6805C50.5193 23.5976 50.6961 22.5148 50.6961 21.4319Z" fill="#848382"/>
<path d="M66.8066 19.465C66.7624 19.1335 66.8729 18.7579 66.5193 18.5369C66.9392 17.9402 67.1823 17.1888 67.9116 16.8352C67.7569 17.7855 67.2265 18.6032 66.8066 19.465Z" fill="#7B4653"/>
<path d="M27.8011 57.9402C27.558 58.0286 27.2928 58.6032 27.0939 57.9844C26.9834 57.6529 27.3591 57.4319 27.7348 57.4319C28.1326 57.4319 28.6188 57.4982 28.5525 57.9181C28.4199 58.6474 28.0663 57.9181 27.8011 57.9402Z" fill="#7B7B7B"/>
<path d="M27.0497 14.4042C27.0497 14.1611 27.0718 13.918 27.0718 13.697C27.4033 13.2108 27.2044 12.7246 27.0718 12.2385C26.8287 11.1114 27.2707 10.4926 28.3536 10.0727C29.8343 9.47602 31.3149 8.83514 32.7072 8.08375C33.4586 7.66387 34.1657 7.31027 35.0276 7.39867C35.4475 8.06165 35.2265 8.81304 35.2707 9.54232C35.3149 10.3158 35.4696 11.0672 35.5801 11.8186C35.6243 12.3931 36.0663 12.8793 35.9337 13.476C35.0718 14.9346 33.768 15.6418 32.1768 16.2164C31.0497 16.6141 29.9227 17.1224 28.7956 17.5865C27.6906 16.813 27.4917 15.5313 27.0497 14.4042Z" fill="#8B8C91"/>
<path d="M35.4696 11.9732C34.8508 10.4704 34.9613 8.92345 35.0718 7.35438C35.1381 7.35438 35.2044 7.33228 35.2486 7.28809C40.8398 8.56985 45.1492 11.5533 47.8453 16.7246C47.8674 17.94 47.6243 18.1168 46.5635 17.719C46.1657 17.4538 45.8121 17.1223 45.4807 16.7687C43.0939 14.2936 40.1989 12.8571 36.7956 12.3931C36.3536 12.3268 35.8453 12.3047 35.4696 11.9732Z" fill="#823130"/>
<path d="M46.6298 17.4981C47.6022 18.1169 47.6906 17.3655 47.8232 16.7246C48.9061 18.7357 49.6575 20.8351 49.5691 23.1776C49.547 23.708 49.4807 24.2605 49.7459 24.7688C49.5691 24.9456 49.4144 25.2108 49.105 24.9677C48.663 22.4484 47.9779 19.9953 46.5856 17.8075C46.5193 17.7191 46.5856 17.5865 46.6298 17.4981Z" fill="#72413E"/>
<path d="M41.8343 21.2329C43.4917 22.4042 45.0608 23.6638 46.9392 24.4815C47.6022 25.1887 47.0718 25.4318 46.4751 25.6528C45.7459 25.9401 44.9503 26.0506 44.2873 26.4926C41.9668 26.2937 39.7569 25.7191 37.6354 24.7909C37.5028 24.4373 37.8122 24.2163 38.011 24.0616C39.2486 23.0893 40.3094 21.8296 41.8343 21.2329Z" fill="#656568"/>
<path d="M49.7901 31.3765C47.8011 31.6637 45.8343 31.9289 43.8453 32.2604C41.8785 32.5919 39.9116 32.5035 37.9448 32.3267C35.7569 32.1499 33.5912 31.8184 31.4696 31.3543C29.547 30.9345 27.7348 30.1389 25.9448 29.3654C25.1271 29.0118 24.1989 28.5256 23.4917 27.8184C23.5138 27.3985 23.7569 27.045 24.1105 27.0008C25.9669 26.7577 27.5801 25.94 29.2376 25.1665C37.989 30.9124 47.1823 31.8405 56.884 27.6416C56.7072 28.2162 56.3315 28.4593 55.9337 28.6582C54.011 29.6748 52.0663 30.6693 49.9226 31.1776C49.8785 31.2439 49.8343 31.3323 49.7901 31.3765Z" fill="#B12536"/>
<path d="M61.7237 29.6086C61.4144 28.349 61.0387 27.1335 59.7569 26.4926C59.558 25.8738 60.0442 25.6086 60.3978 25.2772C60.7072 24.9899 60.9945 24.6584 61.2818 24.3269C62.4972 23.7302 63.3812 22.7578 64.2431 21.7412C64.5083 21.4319 64.7072 20.8352 65.2376 21.1667C65.6575 21.4319 65.5028 21.918 65.3039 22.36C64.6851 23.8628 63.8232 25.2772 63.6685 26.9346C63.0276 27.6197 62.8729 28.5479 62.5635 29.3877C62.3867 29.8959 62.1657 30.2053 61.7237 29.6086Z" fill="#AD2133"/>
<path d="M35.8453 13.498C36.5304 15.0892 37.6354 16.4372 38.5193 17.9179C38.453 18.4262 38.1215 18.7135 37.6796 18.824C35.6906 19.3322 34.2099 20.5919 32.7514 21.9179C31.1381 20.7024 29.8121 19.1997 28.8177 17.4317C28.9945 17.2549 29.1713 16.9013 29.326 16.9013C30.9171 16.9676 31.9116 15.5311 33.4365 15.3764C34.232 15.2881 34.9171 14.6251 35.2044 13.7853C35.337 13.4538 35.4917 13.2991 35.8453 13.498Z" fill="#7F8084"/>
<path d="M32.7514 21.9401C33.6133 20.2384 35.2265 19.5091 36.8398 18.8461C37.4586 18.6031 38.0552 18.4263 38.5193 17.918C39.6243 19.0229 40.7293 20.1279 41.8342 21.2329C40.4199 22.4263 39.0276 23.5975 37.6133 24.7909C35.8232 24.1279 34.2099 23.1555 32.7514 21.9401Z" fill="#737478"/>
</g>
<defs>
<clipPath id="clip0_417_29">
<rect width="80" height="61.6575" fill="white" transform="translate(0 0.481445)"/>
</clipPath>
</defs>
</svg>
