<svg width="82" height="87" viewBox="0 0 82 87" fill="none" xmlns="http://www.w3.org/2000/svg">
<path fill-rule="evenodd" clip-rule="evenodd" d="M9.05137 0.258555C8.99801 0.400663 8.98396 9.08325 9.02004 19.553C9.08479 38.3756 9.09011 38.6052 9.49551 40.0469C10.1635 42.4223 11.278 44.4969 12.7577 46.119C16.0731 49.7536 20.7672 51.9274 28.2314 53.2847C32.0084 53.9715 33.7208 54.6451 35.8309 56.2744C36.7861 57.0117 37.0117 57.1105 37.2786 56.9081C40.0673 54.793 41.6636 54.0689 44.8584 53.4695C47.8123 52.9153 50.1218 52.3653 51.9628 51.7775C54.0619 51.1072 57.429 49.4186 58.8529 48.3222C61.6045 46.2036 63.5824 43.3074 64.4663 40.1026C64.8815 38.5964 64.884 38.4914 64.9419 19.2944L65 0H37.0741C14.0132 0 9.13131 0.0451013 9.05137 0.258555ZM63.1823 20.0234C63.1823 36.9951 63.1595 38.2838 62.8373 39.4636C62.0384 42.3902 60.2318 45.0613 57.815 46.889C55.3644 48.7427 51.241 50.3817 46.8693 51.2401C41.5886 52.2771 40.2365 52.7197 38.168 54.0883C37.2469 54.698 36.9308 54.8197 36.7012 54.6533C34.6218 53.1451 32.3209 52.2489 28.8723 51.6037C18.8331 49.7256 13.7371 46.5323 11.5607 40.7556L10.9641 39.172L10.9111 20.4601L10.8583 1.74826L37.0202 1.79744L63.1823 1.84682V20.0234ZM15.2798 20.3685L15.3314 36.6545L15.7475 37.1958C15.9761 37.4936 16.4012 37.9288 16.6921 38.1629L17.221 38.5888H36.9883H56.7558L57.4263 38.0651C58.7921 36.9986 58.72 37.9887 58.72 20.3343V4.47125H54.9223H51.1246V17.5784V30.6858L50.6357 31.2807C49.6769 32.4471 49.4561 32.4656 36.6114 32.4609C25.5641 32.4568 24.9774 32.4389 24.2078 32.0812C23.7634 31.8748 23.1867 31.4702 22.926 31.1823L22.4521 30.6588V17.3706V4.08245H18.8401H15.2281L15.2798 20.3685ZM27.9181 5.63727C27.9813 6.07779 27.8921 6.3136 27.5529 6.60287L27.1042 6.98545L27.7261 6.99206C28.2265 6.99731 28.3871 7.10287 28.5483 7.53309L28.7486 8.06769L29.0244 7.53309C29.2357 7.12309 29.4393 6.99848 29.8967 6.99848H30.4935L30.0573 6.52317C29.7372 6.17421 29.6534 5.91683 29.7423 5.55407C29.8572 5.08576 29.8386 5.07156 29.3857 5.28288C29.0259 5.45084 28.7889 5.45007 28.4245 5.28016C28.1585 5.15594 27.917 5.05446 27.8877 5.05446C27.8585 5.05446 27.8721 5.31671 27.9181 5.63727ZM43.9479 5.65749C43.9774 6.05485 43.883 6.31749 43.6658 6.44191C43.1724 6.72476 43.274 6.99848 43.8724 6.99848C44.2797 6.99848 44.4515 7.12445 44.6011 7.53309L44.7971 8.06769L45.0481 7.53309C45.2397 7.12504 45.4345 6.99848 45.8715 6.99848H46.4438L46.0211 6.53775C45.7047 6.19307 45.6303 5.94696 45.7253 5.55971C45.8475 5.06087 45.8341 5.05057 45.3552 5.27394C44.9788 5.44948 44.7428 5.45162 44.3809 5.28288C43.9238 5.06962 43.9052 5.08576 43.9479 5.65749ZM23.9712 17.6572V20.7828L24.6832 20.9847C25.075 21.0957 25.975 21.3312 26.6837 21.5077C28.6191 21.9902 29.7953 22.7973 30.807 24.3374C31.9114 26.0184 32.4018 26.5481 33.5603 27.3114C35.0773 28.311 36.5124 28.6527 37.6459 28.2845C37.8779 28.2091 39.3915 27.0604 41.0095 25.7317C44.3448 22.9927 44.3873 22.9661 46.5752 22.2552C47.4585 21.9682 48.5019 21.5223 48.8935 21.2645L49.6055 20.7956V18.2579C49.6055 15.9322 49.5778 15.7289 49.2732 15.8214C49.0904 15.877 48.6846 15.9828 48.3713 16.0565C47.547 16.2505 46.6251 16.7557 44.5254 18.1642C42.0254 19.8411 40.7309 20.3395 39.1393 20.2375C38.9701 20.2268 38.4147 19.886 37.9051 19.4803C36.2318 18.1488 35.4781 17.9906 34.4888 18.7629C33.5239 19.5166 32.9314 19.5534 32.0202 18.9165C28.945 16.7676 28.0679 16.2091 26.7176 15.5388C25.8784 15.1224 24.917 14.7252 24.5814 14.6566L23.9712 14.5316V17.6572ZM36.3136 20.4674C36.3136 20.8533 35.2862 21.3842 34.5392 21.3842C33.592 21.3842 33.5202 21.0775 34.3609 20.6232C35.1857 20.1776 36.3136 20.0876 36.3136 20.4674ZM37.9073 22.3712C38.89 22.6247 39.8229 23.3872 39.6651 23.8082C39.5214 24.1918 39.3723 24.1832 38.3978 23.7365C37.71 23.4214 37.2689 23.3806 35.3862 23.4573C32.9846 23.5553 32.2904 23.3769 32.9795 22.8386C33.1823 22.6801 33.7377 22.5419 34.2137 22.5312C34.6899 22.5205 35.293 22.4418 35.5541 22.3563C36.2464 22.1292 36.9868 22.1341 37.9073 22.3712ZM36.007 25.7515C36.5844 26.6537 36.3856 26.9721 35.4117 26.705C35.1016 26.6199 34.9844 26.443 34.9844 26.0596C34.9844 25.1393 35.5131 24.9799 36.007 25.7515ZM26.8669 41.1604C26.5274 41.2823 26.5511 44.3385 26.8982 45.1892C27.2159 45.9674 27.5676 46.1902 28.7183 46.3424C30.8273 46.6211 31.6034 45.659 31.5223 42.8657L31.4716 41.1161L30.807 41.1192L30.1424 41.1221L30.0873 42.9555C30.0569 43.9637 29.9398 44.9028 29.8266 45.0422C29.5689 45.3601 28.6793 45.3725 28.3765 45.0624C28.232 44.9145 28.1486 44.1682 28.1486 43.0212C28.1486 41.7123 28.0831 41.2092 27.9113 41.1983C27.7808 41.1901 27.5457 41.1592 27.3891 41.1295C27.2324 41.0995 26.9975 41.1135 26.8669 41.1604ZM35.6234 41.2461C35.0053 41.5525 34.6899 42.2885 34.9066 42.9191C35.0452 43.3225 35.3673 43.5634 36.2646 43.9345C37.7163 44.5348 37.984 44.7774 37.6495 45.1903C37.2891 45.6348 36.5827 45.5539 36.187 45.0228C35.9075 44.6478 35.7172 44.5755 35.2218 44.6561C34.4809 44.7769 34.4628 44.8987 35.0752 45.6441C35.6234 46.3109 36.5893 46.5379 37.7378 46.2699C38.6608 46.0543 39.1619 45.4695 39.1619 44.6079C39.1619 43.8931 38.5288 43.2325 37.6595 43.0401C36.126 42.7006 35.6832 42.1452 36.8518 42.027C37.2646 41.9854 37.4917 42.0622 37.5695 42.27C37.6419 42.4631 37.9185 42.5741 38.3277 42.5741C38.9815 42.5741 39.0656 42.4668 38.8541 41.9024C38.5717 41.1493 36.619 40.7525 35.6234 41.2461ZM42.7222 41.1268C42.644 41.21 42.5798 42.4007 42.5798 43.773V46.2677L44.1464 46.2648C45.9731 46.2615 46.538 46.0302 46.9943 45.0986C47.6009 43.8602 47.2736 42.1518 46.305 41.5021C45.7864 41.1542 42.9738 40.8595 42.7222 41.1268ZM45.5122 42.6174C46.2093 43.6361 45.6051 45.4042 44.6095 45.259C44.2284 45.2036 44.1893 45.0731 44.1384 43.6919L44.0829 42.1853H44.6497C45.0204 42.1853 45.3191 42.335 45.5122 42.6174ZM32.399 45.1872C32.163 45.8169 32.4113 46.1694 33.1346 46.2308C33.8334 46.2903 33.8451 46.2798 33.8451 45.599C33.8451 44.9365 33.8165 44.9069 33.1747 44.9069C32.7658 44.9069 32.463 45.0164 32.399 45.1872ZM40.1113 45.5873C40.1113 46.2353 40.143 46.2677 40.7759 46.2677C41.4088 46.2677 41.4405 46.2353 41.4405 45.5873C41.4405 44.9394 41.4088 44.9069 40.7759 44.9069C40.143 44.9069 40.1113 44.9394 40.1113 45.5873ZM34.0948 47.8179C33.1249 48.2329 33.2014 49.4396 34.2122 49.6668C34.8821 49.8175 34.9113 49.8959 34.4803 50.3834C34.1835 50.7191 34.1934 50.739 34.6542 50.739C35.6321 50.739 36.7513 48.6295 36.0763 48.0586C35.7197 47.7568 34.5654 47.6167 34.0948 47.8179ZM41.4876 47.7592C40.8952 47.8852 40.6014 48.4853 40.9761 48.8037C41.2288 49.0185 41.2132 49.1023 40.846 49.5026C40.4412 49.9437 40.4391 49.9689 40.7742 50.3482C41.0349 50.6431 41.3591 50.739 42.0966 50.739C42.6339 50.739 43.1761 50.634 43.3014 50.5057C43.631 50.1682 43.5811 49.6215 43.2009 49.4038C42.8903 49.2257 42.8901 49.1956 43.1994 48.8459C43.4666 48.5436 43.4831 48.417 43.2904 48.1523C43.0352 47.8016 42.1725 47.6134 41.4876 47.7592ZM30.1686 48.1145C30.0944 48.3128 30.1789 48.4061 30.4331 48.4061C30.7635 48.4061 30.807 48.542 30.807 49.5726C30.807 50.6871 30.8281 50.739 31.2817 50.739C31.7458 50.739 31.7564 50.7065 31.7564 49.281V47.8229H31.0172C30.5353 47.8229 30.24 47.9244 30.1686 48.1145ZM37.4529 48.1958C37.4529 48.4009 37.403 48.7018 37.3422 48.8644C37.2555 49.0959 37.4095 49.1729 38.0543 49.2203C38.7369 49.2707 38.8873 49.3542 38.9369 49.7116C39.0109 50.2448 38.2286 50.5086 37.5338 50.1845C37.1307 49.9966 37.0732 50.0177 37.0732 50.3543C37.0732 50.6542 37.2091 50.7436 37.6903 50.7606C38.7823 50.7987 39.2496 50.7096 39.5891 50.3994C40.2968 49.7524 39.7118 48.795 38.609 48.795C37.6905 48.795 37.9768 48.3218 38.9394 48.2493C40.1529 48.1575 39.8804 47.8229 38.5922 47.8229C37.5957 47.8229 37.4529 47.8696 37.4529 48.1958ZM42.5441 48.4577C42.6197 48.8593 42.0717 49.1301 41.7823 48.8338C41.4929 48.5376 41.7574 47.9765 42.1497 48.0539C42.3316 48.0897 42.5092 48.2714 42.5441 48.4577ZM35.5165 48.6361C35.5497 48.8159 35.4128 49.0531 35.2119 49.1632C34.7294 49.4275 34.1093 48.9948 34.288 48.5185C34.4514 48.0823 35.4312 48.1762 35.5165 48.6361ZM42.5677 49.5607C42.7936 49.7071 42.7976 49.7897 42.5918 50.0438C42.1718 50.5619 41.2831 50.273 41.5018 49.6894C41.63 49.3471 42.1425 49.2852 42.5677 49.5607Z" fill="#008F3D"/>
<path d="M7.36003 68.64L6.76003 80.28C6.6667 82.0933 5.86003 83 4.34003 83H2.76003C1.25336 83 0.546697 82.0867 0.640031 80.26L1.24003 68.64H3.12003L2.52003 80.32C2.48003 80.9467 2.73336 81.26 3.28003 81.26H4.06003C4.5667 81.26 4.84003 80.9467 4.88003 80.32L5.48003 68.64H7.36003ZM12.6511 75.58L13.0111 68.64H14.8911L14.1511 83H12.2711L12.4111 80.14L10.7311 73.6L10.2511 83H8.37112L9.11112 68.64H10.9911L12.6511 75.58ZM15.9102 83L16.6502 68.64H18.5302L17.7902 83H15.9102ZM21.723 83C20.203 83 19.483 82.1867 19.563 80.56L20.063 71.1C20.143 69.46 20.9363 68.64 22.443 68.64H24.243C25.7497 68.64 26.463 69.46 26.383 71.1L25.883 80.56C25.803 82.1867 25.003 83 23.483 83H21.723ZM22.243 81.26H23.203C23.7097 81.26 23.9763 80.98 24.003 80.42L24.503 71.22C24.5297 70.66 24.263 70.38 23.703 70.38H22.803C22.2563 70.38 21.9697 70.66 21.943 71.22L21.443 80.42C21.4163 80.98 21.683 81.26 22.243 81.26ZM31.6941 75.58L32.0541 68.64H33.9341L33.1941 83H31.3141L31.4541 80.14L29.7741 73.6L29.2941 83H27.4141L28.1541 68.64H30.0341L31.6941 75.58ZM38.0977 83L38.8377 68.64H42.1177C43.8777 68.64 44.711 69.56 44.6177 71.4L44.1177 80.92C44.051 82.3067 43.2644 83 41.7577 83H38.0977ZM40.0577 81.26H41.4777C41.971 81.26 42.231 81.0467 42.2577 80.62L42.7377 71.42C42.7777 70.7267 42.5177 70.38 41.9577 70.38H40.6377L40.0577 81.26ZM47.8558 83C46.3358 83 45.6158 82.1867 45.6958 80.56L46.1958 71.1C46.2758 69.46 47.0691 68.64 48.5758 68.64H50.3758C51.8825 68.64 52.5958 69.46 52.5158 71.1L52.0158 80.56C51.9358 82.1867 51.1358 83 49.6158 83H47.8558ZM48.3758 81.26H49.3358C49.8425 81.26 50.1091 80.98 50.1358 80.42L50.6358 71.22C50.6625 70.66 50.3958 70.38 49.8358 70.38H48.9358C48.3891 70.38 48.1025 70.66 48.0758 71.22L47.5758 80.42C47.5491 80.98 47.8158 81.26 48.3758 81.26ZM60.4069 68.64L59.8069 80.28C59.7136 82.0933 58.9069 83 57.3869 83H55.8069C54.3002 83 53.5936 82.0867 53.6869 80.26L54.2869 68.64H56.1669L55.5669 80.32C55.5269 80.9467 55.7802 81.26 56.3269 81.26H57.1069C57.6136 81.26 57.8869 80.9467 57.9269 80.32L58.5269 68.64H60.4069ZM63.198 83H61.318L61.938 71.1C62.018 69.46 62.8113 68.64 64.318 68.64H65.718C67.2247 68.64 67.938 69.46 67.858 71.1L67.238 83H65.358L65.618 77.74H63.458L63.198 83ZM65.718 76L65.978 71.22C66.0047 70.66 65.7447 70.38 65.198 70.38H64.678C64.1313 70.38 63.8447 70.66 63.818 71.22L63.558 76H65.718ZM73.3785 83H68.8985L69.6385 68.64H71.5185L70.8585 81.26H73.4585L73.3785 83ZM76.2253 83H74.3453L74.9653 71.1C75.0453 69.46 75.8387 68.64 77.3453 68.64H78.7453C80.252 68.64 80.9653 69.46 80.8853 71.1L80.2653 83H78.3853L78.6453 77.74H76.4853L76.2253 83ZM78.7453 76L79.0053 71.22C79.032 70.66 78.772 70.38 78.2253 70.38H77.7053C77.1587 70.38 76.872 70.66 76.8453 71.22L76.5853 76H78.7453Z" fill="black"/>
</svg>
