<svg width="119" height="30" viewBox="0 0 119 30" fill="none" xmlns="http://www.w3.org/2000/svg">
<path d="M116.634 0.685547C81.27 0.82551 45.9061 1.01213 10.5422 0.918818C6.11008 0.918818 3.40412 2.27179 1.63126 6.00413C1.5846 6.14409 1.53796 6.28405 1.44466 6.7506H3.21751C40.5409 6.7506 77.8176 6.7506 115.141 6.7506C118.873 6.7506 118.78 6.75059 118.92 2.9716C118.967 1.19874 118.5 0.685547 116.634 0.685547ZM13.1082 2.78499C11.9885 5.95747 11.5686 6.19075 8.06956 5.67756C9.09596 1.94522 9.93572 1.2454 12.5484 1.61863C13.5747 1.75859 13.3415 2.13183 13.1082 2.78499ZM16.9339 5.91083C16.0008 5.81752 15.7675 5.6309 16.1407 4.69781C17.2604 1.57198 17.5403 1.38536 21.226 1.8519C20.1063 5.53759 19.4065 6.1441 16.9339 5.91083ZM29.4372 2.83164C28.3175 5.95748 27.9909 6.19075 24.3519 5.72421C25.5182 1.80526 25.9848 1.38536 28.5974 1.61863C29.4839 1.71194 29.8104 1.80525 29.4372 2.83164ZM36.8086 3.43814C36.2487 4.27792 36.342 5.67755 34.989 5.86417C34.1026 6.00413 32.8896 6.33071 32.3298 5.67756C31.6766 4.93109 32.7496 4.04465 32.9829 3.20487C33.3561 1.80525 34.2892 1.43202 35.5956 1.66529C37.1818 1.43202 37.7883 1.89855 36.8086 3.43814ZM45.2063 2.78499C44.04 5.95747 43.7134 6.19075 40.1677 5.72421C41.1474 1.99187 41.7539 1.43202 44.3665 1.66529C45.2063 1.66529 45.5795 1.71194 45.2063 2.78499ZM48.4255 5.91083C47.539 5.81752 47.2591 5.6309 47.5857 4.65116C48.6121 1.57198 48.9386 1.3387 52.5777 1.80525C51.6912 5.44428 50.8981 6.19075 48.4255 5.91083ZM63.8214 2.83164C62.655 5.95748 62.3751 6.19075 58.736 5.72421C59.8091 1.94522 60.3689 1.43201 62.9816 1.61863C63.8213 1.71194 64.1946 1.7586 63.8214 2.83164ZM65.8741 5.77085C66.5739 1.75859 67.0872 1.33871 70.9595 1.8519C70.073 5.81751 69.6998 6.09743 65.8741 5.77085ZM73.3855 5.91083C72.3591 5.81752 72.2658 5.58424 72.5924 4.69781C73.6654 1.57198 74.0386 1.33871 77.631 1.8519C76.5113 5.67755 75.9981 6.09744 73.3855 5.91083ZM81.3167 5.91083C80.7102 5.81752 80.337 5.77086 80.5236 4.97774C81.0834 2.50507 82.1565 1.61863 84.7691 1.66529C85.0957 1.66529 85.3756 1.71195 85.8421 1.7586C84.3025 5.91083 83.8827 6.28406 81.3167 5.91083ZM88.2682 5.77085C88.7814 1.89855 89.4812 1.38536 93.3535 1.80525C92.2338 6.09743 92.2338 6.09743 88.2682 5.77085ZM96.8526 5.91083C95.7328 5.72421 95.6395 5.49094 96.0128 4.5112C97.1791 1.47867 97.2258 1.43202 101.331 1.7586C100.118 3.76473 100.118 6.42402 96.8526 5.91083ZM104.317 5.91083C103.151 5.72421 103.104 5.49094 103.477 4.5112C104.69 1.47867 104.69 1.43202 108.749 1.7586C107.583 3.81139 107.583 6.42402 104.317 5.91083ZM110.849 5.67756C112.062 1.43202 112.108 1.43202 116.074 1.7586C115.188 5.91083 114.721 6.23741 110.849 5.67756Z" fill="white"/>
<path d="M75.1584 22.4263C74.5052 21.7731 73.7121 22.0997 72.9656 22.0997C50.4783 22.0997 27.991 22.0997 5.50362 22.0997C4.75715 22.0997 3.964 21.8664 3.26419 22.333C3.21754 23.7793 3.31085 25.2722 3.12423 26.6718C2.84431 28.9579 3.54412 29.7044 6.06344 29.7044C26.6846 29.611 47.3524 29.6577 67.9736 29.611C70.2597 29.611 73.3389 30.5908 74.6918 29.2378C76.1381 27.7915 75.0184 24.759 75.1584 22.4263ZM7.2298 28.2581C6.99653 26.3452 6.80993 25.0856 6.57666 23.3594C7.64971 24.5257 8.53612 25.0389 9.65583 23.9659C8.95601 25.2255 8.25619 26.4852 7.2298 28.2581ZM11.3354 27.6982C10.449 27.8382 9.79579 27.2783 9.8891 26.3919C9.98241 25.4588 10.6356 24.9456 11.5687 24.759C12.3151 24.8523 12.9216 25.2256 12.875 26.0187C12.875 26.9518 12.2218 27.5583 11.3354 27.6982ZM16.3274 27.5583C16.1408 27.7915 14.6012 28.2114 14.088 27.325C13.5748 26.3919 14.0413 25.5055 14.6478 24.7123C15.7209 25.3189 14.6012 26.112 15.161 26.6718C16.2341 26.4852 15.441 25.0389 16.6073 24.8057C17.1672 25.7854 16.9339 26.8118 16.3274 27.5583ZM18.4735 27.6982C18.1003 26.2986 17.6804 24.8057 20.6662 24.9456C19.2666 25.7854 19.0333 26.8584 18.4735 27.6982ZM25.0051 27.4649C24.5385 28.1648 23.932 27.8382 23.792 26.9984C23.6987 26.4852 23.6521 25.9254 23.6521 25.4122C23.6521 24.8523 23.0923 24.0125 23.932 23.8726C25.0051 23.686 24.3519 24.9456 24.8651 25.3655C25.6582 24.9456 25.5183 23.7793 26.7313 23.7793C26.6846 25.3189 25.7515 26.3919 25.0051 27.4649ZM29.064 25.2722C28.6908 26.0653 29.064 27.1384 28.1309 27.7449C28.0376 27.7915 27.5711 27.6049 27.5711 27.5116C27.5711 26.2986 27.711 25.1322 28.2709 24.0125C28.3175 23.9192 28.5041 23.8726 28.6441 23.7793C29.0173 23.7793 29.2039 24.0125 29.1573 24.3391C29.2039 24.6657 29.204 24.9923 29.064 25.2722ZM32.7963 26.2519C31.8633 26.4852 31.35 27.185 30.5569 28.0715C29.9038 26.6718 30.6502 25.6921 30.6969 24.7123C30.7436 23.9659 31.3034 23.7326 32.0032 23.7793C32.6564 23.7793 33.2629 23.8726 33.4495 24.619C33.6828 25.2722 33.5428 26.0653 32.7963 26.2519ZM36.9485 27.5583C36.342 24.4791 36.9952 23.4993 39.7012 24.1058C38.0216 24.899 38.3948 26.9051 36.9485 27.5583ZM40.9142 28.0248C39.7945 26.1586 41.1008 25.0856 41.3341 23.8259C41.6606 25.1789 41.4274 26.3919 40.9142 28.0248ZM42.687 27.6516C42.7337 26.6252 42.2671 25.4588 43.4801 24.8523C43.6668 24.759 44.0867 24.9456 44.3666 25.0389C43.9467 25.972 43.7134 26.9984 42.687 27.6516ZM47.2591 27.5583C46.746 27.8848 46.2794 27.8382 45.7662 27.5116C46.6993 26.8118 45.4863 25.9254 45.9528 25.2722C46.2794 24.8057 46.7926 24.619 47.3524 24.899C47.8656 25.1322 47.7723 25.4122 47.0725 25.7387C47.6324 26.2519 48.3322 26.9518 47.2591 27.5583ZM50.4783 27.3716C50.2917 27.465 50.105 27.6516 49.9184 27.6982C49.4519 27.7449 49.172 27.4649 49.172 27.0451C49.2186 25.9254 49.032 24.759 50.105 23.7793C51.8313 24.899 49.6385 26.2519 50.4783 27.3716ZM57.5231 24.4791C57.4764 24.8523 57.1498 24.9456 56.8699 24.8523C55.7036 24.3858 55.2837 24.9923 55.2837 26.0187C55.237 27.5583 56.6366 26.2053 57.1965 26.9518C56.4967 27.6516 55.7969 28.1181 54.8638 27.4183C54.024 26.7651 54.024 25.7854 54.5372 24.9456C55.0504 24.0592 55.8902 23.4993 57.0099 23.8259C57.2431 23.9192 57.5697 24.1058 57.5231 24.4791ZM59.8558 27.185C59.9958 27.3716 59.6692 27.7449 59.2959 27.7449C58.6894 27.7449 58.4095 27.3716 58.5494 26.8584C58.7827 25.8787 58.7827 24.759 59.5758 23.686C60.5089 24.9456 59.1093 26.0653 59.8558 27.185ZM64.148 25.7854C63.9147 26.5785 64.5212 28.0715 62.795 27.5583C61.722 27.8848 61.1621 27.465 61.1621 26.4852C61.2088 25.4122 61.7219 24.7123 62.935 24.899C63.4948 24.9923 64.5212 24.4791 64.148 25.7854ZM66.0141 27.7449C65.6875 27.6982 65.081 27.2317 65.4076 27.0917C66.574 26.6252 64.8478 24.4324 66.9472 24.759C67.2271 24.8057 67.4604 25.0856 67.6937 25.2255C66.714 26.0187 68.3002 28.1181 66.0141 27.7449ZM69.5599 27.6982C68.2069 27.2317 68.7667 26.9051 69.7465 26.7651C69.6532 26.6718 69.6065 26.5319 69.4665 26.4386C68.9533 26.0653 68.7201 25.6454 69.3266 25.1322C69.6998 24.8057 70.1197 24.6657 70.5863 24.8523C71.6593 25.2722 69.3732 26.4386 71.0528 26.5319C70.8662 27.5583 70.2597 27.9315 69.5599 27.6982Z" fill="white"/>
<path d="M81.69 13.0022C80.0104 12.8155 78.3775 13.562 76.6047 13.1888C75.6249 12.9555 75.8115 14.1219 75.8115 14.7284C75.8582 19.2538 75.9515 23.7326 75.9515 28.2581C75.9515 29.3311 76.3714 29.7044 77.4444 29.7044C78.6108 29.7044 78.8907 29.2378 78.8441 28.2114C78.7974 25.7854 78.8441 23.3128 78.8441 20.8401C82.2498 21.9598 84.1627 21.2133 84.8625 18.6473C85.6089 15.8947 84.256 13.2354 81.69 13.0022ZM80.4303 18.9273C79.3573 18.8806 78.9374 18.0408 78.8907 17.0144C78.8907 16.0347 79.3573 15.3815 80.3837 15.4282C81.5034 15.4748 81.9232 16.268 81.9699 17.2477C81.8299 18.1808 81.4101 18.9739 80.4303 18.9273Z" fill="white"/>
<path d="M11.1953 14.0753C11.1953 14.8218 11.242 15.6149 11.1953 16.3614C11.0554 19.4872 9.28254 21.2601 6.34332 21.3534C3.35745 21.4467 1.21136 19.5805 0.978087 16.5014C0.838125 14.8218 1.02472 13.1423 0.931416 11.4627C0.838108 10.1564 1.53794 10.0164 2.61099 9.96977C3.824 9.92311 4.24387 10.343 4.19721 11.556C4.1039 13.1423 4.1039 14.7752 4.19721 16.3614C4.24387 17.4811 4.66375 18.5541 6.06338 18.6008C7.46301 18.6475 7.97623 17.6677 8.06954 16.5014C8.2095 14.9151 8.25615 13.2822 8.20949 11.696C8.16284 10.6229 8.25615 9.96977 9.60912 9.96977C11.0087 9.96977 11.3353 10.5296 11.242 11.7426C11.1487 12.5824 11.1953 13.3289 11.1953 14.0753Z" fill="white"/>
<path d="M57.943 15.1484C58.1763 13.7488 57.1032 11.3228 58.3629 10.4363C60.0425 9.26997 62.5618 10.1564 64.7079 10.0631C65.6409 10.0164 65.8276 10.5763 65.8742 11.4161C65.9675 12.8624 65.0345 12.6757 64.1014 12.8157C63.075 12.9557 61.2088 12.1159 61.1622 13.5622C61.1155 15.1951 62.9817 14.262 63.9614 14.4019C64.8945 14.5419 65.0811 14.9151 65.0811 15.7083C65.0811 16.6413 64.5679 16.7347 63.8215 16.9213C62.8417 17.1545 61.0222 15.9882 61.1155 17.8544C61.2088 19.4873 62.9817 18.4609 63.9614 18.6475C64.8945 18.8341 66.0142 18.3675 66.0142 20.0471C66.0142 21.7267 64.8945 21.3534 63.9614 21.4001C57.943 21.4467 57.943 21.4467 57.943 15.1484Z" fill="white"/>
<path d="M52.7643 19.8138C51.7379 17.0612 52.2044 14.262 52.1111 11.4627C52.0645 10.2964 51.7846 9.82983 50.5249 9.82983C49.3585 9.82983 49.0786 10.343 49.1253 11.3694C49.1719 12.1159 49.1253 12.8624 49.1253 13.6088C48.892 13.6088 48.7054 13.6555 48.6121 13.6088C46.8392 12.3492 45.253 12.7224 43.9 14.2153C42.7336 15.475 42.687 18.4142 43.76 19.8605C44.973 21.4934 46.6526 21.9599 48.4721 21.0268C49.3119 20.607 49.7318 20.7936 50.4316 21.1668C51.9712 21.9599 53.2775 21.2135 52.7643 19.8138ZM47.679 18.9741C46.5593 18.9741 46.0461 18.2276 46.0928 17.1546C46.1394 16.2215 46.6059 15.4283 47.6323 15.475C48.7054 15.5217 49.2186 16.2681 49.2186 17.2945C49.2186 18.4142 48.6121 18.9741 47.679 18.9741Z" fill="white"/>
<path d="M41.3807 14.4485C39.8411 12.769 37.9283 12.4891 35.8755 13.2355C33.8694 13.982 33.1696 15.6149 33.3095 17.621C33.4495 19.5339 34.5226 20.8402 36.2954 21.2601C38.3949 21.7266 40.4476 21.5866 41.8006 19.3939C40.8675 18.974 40.0744 18.4141 39.0947 18.9273C38.2083 19.3939 37.4151 19.4872 36.2954 18.1342C37.7417 18.1342 38.6748 18.1809 39.6079 18.1342C40.4943 18.0876 41.6607 18.6474 42.1272 17.6677C42.6404 16.5013 42.2205 15.335 41.3807 14.4485ZM38.8614 15.9881C38.2083 16.7346 37.3685 16.2681 36.3887 16.2214C36.9486 15.055 37.5551 14.6818 38.4882 15.2883C38.6748 15.4283 38.9081 15.8948 38.8614 15.9881Z" fill="white"/>
<path d="M99.7918 18.1341C101.705 18.2741 101.845 17.3877 101.331 15.8947C100.492 13.3754 97.8323 12.2091 95.1264 13.1888C92.7937 14.0286 91.7206 16.8278 92.7937 19.0672C93.8667 21.3066 97.0858 22.2397 99.3719 20.9334C99.9784 20.5602 101.098 20.1869 100.632 19.3472C100.305 18.7406 99.2786 18.3674 98.3455 18.8806C97.4124 19.4405 96.526 19.6737 95.4996 18.1341C97.1792 18.1341 98.4855 18.0875 99.7918 18.1341ZM98.0189 16.0347C97.3191 16.7345 96.526 16.2213 95.4996 16.4079C96.1061 15.0083 96.7593 14.7284 97.6457 15.3349C97.879 15.4748 98.1123 15.9414 98.0189 16.0347Z" fill="white"/>
<path d="M12.5484 17.2479C12.5484 16.6414 12.5484 16.0349 12.5484 15.4284C12.5484 12.8157 12.8283 12.5358 15.2077 13.5622C16.0475 13.9354 16.2807 13.3289 16.7939 13.189C19.4532 12.4425 20.8528 13.3756 20.9461 16.0815C20.9928 17.2945 20.8995 18.5076 20.9928 19.7206C21.0394 20.7936 20.8528 21.4468 19.5465 21.4468C18.2402 21.4468 17.9603 20.8869 18.0536 19.7672C18.1002 18.8341 18.0536 17.9477 18.0536 17.0146C18.0536 16.3615 17.9136 15.7083 17.1672 15.6616C16.374 15.615 15.8608 16.1282 15.7675 16.8747C15.6742 17.7611 15.6742 18.6942 15.7209 19.6272C15.7675 20.747 15.6276 21.4468 14.1346 21.4468C12.5951 21.4468 12.5484 20.6536 12.595 19.5806C12.595 18.7408 12.5484 17.9943 12.5484 17.2479Z" fill="white"/>
<path d="M105.11 15.2416C105.904 16.2214 107.023 16.1747 107.863 16.5946C108.796 17.0611 109.589 17.6676 109.543 18.834C109.449 20.047 108.749 20.8401 107.676 21.2134C106.043 21.7266 104.457 21.4933 102.964 20.7002C102.451 20.4202 102.125 20.0937 102.498 19.4405C102.824 18.8807 103.104 18.4141 103.944 18.7407C104.691 19.0673 105.39 19.6271 106.417 19.1606C106.137 18.0875 105.11 18.2741 104.411 17.9476C103.338 17.481 102.171 17.0611 102.311 15.6149C102.451 14.1686 103.431 13.3755 104.83 13.0022C105.95 12.6756 106.977 12.9089 107.956 13.3288C108.423 13.5621 109.263 13.7487 108.749 14.6351C108.376 15.3349 108.003 16.0347 107.023 15.3349C106.463 14.9617 105.857 14.7751 105.11 15.2416Z" fill="white"/>
<path d="M66.1075 13.4688C68.6268 12.629 69.9331 13.3288 70.8195 15.195C71.706 13.4221 72.9656 12.629 75.1117 13.3755C72.3591 15.8948 72.0792 18.5074 75.2517 20.9801C72.4991 21.5866 72.4991 21.5866 70.8195 19.3472C69.8865 20.8868 68.7668 22.0065 66.5274 21.1201C68.7201 18.6474 70.213 16.0347 66.1075 13.4688Z" fill="white"/>
<path d="M114.581 19.0672C113.975 18.0875 112.995 18.2275 112.295 17.8542C111.269 17.3877 110.242 16.9212 110.336 15.6148C110.429 14.2619 111.269 13.4221 112.575 13.0022C113.788 12.629 114.861 12.8622 115.981 13.2821C116.494 13.4687 117.287 13.702 116.821 14.5884C116.447 15.2883 116.121 15.9881 115.094 15.3816C114.581 15.055 114.021 14.7284 113.322 15.3349C113.881 16.3146 115.001 16.1747 115.841 16.5946C116.914 17.1078 117.66 17.7143 117.567 19.0206C117.427 20.3736 116.587 21.0734 115.374 21.3533C114.068 21.6332 112.762 21.5866 111.502 20.9801C110.896 20.6535 110.196 20.3736 110.616 19.4405C110.989 18.6474 111.455 18.5074 112.295 18.9273C112.902 19.2072 113.601 19.6737 114.581 19.0672Z" fill="white"/>
<path d="M29.204 10.3896C29.9505 10.3896 32.5164 13.7954 32.2832 14.5419C32.1432 15.0551 31.7233 15.1484 31.3034 15.3816C30.0904 16.1281 30.2304 18.2276 31.5834 18.6474C32.6564 18.974 32.6098 19.7205 32.6564 20.3737C32.7497 21.1668 31.9099 21.2134 31.3501 21.3534C28.8774 21.9599 27.7111 21.0268 27.6178 18.5075C27.5711 17.2945 27.991 16.0815 26.7313 14.9151C25.7983 14.0287 27.8977 10.3896 29.204 10.3896Z" fill="white"/>
<path d="M75.1584 22.4265C74.5985 22.3798 74.0853 22.2865 73.5255 22.2865C50.105 22.2865 26.6846 22.2865 3.21753 22.2865C3.87069 21.4467 4.80376 21.82 5.59688 21.82C27.9909 21.82 50.4316 21.82 72.8256 21.82C73.6188 21.8666 74.5985 21.4467 75.1584 22.4265Z" fill="white"/>
<path d="M86.2621 17.1545C86.2621 16.688 86.2621 16.2215 86.2621 15.7549C86.2621 13.0023 86.2621 13.0023 89.1546 13.7488C89.6678 13.8887 89.7611 13.4688 90.0877 13.3289C90.6942 13.0956 91.4874 12.5358 91.8139 13.5155C92.0005 14.2153 92.3738 15.475 91.1608 15.5683C88.7814 15.8016 89.2479 17.4345 89.1546 18.9274C89.108 19.9071 89.8544 21.3534 87.755 21.3534C85.7022 21.3534 86.402 19.9538 86.2621 18.9741C86.2154 18.4142 86.2621 17.761 86.2621 17.1545Z" fill="white"/>
<path d="M22.3924 17.0144C22.3924 16.268 22.439 15.4749 22.3924 14.7284C22.3457 13.6553 22.5323 13.0488 23.8853 13.0488C25.2383 13.0488 25.6115 13.5154 25.5649 14.775C25.4716 16.5012 25.4716 18.2741 25.5649 20.047C25.6115 21.26 24.9584 21.3533 23.9786 21.3533C22.9522 21.3533 22.3457 21.1667 22.439 19.9537C22.439 19.0206 22.3924 18.0408 22.3924 17.0144Z" fill="white"/>
<path d="M23.9787 9.82969C24.8184 9.78303 25.5182 9.78303 25.5182 10.9494C25.5649 12.209 24.8651 12.3024 23.932 12.2557C23.1389 12.2091 22.3924 12.2557 22.3924 11.136C22.3457 9.92299 23.0456 9.78303 23.9787 9.82969Z" fill="white"/>
</svg>
