<svg width="18" height="19" viewBox="0 0 18 19" fill="none" xmlns="http://www.w3.org/2000/svg">
<path d="M9 0.0490723C7.21997 0.0490723 5.47991 0.576913 3.99987 1.56585C2.51983 2.55478 1.36628 3.96039 0.685088 5.60492C0.00389957 7.24945 -0.17433 9.05905 0.172936 10.8049C0.520203 12.5507 1.37737 14.1544 2.63604 15.413C3.89471 16.6717 5.49836 17.5289 7.24419 17.8761C8.99002 18.2234 10.7996 18.0452 12.4442 17.364C14.0887 16.6828 15.4943 15.5292 16.4832 14.0492C17.4722 12.5692 18 10.8291 18 9.04907C17.9974 6.66291 17.0484 4.37523 15.3611 2.68796C13.6738 1.00069 11.3862 0.0516531 9 0.0490723V0.0490723ZM15.4928 5.29907H13.0733C12.531 4.0417 11.8164 2.86592 10.95 1.80557C12.8655 2.3259 14.4981 3.58141 15.4928 5.29907ZM12.375 9.04907C12.3696 9.81256 12.25 10.571 12.0203 11.2991H5.97975C5.74998 10.571 5.63041 9.81256 5.625 9.04907C5.63041 8.28558 5.74998 7.52719 5.97975 6.79907H12.0203C12.25 7.52719 12.3696 8.28558 12.375 9.04907ZM6.5805 12.7991H11.4195C10.7825 14.0563 9.9676 15.2152 9 16.2401C8.03241 15.2152 7.21753 14.0563 6.5805 12.7991ZM6.5805 5.29907C7.21753 4.04181 8.03241 2.8829 9 1.85807C9.9676 2.8829 10.7825 4.04181 11.4195 5.29907H6.5805ZM7.05 1.80557C6.18379 2.86606 5.4692 4.04181 4.92675 5.29907H2.50725C3.50194 3.58141 5.13453 2.3259 7.05 1.80557ZM1.845 6.79907H4.419C4.02702 8.27346 4.02702 9.82468 4.419 11.2991H1.845C1.38502 9.83433 1.38502 8.26381 1.845 6.79907ZM2.50725 12.7991H4.92675C5.46898 14.0564 6.18359 15.2322 7.05 16.2926C5.13453 15.7722 3.50194 14.5167 2.50725 12.7991ZM10.95 16.2926C11.8162 15.2321 12.5308 14.0563 13.0733 12.7991H15.4928C14.4981 14.5167 12.8655 15.7722 10.95 16.2926ZM16.155 11.2991H13.581C13.973 9.82468 13.973 8.27346 13.581 6.79907H16.155C16.615 8.26381 16.615 9.83433 16.155 11.2991Z" fill="white"/>
</svg>
