<svg width="16" height="16" viewBox="0 0 16 16" fill="none" xmlns="http://www.w3.org/2000/svg">
<path d="M6.58548 8.41315C6.9612 8.78736 7.46987 8.99747 8.00015 8.99747C8.53043 8.99747 9.0391 8.78736 9.41482 8.41315L15.8541 1.97315C15.7059 1.60247 15.4501 1.28464 15.1197 1.06056C14.7893 0.836484 14.3994 0.716419 14.0001 0.71582H2.00015C1.60092 0.716419 1.21101 0.836484 0.880597 1.06056C0.550185 1.28464 0.294395 1.60247 0.146149 1.97315L6.58548 8.41315Z" fill="white"/>
<path d="M10.3573 9.35582C9.73158 9.97999 8.88383 10.3305 8 10.3305C7.11617 10.3305 6.26842 9.97999 5.64267 9.35582L0 3.71582V15.3825H16V3.71582L10.3573 9.35582Z" fill="white"/>
</svg>
