<svg width="20" height="19" viewBox="0 0 20 19" fill="none" xmlns="http://www.w3.org/2000/svg">
<path d="M14.6777 9.68498L19.8985 14.3837L17.256 16.7619C16.7954 17.1747 16.2484 17.501 15.6465 17.722C15.0447 17.9429 14.4001 18.054 13.7502 18.0489C7.71016 18.0489 0.000162584 11.11 0.000162584 5.67402C-0.00512351 5.08901 0.118539 4.50887 0.363996 3.96715C0.609452 3.42544 0.97183 2.9329 1.43016 2.51805L4.07266 0.140571L9.2935 4.83928L5.856 7.933C6.87793 10.1187 8.80731 11.8591 11.2335 12.784L14.6777 9.68498ZM18.3335 7.549H20.0002C19.9977 5.56057 19.119 3.6542 17.5567 2.24816C15.9944 0.842126 13.8762 0.0512559 11.6668 0.0490723V1.54906C13.4343 1.55084 15.1289 2.18355 16.3787 3.30837C17.6285 4.43319 18.3315 5.95827 18.3335 7.549ZM15.0002 7.549H16.6668C16.6655 6.3559 16.1383 5.21201 15.2009 4.36837C14.2635 3.52472 12.9925 3.05024 11.6668 3.04904V4.54903C12.5509 4.54903 13.3987 4.8651 14.0239 5.4277C14.649 5.9903 15.0002 6.75336 15.0002 7.549Z" fill="white"/>
</svg>
