<svg width="236" height="18" viewBox="0 0 236 18" fill="none" xmlns="http://www.w3.org/2000/svg">
<circle cx="4" cy="9" r="4" fill="white"/>
<circle cx="4" cy="9" r="2" fill="#C1093F"/>
<path d="M15.168 4.904V15H13.632V4.904H12.16V3.512H16.64V4.904H15.168ZM18.9729 15H17.4369V5.48C17.4369 4.168 18.0502 3.512 19.2769 3.512H20.4289C21.6555 3.512 22.2689 4.168 22.2689 5.48V15H20.7329V10.792H18.9729V15ZM20.7329 9.4V5.576C20.7329 5.128 20.5089 4.904 20.0609 4.904H19.6449C19.1969 4.904 18.9729 5.128 18.9729 5.576V9.4H20.7329ZM23.6263 15V3.512H25.1623V15H23.6263ZM30.243 15H26.595V3.512H28.131V13.608H30.243V15ZM34.7743 15H31.1263V3.512H32.6623V13.608H34.7743V15ZM35.6575 15V3.512H39.4655V4.904H37.1935V8.392H39.2095V9.784H37.1935V13.608H39.4655V15H35.6575ZM46.0703 6.6V5.592C46.0703 5.13333 45.8463 4.904 45.3983 4.904H45.1583C44.7209 4.904 44.5023 5.13333 44.5023 5.592V7.496C44.5023 7.70933 44.5449 7.85333 44.6303 7.928C44.7156 8.00267 44.8543 8.09867 45.0463 8.216L46.5023 9C46.8223 9.18133 47.0463 9.32533 47.1743 9.432C47.3129 9.528 47.4196 9.65067 47.4943 9.8C47.5689 9.93867 47.6063 10.2107 47.6063 10.616V13.064C47.6063 14.3547 46.9876 15 45.7503 15H44.8063C43.5796 15 42.9663 14.296 42.9663 12.888V12.312H44.5023V12.936C44.5023 13.384 44.7316 13.608 45.1903 13.608H45.4623C45.8676 13.608 46.0703 13.384 46.0703 12.936V10.984C46.0703 10.7707 46.0276 10.6267 45.9423 10.552C45.8569 10.4773 45.7183 10.3813 45.5263 10.264L44.0703 9.448C43.7503 9.27733 43.5156 9.13333 43.3663 9.016C43.2276 8.89867 43.1263 8.74933 43.0623 8.568C42.9983 8.376 42.9663 8.13067 42.9663 7.832V5.48C42.9663 4.168 43.5796 3.512 44.8063 3.512H45.7663C46.9929 3.512 47.6063 4.168 47.6063 5.48V6.6H46.0703Z" fill="white"/>
<circle cx="65" cy="9" r="3.5" stroke="white"/>
<path d="M76.168 4.904V15H74.632V4.904H73.16V3.512H77.64V4.904H76.168ZM79.9729 15H78.4369V5.48C78.4369 4.168 79.0502 3.512 80.2769 3.512H81.4289C82.6555 3.512 83.2689 4.168 83.2689 5.48V15H81.7329V10.792H79.9729V15ZM81.7329 9.4V5.576C81.7329 5.128 81.5089 4.904 81.0609 4.904H80.6449C80.1969 4.904 79.9729 5.128 79.9729 5.576V9.4H81.7329ZM84.6263 15V3.512H86.1623V15H84.6263ZM91.243 15H87.595V3.512H89.131V13.608H91.243V15ZM95.7743 15H92.1263V3.512H93.6623V13.608H95.7743V15ZM96.6575 15V3.512H100.466V4.904H98.1935V8.392H100.21V9.784H98.1935V13.608H100.466V15H96.6575ZM107.246 10.264L108.67 3.512H110.366V15H108.83L108.99 7.48L107.838 12.92H106.654L105.502 7.48L105.662 15H104.126V3.512H105.822L107.246 10.264Z" fill="white"/>
<circle cx="128" cy="9" r="3.5" stroke="white"/>
<path d="M139.168 4.904V15H137.632V4.904H136.16V3.512H140.64V4.904H139.168ZM142.973 15H141.437V5.48C141.437 4.168 142.05 3.512 143.277 3.512H144.429C145.656 3.512 146.269 4.168 146.269 5.48V15H144.733V10.792H142.973V15ZM144.733 9.4V5.576C144.733 5.128 144.509 4.904 144.061 4.904H143.645C143.197 4.904 142.973 5.128 142.973 5.576V9.4H144.733ZM147.626 15V3.512H149.162V15H147.626ZM154.243 15H150.595V3.512H152.131V13.608H154.243V15ZM158.774 15H155.126V3.512H156.662V13.608H158.774V15ZM159.658 15V3.512H163.466V4.904H161.194V8.392H163.21V9.784H161.194V13.608H163.466V15H159.658ZM170.774 15H167.126V3.512H168.662V13.608H170.774V15Z" fill="white"/>
<circle cx="187" cy="9" r="3.5" stroke="white"/>
<path d="M198.168 4.904V15H196.632V4.904H195.16V3.512H199.64V4.904H198.168ZM201.973 15H200.437V5.48C200.437 4.168 201.05 3.512 202.277 3.512H203.429C204.656 3.512 205.269 4.168 205.269 5.48V15H203.733V10.792H201.973V15ZM203.733 9.4V5.576C203.733 5.128 203.509 4.904 203.061 4.904H202.645C202.197 4.904 201.973 5.128 201.973 5.576V9.4H203.733ZM206.626 15V3.512H208.162V15H206.626ZM213.243 15H209.595V3.512H211.131V13.608H213.243V15ZM217.774 15H214.126V3.512H215.662V13.608H217.774V15ZM218.658 15V3.512H222.466V4.904H220.194V8.392H222.21V9.784H220.194V13.608H222.466V15H218.658ZM230.478 15H228.99L228.126 10.632H228.094L227.054 15H225.63L227.086 9.192L225.726 3.512H227.23L228.094 7.752H228.126L229.086 3.512H230.51L229.134 9.192L230.478 15ZM235.102 15H231.454V3.512H232.99V13.608H235.102V15Z" fill="white"/>
</svg>
