<svg width="16" height="16" viewBox="0 0 16 16" fill="none" xmlns="http://www.w3.org/2000/svg">
<g clip-path="url(#clip0_402_828)">
<path d="M13.1765 6.30463L3.31985 0.0119629V16.012L13.1725 9.69663C13.4593 9.51637 13.6958 9.26637 13.8598 8.96998C14.0238 8.67359 14.11 8.34048 14.1104 8.00173C14.1108 7.66299 14.0254 7.32967 13.8621 7.03289C13.6987 6.73612 13.4629 6.48557 13.1765 6.30463ZM12.4565 8.56796L4.65652 13.568V2.45063L12.4612 7.4333C12.5574 7.49348 12.6367 7.57724 12.6915 7.67663C12.7463 7.77602 12.7748 7.88776 12.7743 8.00126C12.7739 8.11476 12.7444 8.22626 12.6888 8.3252C12.6332 8.42414 12.5532 8.50724 12.4565 8.56663V8.56796Z" fill="#037961"/>
</g>
<defs>
<clipPath id="clip0_402_828">
<rect width="16" height="16" fill="white"/>
</clipPath>
</defs>
</svg>
