<svg width="16" height="17" viewBox="0 0 16 17" fill="none" xmlns="http://www.w3.org/2000/svg">
<g clip-path="url(#clip0_402_685)">
<path d="M12.6666 11.3573C11.9643 11.3571 11.2744 11.1718 10.6666 10.82C10.0587 11.1718 9.36887 11.3571 8.66656 11.3573H7.33323C6.62996 11.3564 5.93962 11.1682 5.33323 10.812C4.72687 11.1683 4.03651 11.3565 3.33323 11.3573H2.66656C1.96365 11.3571 1.27342 11.1701 0.666565 10.8153V14.024C0.666565 14.5544 0.877279 15.0631 1.25235 15.4382C1.62742 15.8133 2.13613 16.024 2.66656 16.024H13.3332C13.8637 16.024 14.3724 15.8133 14.7474 15.4382C15.1225 15.0631 15.3332 14.5544 15.3332 14.024V10.816C14.7262 11.1702 14.036 11.357 13.3332 11.3573H12.6666Z" fill="white"/>
<path d="M11.3333 0.0244141V4.02441H10V0.0244141H6V4.02441H4.66667V0.0244141H1.46667L0.016 6.54641L0 7.35775C0 8.06499 0.280952 8.74327 0.781049 9.24337C1.28115 9.74346 1.95942 10.0244 2.66667 10.0244H3.33333C3.71326 10.0232 4.08849 9.94028 4.43356 9.78132C4.77864 9.62235 5.0855 9.39105 5.33333 9.10308C5.58117 9.39105 5.88803 9.62235 6.23311 9.78132C6.57818 9.94028 6.9534 10.0232 7.33333 10.0244H8.66667C9.04521 10.0246 9.41944 9.94402 9.76434 9.78801C10.1092 9.632 10.4169 9.40417 10.6667 9.11975C10.9165 9.40417 11.2241 9.632 11.569 9.78801C11.9139 9.94402 12.2881 10.0246 12.6667 10.0244H13.3333C14.0406 10.0244 14.7189 9.74346 15.219 9.24337C15.719 8.74327 16 8.06499 16 7.35775V6.69108L14.5333 0.0244141H11.3333Z" fill="white"/>
</g>
<defs>
<clipPath id="clip0_402_685">
<rect width="16" height="16" fill="white" transform="translate(0 0.0244141)"/>
</clipPath>
</defs>
</svg>
