<svg width="16" height="17" viewBox="0 0 16 17" fill="none" xmlns="http://www.w3.org/2000/svg">
<g clip-path="url(#clip0_402_688)">
<path d="M10.6953 9.35815H5.30467C4.42854 9.35921 3.5886 9.70772 2.96908 10.3272C2.34957 10.9468 2.00106 11.7867 2 12.6628V16.0248H14V12.6628C13.9989 11.7867 13.6504 10.9468 13.0309 10.3272C12.4114 9.70772 11.5715 9.35921 10.6953 9.35815Z" fill="white"/>
<path d="M8 8.02441C10.2091 8.02441 12 6.23355 12 4.02441C12 1.81528 10.2091 0.0244141 8 0.0244141C5.79086 0.0244141 4 1.81528 4 4.02441C4 6.23355 5.79086 8.02441 8 8.02441Z" fill="white"/>
</g>
<defs>
<clipPath id="clip0_402_688">
<rect width="16" height="16" fill="white" transform="translate(0 0.0244141)"/>
</clipPath>
</defs>
</svg>
