<svg width="16" height="17" viewBox="0 0 16 17" fill="none" xmlns="http://www.w3.org/2000/svg">
<g clip-path="url(#clip0_402_678)">
<path d="M7.33333 11.3572H4.05733L0.03 7.32983C0.0106667 7.55717 0 7.78983 0 8.02383C4.3594e-05 10.0301 0.753934 11.9632 2.11222 13.4397C3.4705 14.9163 5.33402 15.8286 7.33333 15.9958V11.3572Z" fill="white"/>
<path d="M12.7508 12.774C12.3006 12.3264 11.9436 11.7941 11.7004 11.2078C11.4571 10.6215 11.3324 9.99275 11.3334 9.35798H8.66677C8.13633 9.35798 7.62763 9.14726 7.25255 8.77219C6.87748 8.39712 6.66677 7.88841 6.66677 7.35798V5.35798H8.66677V2.69131H11.3908L12.6001 1.47998C11.562 0.750706 10.3653 0.278781 9.1089 0.103153C7.85246 -0.0724745 6.57226 0.0532314 5.37398 0.469895C4.1757 0.886559 3.09369 1.58223 2.21726 2.49949C1.34084 3.41676 0.695131 4.52931 0.333435 5.74531L4.60943 10.0246H6.66677C7.1972 10.0246 7.70591 10.2354 8.08098 10.6104C8.45605 10.9855 8.66677 11.4942 8.66677 12.0246V15.9966C10.6188 15.8352 12.4432 14.9615 13.7928 13.542L12.7508 12.774Z" fill="white"/>
<path d="M13.6593 11.7963L14.6287 12.5043C15.6729 10.9591 16.1445 9.09759 15.9619 7.24158C15.7793 5.38557 14.954 3.65168 13.6287 2.3396L11.9427 4.02493H10V6.6916H8V8.02493H12.6667V9.3516C12.6695 10.2641 13.0252 11.1401 13.6593 11.7963Z" fill="white"/>
</g>
<defs>
<clipPath id="clip0_402_678">
<rect width="16" height="16" fill="white" transform="translate(0 0.0244141)"/>
</clipPath>
</defs>
</svg>
